<svg id="Ebene_1" data-name="Ebene 1" xmlns="http://www.w3.org/2000/svg" viewBox="0 0 1280 800"><defs><style>.cls-1{fill:#332c69;}.cls-2{fill:#0b0c0d;}.cls-3{fill:#161311;}.cls-4{fill:#201a16;}.cls-5{fill:#0e0d0e;}.cls-6{fill:#464038;}.cls-7{fill:#1d1930;}.cls-8{fill:#412d7a;}.cls-9{fill:#695f5f;}.cls-10{fill:#094456;}.cls-11{fill:#5e4590;}.cls-12{fill:none;}</style></defs><title>bigwald</title><path class="cls-1" d="M166.62,585.82a11.25,11.25,0,0,1-1.16-.05l-.14,0h-.07l-.27,0c-.19,0-.39-.07-.58-.12a.5.5,0,0,0-.27,1,10.29,10.29,0,0,0,2.47.28.51.51,0,0,0,.5-.5.48.48,0,0,0-.48-.51Z"/><rect class="cls-2" x="-4.42" y="-1.57" width="1286.29" height="809.22"/><path class="cls-3" d="M1243.61,133.09c-15-8.35-30.36-17.07-38.12-28.63-7.3-10.92-7-23.13-9.54-34.85a81.46,81.46,0,0,0-7.43-20.08c31.46,21.61,51.29,49.74,55.53,78.92C1245.73,129.75,1245.6,131.87,1243.61,133.09Z"/><path class="cls-4" d="M896.12,34.34l-2.39,1.31a501.42,501.42,0,0,1-51.93-40l18.88-.06c3.44,1.55,8.77,1.59,12.29,3.24a14.6,14.6,0,0,1,3.85,2.87C887,11.47,893.69,22.73,896.12,34.34Z"/><path class="cls-4" d="M749,794a10.9,10.9,0,0,0-3.57-1.49l.18-.22c5-2.82,10.15-5.6,15.29-8.39q50.32-27.21,104.68-51.57c10.69-4.78,21.75-9.64,29-16.39,4.37-4.11,7.2-8.76,10.44-13.26A109.06,109.06,0,0,1,924.93,682l10.17,3.3a41.63,41.63,0,0,0-3.56,3.1c-8.87,8.76-9.42,19.67-15.4,29.3-9.67,15.66-32.63,26.78-55.91,35.76-13.08,5-26.71,9.66-38.39,15.86-10.1,5.34-18.53,11.78-28.9,16.9a126.05,126.05,0,0,1-36.47,11.14l-4.43.07A8.82,8.82,0,0,0,749,794Z"/><path class="cls-5" d="M1280.91-5.78l.59,135.25c-2.47-11.67-8.92-23.27-14.83-34.53A456.08,456.08,0,0,1,1242,39.14c-2.23-6.27-4.38-12.6-6.34-18.89-2.64-8.5-8.87-19.2-22.73-19.15l0-6.68Z"/><path class="cls-2" d="M33.08,796c9.52-2.38,19.32-4.3,29.3-5.78,5.51-.8,11.1-1.5,16.7-2.05,9.26-.91,18.79-1.47,27.1-4.1a82.23,82.23,0,0,0,13.8-6.2,75.78,75.78,0,0,1,12.49-5.61,79.32,79.32,0,0,1,8.4-2.15c4.79-1,9.71-1.78,14.36-3,7.4-2,14.48-5.75,15-10.64-14.87-1.68-26.46-8.57-36.78-15.27q-25.05-16.27-48.16-33.6l2.16-1.08a71.84,71.84,0,0,0,26.05-6.61,47.25,47.25,0,0,0,5.68-3.12c5.14-3.38,9.37-7.61,16.32-9.41,4.29-1.12,9.08-1.19,13.69-1.14,2.75,0,5.55.06,8.31.14,18.66.4,37.32,1.53,55.88.34,17.12-1.1,34.54-4.46,47.58-11.06a52.93,52.93,0,0,0,8.7-5.45,124,124,0,0,0,21.91,2c17.39.15,34.87-3.07,49-9.3l-.82-.68c-4.36-7.67-10.57-14.89-16.37-22.19-4.13-5.22-8.08-10.49-11.62-15.85l3.3-.83a122.38,122.38,0,0,1,42.81-3.16c.82.08,1.67.17,2.49.28,7.27.91,15.18,2.38,21.82.35,2.7-.85,4.91-2.22,7.4-3.27.36-.14.76-.28,1.12-.43,6.68-2.31,15.31-1.34,22.26-3.34,3.7-1.09,6.68-2.91,10.38-4a44.16,44.16,0,0,1,12.24-1.54c3.61-.06,7.32,0,10.88-.09,7.82-.25,16.89-2.39,18.46-7a6.52,6.52,0,0,1,3.66,1.14c2.13,1.44,3.22,4,5.39,5.7,3.4,2.67,9.81,3,15.42,2.86,20.77-.32,42-2.76,62,.72,13.74,2.36,26,7.41,40,9.17,17.85,2.27,36.27-1,53.29-5,8.31-1.92,16.66-4,25.15-5.59a122.8,122.8,0,0,1,22.94-2.27c10.07.05,20.06,1.69,30.13,1.54,17.17-.22,34.72-5.53,50.9-2.1l.37.14a302.88,302.88,0,0,1-30.28,27.26l.77.36c22.42,2.53,46.07-2.46,63.57-11.39a87.42,87.42,0,0,0,36.53-33.94c2.35,16.21-3.69,32.88-17.16,47l.19.48c13.32.89,26.74,1.36,40.16,1.37,7.81,0,15.63-.07,23.4-.35l.36.37c-1.45.51-2.84,1.05-4.24,1.56-43.59,16.64-78.61,40.38-120.75,58.34C680.93,735,568,745.27,466.17,730.43c-32.09-4.66-63.1-11.66-94.55-17.61-16.41-3.09-32.95-6-49.81-8-49.12-6.16-104-5.2-145,12.39l-2.26,1c4.13,4.57,13.12,6.66,21.66,7.37,22.64,1.85,45-3.5,67.61-5.55,4.33-.41,9.66-.43,12.06,1.8,1.59,1.41,1.37,3.28,1.33,5-.19,13.45,16.61,24.82,35,32.4,38.35,15.82,85.8,21,131.84,24.67a2763.87,2763.87,0,0,0,288.86,7.74c4.2-.1,8.81-.11,12.47.92A11.59,11.59,0,0,1,749,794a9,9,0,0,1,3.08,3.44c.23.42.41.84.64,1.27v1.81L5.37,804.22A276.9,276.9,0,0,1,33.08,796Z"/><path class="cls-3" d="M897.53,38.21c-1.27-.85-2.58-1.72-3.8-2.56l2.39-1.31c-2.43-11.61-9.1-22.84-19.3-32.62A15.28,15.28,0,0,0,873-1.15c-3.52-1.65-8.85-1.69-12.29-3.24l45.62-.17q29.6,16.32,59.19,32.61C948.67,24,930.59,19.82,913,22.47q65.28,29.91,130.46,59.81c15.65,7.16,31.4,14.38,44.52,23.3,10.46,7.12,19.52,15.4,32.91,20.25a231.05,231.05,0,0,0-14.74-31.92c39.38,12,76.07,27.35,108.69,45.63l1.89-1.25c14.88,5.43,29.81,10.87,44.68,16.31a501.38,501.38,0,0,0-28.8-114.42l9.39-1.07a456.88,456.88,0,0,0,24.65,55.81c5.91,11.26,12.36,22.85,14.83,34.52l.1,17.86.31,71.74h-3.34a71.71,71.71,0,0,0-2.91-19.92c-3.83-13.16-15.31-28.08-39.12-30.72l-1.44.77c-5.43-3.69-10.1-7.46-12-11.64-5.91,3.19-7.47,7.52-4,11.15l-.36.17c-1.81-1.4-3.76-2.78-5.84-4.08-10.86-6.69-24.83-10.95-38.58-15.09-6.37-1.93-15.55-3.43-19.33.37,8.24,6.51,14,14.23,16.69,22.4-8.23-4.47-16.51-8.89-24.75-13.36-4.71-2.53-9.82-5.19-16-5.63s-13.37,2.39-12.9,6.29c-8.19-4.5-16.43-9-24.62-13.55l2.89-1.9c-3.06-11.07-16.46-19.71-29.4-27.45Q1007.09,81,941.61,49.1C931.2,44,918.49,38.74,905.72,41l-1.45,1Z"/><path class="cls-6" d="M1053.66,606.1a655.83,655.83,0,0,1,59.13-46.05c7.93-5.51,16.14-11,23-17,17.57-15.45,26-34.42,45.93-48.78,8.84-6.36,19.8-11.76,26.87-18.88,10.17-10.29,10.9-22.65,13.85-34.64a26.55,26.55,0,0,0,2.1-7,67,67,0,0,0-2.1,7c-3.81,8.8-12.1,16.91-21.43,24.23-11.72,9.2-25.33,17.52-35.74,27.28-20,18.74-27.42,42.08-51.27,59.11-13.52,9.66-31.93,17-42,28.09-7.65,8.44-9.83,18.51-18.89,26.46ZM851.11,666.5c-26.75,9.86-47.8,24.4-68.36,38.71l-.31,1.07c.72.11,1.44.2,2.12.25a77,77,0,0,0,34.36-4.23c12.5-4.84,20.93-13,33.74-17.54C869.76,678.68,892,680,909,673.82c9.12-3.28,16-8.39,22.91-13.25,13.16-9.17,27.68-17.78,44.69-24.24,10-3.79,20.89-6.88,29.51-11.77,20.29-11.51,23.58-30.31,39.7-44,15-12.74,41-21.07,48.55-36a170.72,170.72,0,0,0-37,20.35c-13.21,9.74-23.34,20.91-36.14,30.84l-.81-.4A471.33,471.33,0,0,1,943,628.46c-7,2.31-14.08,4.51-20.76,7.1-16.56,6.52-30,15.64-46.55,22.22C867.77,660.94,859.19,663.48,851.11,666.5Zm-73.05,71.71.09-1a88.29,88.29,0,0,0,17.7-3.65c-23.93-9.08-55.18-6.58-82-1.1s-52.63,13.67-80.77,15.28c-21,1.22-42.33-1.31-63,1,12.3,6.71,30.55,7,47.13,7,29.86-.07,60.8-.3,88.11-7.71,10-2.68,19.31-6.3,29.74-8.28C748.83,737.11,763.65,737.63,778.06,738.21Zm-11.32-39.77c42.14-18,77.16-41.7,120.75-58.34,1.4-.51,2.79-1.05,4.24-1.56,28.47-10.44,59.8-18.08,86.95-29.75,35.51-15.26,62.32-36.63,88.28-57.73,10.13-8.26,20.27-16.52,30.28-24.8,3.6-2.9,7.12-5.82,10.59-8.71a1.62,1.62,0,0,0,.49-.4c28.89-21.68,68.32-38.65,90.47-63,7.2-7.94,12.42-16.52,20.61-24.15,6.22-5.76,14.06-11,19.2-17.07,7.47-9,8.38-19.42,9.17-29.46,1.3-16.56,2.51-33.53-6.39-49.22-.56-5.9-1.25-11.81-2-17.66-1.67-14.07-3.47-28.34-7-42.35l1.08-.08c.56-10.27,15.21-19.5,24.9-29.11,22.15-21.86,18-47.37-11-67.61-3.93-2.75-8.37-5.45-12.35-8.21l1.44-.77c23.81,2.67,35.29,17.56,39.12,30.72a71.71,71.71,0,0,1,2.91,19.92,75,75,0,0,1-6.91,31.25c-5.07,11.27-13,22.66-9.7,34.09,2.42,8.45,10.62,15.86,20.36,22.7l.55,124h-1.8c-23.8,15.87-33.63,37.27-46.13,57.6-8.49,13.91-18.3,27.34-34.62,38.16-15.28,10.16-35.32,17.26-51.82,26.72-21.51,12.31-36.68,28.64-42.86,46.12l.18.09c-.23.17-.45.31-.68.45l6.66,6.43c-26.11,14.52-53.9,27.75-86.12,36.41-17,4.57-34.94,7.77-51.37,13-19.45,6.22-36.13,15.23-49.38,25.87A109.06,109.06,0,0,0,905,702.69c-3.24,4.5-6.07,9.15-10.44,13.26-7.25,6.75-18.31,11.61-29,16.39q-54.27,24.25-104.68,51.57l-2.18-1.49-55.47.34c41.25-12,79.33-28,112.47-47.18-20.47,10.29-44.35,17.71-68,25-18,5.57-36.11,11.19-55.57,14.47-59,9.94-121-2.68-182-5.86-33.79-1.76-68-.58-101.65-3.28s-67.88-9.91-90.37-25.25c-2.31-1.57-4.62-3.46-4.36-5.58s3.06-3.74,5.77-5.13c15-7.71,32.8-13.39,51.76-16.53l.32-.59c31.45,6,62.46,12.95,94.55,17.6C568,745.27,680.93,735,766.74,698.44Z"/><path class="cls-5" d="M1244.05,128.45c-4.24-29.16-24.07-57.31-55.53-78.92A81.91,81.91,0,0,1,1196,69.61c2.52,11.72,2.24,23.93,9.54,34.85,7.76,11.56,23.15,20.28,38.13,28.63C1245.6,131.87,1245.73,129.75,1244.05,128.45ZM1127.58,92.37c-8.47-8.65-17-17.39-28.22-24.73-11.63-7.71-26.11-13.86-35.48-22.65C1071.32,56.81,1079,69.26,1077,81.9c8.62-2.37,18.7-1.61,27.34.71S1120.29,88.66,1127.58,92.37ZM977.33,17.64c21.4,10.85,41,23.17,64.07,32.6a88.9,88.9,0,0,0-13.28-30c30.68,4.49,56.6,17.07,79.32,30.68S1150.89,79.61,1176.5,91c-7.46-30.19-26-59.3-53.79-84.4,28.24,2.09,48.21,17.4,69,29.49a10.39,10.39,0,0,0,5.2,1.77,8.15,8.15,0,0,0,5.42-2.36c7.56-7,7-18.37,19.67-21.18q5.67,12.92,10.61,25.89a500.6,500.6,0,0,1,28.8,114.42l-44.68-16.32-1.89,1.25c-32.62-18.27-69.31-33.68-108.69-45.63a230.63,230.63,0,0,1,14.74,31.93c-13.39-4.85-22.45-13.14-32.91-20.25-13.12-8.92-28.87-16.14-44.52-23.3Q978.28,52.43,913,22.53c17.57-2.65,35.65,1.5,52.47,5.58Q935.9,11.79,906.3-4.5l5.87,0C936.31-1,958,7.81,977.33,17.64Zm36,30.39c-8.24-5.8-17.2-11.85-29.18-13.93,12.78,11.86,30,21.84,49.78,29l.54-.34C1027.37,57.85,1020.36,53,1013.29,48Z"/><path class="cls-5" d="M1167.35-5.41l45.58-.14,0,6.67h-.09c-12.38.13-20.53,9.45-32.9,10C1175.74,5.65,1171.57.09,1167.35-5.41Z"/><path class="cls-3" d="M1093.15,2.17c-3.53-1.74-8.4-2-12.92-2.08-9.81-.28-19.65-.57-29.46-.87,25.72,21,62.76,35.31,91.82,54.41l.14-.09q-22.23-23.67-44.55-47.32A17.48,17.48,0,0,0,1093.15,2.17ZM977.33,17.64C958,7.81,936.31-1,912.17-4.57l255.18-.84c4.22,5.5,8.39,11.06,12.61,16.56,12.37-.58,20.52-9.9,32.9-10h.09c13.86,0,20.09,10.65,22.73,19.15,2,6.3,4.11,12.63,6.34,18.9l-9.39,1.07c-3.28-8.64-6.83-17.31-10.61-25.89-12.68,2.84-12.11,14.23-19.67,21.18a8,8,0,0,1-5.42,2.36,10.39,10.39,0,0,1-5.2-1.77C1170.92,24,1151,8.75,1122.71,6.63c27.77,25.1,46.33,54.21,53.79,84.4-25.61-11.42-46.34-26.51-69.06-40.15s-48.64-26.19-79.32-30.68a88.9,88.9,0,0,1,13.28,30C1018.33,40.78,998.73,28.46,977.33,17.64Z"/><path class="cls-3" d="M1013.29,48l21.14,14.75-.54.34c-19.8-7.15-37-17.16-49.78-29C996.09,36.18,1005.05,42.26,1013.29,48Z"/><path class="cls-4" d="M905.72,41c12.77-2.21,25.48,3.06,35.89,8.15Q1007,81,1066.9,116.86c12.94,7.77,26.34,16.4,29.4,27.45l-2.89,1.9Q998.8,94.08,904.27,41.92Z"/><path class="cls-7" d="M868,637.73c29.72-30.59,59.2-63.52,58-99q5,25.2,10,50.45c47.18-22.42,60.93-62.88,53.64-98.81,13.81,25.42,22,52,24.18,78.76,14.33-10.73,15.73-25.58,16.46-39.31,1.79-33.39,2.5-69.15-23.2-98.07,20.61,20.54,39.83,41.79,49.57,65,2.18,5.22,4,10.61,8.67,15.15s13.22,8.13,22,7.34c5.64-.5,9.79-2.43,12.77-5.19l7.78,3.46c-3.75,2.84-7.26,5.7-10.59,8.71-10,8.28-20.15,16.54-30.28,24.79-26,21.11-52.77,42.48-88.28,57.74-27.15,11.67-58.48,19.31-86.95,29.74l-.36-.36c-7.77.28-15.59.38-23.4.35Z"/><path class="cls-8" d="M61.38,787.74c1.39-3.31-1.52-6.67-4.32-9.63Q30.94,750.51,4.8,723a77,77,0,0,0-.87,8.54l-9.63,0,.47-54.13H4.12c0,2.29,2.37,4.74,4.72,6.74Q64.41,731,120,777.86a86.48,86.48,0,0,1-13.8,6.21c-8.31,2.62-17.84,3.19-27.1,4.1-5.6.52-11.19,1.24-16.7,2.05Z"/><path class="cls-3" d="M1127.58,92.37c-7.29-3.71-14.7-7.44-23.29-9.76s-18.72-3.08-27.34-.71c2-12.64-5.63-25.09-13.07-36.91,9.37,8.79,23.85,15,35.48,22.65C1110.54,75,1119.11,83.72,1127.58,92.37Z"/><path class="cls-5" d="M1098.18,6.22q22.29,23.69,44.55,47.32l-.14.09c-29.06-19.13-66.1-33.46-91.82-54.41,9.81.3,19.65.59,29.46.87,4.52.15,9.39.36,12.92,2.08A17.48,17.48,0,0,1,1098.18,6.22Z"/><path class="cls-2" d="M252.13,29.61c-8.65,6.3-12.24,14.59-14.75,22.68a127.32,127.32,0,0,0-5.29,27.21,71.45,71.45,0,0,1-3.22-33.66c1-6.87,3-13.94-.78-20.43-4.23-7.14-14.72-12.28-25.17-16.66-10.81,11.46-13.84,25-12.44,38.06s7,25.84,12.54,38.49c-6.51-.18-11.13-3.67-14.8-6.85q-12.69-11-25.31-21.89c-6.62-5.69-13.36-11.49-22.86-15.5-6.7-2.87-14.56-4.68-22.47-6.1a172.83,172.83,0,0,0-30.5-2.79,5.54,5.54,0,0,0-2.67.46,1.52,1.52,0,0,0-.62,1.56c.47,7.86,1,15.91,5.49,23.3C95.36,67.62,108.94,76,125.71,80.22c6.69,1.65,13.79,2.67,20.3,4.54s12.53,4.91,14.44,9c2.36,5.08-2,10.33-6.46,14.92q-9.87,10.25-20.72,20.13c-7,6.38-14.42,12.71-23.66,18a74.34,74.34,0,0,1-29.83,9.93c-19.51,1.87-38.05-5.06-53.66-12.13-8.95-4.08-18.14-8.63-21.73-15a12.42,12.42,0,0,1-1.64-6.15c0-5.17,3-10.41,7.14-15.12,5.71-6.54,13.33-12.53,18-19.33,3.05-4.5,4.76-9.43,3.52-14.2-1.37-5.31-6.13-10-10.61-14.64A282.81,282.81,0,0,1,.32,36.53L.65-1.62,841.8-4.39a497.29,497.29,0,0,0,51.93,40c1.22.85,2.53,1.72,3.8,2.56,2.26,1.24,4.48,2.48,6.74,3.71Q998.82,94,1093.41,146.15c8.19,4.53,16.43,9,24.62,13.55,1.22.7,2.49,1.38,3.71,2.08l-.45.31c-3.37,6-6.79,12-10.16,18-3.05,5.41-6.11,10.84-10.52,15.92-8.42,9.66-21.36,17.53-34.12,25.2-6.17,3.72-12.76,7.62-21.07,9.11l-2.39,0c-20.51-14.3-42.87-29.33-73.1-34.24-15.41-2.52-31.72-2.13-47.62-1.24a730,730,0,0,0-88.19,10.25l-.22-.39c6.72-1.35,12-5.1,13.11-9.34a10.72,10.72,0,0,0-.83-7C843,181,834.93,174.33,824,170.32l-.9.6c-10,1-18.64,6.13-20.42,12.16-.9,3-.3,6.13-2.19,8.94-5.95-10.22-21.06-17.8-38-21.34s-35.43-3.34-53-1.45c3.73,10.33,13.93,19.8,28,26-11.69,2-23.52,4.11-33.9,7.91s-19.35,9.61-22.17,16.74a.87.87,0,0,0,0,1.07,2.34,2.34,0,0,0,1.18.42q19.26,4.53,38.51,9c-7.71,2.51-15.52,5-22.15,8.52s-11.9,8.12-13.28,13.35a1.81,1.81,0,0,0,.32,1.84,6.12,6.12,0,0,0,2.94,1,123.62,123.62,0,0,0,45.88-2.26c-4.77,4.85-9.54,9.75-12.64,15.07s-4.4,11.15-2,16.6c7.86-.36,14.9-2.93,21.21-5.77,22.29-10.08,39-24,52.87-38.58,9.39,10.55,6.49,24.41,18.63,33.89,7.51,5.89,19.36,8.91,30.7,11.73,7.24-11.84,12.12-25.2,4.09-36.82-4-5.84-11-10.71-16.8-15.92S820,221.83,820.65,215.5l0-.17a389.87,389.87,0,0,1,113.84-.23c.54.08,1.08.16,1.62.27,15.59,2.42,31.55,6.32,40.48,14.35,7.33,6.57,8.76,14.87,9.05,22.79,1,27.3-11.75,57.13-48.42,73.15l-12.42.95c-61.58-1.09-122.76-9-179.59-23-18.85-4.69-37.3-10.09-53.81-17.25-32.43-14.06-55.84-34.17-85-50.56-28.73-16.11-67.71-29.08-106.27-24.35,7.12-5.65,13.74-11.55,20.36-17.39,12.89-11.37,25.77-22.78,36.44-35,12.38-14.26,21.82-29.8,38.86-42s44.7-20.57,68.84-14.82l.4.06c-1.8,1.19-3.56,2.41-5.18,3.71-15.32,12.09-21.69,28.28-16.58,43.19,3.83,11.24,13.8,22,11.94,33.48,10.53-10.46,30.3-16.31,42.38-26.16,17.62-14.41,15.57-34.05,12.67-51.85,9.89-1.67,19.83,1.36,27.26,5.94l-.68.43c4.72,6.77,9.48,13.51,14.38,20.25,6.22,8.63,13.34,17.74,26.63,22.75,14.07,5.3,31.86,4.91,48.4,6,24.8,1.57,48.9,6.84,69.43,15.25,4.4-8.83-.24-18.28-5-27.06-6-11-12.44-22.21-23.63-31.5l1.81-.8c18.52,1.19,37.76-2.26,52.19-9.43C888.63,81,831.27,68.26,779.29,75c25.14-6.38,45.61-19.21,55.28-34.59-37,.87-79.25-5.53-107.26,9.12-12.85,6.71-20.18,16.9-34.4,22.52-16.51,6.46-36,4.88-56.09,2.85-16.85-1.7-34.12-3.71-50.19-1.54-12.73,1.7-24.06,6-35.11,10.17q-56.39,21.38-112.8,42.77c-40.39,15.3-80.9,30.72-117.17,49.4-19.89,10.29-38.37,21.46-56.27,33-12.12-4.63-17.52-13.6-21.25-22-2.28-5.08-4.24-10.27-3.71-15.53.48-4.67,2.91-9.17,5.42-13.58,6.16-11,13.44-22.38,28.28-29.66,7.9-3.89,17.42-6.32,26.94-8.53q22.43-5.16,45.69-8.76c16.21-2.51,32.69-4.51,48.31-8.12S425.47,93.3,435.16,85l-29.34-7c-7.91-1.93-16.09-3.85-24.63-3.88-14.82,0-27.86,5.56-39.77,10.94l-42.49,19.21-.23-.08c7.43-8.7,19.88-15.44,32.55-21.61s26-12.15,35.9-20,16-18.11,11.93-27.65c-20.54,4.25-37.91,12.75-53.64,21.84s-30.35,18.92-47.8,26.72c2.64-7.61,8.49-14.81,16.78-20.77,5.32-3.81,11.68-7.16,15.78-11.5a20,20,0,0,0,5.27-17.34c-.83-5.93-3.64-11.72-6.46-17.42a3.49,3.49,0,0,0-2.18-2.06,8.45,8.45,0,0,0-3.43,0C284.62,17.24,264.53,20.58,252.13,29.61Z"/><path class="cls-9" d="M1243,491.1c-9.57,16.48-13.22,35.29-33.64,47.62-10.55,6.37-24.46,10.28-36,15.94-7.89,3.84-14.61,8.52-21.23,13.12l-46.25,32.06-.18-.09c6.18-17.48,21.35-33.81,42.86-46.12,16.5-9.46,36.54-16.56,51.82-26.72,16.32-10.82,26.13-24.25,34.62-38.16l8.32,1.87C1243.17,490.79,1243.08,490.93,1243,491.1Z"/><path class="cls-8" d="M1006.69,431.39a93.06,93.06,0,0,0-8.52-8.42C1001,425.76,1003.88,428.57,1006.69,431.39Zm-47.58-18.82C958.4,399.77,953,387,942.2,376c-11.56-11.75-29.29-21.36-50.49-26.16-13-2.93-27.48-4.24-38.2-9.55l25.11,15.44c7.47,4.56,15,9.2,23.94,12.65,5.11,2,10.63,3.61,15.83,5.52C940.68,382.13,956.08,396.84,959.11,412.57ZM835.39,533.28a175.42,175.42,0,0,1,13.33-44.17c15.79,23.87,22,50,17.94,75.67,7.25-8.64,7.4-18.79,7.41-28.48q0-34.72,0-69.43c20.52,16.73,37.29,35.14,49.54,54.6.47-25-7.06-49.72-14.59-74.29,16.29,9.36,30.42,20.12,41.75,31.84.25-20.72-10.74-41.4-30.89-58.08,23,10.84,42.26,24.64,56,40.2-8.29-21.54-25.7-41.31-43-60.78-4.8-5.45-9.74-11-16.94-15.39-6.61-4.05-14.84-6.93-23-9.82q-42-14.75-84.06-29.53C763.67,329.73,718,313.67,679,292.56a398,398,0,0,0,50.53,38.68c14.4,9.34,30,18.34,39.66,29.73,11.84,14,13.56,30.35,24.13,44.67,7.21,9.82,18.48,18.46,24.88,28.5,6.86,10.72,7.84,22.42,8.73,33.9,1.74,21.76,3.48,43.46,5.22,65.22ZM725.67,356.64l.14-.09c-20.68-12.2-31.94-28.9-46.21-44.09-16.18-17.25-36.69-33-60.63-46.48,15.21,25.81,40.72,49.11,71.13,69.43C701.28,342.83,713.19,350,725.67,356.64Zm-212.48-72c.65,4.95,3.87,9.74,9.12,13.54,2.22,1.61,6.79,3,8.81,1.25,1-.91.58-2.15,0-3.19-3.22-5.45-9.51-10.24-17.61-13.35Zm-39.89-2.08c-15-2.07-30-4.15-44.92-6.25a109,109,0,0,1,15-21.36c7.59-.53,15.19,1.79,21.7,4.74,6.88,3.12,13.08,7,20.31,9.72a28.46,28.46,0,0,0,8.37,1.92,26.9,26.9,0,0,0,7.45-.87c11.15-2.6,20.21-8.57,30.9-12,16.61-5.34,35.63-4.21,53.7-3l1.54-.49c-7.12-7.55-18.79-13.51-31.86-17.79-13.83-4.54-29.2-7.35-44.66-9.7-9.13-1.39-18.39-2.66-27.79-3.42,1.67-1.14,3.34-2.24,5-3.38,4.19-2.95,8.25-6,12.08-9.14,38.56-4.72,77.54,8.24,106.27,24.35,29.19,16.39,52.6,36.5,85,50.57,16.5,7.15,34.95,12.55,53.8,17.24,56.83,14.1,118,21.95,179.59,23l12.42-.94c36.67-16,49.46-45.86,48.42-73.16-.29-7.91-1.72-16.22-9.05-22.78-8.93-8-24.89-11.94-40.48-14.35l.23-.54c29.05,1.78,52,14.31,72,26.46,18.15,11,36.16,22.53,46.28,36.47s11.12,30.94-3.8,43.48c-10.23,8.6-27.87,15.77-27.29,26.09.09,1.41.46,2.91-.85,4.13-3,2.69-10.16,1-14.86-.72-22.48-8.1-51.57-10-76.72-4.91,33.37,10.24,67.55,20.88,92,37.4,8.24,5.6,15.53,11.91,26.52,15.72,7.65,2.63,16.55,3.82,25,5.52l-4.22,6.12q8.9,7.47,16.67,15.38c.81,1.35,1.59,2.73,2.27,4.06,11,21.42,16.89,43.82,17.5,66.26.16,6-1.49,13-6.68,17.69-3,2.75-7.12,4.65-12.76,5.18-8.76.79-17.31-2.8-22-7.34s-6.49-9.93-8.67-15.15c-9.74-23.23-29-44.49-49.57-65,25.7,28.95,25,64.68,23.2,98.07-.73,13.74-2.13,28.58-16.46,39.31-2.21-26.76-10.37-53.34-24.18-78.76,7.29,35.93-6.46,76.39-53.64,98.81q-5-25.22-10-50.45c1.23,35.44-28.25,68.37-58,99v.79c-13.42,0-26.84-.48-40.16-1.37l-.19-.48c13.47-14.15,19.51-30.81,17.16-47a87.8,87.8,0,0,1-36.53,33.94c-17.5,8.93-41.15,13.92-63.57,11.39l-.77-.36a299.24,299.24,0,0,0,30.28-27.26c29.44-30.67,47.5-65.24,42.15-100.13-.32-2-.69-4-1.19-6-2.29-10.28-6.34-20.45-10.71-30.53-1.32-3-2.64-5.95-4-8.91C787,433,768.78,404.39,734.16,383.3c-19.24-11.73-42.75-20.59-62.8-31.84-22.44-12.59-40.33-28.14-52-45.26-7.3-10.58-13.44-22.72-29.81-28.49-16.78-5.94-37.86-2.94-56.6.4,7.37,2,14,5.16,17.38,9.44,9,11.28-6.57,24.73-2.15,36.93-2.27-4.27-9.37-6.73-15.43-9.4-9.55-4.21-17.42-9.7-22.82-15.95l-10.6,18a17,17,0,0,1-4.73,5.81c-3.24,2.41-8.25,3.73-12.68,5.35-7.13,2.68-12.94,6.32-18.71,10l-17.32,10.85c-9.65-10.68-9.69-23.8-3.58-35.43S460.13,291.84,473.3,282.53Zm15,.3c-12,10.91-19.62,23.57-21.84,36.61q14.4-13.37,28.7-26.77c1.66-1.53,3.37-3.21,3.46-5C498.69,284.63,493.08,282.25,488.29,282.83Z"/><path class="cls-7" d="M435.58,608.18a45.32,45.32,0,0,0-12.24,1.54c-3.7,1.11-6.68,2.93-10.38,4-6.95,2-15.58,1-22.26,3.34-.36.15-.76.29-1.12.43l-2.13-1.41q-1.65-6.48-3.29-13c-3-11.78-6.13-23.81-15.29-34.32-1.72-2-5.43-4.14-8.41-2.86a4,4,0,0,0-2,1.95c-1.8,3.43-1.69,7.05-1.55,10.64.45,13.39.94,26.76,1.39,40.19l-.45,1.44a123.33,123.33,0,0,0-42.81,3.15l-3.3.83c-6.8-10.07-12.3-20.39-15.59-31.07-5.06-16.35-4.66-33.56,4.37-49.31,2.61-4.56,6-9,7.41-13.73,1-3.51,1-7.07,1.19-10.63,1.57-32.91,18.77-65.49,49-92.92,18.3-12.41,36.78-25.44,45.54-41.43A54.54,54.54,0,0,0,409,370.8l.28,0c20.86-2.95,40.31-8.09,60-12.73,14.8-3.47,30.06-6.71,45.91-8.45l.09.42q-29.37,13-58.73,26c-10.69,4.7-21.75,9.7-27.42,16.9-6.34,8.13-4.69,17.6-7.28,26.42-2.1,7.13-7.09,14-14.44,19.72-4.14,3.29-9.33,6.53-10,10.66-.67,3.59,2.24,7,4.23,10.39,7.36,12.36,2.8,27-11.49,36.92-6.18,4.29-14,7.76-18.8,12.61s-5.39,12,2,15.45c2.26,1.07,5.2,1.71,6.79,3.18s1.36,3.24,1,4.94c-1.29,6.17-4.48,12.25-4.55,18.5s3.74,13.07,12.83,16c2.58.86,5.74,1.45,7.14,3,1.64,1.8.24,4-.43,6-2.06,6,3.25,12.63,12.24,15.34,3.06-3.94,14-4.2,17.49-.42s1.43,10.74,8.7,11.36a6.61,6.61,0,0,0,.77,0Zm-101.14-27.7a42.88,42.88,0,0,1,8.27-15.77c2.38-3,5.26-6,6.56-9.2,1.39-3.46.89-7,.51-10.61a157.06,157.06,0,0,1,5-58.89,25.32,25.32,0,0,0,2.1-7.13c-.76,2.38-1.47,4.75-2.1,7.13-7.22,15.77-28.73,29.51-28.95,46-.07,5.51,2.29,10.93,2.63,16.44.57,11-6.3,23.43,5.11,31.93Z"/><path class="cls-4" d="M1284.39,781.13l.1,16.76-124.27.63v-.65c9.25-3,18.78-5.71,28.53-8C1219.08,782.6,1252.09,778.94,1284.39,781.13Z"/><path class="cls-10" d="M1284.35,766.12l0,15c-32.3-2.19-65.31,1.45-95.64,8.69-9.75,2.32-19.28,5-28.53,8v.65l-83.7.4v-.23A298.62,298.62,0,0,1,1156.29,769c40.77-9,86.34-10.53,127.74-2.85Z"/><path class="cls-4" d="M1284.31,753.85l0,12.27H1284c-41.4-7.68-87-6.15-127.74,2.85a298.62,298.62,0,0,0-79.77,29.72v.23l-75.8.4v-.2c7.3-6.58,16.13-12.71,24.84-18.65,9-6.19,18.07-12.32,27.09-18.51a55.29,55.29,0,0,1,10.82-6.19c4.47-1.77,9.61-2.69,14.76-3.58,30.57-5.18,62.13-8.59,93.84-8.48,37.68.11,74.73,5.11,111.47,10.11h.77v0Z"/><path class="cls-4" d="M1284.31,753v.88h-.77c-36.74-5-73.79-10-111.47-10.12-31.71-.1-63.27,3.31-93.84,8.49-5.15.89-10.29,1.81-14.76,3.58a53.81,53.81,0,0,0-10.82,6.19c-9,6.19-18.08,12.32-27.09,18.51-8.7,6-17.54,12.07-24.84,18.65v.2l-82.44.39v-1c5.46-3.58,8.83-8.51,3.94-12S906.08,783.44,904,779c-1.14-2.43,1.34-4.9,3.82-7,26-21.36,64.17-36.15,103.47-47.94s80.57-21.16,118.57-34.45l.07-4.55a678,678,0,0,1,152.51,17h1.58l0,6.33h-.49c-18.67-2.94-37.7-5.48-57-5.76s-39.12,1.87-55.81,7.8c7.15,4.78,17,7.75,26.59,10.52C1228.22,729.8,1260.64,738.12,1284.31,753Z"/><path class="cls-10" d="M1284.08,708.34l.23,44.63c-23.67-14.85-56.09-23.17-86.92-32.07-9.63-2.77-19.44-5.73-26.59-10.52,16.69-5.93,36.47-8,55.8-7.8s38.32,2.8,57,5.76Z"/><path class="cls-10" d="M1174.92,641.09q11-.89,21.95-1.42c2.48-.15,5-.27,7.5-.36,27.41-1.13,55.83-.43,79.43,7.75l.26,54.92h-1.58A677.46,677.46,0,0,0,1130,685c-4,0-8,0-12,.09-14.45.24-29,.94-43.32-.41s-28.56-5.08-37.3-12C1076.08,653.75,1125.33,645,1174.92,641.09Z"/><path class="cls-10" d="M1283.48,571.91l.32,75.15c-23.6-8.18-52-8.88-79.43-7.75l-.19-2c2.85-14.9,17.8-28,34.85-38.88C1253.32,589.27,1269.42,581.22,1283.48,571.91Z"/><path class="cls-4" d="M1283.45,560.4l0,11.51c-14.06,9.31-30.16,17.36-44.45,26.5-17,10.91-32,24-34.85,38.89l.19,2c-2.53.1-5,.22-7.5.37-7.32.39-14.63.83-21.95,1.42,16.32-26.34,50.81-46.93,84.32-66.51C1267.31,569.86,1275.33,565.12,1283.45,560.4Z"/><path class="cls-6" d="M938.25,725.48c36.77-16.08,74.39-32.7,98.85-55.81a191.65,191.65,0,0,1-45.26,14.94c-7.32,1.5-14.9,2.65-21.67,4.88s-12.81,5.8-14.56,10.36c-.81,2.18-.58,4.46-1.43,6.64-1.48,3.94-6.12,7.12-10,10.41C941.21,719.45,938.51,722.46,938.25,725.48Zm344.69-273.22.51,108.14c-8.12,4.69-16.14,9.46-24.21,14.18-33.51,19.58-68,40.18-84.32,66.51-49.59,3.86-98.84,12.66-137.54,31.54,8.74,7,23,10.64,37.3,12s28.87.65,43.32.41c4-.07,8-.11,12-.09l-.07,4.55c-38,13.29-79.3,22.65-118.57,34.45s-77.48,26.58-103.47,47.94c-2.48,2.07-5,4.54-3.82,7,2,4.48,13.2,4.31,18.18,7.8s1.52,8.42-3.94,12v1l-78.23.4V798.2c25.43-15.54,48.73-32.4,68.42-50.69-35.1,14.69-62.82,35.24-96.24,51.08v1.59l-59.53.29v-1.81c-.23-.42-.41-.85-.64-1.27l4.43-.07a126,126,0,0,0,36.47-11.13c10.37-5.12,18.8-11.56,28.9-16.91,11.68-6.2,25.31-10.82,38.39-15.86,23.28-8.95,46.24-20.1,55.91-35.76,6-9.63,6.53-20.54,15.4-29.3a35.54,35.54,0,0,1,3.56-3.09c9.06-6.84,22.6-11.26,36.37-14.3,15.66-3.47,32.23-5.47,47.53-9.53,19.82-5.26,36.82-13.71,52.61-22.66,28-15.8,53.11-33.4,74.87-52.44-11.37,6.82-22.82,13.67-34.68,20.29l-6.66-6.42c.23-.17.45-.32.68-.46q23.12-16,46.25-32c6.62-4.6,13.34-9.28,21.23-13.12,11.59-5.66,25.5-9.55,36-15.94,20.42-12.33,24.07-31.14,33.64-47.62.09-.17.18-.31.27-.45C1251.75,476.32,1265.4,463.14,1282.94,452.26Z"/><path class="cls-9" d="M1282.88,431.17l.06,21.09c-17.54,10.88-31.19,24.06-39.68,38.36l-8.32-1.87c12.5-20.33,22.33-41.73,46.13-57.6l1.81,0Z"/><path class="cls-9" d="M1281.91,219.07l.41,88.07c-9.74-6.86-17.94-14.27-20.36-22.69-3.28-11.44,4.63-22.82,9.7-34.09a75,75,0,0,0,6.91-31.25l3.34,0Z"/><path class="cls-4" d="M1247.45,177.42c29,20.21,33.16,45.72,11,67.61-9.69,9.58-24.34,18.84-24.89,29.11l-1.09.08a148.26,148.26,0,0,0-8.8-26l.5-.09c1.15-8.48,12.78-14.79,17.37-22.78,4.18-7.19,2.3-15.18-.25-22.67-4.15-12-10.42-24.25-22.6-33.76l.36-.17c-3.44-3.67-1.88-8,4-11.15,1.91,4.18,6.58,8,12,11.64C1239.08,172,1243.52,174.67,1247.45,177.42Z"/><path class="cls-9" d="M1241.38,334.23c8.9,15.69,7.69,32.66,6.39,49.22-.79,10-1.7,20.42-9.17,29.46-5.14,6.15-13,11.31-19.2,17.07-8.19,7.63-13.41,16.18-20.61,24.15-22.15,24.34-61.58,41.34-90.47,63,7.71-6.3,15.32-12.62,22.94-18.95,5.27-4.37,10.49-8.74,15.72-13.13q15-12.52,29.83-25.05c9.6-8.12,19.24-16.32,27.93-24.79,10.9-10.55,20.35-21.58,26.69-33.35C1243.1,380.19,1243.39,357.15,1241.38,334.23Z"/><path class="cls-6" d="M1241.3,202.66c2.55,7.48,4.43,15.47.25,22.67-4.59,8-16.22,14.32-17.37,22.77l-.5.09a116.29,116.29,0,0,0-22.37-32.95c-8.61-9-19.11-17.1-30.65-24.78-14.35-9.53-30.28-18.36-46.07-27.08-.95-.5-1.9-1.06-2.85-1.54-1.22-.7-2.49-1.38-3.71-2.08-.47-3.9,6.71-6.78,12.9-6.29s11.25,3.1,16,5.63c8.24,4.47,16.52,8.89,24.75,13.36-2.69-8.17-8.45-15.89-16.69-22.4,3.78-3.77,13-2.27,19.33-.37,13.75,4.17,27.72,8.43,38.58,15.09,2.08,1.3,4,2.68,5.84,4.08C1230.88,178.41,1237.15,190.63,1241.3,202.66Z"/><path class="cls-2" d="M1241.38,334.23c2,22.92,1.72,46-10,67.65-6.34,11.8-15.79,22.8-26.69,33.35l-1.09-.42c-14.35-12.28-34-21.72-51.77-32.21s-34.18-22.79-39.19-37.64c-2.42-7.12-2-14.5-1.33-21.77,4.94-52.41,24.93-104.29,58.89-152.47l.41-.23c11.54,7.68,22,15.82,30.65,24.78a115.87,115.87,0,0,1,22.37,32.95,148.92,148.92,0,0,1,8.8,26c3.48,14,5.28,28.3,7,42.35C1240.13,322.42,1240.82,328.33,1241.38,334.23Z"/><path class="cls-9" d="M1222.42,440.74c-3,12-3.68,24.35-13.85,34.64-7.07,7.12-18,12.52-26.87,18.88-19.92,14.36-28.36,33.33-45.93,48.78-6.84,6.05-15,11.5-23,17a659.47,659.47,0,0,0-59.13,46.05l-.54-.22c9.06-7.92,11.24-18,18.89-26.46,10-11.11,28.45-18.43,42-28.08,23.85-17,31.27-40.38,51.27-59.12,10.41-9.76,24-18.08,35.74-27.27C1210.32,457.68,1218.61,449.57,1222.42,440.74Z"/><path class="cls-7" d="M785.93,208.6l.46-.2c-3.55-7.09-7.19-14.34-14.3-20.34s-18.55-10.68-30.79-10.36A241.75,241.75,0,0,1,785.93,208.6Zm25.71,32.06-.44.7c4.23,10.28,11.53,20.12,21.4,28.88,4.23-5.83,4-12.73-.55-18.45C828,246.66,820.46,242.58,811.64,240.66Zm9-25.24,0,.16c-.62,6.31,4.42,12.32,10.31,17.53s12.81,10.08,16.8,15.92c8,11.62,3.15,25-4.09,36.81C832.33,283,820.48,280,813,274.12c-12.14-9.46-9.24-23.35-18.63-33.89-13.91,14.54-30.58,28.5-52.87,38.57-6.31,2.85-13.35,5.41-21.21,5.78-2.37-5.42-1-11.28,2-16.6s7.87-10.23,12.64-15.08a122.36,122.36,0,0,1-45.88,2.26,6,6,0,0,1-2.94-.95,1.79,1.79,0,0,1-.32-1.84c1.38-5.23,6.7-9.82,13.28-13.35s14.44-6,22.15-8.52q-19.25-4.47-38.51-9a3.09,3.09,0,0,1-1.18-.42.88.88,0,0,1,0-1.08c2.82-7.1,11.79-12.92,22.17-16.74s22.21-5.89,33.9-7.9c-14.11-6.24-24.31-15.7-28-26,17.61-1.89,36.13-2.06,53,1.45s32,11.13,38,21.34c1.89-2.83,1.29-6,2.19-8.94,1.78-6,10.4-11.17,20.42-12.16l.9-.59c10.9,4,19,10.68,22.15,18.16a10.66,10.66,0,0,1,.83,7c-1.16,4.24-6.39,8-13.11,9.34l.22.4A728,728,0,0,1,922.31,195c15.9-.9,32.21-1.29,47.62,1.24,30.23,4.91,52.59,19.93,73.1,34.23l2.4,0c8.3-1.5,14.89-5.39,21.06-9.11,12.76-7.7,25.7-15.54,34.12-25.21,4.41-5.07,7.47-10.48,10.52-15.92,3.37-6,6.79-12,10.16-18l.45-.31c1,.47,1.9,1,2.85,1.54,15.79,8.69,31.72,17.54,46.07,27.08l-.41.23c-34,48.18-54,100.06-58.89,152.47-.7,7.27-1.09,14.65,1.33,21.77,5,14.85,21.49,27.15,39.19,37.64s37.42,19.93,51.77,32.21l1.09.42c-8.69,8.47-18.33,16.67-27.93,24.79q-14.86,12.54-29.83,25.05l-.63-.29c-8.6-21.06-21.41-41.57-38.09-61-4.89-5.72-10.42-11.53-19.47-15.23a80.83,80.83,0,0,0-14.29-4c-8.4-1.7-17.31-2.89-25-5.52-11-3.78-18.28-10.12-26.52-15.72-24.44-16.52-58.62-27.16-92-37.4,25.15-5.08,54.24-3.19,76.72,4.91,4.7,1.71,11.89,3.41,14.86.72,1.31-1.22.94-2.72.85-4.13-.58-10.32,17.06-17.52,27.29-26.09,14.92-12.54,13.91-29.52,3.8-43.48s-28.13-25.5-46.28-36.47c-20-12.12-42.94-24.68-72-26.46l-.23.54c-.54-.11-1.08-.2-1.62-.28A389.87,389.87,0,0,0,820.6,215.42Zm-106.38,30,1.13,1,32.1-6.46c10.79-2.15,22.75-5,27.3-11.25-12.89-3.24-27,2-38.33,7C729,238.9,721.62,242.17,714.22,245.42Z"/><path class="cls-11" d="M1147,485.07c-5.23,4.39-10.45,8.76-15.72,13.13l-1-.42c-6.94-25.25-21.74-49.68-43.31-71.69-3.5-6-8.26-11.76-16.67-15.38l4.22-6.12a80.83,80.83,0,0,1,14.29,4c9,3.7,14.58,9.51,19.47,15.23,16.68,19.39,29.49,39.9,38.09,61Z"/><path class="cls-7" d="M1130.26,497.75l1,.42c-7.62,6.33-15.23,12.66-22.94,18.95a1.48,1.48,0,0,1-.49.4l-7.79-3.45c5.19-4.68,6.84-11.75,6.68-17.69-.61-22.47-6.55-44.84-17.5-66.26-.68-1.32-1.46-2.71-2.27-4.06C1108.52,448.07,1123.32,472.5,1130.26,497.75Z"/><path class="cls-4" d="M1111.8,606.72c11.86-6.63,23.31-13.5,34.68-20.29a448.5,448.5,0,0,1-74.87,52.43c-15.79,8.93-32.79,17.4-52.61,22.66-15.3,4-31.87,6.06-47.53,9.53-13.77,3-27.31,7.46-36.37,14.3l-10.17-3.3c13.25-10.64,29.93-19.65,49.38-25.87,16.43-5.28,34.4-8.48,51.37-13C1057.9,634.5,1085.69,621.27,1111.8,606.72Z"/><path class="cls-4" d="M1094.36,544.47c-7.5,15-33.54,23.34-48.55,36-16.13,13.7-19.41,32.5-39.7,44-8.62,4.89-19.49,8-29.51,11.77-17,6.44-31.53,15.07-44.69,24.24-6.94,4.86-13.79,10-22.91,13.25-17,6.15-39.24,4.86-56.34,10.94-12.81,4.56-21.24,12.7-33.74,17.54a77,77,0,0,1-34.36,4.23c27.85-7.46,44.37-26,72.31-33.46,11.47-3,24.25-4,35.57-7.26,10.66-3,19.54-7.86,28.29-12.64q32-17.43,63.95-34.9c11.41-6.2,22.82-12.48,32.69-19.6,1.35-1,2.66-2,3.87-3,12.8-9.93,22.93-21.07,36.14-30.83A169.58,169.58,0,0,1,1094.36,544.47Z"/><path class="cls-9" d="M1021.24,595.66c-1.21,1-2.52,2-3.87,3-9.87,7.12-21.28,13.4-32.69,19.6q-32,17.44-63.95,34.91c-8.75,4.74-17.63,9.6-28.29,12.63C881.12,669,868.33,670,856.87,673c-27.94,7.47-44.46,26-72.31,33.46-.68-.05-1.4-.13-2.12-.24l.31-1.08c20.56-14.31,41.61-28.84,68.36-38.71,8.08-3,16.66-5.53,24.55-8.69,16.56-6.58,30-15.7,46.55-22.22,6.68-2.62,13.76-4.79,20.76-7.1a469.6,469.6,0,0,0,77.46-33.19Z"/><path class="cls-4" d="M1037.1,669.67c-24.46,23.11-62.08,39.76-98.85,55.81.26-3,3-6.06,5.94-8.58,3.87-3.29,8.51-6.47,10-10.41.85-2.17.62-4.46,1.43-6.64,1.75-4.56,7.79-8.14,14.56-10.36s14.35-3.38,21.67-4.88A191.65,191.65,0,0,0,1037.1,669.67Z"/><path class="cls-11" d="M932.92,400.33c17.27,19.48,34.68,39.24,43,60.78-13.74-15.56-33-29.35-56-40.19C940,437.62,951,458.27,950.78,479c-11.33-11.72-25.46-22.5-41.75-31.84,7.53,24.57,15.06,49.31,14.59,74.3-12.25-19.47-29-37.9-49.54-54.6q0,34.72,0,69.42c0,9.69-.16,19.84-7.41,28.48,4.08-25.62-2.15-51.8-17.94-75.67a175.42,175.42,0,0,0-13.33,44.17l-3.2-.11q-2.61-32.62-5.22-65.22c-.89-11.47-1.87-23.17-8.73-33.89-6.4-10-17.67-18.69-24.88-28.5-10.57-14.33-12.29-30.72-24.13-44.67-9.61-11.39-25.27-20.39-39.66-29.73A392.5,392.5,0,0,1,679,292.45c39,21.11,84.63,37.14,129.9,53.05Q851,360.31,893,375c8.14,2.86,16.37,5.77,23,9.82C923.18,389.33,928.12,394.86,932.92,400.33Z"/><path class="cls-11" d="M942.2,375.93C953,387,958.4,399.74,959.11,412.54c-3-15.73-18.43-30.44-40.72-38.71-5.2-1.93-10.72-3.53-15.83-5.52-9-3.48-16.47-8.09-23.94-12.65l-25.11-15.44c10.72,5.31,25.22,6.62,38.2,9.55C912.91,354.57,930.64,364.21,942.2,375.93Z"/><path class="cls-11" d="M815.84,104.66a639.41,639.41,0,0,0,39.32,51.52c-1.25-10-2.55-20.15-8.22-29.57S830.85,108.6,815.84,104.66Zm74.75,43.5c4.77,8.77,9.41,18.23,5,27.06C875.07,166.8,851,161.53,826.17,160c-16.54-1.05-34.33-.63-48.4-6-13.29-5-20.41-14.13-26.63-22.76-4.9-6.74-9.66-13.51-14.38-20.25l.68-.42a37.83,37.83,0,0,1,6.24,4.7c7.39,6.87,11.66,15,20.67,21s21.53,9.4,34.09,12.08a429.79,429.79,0,0,0,43.84,7q-13.06-17.34-28.06-34.12c-7.26-8.15-15.05-16.32-26.36-22.5a88.23,88.23,0,0,0-21.89-8v0l.27-.39c6.1.26,12.29.64,18.48,1.18,27.06,2.21,53.82,7.25,72.78,18.49.77.43,1.5.9,2.22,1.35a68,68,0,0,1,7.24,5.32C878.15,126,884.6,137.18,890.59,148.16Z"/><path class="cls-8" d="M729,100q26.61,15.91,53.67,31.61a5.71,5.71,0,0,0,2.85,1,3.85,3.85,0,0,0,3.15-1.53c2.34-3.26-1-7-5.13-9.49s-9.27-4.57-11.68-7.79c3.39-.69,7.49-2.28,6.31-4.29a5.35,5.35,0,0,0-2.17-1.6c-6.24-3.2-12.53-6.46-20-8.56s-16.13-3-23.85-1.26ZM692.17,80.53c8.37,1.81,18.3.9,27.33-.09,6.46-.72,12.87-1.42,19.28-2.15,5.2-.55,10.62-1.22,14.77-3.15,3.51-1.62,5.77-4,8.47-6.16,5.45-4.29,13-7.53,21.43-9.28-.32-1.75-4.12-2.28-7.06-2.33-10.84-.22-22-.35-32.33,1.71C724.1,63.07,710.5,74.76,692.17,80.53ZM396.82,239.46l.46.28L393,244.59c24.68-8,49.5-16.35,69.79-28,22.28-12.78,38.17-29.06,53.75-45.05l18.11-18.62c3.42-3.55,7-7.88,3.94-11.58-24.9,26.65-60.93,48.75-96.5,70.51C427,221,411.93,230.26,396.82,239.46ZM292.31,629.82l1.67-.46c-35.39-52.55-20.4-112.21-.56-167.81,1.39-3.88,2.83-7.78,4.35-11.63,6.09-16.27,13.41-32.41,24.7-47.62,5.58-7.48,12.15-14.82,14.75-22.85a25.18,25.18,0,0,0-1.46-19.19c-12.4,21.07-28.56,41.35-48.11,60.38,4.3.35,5.16,3.83,4.77,6.46a95.84,95.84,0,0,1-6.13,21.24c-8.43,21-22.37,41.4-28.31,62.76C246.67,551.35,264.24,592.54,292.31,629.82ZM329.7,431c31.77-22.26,48.4-52.19,45.28-81.46-1.49-13.79-7.13-27.76-2.11-41.29,2.69-7.24,8.31-14,13.94-20.59l33.76-39.87q-21.92,15.8-43.77,31.59c-5.91,4.26-11.95,8.66-15.14,13.84-4.4,7.08-3.2,15-2,22.53,4.51,27.75,7.85,56.54-7.29,82.93C346.16,409.58,336.71,420.18,329.7,431ZM183.49,616l1-.12a449.31,449.31,0,0,0,6.59-78.11c-.15-32.17-3.63-64.81,8.74-96.11,13.63-34.38,45.6-65.09,80.57-93.49-38.05,25-77.18,51.06-93.84,83.44-5.43,10.51-8.34,21.4-10.61,32.32A302.05,302.05,0,0,0,183.49,616ZM117.87,485.8c-1-22.27,13.69-43,34-62.2,11.85-11.15,25.55-21.79,39.16-31.86C251,347.23,314.45,303.93,362.4,254.46c2.71-2.61,5.23-5.3,7.61-8-2.47,2.69-5,5.36-7.61,8-25.89,25.29-64.23,45.37-98.67,66.87-47.84,29.88-89.3,63.45-123.11,99.67-4.09-7.42-1-15.51,2.73-23,17.33-34.85,48.17-67.23,89.29-93.84,43.28-28,98.5-50.21,129-83.83-30,18.44-65.94,32.82-98.19,49.82-76.49,40.29-130.21,94.1-174.31,149.35-2.08-13.56,5-27,13.7-39.61C138.26,328.61,200.92,286,267.93,248s139.59-72.54,201.84-113.43c-6.57,20.82-24,40.35-49.25,55.07,34.46-18.11,64.3-39.4,88.17-63,5.31-5.25,10.4-10.63,17.25-15.23a114.56,114.56,0,0,1,17.95-9.27c27.79-12,59.39-20.84,92.53-25.78l.4-1.47c20.06,2,39.58,3.61,56.09-2.86,14.22-5.58,21.55-15.81,34.4-22.52,28-14.64,70.31-8.24,107.26-9.11C824.9,55.81,804.43,68.65,779.29,75,831.27,68.29,888.63,81,921,106.4c-14.43,7.14-33.67,10.62-52.19,9.43l-1.81.8a66.66,66.66,0,0,0-7.24-5.32c-.72-.45-1.45-.93-2.22-1.35l5-.22c6.59-.33,10.1-5.45,7.78-9.24s-8.28-6.13-14.21-7.87C834.21,86.2,808,85.29,785,90.17l-.27,1.27c-6.19-.52-12.38-.93-18.48-1.19l-.27.4v0a88.22,88.22,0,0,1,21.89,8c11.31,6.19,19.1,14.36,26.36,22.51q15,16.78,28.06,34.11a429.79,429.79,0,0,1-43.84-7c-12.56-2.67-25.18-6.08-34.09-12.08s-13.28-14.17-20.67-21a37.83,37.83,0,0,0-6.24-4.7c-7.43-4.56-17.37-7.61-27.26-5.94,2.9,17.8,5,37.44-12.67,51.85-12.08,9.85-31.85,15.7-42.38,26.16,1.86-11.45-8.11-22.24-11.94-33.48-5.11-14.94,1.26-31.1,16.58-43.19l12.74.7a84.62,84.62,0,0,0-13,37.35,129.18,129.18,0,0,1,15.54-12.8,6.28,6.28,0,0,1,3.48-1.25,4,4,0,0,1,3.35,2.42c1.9,3.73,3.81,7.48,5.72,11.18,14.23-13.59,11.6-32.8-6.19-44.73a5.19,5.19,0,0,0-2.3-1c-3.94-.38-2.52,4.08-5.41,5.73L665,102.23l-.41,0c-24.14-5.75-51.81,2.62-68.84,14.82s-26.48,27.78-38.86,42c-10.67,12.24-23.55,23.64-36.44,35-6.62,5.84-13.24,11.74-20.36,17.39-3.83,3.12-7.89,6.18-12.08,9.13-1.62,1.14-3.29,2.25-5,3.38-8,5.37-16.45,10.57-23.89,16.3a120,120,0,0,0-15.77,14.58,108.68,108.68,0,0,0-15,21.36c-11.5,21.34-15.32,44.84-16.56,67.54-.51,9-.75,18.13-2.81,27A54.87,54.87,0,0,1,403.68,385c-8.76,16-27.24,29-45.54,41.43-30.23,27.43-47.43,60-49,92.92C309,522.92,309,526.49,308,530c-1.43,4.73-4.8,9.18-7.41,13.74-9,15.74-9.43,32.95-4.37,49.3,3.29,10.68,8.79,21,15.59,31.08,3.54,5.33,7.49,10.63,11.62,15.85,5.8,7.3,12,14.52,16.37,22.19l.82.68c-14.12,6.2-31.6,9.45-49,9.31l0-1.7c-31.39-29.24-47.49-63.91-51.75-98.72s2.95-69.85,15.4-104c4.12-11.26,8.88-22.61,8.71-34.14-.06-5.2-1.12-10.43.63-15.55s7.1-10.17,15.37-11.55c-14.63,2.11-22.64,11.46-28,20-24.59,39.45-32.72,82.24-29.39,124.32s17.83,83.58,37.38,124l1,.73c-13,6.6-30.46,10-47.58,11.06-18.56,1.19-37.22.06-55.88-.34l.09-1.44c-15.43-20.59-18-43.79-19.63-66.39-1.32-18.06-2.28-36.18,1.05-54.16,5.43-29.16,22-57.71,20.11-87Q144.45,505,129.67,532.8c-11.28,21.26-22.59,42.64-27.81,64.7-8,33.74-1.47,68.18,10.47,101.44l1.18.87a71.64,71.64,0,0,1-26.05,6.61L85.3,707.5A757.73,757.73,0,0,1,3.55,637.12l-8.45,0,1.68-189.81H3.83a9.86,9.86,0,0,0,.69,3.59,141.52,141.52,0,0,0,36.69-9.47c-3,3.17-6.12,6.52-6.43,10.19s3.1,7.71,9,8.46c4,.49,8.08-.54,11.83-1.59,8-2.2,15.93-4.43,23.92-6.66-17.5,22.47-35.41,47.31-24.72,71.25C78.56,512.49,99.84,499.9,117.87,485.8Z"/><path class="cls-11" d="M870.3,100.56c2.32,3.75-1.19,8.91-7.78,9.24l-5,.21c-19-11.25-45.72-16.28-72.78-18.49l.27-1.27c23-4.88,49.22-4,71.1,2.47C862,94.45,868,96.84,870.3,100.56Z"/><path class="cls-4" d="M812.22,798.65c33.42-15.85,61.14-36.4,96.24-51.09-19.69,18.32-43,35.15-68.42,50.69v1.84l-27.83.14Z"/><path class="cls-8" d="M846.94,126.61c5.67,9.42,7,19.57,8.22,29.57a639.41,639.41,0,0,1-39.32-51.52C830.85,108.6,841.35,117.3,846.94,126.61Z"/><path class="cls-11" d="M832.05,251.79c4.58,5.69,4.78,12.62.55,18.45-9.87-8.73-17.17-18.57-21.4-28.88l.44-.7C820.46,242.58,828,246.66,832.05,251.79Z"/><path class="cls-7" d="M816.34,507.22c5.35,34.89-12.71,69.46-42.15,100.13l-.37-.14c-16.18-3.46-33.73,1.88-50.9,2.1-10.07.15-20.06-1.49-30.13-1.54A122.8,122.8,0,0,0,669.85,610l-.87-1.69c15.25-20.71,39.5-39,69.63-52.45a125.09,125.09,0,0,1-16.09,40.78c23.55-11.46,38.81-27.93,52.58-44.2q21.27-25.2,39.78-51.19l.27,0C815.65,503.23,816,505.21,816.34,507.22Z"/><path class="cls-8" d="M815.15,501.26l-.27,0q-18.5,26-39.78,51.19c-13.77,16.27-29,32.74-52.58,44.2a125.09,125.09,0,0,0,16.09-40.78c-30.13,13.49-54.38,31.77-69.63,52.45l.87,1.69c-8.49,1.55-16.84,3.7-25.15,5.59-17,4-35.44,7.29-53.29,5-14-1.76-26.26-6.81-40-9.17-20-3.48-41.25-1-62-.72-5.61.1-12-.22-15.42-2.86-2.17-1.69-3.26-4.26-5.39-5.7l.5-.31c6.73-14.35,1-30.64-14.86-42-13.06,12,4.12,30.88-12.39,41.19a12.49,12.49,0,0,1-6.45,2.06,6.61,6.61,0,0,1-.77,0c-7.27-.63-5.12-7.5-8.7-11.36s-14.43-3.55-17.49.42c-9-2.75-14.3-9.37-12.24-15.34.67-2,2.07-4.19.43-6-1.4-1.57-4.56-2.16-7.14-3-9.09-2.91-13-9.77-12.83-16s3.26-12.34,4.55-18.5c.35-1.7.48-3.54-1-4.95s-4.53-2.1-6.79-3.17c-7.42-3.43-6.81-10.58-2-15.46s12.62-8.32,18.8-12.6c14.29-9.91,18.85-24.57,11.49-36.93-2-3.38-4.9-6.82-4.23-10.38.71-4.13,5.9-7.37,10-10.66,7.35-5.74,12.34-12.59,14.44-19.72,2.59-8.83.94-18.29,7.28-26.42,5.67-7.2,16.73-12.21,27.42-16.9q29.37-13,58.73-26l-.09-.43c5.24-.58,10.57-1,15.94-1.23,20.33-.8,42,1.74,57.13,8.64l-.49,2.18c-35-2.83-71.63,5.62-96.65,20.87a96.24,96.24,0,0,0-24.33,20.66l-1-.31c-22.61,22.17-26,49.66-28.68,75.87,16.73-9.16,19.39-24.54,29.61-36.87,8.14-9.86,21.18-17.73,34.52-25l-.27-.26q3.39-1.37,6.91-2.56c14.84-5.11,32-8.24,48.85-6.94-26.42,15.6-52.94,31.48-72.35,50.48-19.77,19.37-31.76,42.61-25.23,65,5.2,18,22,34.21,42.92,47.41s45.92,23.71,70.89,34l.81.14a510.93,510.93,0,0,0,80.64-30.21c60.89-29.07,107.88-68.08,145.39-109.66l.63-.11c1.36,3,2.68,5.95,4,8.92C808.81,480.81,812.86,491,815.15,501.26Z"/><path class="cls-2" d="M587.82,359.29l.49-2.18c-15.16-6.93-36.8-9.44-57.13-8.64-5.37.21-10.7.63-15.94,1.23-15.85,1.75-31.11,5-45.91,8.45-19.73,4.62-39.18,9.76-60,12.74l-.27,0c2.05-8.88,2.29-18,2.8-27,1.24-22.67,5.06-46.2,16.56-67.55q22.44,3.15,44.92,6.25c-13.16,9.34-24.92,19.61-31,31.22s-6.07,24.75,3.58,35.43c5.78-3.64,11.55-7.24,17.32-10.85s11.58-7.3,18.71-10c4.43-1.62,9.44-2.91,12.68-5.35a17.13,17.13,0,0,0,4.73-5.81c3.55-6,7-12,10.6-18,5.4,6.26,13.27,11.78,22.82,16,6.06,2.67,13.16,5.13,15.43,9.39-4.42-12.19,11.12-25.64,2.15-36.92-3.41-4.31-10-7.52-17.38-9.44,18.74-3.34,39.82-6.32,56.6-.4,16.37,5.77,22.51,17.91,29.81,28.48,11.71,17.13,29.6,32.67,52,45.27,20,11.24,43.56,20.1,62.8,31.83,34.62,21.1,52.87,49.7,66.28,78.49l-.63.12c-37.5,41.58-84.5,80.59-145.39,109.66a513.9,513.9,0,0,1-80.64,30.21l-.81-.14c-25-10.3-50-20.82-70.89-34s-37.72-29.36-42.92-47.41c-6.53-22.39,5.46-45.61,25.23-65,19.42-19,45.93-34.88,72.35-50.48-16.81-1.3-34,1.83-48.85,6.93q-3.52,1.2-6.91,2.57c-12.36,4.87-23.41,11-34.37,17-5,2.76-10,5.49-15,8.27l-.5,0c.55-13.34,5.88-26.7,15.74-38.63a96.41,96.41,0,0,1,24.33-20.65C516.19,364.91,552.8,356.43,587.82,359.29Z"/><path class="cls-11" d="M783.5,121.54c4.12,2.54,7.47,6.23,5.13,9.49a3.85,3.85,0,0,1-3.15,1.53,5.44,5.44,0,0,1-2.85-1Q755.62,115.85,729,100l3.2-2c7.72-1.72,16.44-.85,23.85,1.25s13.71,5.36,20,8.56a5.36,5.36,0,0,1,2.17,1.61c1.18,2-2.92,3.6-6.31,4.28C774.23,116.94,779.34,119,783.5,121.54Z"/><path class="cls-11" d="M786.39,208.4l-.46.2a243.21,243.21,0,0,0-44.63-30.9c12.24-.32,23.64,4.36,30.79,10.36S782.84,201.31,786.39,208.4Z"/><path class="cls-4" d="M747.69,760.57c23.64-7.3,47.52-14.73,68-25-33.14,19.15-71.22,35.13-112.47,47.18l55.47-.34,2.18,1.49c-5.15,2.79-10.24,5.57-15.29,8.39l-.18.22c-3.66-1-8.27-1-12.47-.92a2755.68,2755.68,0,0,1-288.86-7.74c-46-3.65-93.49-8.87-131.84-24.67-18.36-7.6-35.16-19-35-32.4,0-1.72.26-3.59-1.33-5-2.4-2.2-7.73-2.18-12.06-1.8-22.63,2.08-45,7.4-67.61,5.55-8.54-.71-17.53-2.8-21.66-7.37l2.26-1c41-17.63,95.84-18.58,145-12.4,16.86,2.09,33.4,5,49.81,8l-.32.6c-19,3.14-36.79,8.82-51.76,16.52-2.71,1.37-5.46,3-5.77,5.14s2.05,4,4.36,5.58c22.49,15.33,56.76,22.52,90.37,25.25s67.86,1.51,101.65,3.28c61,3.17,122.92,15.79,182,5.86C711.58,771.79,729.68,766.17,747.69,760.57Z"/><path class="cls-4" d="M795.85,733.6a90.43,90.43,0,0,1-17.7,3.65l-.09,1c-14.41-.55-29.23-1.1-43,1.49-10.43,2-19.76,5.6-29.74,8.28-27.31,7.41-58.25,7.64-88.11,7.71-16.58,0-34.83-.26-47.13-7,20.72-2.27,42,.26,63-1,28.14-1.61,54-9.8,80.77-15.28S771.92,724.52,795.85,733.6Z"/><path class="cls-11" d="M776.39,57.37c2.94.05,6.74.58,7.06,2.33-8.44,1.75-16,5-21.43,9.28-2.71,2.1-5,4.54-8.47,6.16-4.15,2-9.57,2.6-14.77,3.15-6.41.73-12.82,1.43-19.28,2.15-9,1-19,1.9-27.33.09,18.32-5.77,31.93-17.46,51.89-21.45C754.39,57,765.55,57.15,776.39,57.37Z"/><path class="cls-11" d="M736.42,235.63c11.32-5,25.44-10.23,38.33-7-4.55,6.29-16.51,9.1-27.3,11.25l-32.1,6.46-1.13-1C721.62,242.17,729,238.9,736.42,235.63Z"/><path class="cls-11" d="M725.81,356.55l-.14.09c-12.48-6.66-24.39-13.78-35.57-21.23C659.69,315.09,634.18,291.79,619,266c23.94,13.52,44.45,29.23,60.63,46.48C693.87,327.65,705.13,344.35,725.81,356.55Z"/><path class="cls-7" d="M681.43,98.85c17.79,11.93,20.42,31.14,6.19,44.72-1.91-3.69-3.82-7.45-5.72-11.17a3.94,3.94,0,0,0-3.35-2.42,5.8,5.8,0,0,0-3.48,1.25A131.11,131.11,0,0,0,659.53,144a84.83,84.83,0,0,1,13-37.35l-12.74-.7c1.62-1.28,3.38-2.53,5.18-3.72l8.77,1.3c2.89-1.64,1.47-6.11,5.41-5.72A5.21,5.21,0,0,1,681.43,98.85Z"/><path class="cls-7" d="M265.28,208.74c17.9-11.53,36.38-22.69,56.27-33,36.27-18.68,76.78-34.09,117.17-49.39q56.44-21.42,112.8-42.78c11.05-4.18,22.38-8.46,35.11-10.17C602.7,71.25,620,73.26,636.82,75l-.4,1.47c-33.14,4.93-64.74,13.74-92.53,25.78a114.56,114.56,0,0,0-17.95,9.27c-6.85,4.57-11.94,10-17.25,15.23-23.87,23.53-53.71,44.85-88.17,63,25.26-14.72,42.68-34.25,49.25-55.07C407.52,175.44,334.94,210,267.93,248S138.26,328.61,102.82,379.85c-8.73,12.58-15.78,26-13.7,39.61,44.1-55.25,97.82-109.06,174.31-149.35,32.25-17,68.21-31.38,98.19-49.82-30.48,33.62-85.7,55.86-129,83.84-41.12,26.61-72,59-89.29,93.83-3.73,7.5-6.82,15.59-2.73,23l11.25,2.63c-20.31,19.19-35,39.93-34,62.2-18,14.1-39.31,26.69-63,37.28-10.69-23.94,7.22-48.81,24.72-71.25-8,2.23-15.93,4.46-23.92,6.66-3.75,1.06-7.81,2.09-11.83,1.59-5.92-.75-9.37-4.81-9-8.45s3.42-7,6.43-10.2A141.92,141.92,0,0,1,4.52,450.9a9.82,9.82,0,0,1-.69-3.59c0-5.54,4.53-11.09,8.94-16.14Q43,396.57,73.09,362c9.9-11.33,19.85-22.73,31.65-33.39,18.88-17.05,42.68-32.52,54.68-51.7l-.68-.42c34-18.76,64.25-40,95.58-60.55Q259.74,212.32,265.28,208.74Z"/><path class="cls-2" d="M587.32,254.94l-1.54.48c-18.07-1.22-37.09-2.35-53.7,3-10.69,3.45-19.75,9.42-30.9,12a27.68,27.68,0,0,1-7.45.87,28.79,28.79,0,0,1-8.37-1.93c-7.23-2.72-13.43-6.6-20.31-9.72-6.51-2.94-14.11-5.3-21.7-4.74a119.23,119.23,0,0,1,15.77-14.57C466.56,234.59,475,229.39,483,224c9.4.76,18.66,2,27.79,3.42,15.46,2.36,30.83,5.16,44.66,9.7C568.53,241.43,580.2,247.38,587.32,254.94Z"/><path class="cls-11" d="M538.55,141.29c3,3.69-.52,8-3.94,11.57q-9.06,9.31-18.11,18.62c-15.58,16-31.47,32.27-53.75,45.05-20.29,11.68-45.11,20-69.79,28l4.32-4.85-.46-.28c15.11-9.2,30.21-18.46,45.23-27.64C477.62,190,513.65,167.9,538.55,141.29Z"/><path class="cls-11" d="M531.11,296.23c.59,1,1,2.29,0,3.2-2,1.76-6.59.36-8.81-1.25-5.25-3.8-8.47-8.59-9.12-13.54l.31-1.72C521.6,286,527.89,290.79,531.11,296.23Z"/><path class="cls-11" d="M451.1,439.45l.5,0c5-2.78,10-5.51,15-8.27,11-6,22-12.08,34.37-16.95l.27.25c-13.34,7.28-26.38,15.18-34.52,25-10.22,12.33-12.88,27.71-29.61,36.86,2.72-26.21,6.07-53.69,28.68-75.86l1,.3C457,412.72,451.65,426.1,451.1,439.45Z"/><path class="cls-11" d="M488.29,282.83c4.79-.58,10.4,1.8,10.32,4.83-.09,1.83-1.8,3.51-3.46,5q-14.32,13.35-28.7,26.77C468.67,306.43,476.27,293.74,488.29,282.83Z"/><path class="cls-11" d="M454.22,559.88c15.85,11.4,21.59,27.69,14.86,42l-.5.31a6.85,6.85,0,0,0-3.66-1.15c-1.57,4.62-10.64,6.79-18.46,7-3.56.13-7.27,0-10.88.09l-.2-5.09a12.39,12.39,0,0,0,6.45-2C458.34,590.76,441.16,571.85,454.22,559.88Z"/><path class="cls-7" d="M263.37,100.69a10.79,10.79,0,0,0,1.39-2.78c1.66-4.67.88-9.47.77-14.24l12.11-.24c17.45-7.8,32.1-17.65,47.8-26.72s33.1-17.59,53.64-21.84c4.09,9.54-2.06,19.82-11.93,27.65s-23.18,13.81-35.9,20-25.12,12.88-32.55,21.61l.23.08Q320.19,94.7,341.42,85c11.91-5.37,24.95-11,39.77-10.94,8.54,0,16.72,2,24.63,3.88l29.34,7c-9.69,8.26-24.63,13.79-40.2,17.45s-32.1,5.61-48.31,8.12q-23.23,3.63-45.69,8.76c-9.52,2.18-19,4.61-26.94,8.54-14.84,7.28-22.12,18.69-28.28,29.65-2.51,4.44-4.94,8.92-5.42,13.58-.53,5.26,1.43,10.46,3.71,15.54,3.73,8.41,9.13,17.38,21.25,22-3.7,2.35-7.35,4.74-11,7.13l-2-1.13c-48.4,8.12-80.21,35.32-108,60.68-.91.82-1.81,1.67-2.71,2.49q-19,17.4-38.11,34.8c-11.21,10.21-22.47,20.51-36.68,29.26-8.29-8.71-3.54-19.75,2.17-29.21,15.33-25.4,36.26-49.58,62-71.7,25.64-22,56.65-42.69,68.86-68.53-20.79,12.59-45,23.06-71.32,30.89q5.3-19.6,12.62-39a240.46,240.46,0,0,0-44.47,24.73A40.2,40.2,0,0,0,83,177.5C38.3,227.75,51.46,292.18.16,340.08H-2.33L-.41,123.48H2.75a12.51,12.51,0,0,0,1.64,6.16c3.59,6.32,12.78,10.9,21.73,15,15.61,7.08,34.15,14,53.66,12.13a74.34,74.34,0,0,0,29.83-9.92c9.24-5.37,16.63-11.67,23.66-18.05q10.88-9.87,20.72-20.14c4.41-4.56,8.82-9.83,6.46-14.91-1.91-4.12-7.93-7.13-14.44-9s-13.61-2.9-20.3-4.55C108.94,76,95.36,67.51,89.28,57.41,84.83,50,84.26,42,83.79,34.1a1.49,1.49,0,0,1,.62-1.55,5.2,5.2,0,0,1,2.67-.46,174.74,174.74,0,0,1,30.5,2.79c7.91,1.39,15.77,3.23,22.47,6.09,9.5,4,16.24,9.82,22.86,15.51q12.63,10.94,25.31,21.88c3.67,3.16,8.29,6.67,14.8,6.85-5.55-12.67-11.15-25.43-12.54-38.49s1.63-26.6,12.44-38c10.45,4.38,20.94,9.49,25.17,16.66,3.81,6.49,1.8,13.56.78,20.43a71.4,71.4,0,0,0,3.22,33.65c.09.29.18.51.27.79l8,1A42.19,42.19,0,0,0,239.25,86c-.62,4.16-.29,8.71,4.05,12s13,4.46,19.39,2.49ZM194,117.6l.81.91c-3.77,9.08-15.67,16.07-22,24.65-.59.77-1,1.82.05,2.35a4.85,4.85,0,0,0,3,.08c13.73-2.79,19.29-13.74,33.06-16.44,5.66,3.8,5.54,9.45,6.15,14.59A42.4,42.4,0,0,0,221.18,161c1.39-17.64,2.51-36-9.42-52.09a4.49,4.49,0,0,0-3.35-2c-2.48-.13-3.51,1.8-4.23,3.21C202.65,113.34,198.82,116.09,194,117.6Zm-90.61-70c8.57,9.78,22.19,17.88,38.47,22.89,4.1-4.19-2.24-9.21-8.08-12.52-6.2-3.55-12.35-7-18.55-10.58A25.07,25.07,0,0,0,106.54,44C106.77,45.45,105.42,46.93,103.34,47.64Z"/><path class="cls-11" d="M420.57,247.76l-33.76,39.87c-5.63,6.63-11.25,13.35-13.94,20.59-5,13.53.62,27.5,2.11,41.29,3.12,29.27-13.51,59.2-45.28,81.46,7-10.79,16.46-21.39,22.71-32.32,15.14-26.39,11.8-55.18,7.29-82.93-1.24-7.57-2.44-15.42,2-22.53,3.19-5.21,9.23-9.58,15.14-13.84Q398.64,263.55,420.57,247.76Z"/><path class="cls-11" d="M387.45,616.1l2.13,1.41c-2.49,1-4.7,2.42-7.4,3.27-6.64,2.06-14.55.56-21.82-.35-.82-.11-1.67-.2-2.49-.28l.45-1.44c-.45-13.43-.94-26.79-1.39-40.19-.14-3.59-.25-7.21,1.55-10.63a4.09,4.09,0,0,1,2-2c3-1.28,6.69.88,8.41,2.86,9.16,10.51,12.27,22.54,15.29,34.32C385.25,607.43,386.35,611.78,387.45,616.1Z"/><path class="cls-11" d="M349.78,544.93c.38,3.56.88,7.15-.51,10.6-1.3,3.26-4.18,6.18-6.56,9.21a42.65,42.65,0,0,0-8.27,15.77l-.9-.08c-11.41-8.5-4.54-21-5.11-31.93-.34-5.51-2.7-10.93-2.63-16.44.22-16.51,21.73-30.25,28.95-46A157,157,0,0,0,349.78,544.93Z"/><path class="cls-11" d="M335.76,360.29a25.14,25.14,0,0,1,1.46,19.18c-2.6,8-9.17,15.38-14.75,22.86-11.29,15.21-18.61,31.35-24.7,47.62l-11.48-1.58a95.84,95.84,0,0,0,6.13-21.24c.39-2.63-.47-6.14-4.77-6.46C307.2,401.61,323.36,381.35,335.76,360.29Z"/><path class="cls-11" d="M263.73,321.3c34.44-21.5,72.78-41.57,98.67-66.87C314.45,303.9,251,347.2,191,391.71c-13.61,10.1-27.31,20.71-39.16,31.86L140.62,421C174.43,384.75,215.89,351.18,263.73,321.3Z"/><path class="cls-7" d="M315.47,33.85a20,20,0,0,1-5.27,17.34c-4.1,4.34-10.46,7.69-15.78,11.5-8.29,6-14.14,13.16-16.78,20.77l-12.11.23a5.08,5.08,0,0,1,0-.87c-.09-14.76,7.86-29,16.81-42.82a13.56,13.56,0,0,0,3.28-5c-1.12,1.67-2.2,3.37-3.28,5-4.23,4.31-11.18,7.84-17,11.5-12.89,8.15-21.62,18.64-24.93,29.75l-8-1c-.09-.28-.18-.51-.27-.79a127.32,127.32,0,0,1,5.29-27.21c2.51-8.09,6.1-16.38,14.75-22.68,12.4-9,32.49-12.37,51.27-15.2a8.28,8.28,0,0,1,3.43,0A3.54,3.54,0,0,1,309,16.43C311.83,22.16,314.64,27.94,315.47,33.85Z"/><path class="cls-11" d="M286.29,448.34l11.48,1.58c-1.52,3.85-3,7.75-4.35,11.63-19.84,55.57-34.83,115.26.56,167.81l-1.67.46C264.24,592.54,246.67,551.35,258,511.1,263.92,489.74,277.86,469.37,286.29,448.34Z"/><path class="cls-11" d="M291.62,670.5l0,1.69a127.89,127.89,0,0,1-21.91-2,51,51,0,0,1-8.7,5.45l-1-.73c-19.55-40.42-34.09-81.9-37.38-124S227.44,466,252,426.57c5.3-8.55,13.32-17.9,28-20-8.27,1.38-13.63,6.46-15.37,11.55s-.69,10.35-.63,15.55c.17,11.56-4.59,22.88-8.71,34.14-12.45,34.1-19.62,69.17-15.4,104S260.23,641.25,291.62,670.5Z"/><path class="cls-11" d="M265.25,51.5c5.86-3.69,12.81-7.19,17-11.5-9,13.82-16.9,28.06-16.81,42.82a5.08,5.08,0,0,0,0,.87c.11,4.75.89,9.55-.77,14.25a10.79,10.79,0,0,1-1.39,2.78l-.68-.17c-6.36,2-14.9.86-19.39-2.49s-4.67-7.81-4.05-12a42.68,42.68,0,0,1,1.07-4.81C243.63,70.14,252.36,59.65,265.25,51.5Z"/><path class="cls-11" d="M252.33,214.77l2,1.13c-31.33,20.53-61.53,41.77-95.58,60.55-2.93,1.65-5.86,3.24-8.84,4.81L141.67,278l2.71-2.49C172.12,250.1,203.93,222.89,252.33,214.77Z"/><path class="cls-11" d="M280.43,348.16c-35,28.43-66.94,59.11-80.57,93.49-12.37,31.3-8.89,63.94-8.74,96.11a449.55,449.55,0,0,1-6.59,78.11l-1,.12A302.14,302.14,0,0,1,176,463.89c2.27-10.92,5.18-21.78,10.61-32.31C203.25,399.22,242.38,373.09,280.43,348.16Z"/><path class="cls-11" d="M211.76,108.93c11.93,16,10.81,34.45,9.42,52.09A42.4,42.4,0,0,1,215,143.74c-.61-5.14-.49-10.79-6.15-14.59-13.77,2.7-19.33,13.65-33.06,16.44a4.85,4.85,0,0,1-3-.08c-1.09-.53-.64-1.58-.05-2.35,6.34-8.58,18.24-15.57,22-24.65l-.81-.91c4.87-1.51,8.7-4.26,10.23-7.46.72-1.42,1.75-3.34,4.23-3.21A4.46,4.46,0,0,1,211.76,108.93Z"/><path class="cls-11" d="M199.94,172.59c-12.21,25.85-43.22,46.55-68.86,68.53s-46.7,46.3-62,71.7c-5.71,9.46-10.46,20.5-2.17,29.21,14.21-8.75,25.47-19.08,36.68-29.26q19.06-17.43,38.11-34.8l8.23,3.29c3-1.57,5.91-3.16,8.84-4.81l.68.42c-12,19.21-35.8,34.65-54.68,51.7C92.94,339.23,83,350.63,73.09,362q-30.18,34.6-60.32,69.21c-4.41,5.08-9,10.6-8.94,16.14h-7l.4-47.82H-1.2c26.37-18,37.37-42.06,47.64-65.24.67-1.5,1.26-3.23-.24-4.49-2.85-2.45-9.12-.54-12.69,1.53-9.56,5.57-18.21,11.85-24,19.07-4.32,5.39-7,11.39-6.94,17.38H-2.56l.23-27.54H.16C51.46,292.27,38.3,227.84,83,177.58a40.31,40.31,0,0,1,13.81,11.55,241,241,0,0,1,44.47-24.73q-7.34,19.41-12.62,39C155,195.65,179.15,185.18,199.94,172.59Z"/><path class="cls-8" d="M170.24,756.4c-.53,4.89-7.61,8.64-15,10.64-4.65,1.26-9.57,2.07-14.36,3l-1.09-2.82c-26.56-13.29-49.69-29-68.31-46.57C53,703.33,36.62,683,5.24,674.85a3.28,3.28,0,0,0-1.12,2.46H-5.23l.33-40.2H3.55A757.73,757.73,0,0,0,85.3,707.5q23.08,17.32,48.16,33.61C143.78,747.8,155.37,754.72,170.24,756.4Z"/><path class="cls-11" d="M159.13,477.31c1.85,29.3-14.68,57.87-20.11,87-3.33,18-2.37,36.1-1.05,54.16,1.65,22.6,4.2,45.8,19.63,66.39l-.09,1.44c-2.76-.08-5.56-.12-8.31-.14-4.61,0-9.4,0-13.69,1.14-6.95,1.8-11.18,6-16.32,9.41a43.42,43.42,0,0,1-5.68,3.12l-1.18-.87c-11.94-33.26-18.46-67.7-10.47-101.44,5.22-22.07,16.53-43.44,27.81-64.7Q144.42,505,159.13,477.31Z"/><path class="cls-11" d="M133.73,58c5.84,3.32,12.18,8.33,8.08,12.53-16.28-5-29.9-13.11-38.47-22.89,2.08-.71,3.43-2.19,3.2-3.69,3.39.5,6.1,2.05,8.64,3.48C121.38,51,127.53,54.49,133.73,58Z"/><path class="cls-7" d="M139.78,767.26l1.09,2.82a79.32,79.32,0,0,0-8.4,2.15A75.78,75.78,0,0,0,120,777.84L8.84,684.05c-2.35-2-4.71-4.45-4.72-6.74a3.28,3.28,0,0,1,1.12-2.46C36.62,683,53,703.33,71.47,720.69,90.09,738.21,113.22,754,139.78,767.26Z"/><path class="cls-7" d="M61.38,787.74l1,2.45c-10,1.48-19.78,3.4-29.3,5.78-19.8-19.16-30-41.89-29.15-64.47A77,77,0,0,1,4.8,723Q31,750.52,57.06,778.11C59.86,781.07,62.77,784.43,61.38,787.74Z"/><path class="cls-8" d="M2.55,367.78c0-6,2.62-12,6.94-17.38,5.81-7.23,14.46-13.5,24-19.07,3.57-2.07,9.84-4,12.69-1.54,1.5,1.24.91,3,.24,4.5C36.17,357.47,25.17,381.56-1.2,399.53H-2.82l.26-31.74Z"/><path class="cls-11" d="M31.42,74.94c1.24,4.77-.47,9.69-3.52,14.2-4.68,6.82-12.3,12.78-18,19.33-4.1,4.68-7.16,9.94-7.14,15.12H-.41l.73-87A282.81,282.81,0,0,0,20.81,60.3C25.29,65,30.05,69.66,31.42,74.94Z"/><path class="cls-8" d="M33.08,796a276.9,276.9,0,0,0-27.71,8.25L-6.33,804l.63-72.59,9.63,0C3.09,754.08,13.28,776.81,33.08,796Z"/><path class="cls-12" d="M573,601.66c-25-10.3-50-20.82-70.89-34s-37.72-29.37-42.92-47.42c-6.53-22.39,5.46-45.61,25.23-65,19.41-19,45.93-34.88,72.35-50.48.54-.34,1.08-.62,1.62-1"/><path class="cls-12" d="M558.14,404.83c-.45-.05-.95-.08-1.4-.11-16.81-1.3-34,1.83-48.85,6.94q-3.52,1.2-6.91,2.56c-12.36,4.87-23.41,11-34.37,16.95-5,2.76-10,5.49-15,8.27"/><path class="cls-12" d="M451.05,439.79a.92.92,0,0,1,.05-.37c.55-13.35,5.88-26.7,15.74-38.63a96.21,96.21,0,0,1,24.33-20.65c25-15.26,61.63-23.71,96.65-20.88.9.06,1.76.14,2.66.22"/><path class="cls-12" d="M590.93,358.38c-.86-.42-1.72-.87-2.62-1.27-15.16-6.93-36.8-9.44-57.13-8.64-5.37.21-10.7.63-15.94,1.23-15.85,1.75-31.11,5-45.91,8.45-19.73,4.62-39.18,9.76-60,12.74"/><path class="cls-12" d="M573.78,601.77a510.93,510.93,0,0,0,80.64-30.21c60.89-29.07,107.88-68.08,145.39-109.66"/><path class="cls-12" d="M531.56,278.4l1.35-.26c18.74-3.34,39.82-6.31,56.6-.4,16.37,5.77,22.51,17.91,29.81,28.49,11.71,17.12,29.6,32.67,52,45.26,20,11.25,43.56,20.11,62.8,31.83,34.62,21.1,52.87,49.7,66.28,78.49,1.36,3,2.68,6,4,8.92,4.37,10.08,8.42,20.22,10.71,30.53.5,2,.87,3.95,1.19,6,5.35,34.89-12.71,69.46-42.15,100.13a302.88,302.88,0,0,1-30.28,27.26l-.4.34"/><path class="cls-12" d="M744.68,634.94c22.42,2.53,46.07-2.46,63.57-11.39a87.42,87.42,0,0,0,36.53-33.94c.09-.17.18-.31.27-.45"/><path class="cls-12" d="M844.64,588.51c.05.39.09.73.14,1.13,2.35,16.21-3.69,32.88-17.16,47"/><path class="cls-12" d="M827.81,637.12c13.32.89,26.74,1.36,40.16,1.37,7.81,0,15.63-.07,23.4-.35"/><path class="cls-12" d="M532.32,278l.59.17c7.37,1.95,14,5.16,17.38,9.44,9,11.28-6.57,24.73-2.15,36.92-2.27-4.26-9.37-6.72-15.43-9.39-9.55-4.21-17.42-9.7-22.82-16-3.55,6-7.05,12-10.6,18a17,17,0,0,1-4.73,5.81c-3.24,2.41-8.25,3.73-12.68,5.35-7.13,2.68-12.94,6.32-18.71,10l-17.32,10.85c-9.65-10.68-9.69-23.8-3.58-35.43s17.86-21.88,31-31.22c-15-2.07-30-4.15-44.92-6.25-.55,0-1.09-.14-1.63-.22"/><path class="cls-12" d="M442.09,255c.41,0,.81-.09,1.26-.12,7.59-.53,15.19,1.8,21.7,4.74,6.88,3.12,13.08,7,20.31,9.72a28.79,28.79,0,0,0,8.37,1.93,27.68,27.68,0,0,0,7.45-.87c11.15-2.61,20.21-8.57,30.9-12,16.61-5.34,35.63-4.21,53.7-3"/><path class="cls-12" d="M481.11,223.83c.64,0,1.27.11,1.9.19,9.4.76,18.66,2,27.79,3.42,15.46,2.36,30.83,5.16,44.66,9.7,13.07,4.29,24.74,10.24,31.86,17.8.41.45.86.95,1.27,1.43"/><path class="cls-12" d="M498.2,211.73c.63-.08,1.22-.17,1.85-.23,38.56-4.72,77.54,8.25,106.27,24.35,29.19,16.39,52.6,36.51,85,50.57,16.5,7.16,34.95,12.55,53.8,17.25,56.83,14.1,118,21.94,179.59,23q6.16.1,12.33.13"/><path class="cls-12" d="M937.17,325.75c36.67-16,49.46-45.86,48.42-73.16-.29-7.91-1.72-16.22-9.05-22.78-8.93-8-24.89-11.94-40.48-14.35-.54-.11-1.08-.2-1.62-.28a389.87,389.87,0,0,0-113.84.24c-.54.05-1,.14-1.58.23"/><path class="cls-12" d="M834.12,205.26A728,728,0,0,1,922.31,195c15.9-.9,32.21-1.29,47.62,1.24,30.23,4.91,52.59,19.93,73.1,34.23"/><path class="cls-12" d="M1045.43,230.45c8.3-1.5,14.89-5.39,21.06-9.11,12.76-7.7,25.7-15.54,34.12-25.21,4.41-5.07,7.47-10.48,10.52-15.92,3.37-6,6.79-12,10.16-18"/><path class="cls-12" d="M1170.25,190.72c-34,48.18-54,100.06-58.89,152.47-.7,7.27-1.09,14.65,1.33,21.77,5,14.85,21.49,27.15,39.19,37.64s37.42,19.93,51.77,32.21"/><path class="cls-12" d="M833.58,205l.32-.09c6.72-1.35,12-5.1,13.11-9.34a10.7,10.7,0,0,0-.83-7c-3.14-7.48-11.25-14.16-22.15-18.16"/><path class="cls-12" d="M823.13,171c-10,1-18.64,6.13-20.42,12.16-.9,3-.3,6.14-2.19,8.94-5.95-10.21-21.06-17.8-38-21.34s-35.43-3.34-53-1.45c3.73,10.34,13.93,19.8,28,26-11.69,2-23.52,4.12-33.9,7.91s-19.35,9.61-22.17,16.74a.88.88,0,0,0,0,1.08,2.55,2.55,0,0,0,1.18.42q19.26,4.51,38.51,9c-7.71,2.51-15.52,5-22.15,8.52s-11.9,8.12-13.28,13.35a1.81,1.81,0,0,0,.32,1.84,6.12,6.12,0,0,0,2.94.95,123.62,123.62,0,0,0,45.88-2.26c-4.77,4.85-9.54,9.75-12.64,15.08s-4.4,11.15-2,16.6c7.86-.37,14.9-2.93,21.21-5.78,22.29-10.07,39-24,52.87-38.57,9.39,10.54,6.49,24.4,18.63,33.89,7.51,5.88,19.36,8.9,30.7,11.72,7.24-11.84,12.12-25.2,4.09-36.82-4-5.84-11-10.7-16.8-15.92S820,222,820.65,215.61"/><path class="cls-12" d="M773.82,607.21c-16.18-3.46-33.73,1.88-50.9,2.1-10.07.15-20.06-1.49-30.13-1.54A122.8,122.8,0,0,0,669.85,610c-8.49,1.55-16.84,3.7-25.15,5.59-17,4-35.44,7.29-53.29,5-14-1.76-26.26-6.81-40-9.17-20-3.48-41.25-1-62-.72-5.61.1-12-.22-15.42-2.86-2.17-1.69-3.26-4.26-5.39-5.7a6.76,6.76,0,0,0-3.66-1.14c-1.57,4.61-10.64,6.78-18.46,7-3.56.13-7.27,0-10.88.09a45.32,45.32,0,0,0-12.24,1.54c-3.7,1.11-6.68,2.93-10.38,4-6.95,2-15.58,1-22.26,3.34-.36.15-.76.29-1.13.43-2.48,1-4.69,2.42-7.39,3.27-6.64,2.06-14.55.56-21.82-.35-.82-.11-1.67-.2-2.49-.28a123.09,123.09,0,0,0-42.81,3.16"/><path class="cls-12" d="M665.18,102.15l-.22.14c-1.81,1.19-3.57,2.41-5.19,3.72-15.32,12.09-21.69,28.27-16.58,43.18,3.83,11.24,13.8,22,11.94,33.49,10.54-10.46,30.3-16.32,42.38-26.16,17.62-14.42,15.57-34.05,12.67-51.85,9.89-1.67,19.83,1.35,27.26,5.94a37.28,37.28,0,0,1,6.24,4.7c7.39,6.87,11.66,15,20.67,21s21.53,9.4,34.09,12.08a435.4,435.4,0,0,0,43.84,7q-13.06-17.35-28.06-34.12c-7.26-8.15-15.05-16.32-26.36-22.5a88.23,88.23,0,0,0-21.89-8v0a118.76,118.76,0,0,0-48.11-1.18"/><path class="cls-12" d="M736.76,111c4.72,6.77,9.48,13.51,14.38,20.25,6.22,8.63,13.34,17.74,26.63,22.76,14.07,5.3,31.86,4.91,48.4,6,24.8,1.56,48.9,6.83,69.43,15.25,4.4-8.83-.24-18.29-5-27.06-6-11-12.44-22.21-23.63-31.51a68,68,0,0,0-7.24-5.32c-.72-.45-1.45-.92-2.22-1.35-19-11.24-45.72-16.28-72.78-18.49-6.19-.51-12.38-.92-18.48-1.18"/><path class="cls-12" d="M868.77,115.86c18.52,1.19,37.76-2.27,52.19-9.43C888.63,81,831.27,68.32,779.29,75.06c25.14-6.38,45.61-19.22,55.28-34.6-37,.88-79.25-5.52-107.26,9.12-12.85,6.71-20.18,16.91-34.4,22.52-16.51,6.47-36,4.89-56.09,2.86-16.85-1.7-34.12-3.71-50.19-1.55-12.73,1.71-24.06,6-35.11,10.17Q495.13,105,438.72,126.36c-40.39,15.3-80.9,30.71-117.17,49.39-19.89,10.3-38.37,21.46-56.27,33q-5.55,3.54-11,7.13c-31.33,20.53-61.53,41.77-95.58,60.55-2.93,1.65-5.86,3.24-8.84,4.81"/><path class="cls-12" d="M664.55,102.23c-24.14-5.74-51.81,2.62-68.84,14.83s-26.48,27.78-38.86,42c-10.67,12.25-23.55,23.65-36.44,35-6.62,5.85-13.24,11.75-20.36,17.39-3.83,3.12-7.89,6.19-12.08,9.14-1.62,1.14-3.29,2.24-5,3.38-8,5.37-16.45,10.57-23.89,16.3a119.23,119.23,0,0,0-15.77,14.57,109.27,109.27,0,0,0-15,21.36c-11.5,21.35-15.32,44.85-16.56,67.55-.51,9-.75,18.12-2.81,27a54.94,54.94,0,0,1-5.33,14.27c-8.76,16-27.24,29-45.54,41.43"/><path class="cls-12" d="M358.14,426.5c-30.23,27.43-47.43,60-49,92.92C309,523,309,526.54,308,530.05c-1.43,4.73-4.8,9.17-7.41,13.73-9,15.75-9.43,33-4.37,49.31,3.29,10.68,8.79,21,15.59,31.07,3.54,5.34,7.49,10.64,11.62,15.85,5.8,7.31,12,14.52,16.37,22.2"/><polyline class="cls-12" points="5.37 804.22 752.69 800.53 812.22 800.23 840.05 800.09 918.28 799.68 1000.72 799.29 1076.52 798.89 1160.22 798.52 1284.49 797.89 1284.39 781.13 1284.35 766.12 1284.31 753.85 1284.31 752.97 1284.08 708.34 1284.06 702.01 1283.81 647.09 1283.48 571.91 1283.45 560.4 1282.94 452.26 1282.88 431.17 1282.32 307.14 1281.91 219.07 1281.6 147.33 1281.5 129.47 1280.91 -5.78 1212.93 -5.55 1167.35 -5.41 912.17 -4.57 906.3 -4.56 860.68 -4.39 841.79 -4.33 0.65 -1.57 0.32 36.56 -0.41 123.6 -2.33 340.2 -2.56 367.76 -2.82 399.51 -3.22 447.33 -4.9 637.14 -5.23 677.34 -5.7 731.47 -6.33 804.03"/><path class="cls-12" d="M3.55,637.15A757.73,757.73,0,0,0,85.3,707.53q23.08,17.31,48.16,33.6c10.32,6.7,21.91,13.59,36.78,15.27-.53,4.89-7.61,8.64-15,10.64-4.65,1.26-9.57,2.07-14.36,3a79.32,79.32,0,0,0-8.4,2.15A75.78,75.78,0,0,0,120,777.84a87.35,87.35,0,0,1-13.8,6.2c-8.31,2.63-17.84,3.19-27.1,4.1-5.6.52-11.19,1.25-16.7,2.05-10,1.48-19.78,3.4-29.3,5.78a276.9,276.9,0,0,0-27.71,8.25"/><path class="cls-12" d="M341.42,662.52c-.27.14-.58.25-.85.37-14.12,6.2-31.6,9.45-49,9.3a127.89,127.89,0,0,1-21.91-2,51,51,0,0,1-8.7,5.45c-13,6.6-30.46,10-47.58,11.06-18.56,1.18-37.22.05-55.88-.34-2.76-.08-5.56-.13-8.31-.15-4.61,0-9.4,0-13.69,1.15-6.95,1.8-11.18,6-16.32,9.4a42.31,42.31,0,0,1-5.68,3.13,71.84,71.84,0,0,1-26.05,6.61"/><path class="cls-12" d="M174.59,718.17c4.13,4.57,13.12,6.66,21.66,7.37,22.64,1.85,45-3.5,67.61-5.55,4.33-.41,9.66-.43,12.06,1.8,1.59,1.41,1.37,3.28,1.33,5-.19,13.45,16.61,24.82,35,32.4,38.35,15.82,85.8,21,131.84,24.67a2763.87,2763.87,0,0,0,288.86,7.74c4.2-.1,8.81-.11,12.47.92A11.59,11.59,0,0,1,749,794a9,9,0,0,1,3.08,3.44c.23.42.41.84.64,1.27"/><path class="cls-12" d="M265.82,209c-.18-.09-.36-.14-.54-.23-12.12-4.62-17.52-13.6-21.25-22-2.28-5.08-4.24-10.27-3.71-15.53.48-4.67,2.91-9.17,5.42-13.59,6.16-11,13.44-22.37,28.28-29.65,7.9-3.9,17.42-6.33,26.94-8.53q22.43-5.16,45.69-8.76c16.21-2.51,32.69-4.51,48.31-8.12s30.51-9.2,40.2-17.45l-29.34-7c-7.91-1.92-16.09-3.85-24.63-3.88-14.82,0-27.86,5.57-39.77,10.95l-42.49,19.21"/><path class="cls-12" d="M298.57,104.37a1.79,1.79,0,0,1,.13-.14c7.43-8.7,19.88-15.44,32.55-21.61s26-12.15,35.9-20,16-18.11,11.93-27.65c-20.54,4.24-37.91,12.75-53.64,21.84s-30.35,18.92-47.8,26.72c2.64-7.61,8.49-14.81,16.78-20.77,5.32-3.81,11.68-7.16,15.78-11.5a20,20,0,0,0,5.27-17.34c-.83-5.94-3.64-11.72-6.46-17.42a3.47,3.47,0,0,0-2.18-2.06,8.28,8.28,0,0,0-3.43,0c-18.78,2.8-38.87,6.14-51.27,15.17-8.65,6.3-12.24,14.59-14.75,22.68a127.32,127.32,0,0,0-5.29,27.21c0,.39,0,.79-.09,1.19"/><path class="cls-12" d="M232.36,80.29c-.09-.28-.18-.51-.27-.79a71.45,71.45,0,0,1-3.22-33.66c1-6.87,3-13.94-.78-20.43-4.23-7.14-14.72-12.28-25.17-16.66-10.81,11.46-13.84,25-12.44,38.06s7,25.84,12.54,38.49c-6.51-.18-11.13-3.67-14.8-6.85q-12.69-11-25.31-21.89c-6.62-5.69-13.36-11.49-22.86-15.5-6.7-2.87-14.56-4.68-22.47-6.1a172.83,172.83,0,0,0-30.5-2.79,5.54,5.54,0,0,0-2.67.46,1.52,1.52,0,0,0-.62,1.56c.47,7.86,1,15.91,5.49,23.3C95.36,67.62,108.94,76,125.71,80.22c6.69,1.65,13.79,2.67,20.3,4.54s12.53,4.91,14.44,9c2.36,5.08-2,10.33-6.46,14.92q-9.87,10.25-20.72,20.13c-7,6.38-14.42,12.71-23.66,18a74.34,74.34,0,0,1-29.83,9.93c-19.51,1.87-38.05-5.06-53.66-12.13-8.95-4.08-18.14-8.63-21.73-15a12.42,12.42,0,0,1-1.64-6.15c0-5.17,3-10.41,7.14-15.12,5.71-6.54,13.33-12.53,18-19.33,3.05-4.5,4.76-9.43,3.52-14.2-1.37-5.31-6.13-10-10.61-14.64A282.81,282.81,0,0,1,.32,36.53"/><path class="cls-12" d="M782.44,706.25c.72.12,1.44.2,2.12.25a76.83,76.83,0,0,0,34.36-4.23c12.5-4.84,20.92-13,33.74-17.54,17.1-6.07,39.29-4.79,56.34-10.94,9.12-3.28,16-8.39,22.91-13.24,13.16-9.17,27.68-17.78,44.69-24.25,10-3.79,20.89-6.88,29.51-11.77,20.29-11.51,23.58-30.31,39.7-44,15-12.74,41-21.07,48.55-36a170.72,170.72,0,0,0-37,20.35c-13.21,9.74-23.34,20.91-36.14,30.84-1.21,1-2.52,2-3.87,3-9.87,7.13-21.28,13.41-32.69,19.6q-32,17.45-63.95,34.91c-8.75,4.75-17.63,9.61-28.29,12.64C881.12,669,868.33,670,856.87,673c-27.94,7.47-44.46,26-72.31,33.47-.27.11-.59.17-.86.25"/><path class="cls-12" d="M782.75,705.21c20.56-14.31,41.61-28.85,68.36-38.71,8.08-3,16.66-5.53,24.55-8.69,16.56-6.58,30-15.7,46.55-22.22,6.68-2.62,13.76-4.79,20.76-7.1a468.77,468.77,0,0,0,77.46-33.2"/><path class="cls-12" d="M938.25,725.48c-.09.06-.23.09-.32.14"/><path class="cls-12" d="M938.25,725.48c.26-3,3-6.06,5.94-8.58,3.87-3.29,8.51-6.47,10-10.41.85-2.18.62-4.46,1.43-6.64,1.75-4.56,7.79-8.14,14.56-10.36s14.35-3.38,21.67-4.88a191.65,191.65,0,0,0,45.26-14.94C1012.64,692.78,975,709.43,938.25,725.48Z"/><path class="cls-12" d="M938.66,728.16a5.57,5.57,0,0,1-.41-2.68"/><path class="cls-12" d="M756.47,797.38a126.05,126.05,0,0,0,36.47-11.14c10.37-5.12,18.8-11.56,28.9-16.9,11.68-6.2,25.31-10.82,38.39-15.86,23.28-9,46.24-20.1,55.91-35.76,6-9.63,6.53-20.54,15.4-29.3a37,37,0,0,1,3.56-3.1c9.06-6.84,22.6-11.26,36.37-14.3,15.66-3.46,32.23-5.46,47.53-9.52,19.82-5.27,36.82-13.71,52.61-22.66,28-15.81,53.11-33.41,74.87-52.44-11.37,6.82-22.82,13.67-34.68,20.29-26.11,14.52-53.9,27.75-86.12,36.41-17,4.58-34.94,7.77-51.37,13-19.45,6.22-36.13,15.23-49.38,25.87A109.36,109.36,0,0,0,905,702.66c-3.24,4.5-6.07,9.15-10.44,13.26-7.25,6.75-18.31,11.62-29,16.4q-54.27,24.24-104.68,51.56c-5.15,2.79-10.24,5.57-15.29,8.39"/><path class="cls-12" d="M371.3,713.42c-19,3.13-36.79,8.81-51.76,16.52-2.71,1.36-5.46,3-5.77,5.13s2.05,4,4.36,5.59c22.49,15.33,56.76,22.52,90.37,25.24s67.86,1.52,101.65,3.28c61,3.18,122.92,15.8,182,5.87,19.46-3.26,37.56-8.88,55.57-14.48,23.64-7.3,47.52-14.73,68-25-33.14,19.15-71.22,35.12-112.47,47.18l55.47-.34"/><path class="cls-12" d="M778.15,738.21h-.09c-14.41-.55-29.23-1.1-43,1.49-10.43,2-19.76,5.6-29.74,8.28-27.31,7.41-58.25,7.64-88.11,7.71-16.58,0-34.83-.26-47.13-7,20.72-2.27,42,.26,63-1,28.14-1.61,54-9.8,80.77-15.28s58-8,82,1.1a90.43,90.43,0,0,1-17.7,3.65"/><path class="cls-12" d="M812.22,798.65c33.42-15.85,61.14-36.4,96.24-51.09-19.69,18.32-43,35.15-68.42,50.69"/><path class="cls-12" d="M918.28,798.69c5.46-3.57,8.83-8.5,3.94-12s-16.14-3.34-18.18-7.8c-1.14-2.42,1.34-4.89,3.82-7,26-21.37,64.17-36.15,103.47-48s80.57-21.16,118.57-34.45"/><path class="cls-12" d="M1283.58,708.34c-18.66-2.93-37.69-5.48-57-5.76s-39.12,1.87-55.81,7.8c7.15,4.79,17,7.75,26.59,10.52,30.83,8.9,63.25,17.22,86.92,32.07a3.35,3.35,0,0,0,.5.34"/><path class="cls-12" d="M1283.54,753.85c-36.74-5-73.79-10-111.47-10.12-31.71-.1-63.27,3.31-93.84,8.49-5.15.89-10.29,1.81-14.76,3.58a53.81,53.81,0,0,0-10.82,6.19c-9,6.19-18.08,12.32-27.09,18.51-8.7,6-17.54,12.07-24.84,18.65"/><path class="cls-12" d="M1076.52,798.69A298.62,298.62,0,0,1,1156.29,769c40.77-9,86.34-10.53,127.74-2.85"/><path class="cls-12" d="M1285.88,781.23c-.49,0-1-.08-1.49-.1-32.3-2.19-65.31,1.44-95.64,8.68-9.75,2.32-19.28,5-28.53,8"/><path class="cls-12" d="M1204.18,637.3c2.85-14.9,17.8-28,34.85-38.89,14.29-9.14,30.39-17.19,44.45-26.5.41-.29.86-.54,1.27-.83"/><path class="cls-12" d="M1284.94,559.52c-.5.31-1,.57-1.49.88-8.12,4.69-16.14,9.46-24.21,14.18-33.51,19.58-68,40.18-84.32,66.51l-.85,1.42"/><path class="cls-12" d="M1105.64,599.75c6.18-17.48,21.35-33.81,42.86-46.12,16.5-9.46,36.54-16.56,51.82-26.72,16.32-10.82,26.13-24.25,34.62-38.16,12.5-20.33,22.33-41.73,46.13-57.6"/><path class="cls-12" d="M1105.14,600.29c.23-.17.45-.31.68-.45l46.25-32.06c6.62-4.6,13.34-9.28,21.23-13.12,11.59-5.66,25.5-9.55,36-15.94,20.42-12.33,24.07-31.14,33.64-47.62.09-.17.18-.31.27-.45,8.49-14.33,22.14-27.51,39.68-38.36,1-.66,2.07-1.25,3.11-1.91"/><path class="cls-12" d="M1222.42,440.74c-3.81,8.8-12.1,16.91-21.43,24.23-11.72,9.2-25.33,17.52-35.74,27.28-20,18.74-27.42,42.08-51.27,59.11-13.52,9.66-31.93,17-42,28.09-7.65,8.44-9.83,18.51-18.89,26.46"/><path class="cls-12" d="M1222.42,440.74a67,67,0,0,1,2.1-7A26.55,26.55,0,0,1,1222.42,440.74Z"/><path class="cls-12" d="M1043,615.72q5.27-4.86,10.67-9.59a654.1,654.1,0,0,1,59.13-46.06c7.93-5.5,16.14-11,23-17,17.57-15.46,26-34.42,45.93-48.78,8.84-6.36,19.8-11.77,26.87-18.88,10.17-10.29,10.9-22.65,13.85-34.64"/><path class="cls-12" d="M1108.32,517.15c28.89-21.68,68.32-38.65,90.47-63,7.2-7.94,12.42-16.52,20.61-24.15,6.22-5.76,14.06-11,19.2-17.07,7.47-9,8.38-19.42,9.17-29.46,1.3-16.56,2.51-33.53-6.39-49.22"/><path class="cls-12" d="M1096.47,527c.27-.26.54-.48.77-.71,3.33-3,6.84-5.9,10.59-8.71"/><path class="cls-12" d="M260,674.89c-19.55-40.42-34.09-81.9-37.38-124S227.44,466,252,426.57c5.3-8.55,13.32-17.9,28-20-8.27,1.38-13.63,6.46-15.37,11.55s-.69,10.35-.63,15.55c.17,11.56-4.59,22.88-8.71,34.14-12.45,34.1-19.62,69.17-15.4,104s20.36,69.45,51.75,98.72"/><path class="cls-12" d="M300.2,639.89q-4.08-5-7.89-10.07C264.24,592.54,246.67,551.35,258,511.1c5.94-21.36,19.88-41.73,28.31-62.76a95.84,95.84,0,0,0,6.13-21.24c.39-2.63-.47-6.13-4.77-6.46,19.55-19,35.71-39.29,48.11-60.38a25.16,25.16,0,0,1,1.46,19.19c-2.6,8-9.17,15.37-14.75,22.85-11.29,15.21-18.61,31.35-24.7,47.62-1.52,3.85-3,7.75-4.35,11.63-19.84,55.58-34.83,115.26.56,167.81"/><path class="cls-12" d="M329.7,431c-.77.54-1.58,1.11-2.39,1.65"/><path class="cls-12" d="M329.7,431c7-10.79,16.46-21.39,22.71-32.32,15.14-26.39,11.8-55.18,7.29-82.93-1.24-7.57-2.44-15.42,2-22.53,3.19-5.21,9.23-9.58,15.14-13.84q21.84-15.8,43.77-31.59l-33.76,39.87c-5.63,6.63-11.25,13.35-13.94,20.59-5,13.53.62,27.5,2.11,41.29C378.1,378.78,361.47,408.71,329.7,431Z"/><path class="cls-12" d="M320.48,460.54c-1.43-10.26,3-20,9.22-29.57"/><path class="cls-12" d="M157.6,684.87c-15.43-20.59-18-43.79-19.63-66.39-1.32-18.06-2.28-36.18,1.05-54.16,5.43-29.16,22-57.71,20.11-87Q144.45,505,129.67,532.8c-11.28,21.26-22.59,42.64-27.81,64.7-8,33.74-1.47,68.18,10.47,101.44"/><path class="cls-12" d="M184.18,618.22c-.23-.73-.46-1.5-.69-2.23A302.14,302.14,0,0,1,176,463.89c2.27-10.92,5.18-21.78,10.61-32.31,16.66-32.39,55.79-58.49,93.84-83.45-35,28.43-67,59.11-80.57,93.5-12.37,31.3-8.89,63.93-8.74,96.1a449.75,449.75,0,0,1-6.59,78.12"/><path class="cls-12" d="M469.08,601.92c6.73-14.35,1-30.64-14.86-42-13.06,12,4.12,30.88-12.39,41.19a12.39,12.39,0,0,1-6.45,2,5,5,0,0,1-.77,0c-7.27-.63-5.12-7.5-8.7-11.37s-14.43-3.54-17.49.43c-9-2.75-14.3-9.37-12.24-15.34.67-2,2.07-4.19.44-6-1.41-1.58-4.57-2.16-7.15-3-9.09-2.91-13-9.77-12.83-16s3.26-12.33,4.55-18.5c.35-1.69.48-3.53-1-4.94s-4.53-2.11-6.79-3.17c-7.42-3.43-6.81-10.58-2-15.46s12.62-8.32,18.8-12.61c14.29-9.9,18.85-24.56,11.49-36.92-2-3.38-4.9-6.82-4.23-10.39.71-4.13,5.9-7.36,10-10.65,7.35-5.74,12.34-12.59,14.44-19.72,2.59-8.83.94-18.29,7.28-26.42,5.67-7.2,16.73-12.21,27.42-16.91q29.37-13,58.73-25.95"/><path class="cls-12" d="M501.25,414.48c-13.34,7.27-26.38,15.17-34.52,25-10.22,12.33-12.88,27.71-29.61,36.87,2.72-26.21,6.07-53.7,28.68-75.87"/><path class="cls-12" d="M358.32,618.74c-.45-13.43-.94-26.8-1.39-40.19-.14-3.59-.25-7.21,1.55-10.64a4.12,4.12,0,0,1,2-1.95c3-1.28,6.69.88,8.41,2.86,9.16,10.51,12.27,22.54,15.29,34.32q1.63,6.48,3.29,13"/><path class="cls-12" d="M354.75,486a157.06,157.06,0,0,0-5,58.89c.38,3.56.88,7.15-.51,10.61-1.3,3.25-4.18,6.17-6.56,9.2a42.65,42.65,0,0,0-8.27,15.77c-.13.4-.22.74-.31,1.13"/><path class="cls-12" d="M354.75,486a25.32,25.32,0,0,0,2.1-7.13C356.09,481.26,355.38,483.63,354.75,486Z"/><path class="cls-12" d="M333.54,580.4c-11.41-8.5-4.54-21-5.11-31.93-.34-5.51-2.7-10.93-2.63-16.44.22-16.51,21.73-30.25,28.95-46"/><path class="cls-12" d="M669,608.35c15.25-20.71,39.5-39,69.63-52.45a125.09,125.09,0,0,1-16.09,40.78c23.55-11.46,38.81-27.93,52.58-44.2q21.27-25.2,39.78-51.19"/><path class="cls-12" d="M1007.06,431.76c20.61,20.54,39.83,41.8,49.57,65,2.18,5.22,4,10.61,8.67,15.15s13.22,8.13,22,7.34c5.64-.5,9.79-2.43,12.76-5.18,5.19-4.68,6.84-11.76,6.68-17.69-.61-22.47-6.55-44.84-17.5-66.26-.68-1.32-1.46-2.71-2.27-4.06-3.5-6-8.26-11.76-16.67-15.38q8.9,7.47,16.67,15.38c21.57,22,36.37,46.44,43.31,71.69"/><path class="cls-12" d="M1006.69,431.39a93.06,93.06,0,0,0-8.52-8.42C1001,425.76,1003.88,428.57,1006.69,431.39Z"/><path class="cls-12" d="M1006.69,431.39a2.16,2.16,0,0,1,.37.37"/><path class="cls-12" d="M868,637.73c29.72-30.59,59.2-63.52,58-99q5,25.2,10,50.45c47.18-22.42,60.93-62.88,53.64-98.81,13.81,25.42,22,52,24.18,78.76,14.33-10.73,15.73-25.58,16.46-39.31,1.79-33.39,2.5-69.15-23.2-98.07"/><path class="cls-12" d="M1146.35,484.78c-8.6-21.06-21.41-41.57-38.09-61-4.89-5.72-10.42-11.53-19.47-15.23a80.83,80.83,0,0,0-14.29-4c-8.4-1.7-17.31-2.89-25-5.52-11-3.78-18.28-10.12-26.52-15.72-24.44-16.52-58.62-27.16-92-37.4,25.15-5.08,54.24-3.19,76.72,4.91,4.7,1.71,11.89,3.41,14.86.72,1.31-1.22.94-2.72.85-4.13-.58-10.32,17.06-17.52,27.29-26.09,14.92-12.54,13.91-29.52,3.8-43.48s-28.13-25.5-46.28-36.47c-20-12.12-42.94-24.68-72-26.46"/><path class="cls-12" d="M833.72,548.23c.35-5,.88-10,1.67-15a175.42,175.42,0,0,1,13.33-44.17c15.79,23.87,22,50,17.94,75.67,7.25-8.64,7.4-18.79,7.41-28.48q0-34.72,0-69.43c20.52,16.73,37.29,35.14,49.54,54.6.47-25-7.06-49.72-14.59-74.29,16.29,9.36,30.42,20.12,41.75,31.84.25-20.72-10.74-41.4-30.89-58.08,23,10.84,42.26,24.64,56,40.2-8.29-21.54-25.7-41.31-43-60.78-4.8-5.45-9.74-11-16.94-15.39-6.61-4.05-14.84-6.93-23-9.82q-42-14.75-84.06-29.53C763.67,329.73,718,313.67,679,292.56a398,398,0,0,0,50.53,38.68c14.4,9.34,30,18.34,39.66,29.73,11.84,14,13.56,30.35,24.13,44.67,7.21,9.82,18.48,18.46,24.88,28.5,6.86,10.72,7.84,22.42,8.73,33.9,1.74,21.76,3.48,43.46,5.22,65.22"/><path class="cls-12" d="M959.11,412.6c0,.85,0,1.72.06,2.57"/><path class="cls-12" d="M959.11,412.57c-3-15.73-18.43-30.44-40.72-38.71-5.2-1.94-10.72-3.53-15.83-5.52-9-3.48-16.47-8.09-23.94-12.65l-25.11-15.44c10.72,5.31,25.22,6.62,38.2,9.55,21.2,4.8,38.93,14.41,50.49,26.16C953,387,958.4,399.74,959.11,412.57Z"/><line class="cls-12" x1="959.11" y1="412.57" x2="959.11" y2="412.6"/><path class="cls-12" d="M959.44,414.24c-.1-.54-.19-1.1-.33-1.64"/><path class="cls-12" d="M731.83,359.9c-2.08-1.07-4.12-2.14-6.16-3.26-12.48-6.66-24.39-13.78-35.57-21.23C659.69,315.09,634.18,291.79,619,266c23.94,13.52,44.45,29.23,60.63,46.48,14.27,15.19,25.53,31.89,46.21,44.09"/><path class="cls-12" d="M708,248.21c2.08-.91,4.2-1.85,6.27-2.79,7.4-3.25,14.75-6.52,22.2-9.79,11.32-5,25.44-10.23,38.33-7-4.55,6.29-16.51,9.1-27.3,11.25l-32.1,6.46"/><path class="cls-12" d="M786.89,209.44l-1-.84a243.21,243.21,0,0,0-44.63-30.9c12.24-.32,23.64,4.36,30.79,10.36s10.75,13.25,14.3,20.34"/><path class="cls-12" d="M811.2,241.36c4.23,10.28,11.53,20.12,21.4,28.88,4.23-5.83,4-12.73-.55-18.45-4.08-5.13-11.59-9.21-20.41-11.13-1-.23-2.07-.42-3.11-.59"/><path class="cls-12" d="M488.29,282.83c.41-.4.86-.8,1.31-1.2"/><path class="cls-12" d="M488.29,282.83c4.79-.58,10.4,1.8,10.32,4.83-.09,1.83-1.8,3.51-3.46,5q-14.32,13.35-28.7,26.77C468.67,306.43,476.27,293.74,488.29,282.83Z"/><path class="cls-12" d="M486,283.37a10.21,10.21,0,0,1,2.25-.52"/><path class="cls-12" d="M513.19,284.61c.65,4.95,3.87,9.74,9.12,13.54,2.22,1.61,6.79,3,8.81,1.25,1-.91.58-2.15,0-3.19-3.22-5.45-9.51-10.24-17.61-13.35"/><path class="cls-12" d="M672.51,106.68a84.62,84.62,0,0,0-13,37.35,128.24,128.24,0,0,1,15.54-12.8,6.21,6.21,0,0,1,3.48-1.25,3.94,3.94,0,0,1,3.35,2.42c1.9,3.72,3.81,7.48,5.72,11.17,14.23-13.58,11.6-32.79-6.19-44.72a5.19,5.19,0,0,0-2.3-1c-3.94-.39-2.52,4.07-5.41,5.72"/><path class="cls-12" d="M726.83,98.71c.72.42,1.4.84,2.13,1.26q26.61,15.91,53.67,31.61a5.71,5.71,0,0,0,2.85,1,3.85,3.85,0,0,0,3.15-1.53c2.34-3.26-1-7-5.13-9.49s-9.27-4.57-11.68-7.79c3.39-.69,7.49-2.28,6.31-4.29a5.35,5.35,0,0,0-2.17-1.6c-6.24-3.2-12.53-6.46-20-8.56s-16.13-3-23.85-1.26"/><path class="cls-12" d="M815.84,104.66c-.37-.51-.73-1.08-1.09-1.58"/><path class="cls-12" d="M815.84,104.66c15,3.94,25.51,12.64,31.1,22s7,19.57,8.22,29.57A639.41,639.41,0,0,1,815.84,104.66Z"/><path class="cls-12" d="M815.39,104.52a2.11,2.11,0,0,1,.45.14"/><path class="cls-12" d="M785,90.22c23-4.87,49.22-4,71.1,2.47,5.93,1.76,11.94,4.15,14.21,7.87s-1.19,8.91-7.78,9.24"/><path class="cls-12" d="M692.17,80.53a29.45,29.45,0,0,1-5.38-1.63"/><path class="cls-12" d="M692.17,80.53c18.33-5.77,31.93-17.46,51.89-21.45,10.33-2.09,21.49-1.93,32.33-1.71,2.94.05,6.74.58,7.06,2.33-8.44,1.75-16,5-21.43,9.28-2.71,2.1-5,4.54-8.47,6.16-4.15,2-9.57,2.6-14.77,3.15-6.41.73-12.82,1.43-19.28,2.15C710.47,81.43,700.54,82.34,692.17,80.53Z"/><path class="cls-12" d="M682.6,82.87a69.71,69.71,0,0,0,9.57-2.34"/><path class="cls-12" d="M362.4,254.43c-25.89,25.3-64.23,45.37-98.67,66.87-47.84,29.88-89.3,63.45-123.11,99.67-4.09-7.42-1-15.51,2.73-23,17.33-34.85,48.17-67.22,89.29-93.83,43.28-28,98.5-50.22,129-83.84-30,18.44-65.94,32.82-98.19,49.82-76.49,40.29-130.21,94.1-174.31,149.35-2.08-13.56,5-27,13.7-39.61C138.26,328.61,200.92,286,267.93,248s139.59-72.54,201.84-113.43c-6.57,20.82-24,40.35-49.25,55.07,34.46-18.11,64.3-39.4,88.17-63,5.31-5.25,10.4-10.63,17.25-15.23a114.56,114.56,0,0,1,17.95-9.27c27.79-12,59.39-20.84,92.53-25.78"/><path class="cls-12" d="M362.4,254.43c2.57-2.66,5.14-5.35,7.61-8C367.63,249.16,365.11,251.85,362.4,254.43Z"/><path class="cls-12" d="M118,487.64c-.05-.6-.09-1.25-.14-1.84-1-22.27,13.69-43,34-62.2,11.85-11.15,25.55-21.79,39.16-31.86C251,347.23,314.45,303.93,362.4,254.46"/><path class="cls-12" d="M118.32,485.49a4.39,4.39,0,0,1-.45.34c-18,14.1-39.31,26.69-63,37.28-10.69-23.94,7.22-48.81,24.72-71.25-8,2.23-15.93,4.46-23.92,6.66-3.75,1.05-7.81,2.08-11.83,1.59-5.92-.75-9.37-4.81-9-8.46s3.42-7,6.43-10.19a142.73,142.73,0,0,1-36.69,9.47,9.86,9.86,0,0,1-.69-3.59c0-5.54,4.53-11.09,8.94-16.14Q43,396.6,73.09,362c9.9-11.33,19.85-22.73,31.65-33.39,18.88-17.05,42.68-32.52,54.68-51.7"/><path class="cls-12" d="M252.33,214.77c-48.4,8.12-80.21,35.33-108,60.68-.9.82-1.81,1.67-2.71,2.5q-19,17.4-38.11,34.79C92.35,323,81.09,333.25,66.88,342c-8.29-8.71-3.54-19.75,2.17-29.21,15.33-25.4,36.26-49.57,62-71.7,25.64-22,56.65-42.68,68.86-68.53-20.79,12.59-45,23.06-71.32,30.89q5.3-19.6,12.62-39a241,241,0,0,0-44.47,24.73A40.31,40.31,0,0,0,83,177.61C38.3,227.86,51.46,292.3.16,340.19"/><path class="cls-12" d="M3.51,373.76a19.65,19.65,0,0,1-1-6c0-6,2.62-12,6.94-17.38,5.81-7.23,14.46-13.5,24-19.07,3.57-2.07,9.84-4,12.69-1.53,1.5,1.23.91,3,.24,4.49C36.17,357.44,25.17,381.53-1.2,399.5"/><path class="cls-12" d="M282.29,40c-9,13.82-16.9,28.06-16.81,42.82a5.08,5.08,0,0,0,0,.87c.11,4.75.89,9.55-.77,14.25a10.79,10.79,0,0,1-1.39,2.78c-2.43,3.88-7.12,7.34-13.62,8.43"/><path class="cls-12" d="M282.29,40a13.56,13.56,0,0,0,3.28-5C284.45,36.63,283.37,38.33,282.29,40Z"/><path class="cls-12" d="M262.69,100.52c-6.36,2-14.9.87-19.39-2.48s-4.67-7.82-4.05-12a42.68,42.68,0,0,1,1.07-4.81c3.31-11.09,12-21.6,24.93-29.75,5.86-3.69,12.81-7.19,17-11.5"/><path class="cls-12" d="M194.76,118.51c-3.77,9.08-15.67,16.07-22,24.65-.59.77-1,1.82.05,2.35a4.85,4.85,0,0,0,3,.08c13.73-2.79,19.29-13.74,33.06-16.44,5.66,3.8,5.54,9.45,6.15,14.59A42.4,42.4,0,0,0,221.18,161c1.39-17.64,2.51-36-9.42-52.09a4.49,4.49,0,0,0-3.35-2c-2.48-.13-3.51,1.8-4.23,3.21-1.53,3.2-5.36,6-10.23,7.47a25.71,25.71,0,0,1-2.89.8"/><path class="cls-12" d="M353.16,95.52c17.82-6.41,39.63-8.62,59.88-6-21.27,4.92-43.07,9-65.2,12.24"/><path class="cls-12" d="M103.34,47.64a7.26,7.26,0,0,1-1.62.43"/><path class="cls-12" d="M103.34,47.64c8.57,9.78,22.19,17.88,38.47,22.89,4.1-4.19-2.24-9.21-8.08-12.52-6.2-3.55-12.35-7-18.55-10.58A25.07,25.07,0,0,0,106.54,44C106.77,45.45,105.42,46.93,103.34,47.64Z"/><path class="cls-12" d="M103.12,47.44c0,.09.13.14.22.23"/><path class="cls-12" d="M394.62,240.83c.76-.46,1.48-.91,2.2-1.37,15.11-9.2,30.21-18.46,45.23-27.64,35.57-21.79,71.6-43.89,96.5-70.51,3,3.7-.52,8-3.94,11.58L516.5,171.51c-15.58,16-31.47,32.27-53.75,45.05-20.29,11.68-45.11,20-69.79,28l4.32-4.85"/><path class="cls-12" d="M1224.18,248.13c1.15-8.48,12.78-14.79,17.37-22.78,4.18-7.19,2.3-15.18-.25-22.66-4.15-12-10.42-24.25-22.6-33.77a66.9,66.9,0,0,0-5.84-4.08c-10.86-6.7-24.83-11-38.58-15.09-6.37-1.93-15.55-3.43-19.33.37,8.24,6.5,14,14.23,16.69,22.39-8.23-4.47-16.51-8.88-24.75-13.35-4.71-2.53-9.82-5.2-16-5.63s-13.37,2.39-12.9,6.28"/><path class="cls-12" d="M1219.06,168.75c-3.44-3.66-1.88-8,4-11.15,1.91,4.18,6.58,8,12,11.64,4,2.76,8.42,5.46,12.35,8.21,29,20.21,33.16,45.72,11,67.61-9.69,9.58-24.34,18.84-24.89,29.1"/><path class="cls-12" d="M1236.54,168.44c23.81,2.67,35.29,17.56,39.12,30.72a71.71,71.71,0,0,1,2.91,19.92,75,75,0,0,1-6.91,31.25c-5.07,11.27-13,22.66-9.7,34.09,2.42,8.45,10.62,15.86,20.36,22.7,1.22.87,2.49,1.74,3.75,2.58"/><path class="cls-12" d="M139.78,767.26c-26.56-13.29-49.69-29-68.31-46.57C53,703.33,36.62,683,5.24,674.85a3.28,3.28,0,0,0-1.12,2.46c0,2.29,2.37,4.74,4.72,6.74Q64.41,731,120,777.84a2.93,2.93,0,0,0,.5.42"/><path class="cls-12" d="M61.38,787.74c1.39-3.31-1.52-6.67-4.32-9.63Q30.94,750.51,4.8,723a77,77,0,0,0-.87,8.54c-.84,22.58,9.35,45.33,29.15,64.47,0,0,0,0,.09.08"/><path class="cls-12" d="M897.89,38.46c-.13-.08-.22-.17-.36-.25-1.27-.85-2.58-1.72-3.8-2.56a501.42,501.42,0,0,1-51.93-40c-1.63-1.38-3.18-2.79-4.72-4.17"/><path class="cls-12" d="M1282.48,702A678,678,0,0,0,1130,685c-4,0-8,0-12,.1-14.45.24-29,.93-43.32-.41s-28.56-5.08-37.3-12c38.7-18.89,87.95-27.69,137.54-31.54q11-.89,21.95-1.42c2.48-.15,5-.27,7.5-.37,27.41-1.12,55.83-.42,79.43,7.76.37.11.73.23,1.09.37"/><path class="cls-12" d="M897,37.93c.19.08.32.19.5.28l6.74,3.71q94.56,52.15,189.14,104.29c8.19,4.52,16.43,9,24.62,13.55,1.22.7,2.49,1.38,3.71,2.08,1,.48,1.9,1,2.85,1.54,15.79,8.69,31.72,17.55,46.07,27.08,11.54,7.68,22,15.82,30.65,24.78a116,116,0,0,1,22.37,32.95,149.49,149.49,0,0,1,8.8,26c3.48,14,5.28,28.3,7,42.35.7,5.87,1.39,11.78,2,17.66,2,22.91,1.72,45.95-10,67.64-6.33,11.81-15.78,22.8-26.68,33.35-8.69,8.48-18.33,16.68-27.93,24.79Q1161.95,472.52,1147,485c-5.23,4.4-10.45,8.76-15.72,13.13-7.62,6.33-15.23,12.66-22.94,19a1.55,1.55,0,0,1-.5.39c-3.46,2.9-7,5.82-10.58,8.71-10,8.29-20.15,16.54-30.28,24.8-26,21.11-52.77,42.47-88.28,57.73-27.15,11.67-58.48,19.32-86.95,29.75-1.45.51-2.84,1-4.24,1.57-43.59,16.64-78.62,40.37-120.75,58.34C680.93,735,568,745.21,466.17,730.37c-32.09-4.65-63.1-11.65-94.55-17.61-16.41-3.08-32.95-5.94-49.81-8-49.12-6.15-104-5.2-145,12.4"/><path class="cls-12" d="M1219.43,142.09c-1.49-.87-3-1.74-4.57-2.55-32.62-18.28-69.31-33.68-108.69-45.63a231.05,231.05,0,0,1,14.74,31.92c-13.39-4.85-22.45-13.13-32.91-20.25-13.12-8.92-28.87-16.14-44.52-23.3Q978.28,52.39,913,22.47c17.57-2.65,35.65,1.51,52.47,5.58L906.3-4.56c-.59-.33-1.22-.64-1.81-1,2.58.28,5.15.55,7.68,1C936.31-1,958,7.81,977.33,17.64c21.4,10.85,41,23.17,64.07,32.6a88.9,88.9,0,0,0-13.28-30c30.68,4.49,56.6,17.07,79.32,30.68S1150.89,79.61,1176.5,91c-7.46-30.19-26-59.3-53.79-84.4,28.24,2.09,48.21,17.4,69,29.49a10.39,10.39,0,0,0,5.2,1.77,8.15,8.15,0,0,0,5.42-2.36c7.56-7,7-18.37,19.67-21.18q5.67,12.92,10.61,25.89a500.6,500.6,0,0,1,28.8,114.42l-44.68-16.32"/><path class="cls-12" d="M1244.05,128.45a1.74,1.74,0,0,0-.27-.22"/><path class="cls-12" d="M1244.05,128.45c-4.24-29.16-24.07-57.31-55.53-78.92A81.91,81.91,0,0,1,1196,69.61c2.52,11.72,2.24,23.93,9.54,34.85,7.76,11.56,23.15,20.28,38.13,28.63C1245.6,131.87,1245.73,129.75,1244.05,128.45Z"/><path class="cls-12" d="M1244.24,129.64c0-.43-.1-.79-.19-1.22"/><line class="cls-12" x1="1076.95" y1="81.9" x2="1076.91" y2="81.93"/><path class="cls-12" d="M1077,81.9c2-12.64-5.63-25.09-13.07-36.91,9.37,8.79,23.85,15,35.48,22.65,11.18,7.34,19.75,16,28.22,24.73-7.29-3.71-14.7-7.44-23.29-9.76S1085.57,79.53,1077,81.9Z"/><path class="cls-12" d="M1076.73,83.45a8.27,8.27,0,0,0,.22-1.55"/><path class="cls-12" d="M1033.89,63.12c-19.8-7.15-37-17.16-49.78-29,12,2,20.94,8.13,29.18,13.93,7.07,4.92,14.08,9.82,21.14,14.75"/><path class="cls-12" d="M1149.47,58.3c-2.21-1.6-4.48-3.15-6.88-4.67-29.06-19.13-66.1-33.46-91.82-54.41,9.81.3,19.65.59,29.46.87,4.52.15,9.39.36,12.92,2.08a17.48,17.48,0,0,1,5,4.05q22.29,23.69,44.55,47.32"/><path class="cls-12" d="M1096.3,144.33c-3.06-11.07-16.46-19.7-29.4-27.44Q1007.09,81,941.61,49.13C931.2,44,918.49,38.77,905.72,41"/><path class="cls-12" d="M896.12,34.34c-2.43-11.61-9.1-22.84-19.3-32.62A15.28,15.28,0,0,0,873-1.15c-3.52-1.65-8.85-1.69-12.29-3.24A7.81,7.81,0,0,1,859-5.46"/><path class="cls-12" d="M1281.07,149.42a16.84,16.84,0,0,0,.53-2.06,39.6,39.6,0,0,0-.1-17.86c-2.47-11.67-8.92-23.27-14.83-34.53A456.08,456.08,0,0,1,1242,39.17c-2.23-6.27-4.38-12.6-6.34-18.9-2.64-8.5-8.87-19.19-22.73-19.15h-.09c-12.38.13-20.53,9.45-32.9,10-4.22-5.5-8.39-11.06-12.61-16.56-.46-.62-.95-1.24-1.41-1.86"/></svg>