<?xml version="1.0" encoding="utf-8"?>
<!-- Generator: Adobe Illustrator 24.0.3, SVG Export Plug-In . SVG Version: 6.00 Build 0)  -->
<svg version="1.1" id="Ebene_1" xmlns="http://www.w3.org/2000/svg" xmlns:xlink="http://www.w3.org/1999/xlink" x="0px" y="0px"
	 viewBox="0 0 1409.1 806.2" style="enable-background:new 0 0 1409.1 806.2;" xml:space="preserve">
<style type="text/css">
	.st0{fill:#365514;}
	.st1{fill:#684CBF;}
	.st2{fill:#585A60;}
	.st3{fill:#1A281E;}
	.st4{fill:#345215;}
	.st5{fill:#1E341A;}
	.st6{fill:#26242C;}
	.st7{fill:#50525A;}
	.st8{fill:#7D58DB;}
	.st9{fill:#445120;}
	.st10{fill:#526625;}
	.st11{fill:#998489;}
	.st12{fill:#7C6769;}
	.st13{fill:#172416;}
	.st14{fill:#0A3207;}
	.st15{fill:#5B4D53;}
	.st16{fill:#524449;}
	.st17{fill:#7D5052;}
	.st18{fill:#C6747D;}
	.st19{fill:#8B5152;}
	.st20{fill:#830F2D;}
	.st21{fill:#DA4369;}
	.st22{fill:#51080E;}
	.st23{fill:#6E0B22;}
	.st24{fill:#B25145;}
	.st25{fill:#86392C;}
	.st26{fill:#2C3C0F;}
	.st27{fill:#7C3329;}
	.st28{fill:#435719;}
	.st29{fill:#455921;}
	.st30{fill:#65717B;}
	.st31{fill:#7B98A8;}
	.st32{fill:#293A12;}
	.st33{fill:#1D1B20;}
	.st34{fill:#182114;}
</style>
<rect x="204.7" y="276.2" class="st0" width="1376.4" height="586.5"/>
<rect x="-177.4" y="-146.8" class="st1" width="1723.8" height="436.4"/>
<rect x="-97.1" y="-62.1" class="st2" width="534.3" height="922.7"/>
<path class="st3" d="M1409.1,608.9v196.6H878.5V803c22.5-21,53.1-30.5,82.9-38.1c31.6-8,63.5-14.5,95.8-19.4
	c48-7.3,97.4-11.5,141.6-31.7c15.5-7.1,30.1-16,44.8-24.6C1296.7,658.2,1352.1,631.3,1409.1,608.9z"/>
<path class="st4" d="M1033.6,395.7l-40.2-5.6c-2.5-0.2-4.9-0.8-7.3-1.6c0.4-5.8,0.4-11.6,0-17.4c4.4-1.2,9,1,13.2,2.8
	c12.2,5.2,25.3,7.8,38.5,7.7c11.9-5.6,26.1-3.5,38.8,0.1c13,3.7,26,8.9,39.6,8.4c7.4-0.2,14.9-2.2,22.2-0.5
	c10.6,2.4,18.4,12.1,29,14.8c7.5,1.9,15.6,0.2,22.7,3.1c4.1,1.7,7.5,4.9,11.8,6.4c6.6,2.3,13.8,0.1,20.8-0.7
	c11.7-1.3,23.5,1.7,33.4,8.5c-2.3,7-5.3,13.7-9,20.1c-7.6,12.9-19.7,23.3-34,27.4l-0.4,0.4c-16.3-9-39.8,3.3-41.9,21.9
	c-0.3,1.6-0.1,3.2,0.5,4.7c0.8,1.3,1.8,2.4,3,3.2c27.2,20.9,63.6,25.2,97.8,23.9h0.8c34.5-1.3,65-7.6,99.4-3.8
	c8.1,2.2,17.9,1.2,20.1-6.9c1.2-4.6-1.4-8.3-5.5-11.1c-3.8-28.1-7.6-57.3-9.7-86.4h0.5c10.5,0.7,21.1,0.4,31.6-0.7v194.5
	c-57.1,22.4-112.4,49.3-165.6,80.3c-14.7,8.6-29.3,17.5-44.8,24.6c-44.2,20.2-93.6,24.3-141.6,31.7c-32.2,4.9-64.1,11.4-95.8,19.4
	c-29.8,7.5-60.4,17.1-82.9,38.1v2.5H725.2c16.9-33.1,49.4-55.8,83.7-69.8c34.8-14.2,72.1-20.8,108.3-30.5
	c64.1-17.2,126.2-44.7,178.2-86.2c7.9-6.3,15.9-13.3,19.2-22.9c6.8-19.6-8.2-39.4-22-54.8c-13.8-15.4-28.4-35.8-20.7-55.1
	c4.9-12.3,17.4-19.5,29.6-24.1c12.2-4.6,25.4-7.8,35.7-16.1c6-4.8,11-12.4,9.1-19.9c-2.5-9.6-14.1-12.9-23.7-14.5l-89.2-15.1
	L1033.6,395.7z"/>
<path class="st5" d="M1409.1,205.4v209c-10.5,1.1-21.1,1.3-31.6,0.7h-0.5c-2-28.2-2.3-56.5,0.8-83.7
	C1382.8,288.3,1395.9,246.6,1409.1,205.4z"/>
<path class="st6" d="M1168.1,75.8c-38.3-26.1-80.6-47.2-116.1-77.3h42.4c21.7,10,42.2,22.7,61.1,37.6c9.8,7.8,21.2,16.7,33.3,14
	l0.1-0.3c4.5-4.8,4.6-12.5,2.4-18.7c-2.2-6.2-6.4-11.7-9.9-17.4c-2.9-4.8-5.3-9.9-7.2-15.2h8.8c12.9,20.2,27.9,38.8,44.9,55.4
	c1.1,1.1,2.5,2.3,4,2.1c2.9-0.3,3.3-4.6,2.5-7.5c0-0.2-0.1-0.4-0.2-0.6c1.5-4.6,2.8-9.2,2.7-14c-0.2-3.1-0.7-6.2-1.6-9.2
	c-2.5-9.1-5.7-17.9-9.8-26.4h17.7c20.5,25.8,32.1,57.7,50.9,84.8c0.6,0.9,1.6,1.9,2.6,1.6c0.7-0.3,1.2-1,1.5-1.7
	c0.4-0.8,0.7-1.6,1.1-2.5l0.2,0.1c6.2,0.8,12.4-2.6,16.4-7.5c4-4.9,6.2-11,7.9-17c5.4-18.7,7.7-38.3,6.6-57.8h21v0.6
	c-3.1,25.5-4.6,51.1-4.4,76.8c0.1,16.9,0.8,33.8,2.3,50.6c0.2,2.1,0.5,4.4,2.2,5.7c2,1.4,4.5,0.5,6.7-0.8c11.3-0.2,22-5.8,30.5-13.3
	c8-7,14.4-15.7,20.5-24.4v111.6c-13.3,41.3-26.4,82.9-31.3,125.9c-3.1,27.3-2.8,55.5-0.8,83.7c2,29.2,5.9,58.4,9.7,86.4
	c-3.5-2.2-7.4-3.8-11.4-4.7l-4.2-0.9c-9.7-2.3-19.5-4.1-29.4-5.2c-21.5-2.2-43.2,0.6-64.9,1.5c18.4-4.2,33.6-25.8,39-44
	s7.1-38.1,16.4-54.8c5.7-10.2,14.2-19.1,17.2-30.4c3.3-12.7-0.9-26-1.4-39.1c-0.8-19.5,6.6-38.3,9.4-57.6
	c2.7-19.3-0.8-42.1-17.2-52.5c-5-3.1-10.8-4.9-15-9c-9.1-8.7-7.2-23.5-11.6-35.3c-4.2-11.4-14.2-19.5-24.6-25.8
	c-10.3-6.3-21.5-11.4-30.4-19.4c-5.4-4.8-9.9-10.6-15.8-14.7c-14.5-10.1-34.5-7.8-50.1-16l-0.1,0.2
	C1184.6,87.4,1176.4,81.5,1168.1,75.8z"/>
<path class="st7" d="M1409.1,58.1v35.7c-6.2,8.7-12.5,17.4-20.5,24.4c-8.5,7.5-19.2,13-30.5,13.3c0.5-0.3,0.9-0.6,1.3-0.9
	c18.2-13.3,32.6-31.5,41.7-52.6c2.8-6.4,5-13,6.7-19.8L1409.1,58.1z"/>
<path class="st1" d="M1409.1-1.5v59.6h-1.3c-1.7,6.8-3.9,13.4-6.7,19.8l-1.7-0.7c-4.1-6.8-13.3-8-21.1-7.7c-10.6,0.5-21,2.7-31,6.4
	h-0.4c-0.1-25.7,1.4-51.3,4.5-76.8v-0.6H1409.1z"/>
<path class="st8" d="M1358.1,131.4c-2.2,1.3-4.7,2.2-6.7,0.8c-1.7-1.2-2-3.6-2.2-5.7c-1.4-16.8-2.2-33.7-2.3-50.6h0.4
	c10-3.7,20.4-5.9,31-6.4c7.9-0.4,17,0.9,21.1,7.7l1.7,0.7c-9.1,21.1-23.5,39.3-41.7,52.6C1359,130.8,1358.6,131.1,1358.1,131.4z"/>
<path class="st9" d="M1386.7,501.5c4,2.7,6.7,6.5,5.5,11.1c-2.2,8.1-12,9.1-20.1,6.9c-34.3-3.9-64.9,2.4-99.4,3.8h-0.8v-0.2
	c11.1-8.5,25.5-11.6,39.4-12.7s28-0.4,41.9-2.4c4.3-0.6,8.6-1.5,12.2-3.9c3.4-2.3,5.8-4.3,5.7-8.3l4.2,0.9
	C1379.4,497.7,1383.2,499.3,1386.7,501.5z"/>
<path class="st10" d="M1276.9,492.2c21.7-0.9,43.4-3.7,64.9-1.5c9.9,1.2,19.7,2.9,29.4,5.2c0.1,4-2.3,6-5.7,8.3
	c-3.6,2.4-7.9,3.3-12.2,3.9c-13.8,2-27.9,1.3-41.9,2.4c-14,1.1-28.2,4.2-39.4,12.7v0.2c-34.3,1.2-70.6-3-97.8-23.9
	c-1.2-0.8-2.3-1.9-3-3.2c-0.6-1.5-0.8-3.1-0.5-4.7c2.1-18.6,25.6-30.9,41.9-21.9c-3.8,0.9-6.8,4-7.8,7.9c4.2,2.7,8.6,5.1,13.2,6.9
	c16.8,6.9,35.7,8.4,54,7.9C1273.6,492.2,1275.3,492.2,1276.9,492.2z"/>
<path class="st7" d="M1235.9,138.6c-5.9-8.1-12.4-15.8-19.3-22.9c-7.6-7.8-15.7-15.2-24.2-22l0.2-0.2c15.7,8.2,35.6,5.9,50.1,16
	c5.9,4.1,10.4,9.9,15.8,14.7c9,8.1,20.2,13.2,30.4,19.4c10.3,6.3,20.3,14.4,24.6,25.8c4.4,11.8,2.6,26.6,11.6,35.3
	c4.2,4.1,10.1,5.9,15,9c16.4,10.4,20,33.1,17.2,52.5c-2.7,19.3-10.1,38.1-9.4,57.6c0.5,13.1,4.8,26.4,1.4,39.1
	c-3,11.3-11.5,20.2-17.2,30.4c-9.3,16.7-11,36.5-16.4,54.8c-5.4,18.4-20.6,39.8-39,44c-1.6,0.1-3.3,0.1-4.9,0.2
	c-18.3,0.5-37.3-1-54-7.9l0.1-0.2c8-1,16-2.6,23.8-4.8c9.8-2.8,19.5-6.7,26.9-13.7c21.7-21,13.5-60.2,33.1-83.3
	c5.6-6.6,13.7-12.5,13.8-21.2c0-3.1-1-6.1-1.8-9.1c-7.7-30.1,14.4-61.2,9.4-91.8c-0.6-3.8-1.8-7.8-4.7-10.4
	c-3.7-3.3-9.4-3.7-12.9-7.2c-3.7-3.8-3.7-9.7-3.9-15c-0.4-12.8-3.1-25.3-8.1-37c-1.7-4.1-3.9-8.3-7.7-10.4c-2.8-1.6-6.2-1.9-9.3-2.5
	c-8-1.5-15.5-4.9-21.9-10l-0.5,0.3C1248.8,157.7,1242.7,147.9,1235.9,138.6z"/>
<path class="st7" d="M1330.5-1.5c1,19.5-1.2,39.1-6.6,57.8c-1.7,6.1-3.9,12.2-7.9,17c-4,4.9-10.2,8.3-16.4,7.5l-0.2-0.1
	c4.7-10.5,9.4-21.1,14.1-31.6c7.2-16.1,14.6-33.1,13.1-50.7L1330.5-1.5z"/>
<path class="st1" d="M1326.7-1.5c1.4,17.6-5.9,34.6-13.1,50.7c-4.7,10.5-9.4,21.1-14.1,31.6c-0.4,0.8-0.7,1.6-1.1,2.5
	c-0.2,0.8-0.8,1.4-1.5,1.7c-1,0.3-2-0.7-2.6-1.6c-18.7-27.2-30.4-59.1-50.9-84.8L1326.7-1.5z"/>
<path class="st2" d="M1256,421.7c2.1-6.1,3.8-12.4,5.5-18.6c0.3-1.2,0.6-2.3,0.9-3.5c14.9-58.8,25.1-120.7,11.1-179.7
	c-4.3-18.1-10.8-35.5-19.3-51.9l0.5-0.3c6.4,5.1,14,8.6,21.9,10c3.2,0.6,6.5,0.9,9.3,2.5c3.8,2.2,6.1,6.4,7.7,10.4
	c4.9,11.7,7.7,24.3,8.1,37c0.2,5.3,0.2,11.3,3.9,15c3.5,3.5,9.2,3.9,12.9,7.2c2.9,2.6,4,6.5,4.7,10.4c5,30.7-17.1,61.7-9.4,91.8
	c0.8,3,1.8,6,1.8,9.1c-0.1,8.6-8.2,14.6-13.8,21.2c-19.6,23-11.4,62.2-33.1,83.3c-7.3,7.1-17.1,11-26.9,13.7
	c-7.8,2.2-15.7,3.8-23.8,4.8l-0.1,0.2c-4.6-1.9-9-4.2-13.2-6.9c1-4,4-7,7.8-7.9l0.4-0.4c14.3-4.1,26.5-14.4,34-27.4
	C1250.6,435.4,1253.6,428.7,1256,421.7z"/>
<path class="st5" d="M1034.8,369.6c-16-3.9-32.3-5.5-48.7-4.8l-0.4-0.2c0.1-0.3,0.1-0.6,0-0.9c-0.3-1.6-2.6-3-4.5-3.4
	c-46-11-93.2-15.8-140.5-14.1c-12,0.4-24.1,1.3-35.9,4.1c-5.2,1.3-10.3,2.8-15.3,4.7c-13.7,2.9-31.9-4.1-45.4-5.8
	c-7.6-0.9-15.4-0.3-23,0.3c-19.4,1.6-38.8,3.1-58,6.2c-12.6,2-25.2,4.6-37.9,6.1c-28.9,3.5-57.5,2.6-86.5,0.3l-1.4-0.8
	c-32.4-11.1-67.6-0.5-101.7,1.8c-23.6,1.6-47.4-0.8-70.9,2c-33.9,4.1-67.8,19-101.1,11.3c-0.2-3.6-0.4-7.4-2-10.7
	c-1.4-2.8-3.6-5-5.9-7.2l-3.3-3.3l0.6-0.7c-4.1-40.5-1-81.5,9.1-120.9c3.2-12.5,7.2-25,8-37.9c0.9-12.9-1.8-26.7-10.3-36.4
	c-9.6-11-24.8-14.9-39.1-17.9c19.2-19.9,54.8-18.2,83.7-13.6c14.5,2.3,30.3,5.2,40.1,16.3c15.6,17.6,8.4,44.8,10.4,68.3h-0.2
	c0.4,7.2,2,14.3,4.7,21c1,2.4,2.1,4.7,4.1,6.3c4.6,3.5,11.1,1.3,16.4-0.9c14.5-6.1,30.3-12.3,45.8-16.5c9.3-1.7,18.4-4,27.4-6.9
	c19.1-6.1,37.8-14.7,57.3-18.3v0.2c14.8-2.1,30.7,6.4,41.9,16.4c5,4.4,9.9,8.8,14.9,13.3c3.5,3.1,7.1,6.3,11.2,8.5
	c10.5,5.6,23.2,6.1,35,4.8v-0.1h0.2c13.6,1.9,23.2-15.6,19.5-28.9s-15.3-22.5-26.2-31c-10.8-8.4-22.3-18.1-25.3-31.5
	c-5.5-24.6,19.3-44.9,42.1-55.2c31.8-14.3,65.7-22.8,100.3-25c2.2-0.1,4.3-0.3,6.5-0.3c12.8,3.2,25.2,8.4,34.2,18.2
	c6.8,7.4,12.2,17.5,10,27.3c-3,13.5-18.1,20-26.2,31.2c-10.9,15.1-5.9,39.3,10.2,48.7c7.9,4.6,9.5,6.9,18.1,9.9
	c14.7,5.2,34,5.2,39.4,0.1c8.7-1.4,17-4.9,24.2-10.3c18.8-14.5,30.4-36.9,49-51.7c9.8-7.7,21-13.3,33-16.3l0.2,0.6
	c11.3,2.4,23.9,2.6,34.6,7c7.1,2.9,14.3,6.4,19.2,12.4c6.2,7.7,7.7,18.1,8.6,28c2.7,27.1,4.5,56.7,22.6,76.9
	c5.6,6.3,13,11.5,21.4,12c10,0.6,18.9-5.5,26.9-11.9l0,0c0.9-0.5,1.7-1,2.5-1.6c8.3-6.3,9.7-18.3,15.5-27.1
	c14.3-22,50-18.6,66.7-38.9c4.6-5.6,7.3-12.6,11.9-18.2c18.6-22.8,56.9-13.2,83.2-26c6.8,9.3,12.9,19.1,18.3,29.4
	c8.5,16.4,15,33.8,19.3,51.9c14,59,3.8,121-11.1,179.7c-0.3,1.2-0.6,2.3-0.9,3.5c-26-2-52.7,1.6-78.1-4.4
	c-14-3.3-27.1-9.5-40.5-14.9c-19.5-7.8-39.7-14-60.2-18.3c-4.8-1-9.7-2-14.6-1.2c-11.6,1.8-23.7,12.6-33.3,5.7L1034.8,369.6z"/>
<path class="st10" d="M1261.5,403c-1.6,6.3-3.4,12.5-5.5,18.6c-9.8-6.8-21.6-9.8-33.4-8.5c-7,0.8-14.1,3-20.8,0.7
	c-4.2-1.5-7.6-4.7-11.8-6.4c-7.1-3-15.3-1.2-22.7-3.1c-10.6-2.7-18.4-12.3-29-14.8c-7.2-1.6-14.7,0.3-22.2,0.5
	c-13.5,0.4-26.5-4.7-39.6-8.4c-12.7-3.6-26.9-5.7-38.8-0.1c-13.2,0.2-26.3-2.4-38.5-7.7c-4.2-1.8-8.8-4-13.2-2.8
	c-0.1-2.1-0.3-4.2-0.5-6.2c0-0.1,0.1-0.1,0.1-0.2l0.4,0.2c16.4-0.7,32.8,1,48.7,4.8l-0.1,0.2c9.5,6.9,21.7-3.9,33.3-5.7
	c4.9-0.7,9.8,0.2,14.6,1.2c20.5,4.4,40.7,10.5,60.3,18.4c13.4,5.4,26.5,11.5,40.5,14.9C1208.8,404.7,1235.4,401.1,1261.5,403z"/>
<path class="st1" d="M1237,34.1c0.1,4.8-1.2,9.4-2.7,14c-5-17.8-18.9-32-24.7-49.5h15.9c4,8.5,7.3,17.3,9.8,26.4
	C1236.3,27.9,1236.8,30.9,1237,34.1z"/>
<path class="st7" d="M1234.3,48.1c0.1,0.2,0.1,0.4,0.2,0.6c0.8,2.9,0.4,7.1-2.5,7.5c-1.6,0.2-2.9-1-4-2.1
	c-17-16.6-32.1-35.3-44.9-55.5h26.7C1215.4,16,1229.3,30.2,1234.3,48.1z"/>
<path class="st8" d="M220.8,141.6c-2.4,2.5-4.4,5.2-6.2,8.2c-4.8,8.1-6.8,17.8-12.2,25.4c-0.3,0.4-0.6,0.8-0.9,1.2
	c-6.1,7.8-20,11-26,3.1l-0.3-0.2c0.5-0.7,0.9-1.4,1.4-2.1c5.5-8,11.2-16,18.4-22.6c7.5-6.9,16.5-12,24.2-18.5
	c10.6-9,18.8-20.4,28-30.8c34.3,4.7,69.2,9.3,103.3,3.2C434.3,93.8,497.3,19,580.4,1.4c5.9-1.3,11.8-2.2,17.8-2.9h61.2
	c8.9,0.7,17.7,1.7,26.5,2.6c28.6,3.2,57.2,6.9,85.7,11c14.7,2.1,29.8,4.6,42.5,12.4c15,9.4,24.8,25.3,38.8,36.1
	c31.3,24,75,17.3,114,22.3c35.3,4.6,68.5,19.7,103.6,25.3c35.1,5.6,76.8-3.4,97.5-32.5c8.3,5.7,16.5,11.6,24.3,17.9
	c8.5,6.8,16.6,14.1,24.2,22c6.9,7.2,13.4,14.8,19.3,22.9c-26.3,12.9-64.6,3.2-83.2,26c-4.6,5.6-7.3,12.6-11.9,18.2
	c-16.7,20.3-52.5,16.8-66.7,38.9c-5.7,8.8-7.1,20.7-15.5,27.1c-0.8,0.6-1.7,1.1-2.5,1.6l0,0c-10.4,5.4-24.7-0.7-31.1-11
	c-7-11.2-7.1-25.3-6.2-38.5s2.6-26.8-1.4-39.4c-7.6-23.8-33.9-36.9-58.7-39.1c-12.1-1.1-24.3-0.1-36.1,3c-12,3.1-23.2,8.6-33.1,16.4
	c-18.5,14.9-30.1,37.3-49,51.7c-7.2,5.4-15.4,8.9-24.1,10.3c-15.4,2.5-31.1-1.7-37.6-15.5c-12.3-26.1,20.3-54.2,16.1-82.9
	c-2.1-14.5-13.9-26.2-27.5-31.8c-11.5-4.7-24.1-5.6-36.6-5.2c-2.2,0.1-4.4,0.2-6.5,0.3c-34.6,2.2-68.5,10.7-100.3,25
	c-22.8,10.3-47.6,30.6-42.1,55.2c3,13.5,14.4,23.1,25.3,31.5c10.9,8.4,22.5,17.7,26.2,31s-5.9,30.8-19.5,28.9h-0.2
	c-8.6-1.3-14.4-9.3-20.3-15.8c-17-18.9-42.4-29.8-67.7-29c-5.1,0.2-10.1,0.8-15.1,1.7c-19.5,3.7-38.2,12.3-57.3,18.3
	c-9,2.8-18.1,5.1-27.4,6.9c-18.7,3.5-37.7,4.7-56.6,3.5c-3.8-0.2-7.9-0.7-10.6-3.3c-2.7-2.6-3.3-6.4-3.6-10
	c-2-23.5,5.2-50.7-10.4-68.3c-9.8-11.1-25.6-14-40.1-16.3C275.6,123.3,240,121.6,220.8,141.6z"/>
<path class="st7" d="M1191.3,31.1c2.2,6.2,2,13.9-2.4,18.7c1.7-4.4-0.2-9.4-2.3-13.7c-7-14.2-16.5-27-28-37.6h15.6
	c1.9,5.3,4.3,10.4,7.2,15.2C1184.9,19.4,1189.1,24.7,1191.3,31.1z"/>
<path class="st1" d="M1188.9,49.8l-0.1,0.3c-12.2,2.7-23.5-6.2-33.3-14c-18.9-15-39.4-27.6-61.1-37.6h64.2
	c11.5,10.6,21,23.4,28,37.6C1188.7,40.4,1190.6,45.4,1188.9,49.8z"/>
<path class="st11" d="M503.7,735.1c1-3.8,3.7-7,5.2-10.6c1.6-3.8,1.6-9.1-2-11.2c-1.3-0.6-2.6-1-4-1.2c-4.6-1-8.7-3.5-13-5.4
	c-16.5-7.1-35.3-5-53.3-4.5c-17.8,0.4-35.6-0.9-53.3,1c-10.1,1.1-20.5,3.5-28.6,9.7c-1,0.6-1.8,1.6-2.2,2.7
	c-0.6,1.8,0.6,3.9,2.3,4.8c1.7,0.8,3.6,1.3,5.5,1.3c22.7,1.5,45.5,0,68.3,1C454,723.8,479.2,727.9,503.7,735.1z M1070.6,561.5h2.9
	c3.5-3.1,9.4-2.3,11.2-6.6c0.4-1.3,0.5-2.6,0.2-3.9c-1.1-5.3-3.5-10.2-6.9-14.2c-7.4-9.3-18-15.8-29.3-19.6
	c-11.3-3.8-23.3-5-35.1-5.1c-9.8-0.1-19.9,0.5-29.1,4.1c-3.1,1.2-6.5,3.1-7.3,6.4c-0.3,1.9-0.1,3.9,0.5,5.8l5.6,21.6
	c1,4,2.2,8.2,5.2,11c3.3,3.1,8.2,3.8,12.7,4c13.5,0.4,26.8-2.8,40.2-3.8C1051.2,560.6,1061,560.7,1070.6,561.5L1070.6,561.5z
	 M954.1,687.4c7.8-1,15.4-3.1,22.7-6.3c5.8-2.7,11.5-5.6,17.1-8.9c21.3-12.1,43-24.5,59.5-42.6c2.9-3.1,5.8-7.1,5.2-11.3
	c-0.5-3.7-3.6-6.6-7.1-7.8s-7.3-1.1-10.9-0.8c-8.2,0.7-16.4,2.2-23.5,6.2c-10.1,5.6-17.1,15.5-26.9,21.5s-21.9,7.9-30.6,15.3
	c-2.2,1.7-3.9,4-4.9,6.6c-0.5,1.9-0.7,3.9-0.6,5.9L954.1,687.4z M1043.7,458.6c20.1-2,39.7-7.4,59.1-12.8c4.2-1,8.2-2.5,12.1-4.4
	c5.6-3.1,10.1-7.8,13.1-13.6c0.4-0.6,0.6-1.3,0.5-2c-0.2-0.6-0.5-1.2-1-1.6c-4.9-4.6-12.4-4.9-19-4c-24.6,3.4-45.7,18.7-64.7,34.8
	c-0.8,0.7-1.3,2.5-0.3,2.5L1043.7,458.6z M259.8,517.3V517c1-1.4,2.7-1.9,4.2-2.6c1.5-0.7,3-2,2.9-3.7c-0.1-0.7-0.3-1.3-0.7-1.9
	c-2.1-3.4-5.9-5.5-9.8-6.2c-4-0.6-8-0.5-11.9,0.1c-10,1.2-19.9,3-29.7,5.4c-2,0.5-4.4,1.6-4.2,3.7c0.1,0.6,0.4,1.2,0.8,1.6
	c2,2.5,5.7,2.8,8.9,2.9L259.8,517.3z M596,724.8l-0.1-0.5c7.7-9.5,19.4-14.8,31.2-18s23.9-4.7,35.6-8.3c-1.2-2.4-3.8-3.6-6.2-4.5
	c-23-8.5-48.4-3.9-72.9-2.5c-14,0.8-28,0.5-41.9,0.8c-11.7,0.2-24.2,1.1-33.5,8.4c-0.8,0.7-1.7,1.7-1.3,2.6c0.2,0.5,0.6,0.8,1.1,1
	c4.7,2.5,10.5,1.7,15.8,1.7c5.9,0,12,1,17.1,4.2c4.3,2.6,7.7,6.5,11.9,9.4C564.9,727.6,581.1,726.5,596,724.8z M516.3,682.1
	c18.2,0.5,36.5-0.3,54.6-2.5c18.2-2.3,36.3-6.3,54.7-6.4c18.8-0.1,37.4,3.8,56.1,5.4c52.4,4.6,104.9-8.3,154-27.4
	c42.9-16.6,84.6-38.4,118-70.2c5-4.7,9.8-9.8,12.6-16.1c6.8-15.3-0.1-33.4-3.5-50.4c-0.1-0.4-0.2-0.7-0.2-1h0.1
	c4.1-3.3,8.3-6.6,12.3-10.1c0.3,0.8,0.7,1.6,1.2,2.4h0.1c0.5,0.9,1.3,1.5,2.2,1.9c1.8,0.5,3.6,0.5,5.4,0.1l6.4-1
	c1.6-0.1,3.1-0.6,4.4-1.4c2.2-1.6,2.8-4.5,3.1-7.2c0.6-3.7,0.5-7.5-0.3-11.2c-0.6-2.4-1.9-4.6-3.6-6.4c2.1-4.1,3.8-8.4,4.9-12.9
	l3-0.4c12.9-1.6,27.1-3.4,36.1-12.8c8.3-8.7,7.3-26.2-3-30.7l-0.1,0.2c-9.1-1.3-17.2-6.1-25.5-10c-8.1-3.8-17-7-25.7-5.5
	c1.3-6.6,2.2-13.3,2.6-20.1c2.4,0.9,4.8,1.4,7.3,1.6l40.2,5.5l-0.1,0.8l89.2,15.1c9.7,1.6,21.3,5,23.7,14.5
	c1.9,7.5-3.1,15.1-9.1,19.9c-10.3,8.2-23.4,11.4-35.7,16.1c-12.2,4.6-24.8,11.9-29.6,24.1c-7.6,19.3,7,39.6,20.7,55.1
	c13.8,15.4,28.8,35.2,22,54.8c-3.3,9.6-11.3,16.6-19.2,22.9c-52.1,41.5-114.1,69-178.2,86.2c-36.3,9.7-73.6,16.3-108.3,30.5
	c-34.3,14-66.8,36.7-83.7,69.8h-24.6v-0.3c11.8-7.3,16-22.5,25.1-33c5.6-6.4,12.9-11,20.2-15.3c20.2-11.9,41.1-22.4,62.7-31.3
	c2.4-1,5-2.4,5.5-4.9c0.1-1.4-0.2-2.7-0.9-3.9c-7.4-16.1-23.4-27.9-40.9-30.2c-19.5-2.5-39,6-58.7,4.7c-14.4-1-28.6-7.2-42.9-5
	c3.4,4.2,0.8,10.5,1.6,15.9c1.2,7.7,9.3,12.3,16.7,14.5c5.9,1.8,11.9,2.8,18,3.1c7.4,0.4,15.7,0.1,21.1,5.2c0.7,0.6,1.3,1.5,1.5,2.5
	c0,0.9-0.2,1.8-0.7,2.6c-6.1,12.4-20.1,18.2-33.2,22.2c-6.1,2-12.5,3.4-18.9,4.2c-11,1-23.3-0.7-32,6.2c-0.5,0.3-0.8,0.8-1,1.3
	c-0.1,0.9,0.3,1.7,0.9,2.3c4,4.5,9.8,6.9,15.3,9.4c6.3,2.9,12.5,6.2,17.6,10.9c5.1,4.7,9.2,10.8,10.2,17.7v1h-11.3v-0.8
	c-8.8-12.1-21-21-35-25.6c-13.3-4.4-27.6-4.7-41.7-4.2c-8.7,0.3-17.5,0.9-26,3c-17.4,4.4-32.5,14.9-46.9,25.7v2.1h-10.6v-2.2
	c7.9-9.4,18.5-16.1,28.9-22.7c8.7-5.5,17.4-11,27.1-14.2c14-4.7,29-4.4,43.7-3.8c-4.2-5.4-11-8-17.7-9.4c-6.6-1.4-13.5-2.1-19.9-4.5
	c-9.6-3.7-17.3-11.2-26.1-16.4s-20.9-7.9-29-1.6c-0.7,0.5-1.3,1.2-1.8,1.9c-0.6,1.6-0.5,3.4,0.4,4.9c3.1,6,11.6,8.8,12.3,15.4
	c0.3,3.2-1.4,6.3-3.4,8.8c-9.2,11.7-24.4,16.4-38.1,22c-9,3.7-17.8,8-26.2,12.9c-3.3,1.9-6.6,4-8.6,7.2v1.7h-30.6v-2.5l74.9-29.5
	c7.1-2.8,15.3-7.2,15.4-14.8c0.1-7.2-7.3-11.9-14-14.5c-33.6-13.1-70.9-9.9-107-10.1c-40.8-0.3-81.5-5.4-121.3-15
	c0.1-1.1,0.1-2.2-0.1-3.2c-0.7-3.5-3.5-5.8-6.6-7.7l0.3-0.4c0.7-3.1,1.4-6.4,2.2-9.6h0.5c0.3-3.8,6.4-6,5.7-9.8
	c-0.3-0.9-0.7-1.8-1.4-2.5c-4-4.4-9.8-6.5-15.6-7.5c-5.8-1-11.7-0.9-17.5-1.6c-10.1-1.2-19.8-4.8-28.4-10.5
	c-3.2-2.1-6.2-4.5-9.8-5.8s-8-1-10.7,1.8c11.2,9.4,23.8,16.8,37.3,21.9c1.8,0.6,3.5,1.4,5,2.5c2.5,2.1,3.6,5.5,6,7.7l0.1,0.7
	c-2,1.1-4,2.4-5.8,3.9c-7.7-2.7-15-6.8-21.4-12c-4.3-3.4-8.7-7.6-14.1-7.7c-0.1-1.9-0.9-3.6-2.3-4.9c-2.7-2.2-6.8-0.8-9.1,1.7
	c-2.3,2.5-3.5,5.9-5.3,8.8c-0.3,0.6-0.7,1.1-1.1,1.6c-5.7-8-10.3-16.8-14.7-25.6c-0.3-0.7-0.7-1.4-1-2c3.9-2.3,9-0.7,13.6-0.3
	c9.3,0.8,18.9-4.6,23.1-13c1.3-2.2,1.8-4.7,1.4-7.2c-0.7-3.1-3.3-5.5-5.8-7.5l-23.4-19.4c-4.4-3.6-8.9-7.3-14.4-8.7
	c-5.8-1.4-11.9,0.2-17.7,1.7c-3-8.1-5.7-16.3-8.4-24.5c3.9-2,8.5-2.1,12.8-3.1c9.5-2.4,16.9-9.6,23.8-16.5c1.2-1.1,2.2-2.4,2.9-3.9
	c1.5-3.8-1.3-8-4.3-10.7c-5.2-4.5-11.5-7.4-18.2-8.4c-1.9-0.3-3.8-0.3-5.7,0.1c-3,0.8-5.5,3.2-8.2,4.9c-3.9,2.4-8.4,3.6-13,3.1
	c-0.5-2-1-4.1-1.5-6.1c18.8-7.6,34.5-21.8,53.4-29.2c12-4.7,25-6.5,37.8-8.3c16.5-2.3,40.8-4.7,57.4-7c1,5.5,1.9,11,2.6,16.6
	c1.2,9.1,1.8,18.2,1.8,27.4c-4.5,0.9-8.9,2.2-13.3,3.8c-12.3,4.6-23.6,12.3-25.1,24.3c-1.5,12.3,8.1,23.5,19,29.2
	c10.9,5.7,23.4,7.4,34.9,11.5c17.4,6.3,32.2,17.6,47.1,28.9c-4.8,0.3-9.6,0.1-14.3,1.2c-5.6,1.4-11.1,5.4-11.9,11.1
	c-0.4,3.1,0.7,6.4,2.3,9.2c4.8,8.4,13.4,13.6,22.1,17.6c6.5,3,13.3,5.6,19.5,9.3c2,1.2,4,2.6,5.8,4c3.5,2.8,6.7,6.3,10.9,7.8
	c3.2,1.2,6.8,1.1,10.2,1c13.4-0.3,26.9-0.6,40.3-1c14.9-0.4,30.2-0.9,44.3-5.1c4.9-1.4,9.7-3.4,14.3-5.9c3.6-1.9,7.1-4.3,11-5.4
	C501.8,681.7,509,682,516.3,682.1L516.3,682.1z M221.5,574.3c3.4-0.3,6.2-3.1,7.9-6.2s2.6-6.6,4.2-9.7c5.2-9.8,16.6-14.1,24.9-21.4
	c1-0.7,1.7-1.7,2.1-2.9c0.5-1.9-0.7-3.9-2.2-5.1c-4.4-3.7-10.8-3.2-16.6-3.3c-11.1-0.1-21.9-2.9-32.9-4.3c-11-1.5-22.6-1.5-32.5,3.6
	c-2.5,1.3-5.2,4-4,6.6c0.5,0.9,1.3,1.7,2.2,2.3c5.1,3.8,10.4,7.9,12.8,13.8c1.9,4.8,1.9,10.4,4.9,14.6
	C198.6,571,213.6,567.5,221.5,574.3z M223.3,637.3v-0.2c14.4-2,27.9-8.3,38.9-18.1c1-0.7,1.7-1.7,2.2-2.8c0.9-3.1-2.7-5.6-5.7-6.9
	c-7.1-3.3-14-7.1-20.5-11.5c-7.9-5.4-15.5-11.5-24.4-15.1c-7.7-3.1-16.1-4-24.4-4.4c-13.9-0.7-28.9,0.3-39.8,9
	c-0.6,0.5-1.2,1-1.6,1.7c-0.8,1.6,0.1,3.7,1.5,4.9c1.6,1,3.3,1.7,5.1,1.9c13.2,2.8,26.2,7,38.6,12.5c4.6,2,9.4,4.4,12,8.7
	c2.5,4.1,2.8,9.2,5.1,13.4C213.2,634.8,218.1,637.5,223.3,637.3L223.3,637.3z M1105.4,586c0.3-3.5-0.4-7-2-10.1
	c-2-3.5-5.5-5.8-9.2-7.3c-7.4-3.1-15.7-3.4-23.4-0.9c-0.6,0.1-1.1,0.5-1.5,0.9c-0.3,0.7-0.3,1.6,0,2.3c1.5,4.5,5,8.1,6.8,12.5
	c2.1,5.1,1.7,11-1,15.8c-1,1.8-2.4,3.5-2.9,5.5c-0.3,1.3-0.4,2.7-0.2,4.1c0.1,3.7,0.4,6.7,0.5,10.5c3.7,3,10.2-0.7,14.1-3.5
	C1096.3,608.5,1104.7,598.1,1105.4,586L1105.4,586z M1079.8,416.7c-0.1-1.8-1-3.4-2.4-4.3c-1.5-0.9-3-1.5-4.7-1.9l-18.4-5.1
	c-2.8-0.9-5.7-1.5-8.7-1.6c-2.6,0-5.2,0.5-7.6,1.6c-2,0.9-4.1,2.7-3.9,5c0.3,1.6,1.4,2.9,2.9,3.5c1.5,0.6,3,1,4.5,1.4
	c5.9,1.8,10.3,7.3,16.4,8.7c6.3,1.4,12.5-1.9,18.6-4.1C1078.2,419.9,1079.7,418.5,1079.8,416.7z M1062.8,506.6
	c1.4-2.5,1.6-5.6,1.4-8.5c-0.4-8.3-3-17-9.4-22.4s-15.2-6.6-23.3-5c-8.1,1.5-15.5,5.6-22.5,9.7c-3.4,2-7.2,4.9-6.6,8.8
	c0.3,1.9,1.6,3.5,2.9,4.9c3.7,4,7.5,7.9,12.1,10.8c11.3,6.9,25.3,6.2,38.5,5.1C1058.5,510.8,1061.4,509,1062.8,506.6L1062.8,506.6z
	 M1059.1,588.3c1.1-2.8,0.2-6-1.7-8.3c-2-2.2-4.5-3.9-7.3-4.8c-8.8-3.5-11.8-1-21.2-1v0.1c-10.6-2.1-21.5-3.2-32.3-1.9
	c-10.7,1.4-21.6,5.4-29.8,12.6c-1.3,1-2.5,2.5-2.5,4.1c0,2,1.8,3.5,3.5,4.6c8.9,6.1,18.6,12.5,29.4,12.4c9.9-0.1,18.9-5.6,28.3-8.8
	c6-2,12.3-3.1,18.7-3.3c2.8,0.1,5.7-0.1,8.5-0.6C1055.3,592.7,1058,591,1059.1,588.3L1059.1,588.3z M976.2,628.4
	c2.7-4.6,3.1-11-0.4-15.1c-2-2.4-4.9-3.7-7.9-4.5c-7-2-14.4-2-21.4,0.2c-17.6,5.6-29.2,23.6-46.7,29.6c-5.3,1.8-11,2.4-16.4,3.9
	c-5.4,1.5-10.9,4.2-13.9,9l0.1,0.3c16.3,1,32.6,0.9,48.8-0.3c15.9-1.3,31.8-5,45.8-12.7C968.9,636.1,973.5,633,976.2,628.4z
	 M945.9,673.1c1.2-3,1.6-6.7-0.4-9.3c-1.9-2.6-5.7-3.2-9.1-3.5c-17-1.5-34-2.3-51-2.4c-25.4-0.1-52.2,1.7-73.3,15.8
	c-2.9,2-6.1,5-5.1,8.4c0.5,2,2.4,3.4,4.1,4.6c11,7.6,20.9,14,27.2,25.7c19,1.9,38-4.2,56-10.5l22.1-7.8
	C928.3,690.2,941.3,684.8,945.9,673.1L945.9,673.1z M702.5,738.4c0.8-0.8,1.3-1.8,1.3-3c-0.2-2.8-2.8-3.3-2.9-6v-0.1
	c-12-6.1-24.4-12.3-37.8-13.8c-6.3-0.6-12.6-0.6-18.8,0.1c-16.6,1.4-34.4,5.1-45.3,17.8c-0.3,0.3-0.5,0.6-0.6,1
	c-0.3,1.2,1.1,2.1,2.3,2.5c10.3,3.5,21.6,1.8,32.3,3.7c7.2,1.3,14.1,4.2,21.3,5.5c10.5,2,21.4,0.6,31.9-1.1
	C692.3,744.1,698.6,742.9,702.5,738.4z M359.1,698.3c1.2-0.4,2.2-1.3,2.7-2.4c-19.9-0.3-37.1-13.7-52.2-26.7
	c-4.3,6.6-9.5,12.4-15.6,17.3c-5.4,4.4-11.9,8.5-14.1,15.1c-0.7,1.7-0.7,3.7,0.1,5.4c0.9,1.6,2.7,2.5,4.4,3.2c7.7,3.3,15.7,6,23.8,8
	c6.7,1.6,14,2.8,20.2,0c5.5-2.5,9.3-7.6,14-11.5C347.2,702.4,352.9,699.5,359.1,698.3z M317.7,634.1c1-2.9,0.7-6.4-1.4-8.6
	c-1.9-2-4.8-2.4-7.5-2.8c-10.2-1.4-20.9-2.7-30.6,0.7c-7.5,2.6-13.8,7.9-20.8,11.9c-8.7,5.1-18.3,8.2-27.5,12.1
	c-2.4,1-5,2.4-5.6,4.9c-0.2,1.6,0.1,3.3,1,4.6c2.7,4.9,7.7,8.3,13,10.1c5.3,1.8,10.9,2.1,16.5,2.4c14.1,0.7,28.2,0.8,42.4,0.3
	l0.1-0.1c1.8,0.2,2.1,0,2.5-0.7c1-1.5,0.8-3.5,1.1-5.4c1.3-8.3,6.7-15.2,12-21.7C314.8,639.4,316.8,637,317.7,634.1L317.7,634.1z"/>
<path class="st1" d="M1052-1.5c35.5,30,77.8,51.1,116.1,77.3c-20.7,29.1-62.4,38.1-97.5,32.5c-35.1-5.5-68.3-20.7-103.6-25.3
	c-39-5.1-82.7,1.6-114.1-22.3c-14-10.7-23.8-26.7-38.8-36c-12.6-7.9-27.8-10.3-42.5-12.4C743.1,8,714.6,4.4,685.9,1.1
	c-8.8-1-17.7-1.9-26.5-2.6H1052z"/>
<path class="st12" d="M1043.6,457.4c-1,0-0.6-1.8,0.3-2.5c19-16.1,40.1-31.4,64.7-34.8c6.6-0.9,14.1-0.6,19,4c0.5,0.4,0.9,1,1,1.6
	c0,0.7-0.1,1.4-0.5,2c-3,5.8-7.5,10.5-13.1,13.6c-3.9,1.9-7.9,3.4-12.1,4.4c-19.5,5.4-39,10.8-59.1,12.8L1043.6,457.4z"/>
<path class="st12" d="M1103.4,575.9c1.6,3.1,2.3,6.6,2,10.1c-0.7,12.1-9.1,22.5-18.8,29.7c-3.8,2.8-10.3,6.5-14.1,3.5
	c-0.1-3.7-0.4-6.7-0.5-10.5c-0.1-1.4,0-2.7,0.2-4.1c0.5-2,1.9-3.7,2.9-5.5c2.7-4.8,3.1-10.7,1-15.8c-1.8-4.4-5.4-8-6.8-12.5
	c-0.3-0.7-0.3-1.6,0-2.3c0.4-0.5,0.9-0.8,1.5-0.9c7.7-2.5,15.9-2.2,23.4,0.9C1097.9,570.1,1101.4,572.4,1103.4,575.9z"/>
<path class="st12" d="M1084.9,550.9c0.3,1.3,0.3,2.7-0.2,3.9c-1.8,4.3-7.7,3.5-11.2,6.6h-2.9c-9.7-0.9-19.5-1-29.2-0.4
	c-13.4,1-26.7,4.2-40.2,3.8c-4.5-0.1-9.4-0.9-12.7-4c-3-2.8-4.2-7-5.2-11l-5.6-21.5c-0.7-1.8-0.8-3.8-0.5-5.8
	c0.8-3.3,4.1-5.2,7.3-6.4c9.2-3.6,19.2-4.2,29.1-4.1c11.9,0.1,23.9,1.4,35.1,5.1c11.3,3.8,21.9,10.2,29.3,19.6
	C1081.4,540.8,1083.8,545.7,1084.9,550.9z"/>
<path class="st12" d="M1076.5,419.8c-6.1,2.2-12.3,5.5-18.6,4.1c-6.1-1.4-10.4-6.9-16.4-8.7c-1.5-0.4-3.1-0.8-4.5-1.4
	c-1.5-0.6-2.6-1.9-2.9-3.5c-0.2-2.2,1.9-4,3.9-5c2.4-1.1,5-1.6,7.6-1.6c2.9,0.2,5.8,0.7,8.7,1.6l18.4,5.1c1.7,0.4,3.2,1,4.7,1.9
	c1.5,0.9,2.4,2.5,2.4,4.3C1079.7,418.5,1078.2,419.9,1076.5,419.8z"/>
<path class="st12" d="M1055.9,510.1c-13.1,1-27.2,1.7-38.5-5.1c-4.6-2.8-8.4-6.8-12.1-10.8c-1.3-1.4-2.6-3-2.9-4.9
	c-0.6-3.9,3.2-6.9,6.6-8.8c7.1-4.2,14.5-8.2,22.5-9.7s17-0.3,23.3,5c6.3,5.4,9,14.1,9.4,22.4c0.2,2.9,0,6-1.4,8.5
	S1058.5,510.8,1055.9,510.1z"/>
<path class="st12" d="M1028.8,574.2v-0.1c9.4,0,12.4-2.4,21.2,1c2.8,1,5.3,2.6,7.3,4.8c1.9,2.3,2.8,5.6,1.7,8.3
	c-1.1,2.8-3.8,4.4-6.5,5c-2.8,0.5-5.7,0.7-8.5,0.6c-6.3,0.1-12.6,1.2-18.7,3.3c-9.4,3.1-18.4,8.7-28.3,8.8
	c-10.8,0.1-20.5-6.3-29.4-12.4c-1.7-1.1-3.5-2.6-3.5-4.6c0-1.7,1.3-3,2.5-4.1c8.3-7.2,19-11.2,29.8-12.6S1018.2,572.1,1028.8,574.2z
	"/>
<path class="st12" d="M1058.6,618.2c0.6,4.3-2.3,8.2-5.2,11.3c-16.5,18.2-38.2,30.6-59.5,42.6c-5.5,3.3-11.2,6.3-17.1,8.9
	c-7.2,3.2-14.9,5.3-22.7,6.3l-0.1-22.2c-0.1-2,0.1-4,0.6-5.9c1-2.7,2.7-5,4.9-6.6c8.7-7.4,20.8-9.3,30.6-15.3s16.8-16,26.9-21.5
	c7.2-4,15.4-5.5,23.5-6.2c3.7-0.3,7.5-0.4,10.9,0.8C1055,611.7,1058.1,614.6,1058.6,618.2z"/>
<path class="st13" d="M1024.8,239.3c6.4,10.3,20.8,16.4,31.1,11c-8,6.4-16.9,12.5-26.9,11.9c-8.4-0.5-15.8-5.7-21.4-12
	c-18-20.2-19.9-49.8-22.6-76.9c-1-9.9-2.4-20.3-8.6-28c-4.9-6-12.1-9.5-19.2-12.4c-10.7-4.4-23.3-4.6-34.6-7l-0.2-0.6
	c11.8-3.1,23.9-4.1,36-3c24.7,2.2,51,15.2,58.7,39.1c4,12.6,2.3,26.2,1.4,39.4S1017.8,228.2,1024.8,239.3z"/>
<path class="st12" d="M1034.9,423.8c10.3,4.4,11.3,22,3,30.7c-9.1,9.4-23.2,11.2-36.1,12.8l-3,0.4c0.2-0.8,0.4-1.7,0.6-2.5
	c3.8-4.1,9.6-5.9,14.8-8.3c5.9-2.6,12-7.5,11.7-13.9c-0.2-3.9-2.7-7.2-5.2-10.1c-3.3-4.2-7.2-7.7-11.6-10.6
	c-7.7-4.8-17.1-5.8-26.2-6.6l-1-0.2c0.6-2.3,1.1-4.6,1.6-7c8.7-1.5,17.7,1.7,25.7,5.5c8.3,3.9,16.5,8.6,25.5,10L1034.9,423.8z"/>
<path class="st14" d="M999.4,465.3c-0.2,0.8-0.4,1.7-0.6,2.5c-12.1,1.7-24.8,4.8-32,14.6c-6.7,9-6.3,19.8-4.2,31.2
	c0.1,0.4,0.1,0.7,0.2,1c-6.8,9.1-15.6,16.5-24.4,23.6c-18.5,15-37.4,29.4-56.8,43.3c-16.6,12-33.6,23.6-48.5,37.6
	c-8.4,7.9-16.2,16.5-25.6,23.2c-9.9,7.1-21.2,11.8-32.6,15.8c-26.3,9.4-54.5,15.7-82.2,11.9l-2.7,0.3c-21.5-3-43.8,0.9-64.6-5.4
	c-5.2-1.6-10.2-3.7-15.3-5.4c-12.3-3.9-25.2-4.8-38.1-5.7c-11.4-0.8-22.9-1.6-34.3,0c-4.7,0.7-9.5,1.8-13.5,4.4
	c-7.6,5.1-10.9,15-8,23.9c-7.2-0.1-14.5-0.5-21.7-0.9c-14.6-0.9-29.2-2.2-43.7-3.6c-25.8-2.5-52.2-5.6-75.5-17.1
	c-12.7-6.2-24-14.8-35.4-23.4c1-0.1,1.9-0.1,2.9-0.2l0.2,0.3c2.8-2.4,6.1-4.1,9.6-5.1c3.5-1,7.1-1.2,10.5-2.5
	c3.2-1.2,6.2-3.6,7.1-6.9l0,0c-13.6-4.2-27.4-8.5-39.1-16.5c-3.7-2.5-7.2-5.5-11.1-7.7c-17.8-10.2-41.7-4.9-58.8-16.3
	c-5.4-3.6-10.2-9.7-9.1-16.2c1.3-8.5,11.7-13.6,12.3-22.2l-0.2-0.5c4.3-1.6,8.7-2.9,13.2-3.9c0,4.2-0.2,8.4-0.7,12.6
	c-0.6,5.5-1.7,11.3-5.4,15.4c4.2,1.3,8.4,2.3,12.8,3.1l1.3,0.2c0.6,0.2,1.2,0.1,1.8-0.1c0.7-0.5,1.2-1.3,1.3-2.2
	c2-9,0.6-18.3,1.7-27.5c0-0.6,0.2-1.2,0.6-1.7c0.2-0.2,0.4-0.3,0.6-0.3c0.4-0.1,0.9-0.2,1.4-0.2c5,0.1,10,0.4,14.9,1
	c1.1,0.1,2.2,0.4,3.2,1c0.8,0.7,1.5,1.7,1.9,2.7c3.2,6.9,5.6,14.2,7.2,21.7l0.3,0.1c-0.9,3.3-1.8,6.5-2.7,9.8
	c-0.2,0.5-0.2,1.1,0,1.6c0.4,0.5,0.9,0.7,1.5,0.8c5.4,1,10.9,1.4,16.4,1.3c1.2-0.1,2.4,0,3.5,0.5c1.8,1,2.4,3.4,2.2,5.5
	c-0.3,2.1-1.1,4.1-1.2,6.1c-0.3,4.3,2.6,8.3,6.2,10.5s7.9,3,12.1,3.5c10.9,1.2,21.9,0.6,32.6-1.6c0.3,9.8,1.4,19.5,5.3,28.5
	c7.4,16.9,24.9,28.7,43.2,29.2c6.6,0.2,13.2-1,19.8-2.2l53.9-9.8l22.8-4.1c7.1-1.3,15.5-3.9,17-10.9c0.3-1.4,0.3-2.9,0-4.3l0.5-0.1
	c18.4-1.1,36.9,1.6,54.3,7.9c3.5,1.1,6.8,2.8,9.7,5c0.9,0.9,1.8,1.6,2.9,2.3c1.1,0.5,2.3,0.8,3.6,0.9l27.3,3.7
	c1.1,0.3,2.2,0.2,3.2-0.3c0.4-0.3,0.7-0.6,0.9-1l0.8,0.1c30.5-5.9,49.4-36.7,76.7-51.6c11-6,23.2-9.4,34.3-15.3
	c11.5-6.1,21.5-14.8,29.4-25.4c3.6-5,6.8-10.3,11.2-14.6c9.9-9.5,24.6-11.9,36.2-19.1c14.9-9.2,23.9-25.5,37.2-36.9
	c15.6-13.4,36-19.2,55.8-24.5c9.6-2.6,19.4-5.2,27.2-11.5c9.2-7.5,14.2-19.1,17.4-30.6c0.3-1,0.6-2,0.8-3.1l1,0.2
	c9.1,0.9,18.4,1.9,26.2,6.6c4.4,2.9,8.3,6.5,11.6,10.6c2.5,2.9,5,6.2,5.2,10.1c0.3,6.5-5.8,11.3-11.7,13.9
	C1009,459.3,1003.1,461.2,999.4,465.3z"/>
<path class="st12" d="M976.2,505.9L976.2,505.9c-0.5-0.8-0.9-1.6-1.3-2.4c6.3-5.5,12.1-11.5,16.5-18.6c0.9-1.4,1.7-2.8,2.4-4.2
	c1.7,1.8,2.9,4,3.6,6.4c0.8,3.7,0.9,7.4,0.3,11.2c-0.3,2.7-0.9,5.7-3.1,7.2c-1.4,0.8-2.9,1.3-4.4,1.4l-6.4,1
	c-1.8,0.4-3.6,0.4-5.4-0.1C977.5,507.4,976.7,506.8,976.2,505.9z"/>
<path class="st15" d="M998.8,467.8c-1.2,4.5-2.8,8.8-4.9,12.9c-0.9-0.9-1.9-1.6-3-2.2c-5-2.3-11.3,0.2-14.4,4.8
	c-3.2,4.5-3.7,10.5-2.7,16c0.3,1.5,0.7,2.9,1.2,4.3c-4,3.5-8.1,6.8-12.3,10.1h-0.1c-2.1-11.4-2.5-22.2,4.2-31.2
	C974,472.6,986.7,469.5,998.8,467.8z"/>
<path class="st16" d="M993.9,480.6c-0.7,1.4-1.6,2.8-2.4,4.2c-4.4,7.1-10.2,13.1-16.5,18.6c-0.5-1.4-0.9-2.8-1.2-4.3
	c-1-5.4-0.5-11.4,2.7-16c3.2-4.5,9.4-7,14.5-4.7C992,479,993,479.7,993.9,480.6z"/>
<path class="st17" d="M986.1,371c0.4,5.8,0.4,11.6,0,17.4c-0.4,6.8-1.3,13.5-2.6,20.1c-0.5,2.3-1,4.7-1.6,7c-0.3,1-0.5,2.1-0.8,3.1
	c-3.2,11.5-8.1,23.1-17.4,30.6c-7.7,6.2-17.6,9-27.2,11.5c-19.8,5.3-40.2,11.2-55.8,24.5c-13.3,11.4-22.3,27.7-37.2,36.9
	c-11.7,7.2-26.3,9.6-36.2,19.1c-4.4,4.2-7.6,9.6-11.2,14.6c-7.8,10.7-17.9,19.4-29.4,25.4c-11.1,5.9-23.3,9.3-34.3,15.3
	c-27.2,15-46.2,45.7-76.7,51.6l-0.8-0.1c0.4-1.1,0.6-2.3,0.4-3.5c-1.8-26.9-3.7-53.9-5.5-80.8l104.8-79.1
	c10.8-8.2,21.7-16.3,33.1-23.6c14.9-9.5,30.7-17.4,46.4-25.6c49.6-26,98.2-55,151.7-71.7c0.1,0.3,0.1,0.6,0,0.9c0,0.1,0,0.1-0.1,0.2
	C985.9,366.9,986,369,986.1,371z"/>
<path class="st18" d="M748.2,371.3c9.2-3.9,18.5-7.5,27.8-11.2c4.5-1.8,9.1-3.6,13.6-5.2c5-1.8,10.1-3.4,15.3-4.7
	c11.7-2.8,23.8-3.7,35.9-4.1c47.2-1.7,94.4,3.1,140.5,14.1c1.9,0.5,4.2,1.8,4.5,3.4c-53.4,16.7-102,45.8-151.6,71.8
	c-15.6,8.2-31.5,16.1-46.4,25.6c-11.4,7.3-22.3,15.5-33.1,23.6l-104.8,79v-0.5c-40.4-8.1-81-15.1-121.8-21
	c-6.1-0.9-12.1-1.7-18.1-3.1c1.4-2.8,3-5.4,4.8-7.9c9.1-12.4,22-21.4,31.9-33.2c13.6-16.3,20.9-37.2,23.9-58.3
	c0.2-1.7,0.4-3.3,0.5-5c33.9,0.5,62.1-28.5,95.8-32.7c6.8-0.9,13.7-0.7,20.4-2.3c7.4-1.8,14.1-5.9,20.8-9.6
	C721.1,383.2,734.5,376.9,748.2,371.3z"/>
<path class="st12" d="M975.8,613.3c3.5,4.1,3.1,10.5,0.4,15.1c-2.7,4.6-7.3,7.8-12,10.3c-14,7.7-29.9,11.4-45.8,12.7
	c-16.3,1.2-32.6,1.3-48.8,0.3l-0.1-0.3c3-4.8,8.4-7.5,13.9-9c5.4-1.5,11.1-2.1,16.4-3.9c17.5-5.9,29.1-24,46.7-29.6
	c7-2.2,14.4-2.3,21.4-0.2C970.9,609.6,973.8,610.9,975.8,613.3z"/>
<path class="st4" d="M690.1,670.4l2.7-0.3c27.7,3.9,55.8-2.5,82.2-11.9c11.4-4.1,22.7-8.8,32.6-15.8c9.4-6.7,17.1-15.3,25.6-23.2
	c15-14,31.9-25.6,48.5-37.6c19.3-13.9,38.2-28.4,56.8-43.3c8.8-7.1,17.7-14.5,24.4-23.6c3.3,17,10.3,35.1,3.5,50.4
	c-2.8,6.3-7.7,11.4-12.6,16.1c-33.4,31.8-75.1,53.5-118,70.2c-49.1,19.1-101.6,32-154,27.4c-18.7-1.7-37.3-5.6-56.1-5.4
	c-18.4,0.1-36.5,4.1-54.7,6.4c-18.1,2.2-36.4,3-54.6,2.6c-2.8-8.9,0.5-18.7,8-23.8c4-2.6,8.8-3.7,13.5-4.4c11.3-1.6,22.8-0.8,34.3,0
	c12.8,0.9,25.8,1.8,38.1,5.7c5.2,1.7,10.1,3.8,15.3,5.4C646.2,671.3,668.6,667.4,690.1,670.4z"/>
<path class="st12" d="M945.5,663.9c1.9,2.6,1.5,6.3,0.4,9.3c-4.5,11.7-17.6,17.1-29.4,21.2l-22.1,7.8c-18,6.3-37,12.4-56,10.5
	c-6.4-11.8-16.3-18.2-27.2-25.7c-1.7-1.2-3.6-2.6-4.1-4.6c-0.9-3.4,2.2-6.5,5.1-8.4c21.2-14.2,47.9-16,73.3-15.8
	c17,0.1,34,0.9,51,2.4C939.8,660.6,943.5,661.2,945.5,663.9z"/>
<path class="st12" d="M813.1,716.8c0.7,1.2,1,2.5,0.9,3.9c-0.4,2.5-3.1,3.9-5.5,4.9c-21.6,8.9-42.5,19.4-62.7,31.3
	c-7.3,4.3-14.6,8.9-20.2,15.3c-9.1,10.5-13.3,25.7-25.1,33v0.3h-12.9v-1c-1-6.9-5-13.1-10.2-17.7c-5.1-4.7-11.3-7.9-17.6-10.9
	c-5.5-2.5-11.2-4.9-15.3-9.4c-0.6-0.5-1-1.4-0.9-2.3c0.2-0.5,0.6-1,1-1.3c8.7-6.9,21-5.2,32-6.2c6.4-0.8,12.7-2.2,18.9-4.2
	c13.1-4,27.1-9.9,33.2-22.2c0.5-0.8,0.7-1.7,0.7-2.6c-0.2-1-0.7-1.8-1.5-2.5c-5.3-5.2-13.6-4.9-21.1-5.2c-6.1-0.3-12.1-1.4-18-3.1
	c-7.5-2.2-15.5-6.8-16.7-14.5c-0.8-5.4,1.8-11.7-1.6-15.9c14.3-2.2,28.4,4.1,42.9,5c19.6,1.3,39.1-7.3,58.7-4.7
	C789.7,688.9,805.7,700.7,813.1,716.8z"/>
<path class="st13" d="M778.8,188.3c6.5,13.8,22.2,18,37.6,15.5c-5.4,5.1-24.7,5.1-39.4-0.1c-8.6-3-10.2-5.3-18.1-9.9
	c-16-9.4-21.1-33.6-10.2-48.7c8.1-11.2,23.1-17.7,26.2-31.2c2.2-9.8-3.2-19.9-10-27.3c-9-9.8-21.3-14.9-34.2-18.2
	c12.5-0.4,25.1,0.5,36.6,5.2c13.5,5.5,25.3,17.3,27.5,31.8C799.2,134.1,766.5,162.2,778.8,188.3z"/>
<path class="st10" d="M744.2,349.2c13.5,1.7,31.7,8.6,45.4,5.8c-4.6,1.6-9.1,3.4-13.6,5.2c-9.3,3.7-18.6,7.3-27.8,11.2
	c-48.3-19.1-99.7,14.3-151.8,14.2c-25.9,0-51-8-76.7-11.8c-26.2-3.8-52.8-3.1-79.2-2.2c-39.9,1.4-80.2,3.4-118.5,14.7
	c-19.2,5.7-39.2,13.6-58.4,8.1c0.6-5.9,0.6-11.9,0.1-17.8c33.3,7.7,67.2-7.3,101.1-11.3c23.5-2.8,47.3-0.4,70.9-2
	c34.1-2.3,69.3-12.9,101.7-1.8l1.4,0.8c29.1,2.2,57.6,3.1,86.5-0.3c12.7-1.5,25.3-4.1,37.9-6.1c19.2-3,38.6-4.6,58-6.2
	C728.8,348.9,736.6,348.3,744.2,349.2z"/>
<path class="st0" d="M164,428.1c11.5,1,23.1,0.7,34.6-0.7c2.3,0.2,4.6,0.3,7,0.4c9,0.5,18,0.4,26.8-1.7c11.8-2.8,23.2-9.9,28.2-21
	c1.5-3.4,2.5-7.1,3-10.9c19.2,5.5,39.3-2.5,58.4-8.1c38.3-11.3,78.6-13.3,118.5-14.7c26.4-0.9,53-1.6,79.2,2.2
	c25.6,3.7,50.8,11.7,76.7,11.8c52.1,0.1,103.5-33.3,151.8-14.2c-13.7,5.6-27.1,11.9-40.1,19c-6.7,3.7-13.4,7.7-20.8,9.6
	c-6.6,1.6-13.6,1.5-20.4,2.3c-33.7,4.2-61.9,33.2-95.8,32.7c0.2-3.7-0.4-7.4-1.9-10.8c-1-2.2-2.6-3.9-4.7-5.1
	c-3.4-1.8-7.5-1.6-11.2-0.7c-8.9,2.1-16.8,7.4-23.7,13.5c-3.3,2.9-6.6,6.1-10.9,7c-9.2,1.8-16.3-7.5-21.8-15.2
	c-11.7-16.2-27.4-29.7-46-36.7c-18.6-7-40.1-7-57.9,1.9c-11.2,5.6-20.6,14.6-32.1,19.6l-0.5,0.3c-3.7-5.4-7.7-10.7-13.5-13.6
	c-6.3-3.2-15.3-2.4-18.9,3.8c-1.3,2.4-2,5.1-2,7.8c-0.1,1-0.1,1.9-0.1,2.9c-0.2,9.3-0.4,18.8,3.1,27.4c4.4,10.7,13.8,18.2,21.7,26.5
	c8,8.4,14.8,18,20.2,28.3c0.6,1.2,1.2,2.4,1.8,3.5l-0.2,0.1c-11,4.1-21.9,8.4-32.7,12.9l-1.3-0.3c-0.9,1.3-1.7,2.7-2.4,4.2l-0.7-0.3
	c-3.4-1.9-6.9-3.8-10.8-4c-1.8,0-3.5,0.2-5.2,0.7l-0.3-0.9c-0.9-15.9-0.2-31.9,1.9-47.7c0.5-2.9,0.7-5.9,0.7-8.9
	c-0.3-3.4-0.9-6.7-1.8-9.9c-0.3-1.1-0.6-2.1-1-3.1c-0.5-1.6-1.5-3.1-2.8-4.2c-2-1.6-4.6-1.8-7.1-1.9c-14.9-0.7-29.7,2.7-44.3,6.1
	c-3,0.7-6.2,1.6-8,4c-1,1.6-1.6,3.4-1.8,5.2c-0.5,2.9-0.9,5.9-1.1,8.8c-0.3,3.3-0.3,6.7-0.2,10c0,1.3,0.2,2.5,0.8,3.6
	c1.3,2.1,4,2.5,6.3,3.3c3.7,1.6,6.7,4.6,8.5,8.4c1.7,3.7,2.9,7.6,3.5,11.6c0.1,0.8,0.3,1.6,0.4,2.3c-16.6,2.3-40.9,4.7-57.4,7
	c-12.8,1.8-25.7,3.6-37.8,8.3c-18.9,7.3-34.6,21.6-53.4,29.2c-1.8-7.3-3.4-14.6-4.8-21.9c-6.6-33.4-10.4-67.4-12.9-101.6l1.4-0.1
	c11.3,2.4,22.4,6,33.7,8.5C149.2,426.4,156.6,427.5,164,428.1z"/>
<path class="st12" d="M703.9,735.5c0,1.1-0.5,2.2-1.3,3c-4,4.4-10.3,5.7-16.1,6.6c-10.6,1.7-21.4,3.1-31.9,1.1
	c-7.2-1.3-14.1-4.2-21.3-5.5c-10.7-1.9-22-0.3-32.3-3.7c-1.2-0.4-2.6-1.3-2.3-2.5c0.1-0.4,0.4-0.8,0.6-1
	c10.9-12.7,28.7-16.4,45.3-17.8c6.3-0.7,12.6-0.7,18.8-0.1c13.4,1.6,25.7,7.7,37.8,13.8v0.2C701.1,732.2,703.7,732.7,703.9,735.5z"
	/>
<path class="st12" d="M676.4,804.6v0.8H526.9v-2.1c14.4-10.7,29.5-21.3,46.9-25.7c8.5-2.1,17.2-2.7,26-3c14-0.5,28.3-0.2,41.7,4.2
	C655.4,783.6,667.6,792.5,676.4,804.6z"/>
<path class="st12" d="M656.4,693.4c2.5,0.9,5,2.2,6.2,4.5c-11.6,3.6-23.8,5.1-35.6,8.3c-11.7,3.2-23.5,8.5-31.2,18l0.1,0.5
	c-14.9,1.7-31.1,2.8-43.4-5.9c-4.1-2.9-7.5-6.8-11.9-9.4c-5-3.1-11.1-4.2-17.1-4.2c-5.4,0-11.1,0.9-15.8-1.7c-0.5-0.2-0.9-0.6-1.1-1
	c-0.4-1,0.5-2,1.3-2.6c9.3-7.2,21.8-8.1,33.5-8.4c14-0.3,28,0,41.9-0.8C608,689.5,633.4,684.9,656.4,693.4z"/>
<path class="st19" d="M522.2,573.2c-2.2,1.5-4.7,2.5-7.2,3.1c-1.1,0.3-2.2,0.3-3.2-0.1c-0.8-0.4-1.5-1.1-1.9-1.9
	c-7.1-10.1-5.4-23.7,0.2-35.1c6,1.3,12,2.2,18.1,3.1c40.8,5.9,81.4,12.9,121.8,21v0.5c1.8,26.9,3.7,53.9,5.5,80.8
	c0.2,1.2,0,2.4-0.4,3.5c-0.2,0.4-0.5,0.8-0.9,1c-1,0.5-2.1,0.6-3.2,0.3l-27.4-3.7c-1.2-0.1-2.4-0.4-3.6-0.9c-1-0.6-2-1.4-2.9-2.3
	c-2.9-2.3-6.2-4-9.7-5c-17.4-6.3-35.8-8.9-54.2-7.8l-0.5,0.1c-0.3-1.5-0.8-3-1.5-4.4c-4.1-8.1-12.4-12.7-19.8-18.1
	c-3.9-2.7-7.4-6-10.2-9.8c-0.7-1-1.4-2.3-1-3.5c0.4-1.2,1.6-1.9,2.7-2.5c6.6-3.2,13.5-5.5,20.7-6.7c3-0.5,6.2-1,8.9-2.5
	c2.7-1.5,4.9-4.5,4.4-7.6c-0.5-3.1-3.4-5.2-6.2-6.6c-2.4-1.3-5.1-2.2-7.8-2.8c-1.7-0.3-3.4-0.4-5-0.2
	C531.9,565.9,527.3,570.1,522.2,573.2z"/>
<path class="st13" d="M613.6,240.3v0.1c-11.8,1.3-24.5,0.8-35-4.8c-4.2-2.2-7.7-5.4-11.2-8.5c-5-4.4-9.9-8.8-14.9-13.3
	c-11.2-10-27.1-18.5-41.9-16.4v-0.2c5-1,10-1.5,15.1-1.7c25.3-0.9,50.7,10,67.7,29C599.2,231,605,239,613.6,240.3z"/>
<path class="st12" d="M598.3,753.2c6.6,1.5,13.4,4.1,17.7,9.4c-14.7-0.6-29.8-0.9-43.7,3.8c-9.7,3.3-18.4,8.8-27.1,14.2
	c-10.4,6.5-21,13.3-28.9,22.7v2.2h-58.6v-1.7c2-3.2,5.4-5.3,8.6-7.2c8.4-4.9,17.2-9.3,26.2-12.9c13.7-5.6,28.9-10.3,38.1-22
	c2-2.5,3.7-5.6,3.4-8.8c-0.7-6.7-9.2-9.4-12.3-15.4c-0.9-1.5-1-3.3-0.4-4.9c0.4-0.8,1.1-1.4,1.8-1.9c8.2-6.3,20.2-3.6,29,1.6
	c8.9,5.2,16.5,12.7,26.1,16.4C584.8,751.1,591.7,751.7,598.3,753.2z"/>
<path class="st1" d="M386.7-1.5h211.5c-6,0.7-11.8,1.6-17.8,2.9C497.3,19,434.3,93.8,350.6,108.6c-34.1,6-69,1.5-103.3-3.2
	c1.2-1.4,2.5-2.8,3.8-4.2C290.3,59.7,352.8,44.8,386.7-1.2V-1.5z"/>
<path class="st20" d="M571,434.9c-0.1,1.7-0.2,3.4-0.5,5c-3,21.1-10.2,42-23.9,58.3c-9.9,11.8-22.8,20.8-31.9,33.2
	c-1.8,2.5-3.4,5.1-4.8,7.9c-5.6,11.4-7.2,24.9-0.2,35.1c0.5,0.8,1.1,1.4,1.9,1.9c1,0.4,2.1,0.4,3.2,0.1c2.6-0.6,5-1.7,7.2-3.1
	c-1.8,1.9-3.4,4.1-4.8,6.4c-0.2,0.3-0.3,0.7-0.4,1c0,0.7,0.3,1.4,0.9,1.7c1.7,1.2,3.9,0.7,5.9,0.2l9.7-2.6c-1.5,0.6-3,1.2-4.6,1.7
	c-5,1.5-10.3,2.2-14.8,4.9c-4.5,2.7-8,8.2-6.2,13.1c1.5,4.1,6.1,6.3,10.4,6.9s8.7,0.1,13,0.8l0.1-0.1c7.5,5.4,15.7,10,19.8,18.1
	c0.7,1.4,1.2,2.8,1.5,4.4c0.3,1.4,0.3,2.9,0,4.3c-1.5,7-10,9.6-17,10.9l-22.8,4.1l-0.1-0.6c-8.2-0.5-16.5-1-24.2-3.9
	c-7.7-2.9-14.7-8.8-17.1-16.7c-2.4-8.2,0.5-16.9,2.9-25.2c4-13.3,6.9-27,8.6-40.8c1.1-9.3,1.8-18.8,4.7-27.8
	c4.4-13.7,13.7-25.2,20-38.1c6-12.3,8.9-27.8,2-39.3c2.5,0.9,5.2,1.2,7.8,1c7.3-0.6,13.4-5.7,18-11.4c4.6-5.7,8.4-12.1,13.8-17
	s13.1-8,19.8-5.4C570.6,427.4,571.3,431.1,571,434.9z"/>
<path class="st21" d="M509.8,456.8c-3.9-1.4-7.7-3.4-11.1-5.8c-8.6-5.7-16.6-12.3-24.6-18.8c-11.7-9.5-23.4-19-36.7-26
	c-5.9-3.1-12.1-5.7-18.7-6.3c-16.6-1.6-31.5,9.2-45,19.1c-3.8,2.8-8.1,5.7-12.8,4.9c-6.3-1.1-9.3-8.2-13.8-12.7
	c-5.7-5.5-13.9-7.2-21.3-4.4c0-2.7,0.7-5.4,2-7.8c3.6-6.1,12.6-7,18.9-3.8c5.7,2.9,9.8,8.3,13.5,13.6l0.5-0.3
	c11.5-5,20.9-14,32.1-19.6c17.8-8.9,39.3-8.9,57.9-1.9c18.6,7,34.4,20.6,46,36.7c5.5,7.6,12.6,17,21.8,15.2c4.3-0.9,7.6-4.1,10.9-7
	c6.9-6.1,14.8-11.4,23.7-13.5c3.7-0.9,7.8-1.2,11.2,0.7c2,1.1,3.7,2.9,4.7,5.1c-6.7-2.5-14.4,0.6-19.7,5.4
	c-5.3,4.8-9.2,11.4-13.8,17c-4.6,5.7-10.7,10.8-18,11.4C515,458,512.3,457.7,509.8,456.8z"/>
<path class="st22" d="M533.6,580c2.5-1,4.9-2.3,7.2-3.8c1.9-1.2,3.8-2.7,4.6-4.9c0.7-2.2-0.3-5.1-2.6-5.5l0.1-0.5
	c2.7,0.5,5.3,1.5,7.8,2.8c2.8,1.4,5.7,3.5,6.2,6.6s-1.7,6.1-4.4,7.6c-2.7,1.5-5.9,1.9-8.9,2.5c-7.2,1.3-14.1,3.6-20.7,6.7
	c-1.1,0.5-2.4,1.2-2.7,2.5c-0.3,1.2,0.3,2.5,1,3.5c2.9,3.8,6.3,7.1,10.2,9.8l-0.1,0.1c-4.3-0.8-8.7-0.2-13-0.8
	c-4.3-0.6-8.9-2.8-10.4-6.9c-1.8-4.9,1.7-10.5,6.2-13.1c4.5-2.6,9.9-3.4,14.8-4.9C530.5,581.2,532,580.7,533.6,580L533.6,580z"/>
<path class="st21" d="M542.7,565.8c2.2,0.4,3.3,3.3,2.6,5.5c-0.7,2.2-2.7,3.7-4.6,4.9c-2.3,1.5-4.7,2.7-7.2,3.8l0,0l-9.7,2.6
	c-2,0.5-4.3,1-5.9-0.2c-0.6-0.4-0.9-1-0.9-1.7c0.1-0.4,0.2-0.7,0.4-1c1.3-2.3,2.9-4.5,4.8-6.4c5.1-3.1,9.8-7.3,15.6-8.1
	c1.7-0.2,3.4-0.2,5,0.2L542.7,565.8z"/>
<path class="st4" d="M503.4,744.2c6.7,2.6,14.1,7.3,14,14.5c-0.1,7.6-8.3,12-15.4,14.8L427.2,803v2.5h-259V805
	c6.4-5.9,17.1-6.7,25.7-5.5c12.4,1.7,25.9,1.6,36.4-5.4c2-1.3,3.9-2.9,6.2-3.7c3.1-1,6.5-0.5,9.7-0.7c12.5-0.5,23.9-11,36.2-8.4
	c3.4,0.7,6.8,2.4,10.2,1.5c6.1-1.7,6.8-10,6.1-16.3c-0.9-7.1-2-14.1-3.5-21.1c-0.8-4-1.8-8-4.2-11.3c-3.8-5.2-10.3-7.4-16.5-9.4
	l-0.5-0.1c0.5-1.7,0.9-3.5,1.2-5.3c39.8,9.6,80.5,14.5,121.3,14.8C432.5,734.4,469.8,731.2,503.4,744.2z"/>
<path class="st23" d="M382.5,520.6c-2.6-8.7-5.8-17.2-9.8-25.3c-0.6-1.2-1.2-2.4-1.8-3.5l0.8-0.5c-5.1-10.5-8-22-8.3-33.8
	c-0.2-6.6,0.6-13.5,4.2-19c2.7-4.1,6.8-7,10.9-9.5c5.3-3.4,11-6.2,17-8.3c12.8-4.3,26.8-4.2,40.1-1.5c13.3,2.7,25.9,7.7,38.3,13.1
	l0.2-0.2c8.1,6.5,16.1,13.1,24.6,18.8c3.4,2.4,7.2,4.4,11.1,5.8c6.9,11.5,3.9,27-2,39.3c-6.3,12.9-15.7,24.4-20.1,38.1
	c-2.9,9-3.5,18.4-4.7,27.8c-1.7,13.8-4.6,27.5-8.6,40.8c-2.5,8.2-5.3,16.9-2.9,25.2c2.3,7.9,9.4,13.7,17.1,16.7
	c7.7,2.9,16,3.4,24.2,3.9l0.1,0.6l-53.9,9.8c-6.5,1.2-13.1,2.4-19.8,2.2c-18.3-0.5-35.8-12.4-43.2-29.2c-3.9-8.9-5-18.6-5.3-28.5
	c-0.2-6.8,0.1-13.6,0.1-20.4C390.9,562.1,388.5,540.6,382.5,520.6z"/>
<path class="st12" d="M507,713.2c3.6,2.1,3.6,7.3,2,11.2c-1.6,3.6-4.2,6.8-5.2,10.6c-24.5-7.1-49.8-11.3-75.2-12.4
	c-22.7-1-45.5,0.5-68.3-1c-1.9,0-3.8-0.4-5.5-1.3c-1.6-1-2.8-3-2.3-4.8c0.5-1.1,1.3-2.1,2.2-2.7c8.1-6.3,18.5-8.6,28.6-9.7
	c17.7-1.9,35.5-0.6,53.3-1c18-0.5,36.7-2.6,53.3,4.5c4.3,1.9,8.4,4.3,13,5.4C504.4,712.2,505.7,712.6,507,713.2z"/>
<path class="st15" d="M494.5,681.3c-3.8,1-7.4,3.4-11,5.4c-4.5,2.5-9.3,4.4-14.3,5.9l-0.1-0.3c-1.1-0.2-2.2-0.4-3.2-0.5v-0.1
	c0-2.9-3-4.7-5.8-5.5c-11.8-3.8-24.5-2.5-36.9-2.8c-27.7-0.8-54.6-10.1-77.3-26.7c-6.6-4.9-13.9-10.7-22.1-9.6
	c-3.1,0.4-6.6,3.2-5.3,6.1c0.5,0.9,1.2,1.6,2.1,2.2l33,24.3c1.8,1.3,3.6,2.6,5.4,3.9l-1.4,2.3c-6.1-3.7-13-6.3-19.5-9.3
	c-8.7-4-17.4-9.2-22.1-17.6c-1.6-2.8-2.7-6-2.3-9.2c0.8-5.7,6.3-9.7,11.9-11.1c4.6-1.2,9.5-1,14.3-1.2c11.3,8.6,22.7,17.2,35.4,23.4
	c23.3,11.5,49.7,14.6,75.5,17.1C465.4,679.1,480,680.4,494.5,681.3z"/>
<path class="st22" d="M474.1,432.2l-0.2,0.2c-12.4-5.4-25.1-10.5-38.3-13.1s-27.2-2.8-40.1,1.5c-5.9,2.1-11.6,4.9-17,8.3
	c-4.1,2.6-8.2,5.5-10.9,9.5c-3.6,5.5-4.4,12.4-4.2,19c0.3,11.8,3.1,23.3,8.3,33.8l-0.8,0.5c-5.4-10.4-12.3-19.9-20.2-28.3
	c-7.9-8.3-17.3-15.8-21.7-26.5c-3.5-8.6-3.3-18.1-3.1-27.4c0-1,0-1.9,0.1-2.9c7.3-2.7,15.5-1,21.3,4.4c4.5,4.5,7.5,11.6,13.8,12.7
	c4.6,0.8,9-2.1,12.8-4.9c13.4-9.9,28.4-20.7,45-19.1c6.6,0.6,12.8,3.2,18.7,6.3C450.7,413.2,462.4,422.7,474.1,432.2z"/>
<path class="st15" d="M469.2,692.2l0.1,0.3c-14.1,4.2-29.4,4.7-44.3,5.1c-13.4,0.3-26.9,0.7-40.3,1c-3.4,0.1-7,0.1-10.2-1
	c-4.2-1.5-7.4-5-10.9-7.8c-1.9-1.5-3.8-2.8-5.8-4l1.4-2.3c5.4,3.8,11.1,7.3,17.5,9.3c14.8,4.7,30.7,0.4,46-1.6
	c14.4-1.9,29-1.7,43.4,0.5C467.1,691.8,468.2,692,469.2,692.2z"/>
<path class="st16" d="M460.2,686c2.7,0.9,5.8,2.7,5.8,5.5v0.1c-14.4-2.2-29-2.3-43.4-0.5c-15.4,2-31.3,6.2-46,1.6
	c-6.3-2-12-5.5-17.5-9.3c-1.8-1.3-3.6-2.6-5.4-3.9l-33-24.3c-0.9-0.5-1.6-1.3-2.1-2.2c-1.3-2.9,2.2-5.7,5.3-6.1
	c8.2-1.1,15.4,4.7,22.1,9.6c22.7,16.6,49.6,25.9,77.3,26.7C435.7,683.5,448.4,682.2,460.2,686z"/>
<path class="st13" d="M425.8,222.4c-15.5,4.2-31.3,10.5-45.8,16.5c-5.3,2.2-11.8,4.4-16.4,0.9c-2-1.5-3.2-3.9-4.1-6.3
	c-2.7-6.7-4.3-13.8-4.7-21h0.2c0.3,3.6,1,7.5,3.6,10c2.6,2.5,6.8,3.1,10.6,3.3C388.2,227,407.2,225.9,425.8,222.4z"/>
<path class="st19" d="M339.8,508.3c14.5,3.3,28.7,7.4,42.7,12.3c6,20.1,8.5,41.5,8.4,62.4c0,6.8-0.3,13.6-0.1,20.4
	c-10.7,2.3-21.7,2.8-32.6,1.6c-4.2-0.5-8.5-1.2-12.1-3.5c-3.6-2.2-6.4-6.2-6.2-10.5c0.1-2.1,1-4.1,1.2-6.1c0.2-2.1-0.3-4.5-2.2-5.5
	c-1.1-0.5-2.3-0.6-3.5-0.5c-5.5,0.1-11-0.3-16.4-1.3c-0.6,0-1.1-0.3-1.5-0.8c-0.2-0.5-0.2-1.1,0-1.6c0.9-3.3,1.8-6.5,2.7-9.8
	c2.5-9.2,5.1-18.4,7.6-27.6c1-3.5,1.9-7,2.9-10.5c1.3-5.2,3-10.3,5.2-15.2c0.7-1.5,1.5-2.9,2.4-4.2L339.8,508.3z"/>
<path class="st7" d="M86.4,257l-0.1-0.1c2.9-3.1,34.7-37.2,48.7-57.9c6-8.8,10.5-18.7,17.5-26.7c10.8-12.2,26.8-18.8,37.8-30.8
	c8.4-9.1,13.5-20.8,21.6-30.1c5.4-6.1,11.9-11.1,18.4-16l38.1-28.8l0.2,0.1C281.9,46.3,290.5,23,294-1.5h13v0.8
	c-1.8,10.6-2.9,21.3-3.1,32.1c0.9-0.3,1.8-0.7,2.7-1c-2,3.8-4,7.5-6.1,11.3c4.6-5.2,11.7-7,18.1-9.4C334.6,26,348,14,356.3-1.5h30.4
	v0.3c-33.9,46-96.4,60.9-135.6,102.4c-1.3,1.4-2.5,2.7-3.8,4.2c-9.2,10.4-17.4,21.9-28,30.8c-7.8,6.6-16.7,11.7-24.2,18.5
	c-7.2,6.5-12.9,14.5-18.4,22.6c-0.5,0.7-0.9,1.4-1.4,2.1c-20.8,30.5-39.4,62.5-55.7,95.9c-9.5,19.2-20.7,37.3-17,58.5
	c0.5,13.6,1,27.3,1.7,40.9c0.7,13.9,1.4,27.8,2.4,41.7c2.4,34.2,6.3,68.2,12.9,101.6c1.4,7.3,3,14.6,4.8,21.9c0.5,2.1,1,4.1,1.5,6.1
	c2.9,11.6,6.1,23,9.7,34.4c2.6,8.2,5.4,16.4,8.4,24.5c6.8,18.5,14.5,36.7,23.1,54.3c0.3,0.7,0.7,1.4,1,2c4.3,8.9,9,17.6,14.7,25.6
	c-7.9,10.2-24.1,14-28.2,26c-10.4-7.8-16.5-20.3-19.8-33c-3.3-12.7-4.4-25.8-7.1-38.6c-1-4.6-2.2-9.4-5.2-13.1
	c-0.8-1.2-2.1-2-3.5-2.3c-5.5-0.7-5.4,10.2-10.8,11.4c-7.6-12.3-13.1-25.9-16.1-40.2c0.1,8-10.9,12.4-17.9,8.7
	c-7.1-3.7-10.4-12.1-11.7-20c-4.9-30,11-61,3.9-90.4c-2.5-10.2-7.6-19.7-9.1-30.1c-3.7-26.5,17-50.2,20.3-76.7
	c1.9-15.6-2.3-31.2-4.9-46.7C67.9,312.9,69.2,280.8,86.4,257z"/>
<path class="st18" d="M372.7,495.3c4,8.1,7.3,16.6,9.8,25.3c-14-4.9-28.3-9-42.7-12.3c10.8-4.5,21.7-8.8,32.7-12.9L372.7,495.3z"/>
<path class="st4" d="M370.3,622.7L370.3,622.7c-0.8,3.3-3.8,5.7-7.1,6.9c-3.4,1.2-7.1,1.5-10.5,2.5c-3.5,1-6.8,2.7-9.6,5.1l-0.2-0.3
	c-1,0.1-1.9,0.2-2.9,0.2c-14.9-11.3-29.7-22.7-47.1-28.9c-11.6-4.1-24-5.9-34.9-11.5c-10.9-5.6-20.4-16.9-19-29.2
	c1.5-12,12.8-19.7,25.1-24.3l0.2,0.5c-0.6,8.6-11,13.7-12.3,22.2c-1,6.5,3.7,12.6,9.1,16.2c17.1,11.3,41,6.1,58.8,16.3
	c3.9,2.2,7.4,5.2,11.1,7.7C342.9,614.2,356.7,618.5,370.3,622.7z"/>
<path class="st12" d="M361.8,695.8c-0.6,1.2-1.5,2-2.7,2.4c-6.1,1.3-11.8,4.1-16.7,8.2c-4.6,3.9-8.4,9.1-14,11.5
	c-6.3,2.8-13.5,1.7-20.2,0c-8.1-2-16.1-4.7-23.8-8c-1.7-0.7-3.5-1.6-4.4-3.2c-0.8-1.7-0.8-3.6-0.1-5.4c2.2-6.7,8.6-10.7,14.1-15.1
	c6-4.9,11.3-10.7,15.6-17.3C324.7,682.1,341.9,695.5,361.8,695.8z"/>
<path class="st6" d="M345-1.5h11.3C348,14,334.7,26,318.7,32.2c-6.4,2.5-13.5,4.3-18.1,9.4c2-3.7,4-7.5,6.1-11.3
	c7.4-2.8,14.5-6.4,21.2-10.7c4.4-2.9,8.8-6.1,11.9-10.4C341.9,6,343.7,2.4,345-1.5z"/>
<path class="st1" d="M306.6,30.4c-0.9,0.3-1.8,0.7-2.7,1c0.3-10.8,1.4-21.5,3.2-32.1v-0.8h38c-1.3,3.8-3.1,7.5-5.4,10.8
	c-3.1,4.3-7.4,7.5-11.9,10.4C321.1,24,314,27.6,306.6,30.4z"/>
<path class="st24" d="M335.3,511.8l0.7,0.3c-2.2,4.9-4,10-5.3,15.2c-1,3.5-1.9,7-2.9,10.5l-0.5-0.1c-7.6-2.3-15.7-1.8-23.5-2.9
	c-7.8-1.2-16.1-4.7-19.4-12l29.6-12.4c1.7-0.8,3.5-1.4,5.3-2c1.7-0.5,3.4-0.8,5.2-0.7C328.4,508,331.9,509.9,335.3,511.8z"/>
<path class="st25" d="M302.6,503.5c0.5,0.7,1.3,0.9,2,0.6c0.2-0.2,0.5-0.4,0.6-0.6l0.7,0.2c1.8-1,2.5-3.2,3-5.2
	c3.6-13.1,7.2-26.9,3.5-40c-0.6-2.2-2.3-4.8-4.4-4.2l0.1,0.3c-0.7-0.3-1.6-0.5-2.4-0.5c-2.7-0.1-5.4,0.3-8,1c0,4.1,2,7.8,3.2,11.8
	c1.7,5.6,1.7,11.6,1.7,17.5c0,6.3,0,12.6,0,19L302.6,503.5z M283.9,510.1c0.5,0.5,0.6,1.2,0.8,1.9s0.9,1.5,1.6,1.1
	c0.3-0.2,0.5-0.4,0.5-0.7c1.8-0.1,2.6-2.6,2.8-4.5c1-11.6,1.1-23.3,0.3-34.9c0-2.6-0.6-5.2-1.6-7.6c-1.1-2.3-3.2-3.9-5.7-4.2
	c-0.6-0.2-1.2-0.2-1.8-0.2c-2.4,0-4.9,0.4-7.1,1.3c-0.7,0.2-1.2,0.6-1.6,1.3c-0.2,0.6-0.1,1.2,0.1,1.8c0.6,1.9,1.3,3.8,2.1,5.6
	C279.3,483.4,282.5,496.6,283.9,510.1z M273,495.5c-0.1-0.8-0.3-1.6-0.4-2.3c-0.6-4-1.7-8-3.4-11.7c-1.7-3.8-4.7-6.8-8.5-8.4
	c-2.3-0.9-5-1.2-6.3-3.3c-0.5-1.1-0.8-2.4-0.8-3.6c-0.1-3.3,0-6.7,0.2-10h0.5c4.1-6.6,11.5-10.6,19-12.6c7.5-2,15.3-2.5,23-3.7
	c7.6-1.3,15.1-3.3,22.6-1.8c0.4,1,0.7,2.1,1,3.1c1,3.2,1.6,6.5,1.8,9.9c0,3-0.2,6-0.7,8.9c-2.2,15.8-2.8,31.8-2,47.7l0.3,0.9
	c-1.8,0.5-3.6,1.2-5.3,2l-29.6,12.4c3.3,7.3,11.6,10.8,19.4,12c7.8,1.2,15.9,0.7,23.5,2.9l0.5,0.1c-2.5,9.2-5.1,18.4-7.6,27.6
	l-0.3-0.1c-1.6-7.5-4-14.8-7.2-21.7c-0.4-1.1-1-2-1.9-2.7c-1-0.6-2.1-1-3.2-1c-5-0.6-10-1-14.9-1c-0.5,0-0.9,0-1.4,0.2v-0.1
	c-2-0.2-3.9,0.9-4.8,2.8c-0.8,1.8-1.3,3.7-1.3,5.7c-0.6,7.5-0.9,15-0.9,22.6l-0.1,0.6c-4.3-0.8-8.6-1.8-12.8-3.1
	c3.8-4,4.9-9.9,5.4-15.4c0.4-4.2,0.6-8.4,0.7-12.6c0-9.2-0.6-18.4-1.8-27.5C274.9,506.5,274,500.9,273,495.5L273,495.5z"/>
<path class="st24" d="M316.1,433.8c1.3,1.1,2.2,2.6,2.8,4.2c-7.4-1.4-15.1,0.6-22.6,1.8c-7.5,1.2-15.5,1.7-23,3.7
	c-7.5,2-14.8,6-19,12.6h-0.5c0.2-3,0.6-5.9,1.1-8.8c0.2-1.9,0.8-3.7,1.8-5.2c1.8-2.5,5-3.3,8-4c14.6-3.4,29.3-6.8,44.3-6.1
	C311.5,431.9,314.2,432.2,316.1,433.8z"/>
<path class="st12" d="M316.3,625.5c2.1,2.2,2.4,5.7,1.4,8.6c-1,2.9-2.9,5.4-4.8,7.7c-5.3,6.5-10.6,13.5-12,21.7
	c-0.3,1.8-0.2,3.8-1.1,5.4c-0.5,0.7-0.7,0.9-2.5,0.7l-0.1,0.1c-14.1,0.5-28.2,0.4-42.4-0.3c-5.6-0.3-11.2-0.7-16.5-2.4
	c-5.3-1.8-10.3-5.1-13-10.1c-0.9-1.4-1.2-3-1-4.6c0.6-2.5,3.2-3.9,5.6-4.9c9.2-3.9,18.9-7,27.5-12.1c6.9-4,13.2-9.3,20.8-11.9
	c9.7-3.4,20.4-2.1,30.6-0.7C311.5,623.1,314.4,623.5,316.3,625.5z"/>
<path class="st24" d="M312.5,458.5c3.6,13,0,26.9-3.5,40c-0.5,2-1.3,4.2-3,5.2l-0.7-0.2c0.5-0.8,0.7-1.7,0.8-2.6
	c1-7.5,1.9-15,2.9-22.5c0.9-6,1.4-12.1,1.5-18.2c0-2.1-0.4-4.6-2.2-5.6l-0.1-0.3C310.2,453.7,311.9,456.3,312.5,458.5z"/>
<path class="st0" d="M310.4,460.2c-0.1,6.1-0.6,12.2-1.5,18.2c-1,7.5-1.9,15-2.9,22.5c-0.1,0.9-0.3,1.8-0.8,2.6
	c-0.2,0.2-0.4,0.4-0.6,0.6c-0.7,0.3-1.6,0.1-2-0.6l0.1-0.1c0-6.3,0-12.6,0-19c0-5.9,0-11.9-1.7-17.5c-1.2-3.9-3.1-7.7-3.2-11.8
	c2.6-0.8,5.3-1.1,8-1c0.8,0,1.6,0.1,2.4,0.5C310,455.5,310.4,458,310.4,460.2z"/>
<path class="st26" d="M298.7,766.5c0.8,6.3,0,14.6-6.1,16.3c-3.4,0.9-6.8-0.8-10.2-1.5c-12.3-2.6-23.7,7.9-36.2,8.4
	c-3.3,0.1-6.6-0.4-9.7,0.7c-2.3,0.8-4.2,2.4-6.2,3.7c-10.5,7-24,7.1-36.4,5.4c-8.6-1.2-19.3-0.4-25.7,5.5v0.5H-12.3v-49.8h0.7
	c5.5,2.3,11.1,4.5,17.1,4.5c3.6,0,7.1-0.8,10.7-1c5.7-0.3,11.5,0.6,16.8,2.8l0.2,0.4c-3,1.7-5.7,3.9-7.9,6.5c7.3,5.8,17.4,6,25,0.6
	c1.3,4.9,1.3,10,0.1,14.9c4.8,0.3,9.5-0.6,13.9-2.7c3,3.3-0.7,9.6,2.4,12.8c2.7,2.8,7.2,0.4,10.6-1.4c8.1-4.2,17.5-4.3,25.7-0.3
	c5.4,2.7,12.1,7.1,16.6,3c6-5.5-3-14.4-4.5-22.4c-1.1-6.5,4.3-13.3,10.8-13.6c6.5-0.3,12.6,6,12,12.6c-0.3,4-1.8,9.5,1.9,10.8
	c2.2,0.7,4.5-1,6.8-0.9c4.8,0.3,5.6,7.6,9.9,9.8c4.8,2.5,9.9-2.7,15-4.4c12-4,27.2,10.9,36.1,1.9c2.4-2.4,3.3-6,5.8-8.2
	c6.2-5.6,16.4,0.5,24.3-2.2c4.8-1.7,8.2-6.5,13.2-7.4c7.5-1.4,15.4,6.6,22.2,3c5.5-2.9,5.2-10.8,4.6-17s0.7-14.4,6.8-15.6
	c-6.5-0.9-11.6-7.4-11.1-13.9c0.1-1.1,0.3-2.2,0.6-3.3l0.5,0.1c6.1,1.9,12.6,4.2,16.5,9.4c2.4,3.3,3.4,7.3,4.2,11.3
	C296.7,752.4,297.8,759.5,298.7,766.5z"/>
<path class="st6" d="M86.3,257l0.1,0.1c-17.1,23.8-18.5,55.8-13.6,84.8c2.6,15.5,6.8,31.1,4.9,46.7c-3.3,26.5-23.9,50.2-20.3,76.7
	c1.4,10.4,6.6,19.9,9.1,30.1c7.1,29.5-8.7,60.4-3.9,90.4c1.3,7.9,4.6,16.3,11.7,20c7.1,3.7,18-0.7,17.9-8.7
	c3,14.3,8.4,27.9,16.1,40.2c5.4-1.2,5.3-12.1,10.8-11.4c1.4,0.3,2.6,1.1,3.5,2.3c3,3.7,4.2,8.4,5.2,13.1c2.7,12.8,3.7,26,7.1,38.7
	c3.4,12.7,9.4,25.2,19.8,33c-0.1,0.4-0.3,0.8-0.4,1.2c-0.9,3.5-1.1,8-4.3,9.6c-3.7,1.8-7.6-1.8-11.5-3.1c-8.4-2.7-15.8,5.5-21.9,12
	c-3.5,3.7-8.3,8.4-12.8,10.2c0-15.6-2.8-34.1-9.3-48.3c-1.5-3.2-3.2-6.5-5.9-8.7c-2.7-2.2-6.2-3.3-9-5.4c-6.8-5.1-7.8-14.7-8.9-23.1
	c-1.1-8.4-4-18.1-12-20.9c-2.9-1-6.1-0.9-9.2-1.4c-13.7-2.5-21.1-18-21.9-32s2.9-28,1.4-41.9c-2.5-22.2-18.2-41.6-18.6-64
	c-0.2-9.8,2.6-19.5,2-29.3c-0.5-8.7-3.8-17.1-3.9-25.8c-0.4-19.7,14.2-35.9,23.7-53.2c18.5-34,17.3-75,15.7-113.7l-0.2-0.1
	c-2-10.6,3.4-19.2,8.7-28.6c0.7-1.2,1.3-2.4,2-3.6c5.5-10.5,9.4-21.4,15.3-31.8c9.2-17.9,21.2-34.2,35.5-48.1
	c3.7-3.6,7.6-7.1,11.6-10.4c9.4-7.8,19.6-14.7,29.8-21.5l49.2-33.1l15.9-10.7c16.6-11.2,33.4-22.5,47.1-37.1
	c13.3-14.3,23.6-32.2,25.5-51.6h6c-3.5,24.5-12.2,47.8-25.4,68.4l-0.2-0.1l-38.1,28.8c-6.5,4.9-13.1,9.9-18.4,16
	c-8.1,9.3-13.2,21-21.6,30.1c-11,12-27,18.6-37.8,30.8c-7.1,8-11.6,17.8-17.5,26.7C121,219.8,89.2,253.8,86.3,257z"/>
<path class="st27" d="M291.3,538.9v0.1c-0.2,0.1-0.4,0.2-0.6,0.3c-0.4,0.5-0.6,1.1-0.6,1.7c-1.1,9.1,0.3,18.5-1.7,27.5
	c-0.1,0.9-0.5,1.7-1.3,2.2c-0.6,0.2-1.2,0.2-1.8,0.1l-1.3-0.2l0.1-0.6c0-7.5,0.3-15.1,0.9-22.6c0-2,0.5-4,1.3-5.7
	C287.3,539.8,289.2,538.7,291.3,538.9z"/>
<path class="st24" d="M289.9,472.9c0.8,11.6,0.7,23.3-0.3,34.9c-0.2,1.9-1,4.4-2.8,4.5c0-0.2,0.1-0.4,0.1-0.6
	c1.3-15.5,0.7-31-1.6-46.4c-0.2-1.4-0.5-3.1-1.7-3.9c-0.3-0.2-0.6-0.3-0.9-0.5c2.5,0.3,4.6,1.9,5.7,4.2
	C289.4,467.7,289.9,470.3,289.9,472.9z"/>
<path class="st1" d="M216.1-1.5h72c-1.8,19.4-12.1,37.4-25.4,51.6c-13.7,14.7-30.5,26-47.1,37.1l-15.9,10.7l-0.2-0.3
	c-21.3,4.8-48.3-9.8-54.5-30.8C167.9,43,199.6,27.2,216.1-1.5z"/>
<path class="st0" d="M282.6,461c0.3,0.1,0.6,0.3,0.9,0.5c1.2,0.9,1.5,2.5,1.7,3.9c2.3,15.3,2.8,30.9,1.6,46.4c0,0.2,0,0.4-0.1,0.6
	c-0.1,0.3-0.2,0.6-0.5,0.7c-0.7,0.3-1.4-0.4-1.6-1.1c-0.2-0.7-0.3-1.4-0.8-1.9c-1.4-13.5-4.6-26.7-9.7-39.2
	c-0.8-1.8-1.5-3.7-2.1-5.6c-0.2-0.6-0.3-1.2-0.1-1.8c0.4-0.6,0.9-1.1,1.6-1.3c2.3-0.9,4.7-1.4,7.1-1.3
	C281.5,460.8,282.1,460.9,282.6,461z"/>
<path class="st28" d="M183.9,743c-2.1-0.2-4.1-0.2-6.2,0c-1.6,0.1-2.1,1.5-3.2,2.7c-0.6,0.7-1,1.7-1.1,2.6c-0.4,3,1.4,6,3.8,7.8
	c2.6,1.7,5.5,2.7,8.5,3c5.2,0.8,10.7,0.7,15.5-1.5c1.4-0.6,2.8-1.6,3-3c0.3-1.7-1.2-3.1-2.6-4.2C196.3,746.6,190.2,744,183.9,743z
	 M181.5,710.7c-5,2-9.5,3.6-11.4,9.2c-0.5,1.3-0.6,2.8-0.1,4.1c0.9,2.2,3.4,3,5.7,3.6c4,0.9,8.1,1.6,12.2,0.8c4-0.7,8-3,9.8-6.7
	c0.8-1.3,1-2.9,0.7-4.4c-0.6-2.3-2.9-3.7-5-4.7c-2-0.9-4.1-1.7-6.2-2.4C185.2,709.6,184.9,709.5,181.5,710.7L181.5,710.7z
	 M103.8,742.8c4.4-1.8,9.3-6.5,12.8-10.2c6.1-6.4,13.5-14.7,21.9-12c3.9,1.3,7.8,4.9,11.5,3.1c3.3-1.6,3.4-6.1,4.3-9.6
	c0.1-0.4,0.2-0.8,0.4-1.2c4.1-12.1,20.3-15.7,28.2-26c0.4-0.5,0.8-1.1,1.2-1.6c1.9-2.9,3-6.2,5.3-8.8c2.3-2.5,6.5-3.9,9.1-1.7
	c1.3,1.3,2.2,3,2.3,4.9c0.5,2.7,0.5,5.6,2.1,7.7c2.8,3.7,9.2,3.1,11.6,7.1c2.4,4-1,8.6-3.2,12.6c-2.2,4-1.8,11,2.8,11
	c1.6-0.2,3-0.9,4.2-2c6.1-5,11.9-11.8,18.1-16.7c1.8-1.5,3.8-2.8,5.8-3.9c4.2-2.4,9-3.2,13.7-2.2c-1.9,5,3,9.9,7.8,12.5
	c1.6,0.9,3.3,1.7,4.9,2.7c3.1,1.9,5.9,4.2,6.6,7.7c0.2,1.1,0.3,2.1,0.1,3.2c-0.3,1.8-0.7,3.6-1.2,5.3c-0.3,1.1-0.5,2.2-0.6,3.3
	c-0.5,6.5,4.6,13,11.1,13.9c-6.1,1.2-7.4,9.4-6.8,15.6s0.9,14.1-4.6,17c-6.8,3.6-14.6-4.4-22.2-3c-5,0.9-8.4,5.8-13.2,7.4
	c-7.9,2.7-18-3.4-24.3,2.2c-2.5,2.2-3.5,5.8-5.8,8.2c-8.9,9-24.1-5.9-36.1-1.9c-5.1,1.7-10.2,6.9-15,4.4c-4.2-2.2-5.1-9.5-9.9-9.8
	c-2.3-0.2-4.6,1.6-6.8,0.9c-3.8-1.2-2.3-6.8-1.9-10.8c0.5-6.6-5.5-12.9-12-12.6c-6.5,0.3-12,7.1-10.8,13.6c1.4,8,10.4,16.9,4.5,22.4
	c-4.4,4.1-11.2-0.3-16.6-3c-8.2-4-17.6-3.9-25.7,0.3c-3.4,1.8-8,4.2-10.6,1.4c-3.1-3.2,0.7-9.5-2.4-12.8c-4.3,2.1-9.1,3-13.9,2.7
	c1.2-4.9,1.2-10-0.1-14.9c-7.6,5.4-17.7,5.2-25-0.6c2.3-2.6,5-4.8,7.9-6.5c5-2.8,10.6-4.2,16.3-3.9c-4.3-10.7-19.1-9.9-30.4-11.4
	c-3-0.4-6.6-1.5-7.6-4.5c-0.7-2.1,0.2-4.5,1.4-6.4c7.9-13.5,25.7-18.5,41-15.7s28.7,11.8,41.3,21l0.3-0.4
	C97.5,744,100.5,744.2,103.8,742.8L103.8,742.8z M254.4,746.1c1.6-1.7,2.2-4.1,1.6-6.4c-0.9-2.9-3.9-4.4-6.8-5.2
	c-2.6-0.9-5.3-1.6-8.1-1.9c-4-0.2-7.4,2.7-11.1,4.3c-0.8,0.3-1.5,0.8-2,1.4c-0.5,0.7-0.9,1.5-1.1,2.4c-0.5,1.7-0.9,3.5-1.1,5.2
	c-0.2,0.7-0.1,1.3,0.3,1.9c0.3,0.3,0.6,0.6,1,0.7c6.8,3.2,14.5,3.5,21.5,1C250.8,749,252.7,747.8,254.4,746.1L254.4,746.1z
	 M219.9,771.1c0.2-1.7-1.1-3.1-2.3-4.4c-1.7-1.7-2.1-1.6-4.5-1.6v0.1c-3.2-0.8-6.4-1.2-9.6-1.1c-2.5,0-5.2,0.5-6.7,2.4
	c-0.9,1.3-1.5,2.9-1.7,4.5c-0.3,0.8-0.2,1.7,0.1,2.5c0.3,0.4,0.7,0.8,1.1,1c6.5,3.9,14.5,3.9,21,0
	C218.4,773.6,219.6,772.6,219.9,771.1L219.9,771.1z M163.5,761.3c-0.1-0.6-0.4-1.2-0.8-1.6c-1.6-1.6-1.5-1.5-3.7-2
	c-5.5-1.2-11.1-1.6-16.6-1c-0.8,0-1.5,0.3-2,1c-0.2,0.4-0.3,0.8-0.3,1.3c-0.2,1.8,0.1,3.7,0.7,5.4c1.2,2.7,4.2,4.3,7.2,4.8
	c5.8,0.8,11.6-1.7,15-6.6C163.2,762.2,163.4,761.8,163.5,761.3L163.5,761.3z M157.5,738.9c0-0.6-0.3-1.2-0.7-1.6
	c-1.4-1.7-3.1-2.9-5-3.7c-2.6-1.3-4.4-0.3-7.2-0.6c-4-0.4-8.7-0.5-11.7,2.3c-1.9,1.3-2.4,3.9-1.2,5.8c0.6,0.9,1.4,1.5,2.4,1.8
	c1.3,0.4,2.6,0.6,4,0.7c6.2,0.4,13,0.7,18.2-2.7C156.8,740.4,157.3,739.7,157.5,738.9L157.5,738.9z M102.6,767.8
	c0.3-1.9-1.1-3.7-2.7-4.6c-1.7-0.8-3.6-1.2-5.5-1.3v0.1c-3.9-0.2-7.9-0.3-11.6,0.9s-7.1,4.5-7.5,8.4c-0.1,0.4,0,0.8,0.2,1.2
	c0.4,0.6,1,0.9,1.7,1c4,1.1,8.1,1.7,12.2,1.7c4.1-0.1,8.3-1.4,11.3-4.2C101.7,770.1,102.4,769,102.6,767.8z M85.2,750.3
	c-0.1-1.1-0.6-2-1.4-2.7c-2.3-2.3-4.9-4.3-8.2-4.6c-4.9-2.4-9.4-2.1-14.9-2.5c-1-0.2-2.1,0-3,0.5c-0.6,0.5-1.2,1.2-1.5,2
	c-1.1,2-2,4.3-1.6,6.5c0.5,1.9,1.7,3.6,3.4,4.5c1.7,1,3.6,1.6,5.5,1.9c3.3,0.6,6.6,0.8,9.9,0.5c3.5-0.3,7.2-1,10-3.3
	C84.5,752.6,85.1,751.5,85.2,750.3z"/>
<path class="st12" d="M277,688.6c0.8,3.9-5.4,6-5.7,9.8h-0.5c-0.7,3.2-1.5,6.4-2.2,9.6l-0.3,0.4c-1.6-1-3.3-1.9-4.9-2.7
	c-4.7-2.5-9.6-7.5-7.8-12.5c-4.7-1-9.5-0.2-13.7,2.2l-0.1-0.7c-2.4-2.2-3.5-5.6-6-7.7c-1.5-1.1-3.2-2-5-2.5
	c-13.5-5.1-26.1-12.5-37.3-21.9c2.6-2.7,7.1-3,10.7-1.8c3.6,1.2,6.6,3.7,9.8,5.8c8.6,5.7,18.3,9.3,28.4,10.5
	c5.8,0.7,11.7,0.6,17.5,1.6c5.8,1,11.6,3.1,15.6,7.5C276.3,686.8,276.8,687.7,277,688.6z"/>
<path class="st13" d="M259.9,159.5c8.5,9.7,11.2,23.5,10.3,36.4s-4.8,25.4-8,37.9c-5.4,21.1-8.8,42.7-10.2,64.5l0,0l-5.3-26
	c-4.5-21.7-10.1-45.4-27.6-58.9c-4-3.1-8.7-5.6-12.3-9.3c-6.7-7-8.2-19.9-4.1-28.7l-0.2-0.1c5.4-7.6,7.4-17.3,12.2-25.4
	c1.7-3,3.8-5.7,6.2-8.2C235.1,144.6,250.2,148.5,259.9,159.5z"/>
<path class="st12" d="M266.9,510.6c0.1,1.7-1.5,3-2.9,3.7c-1.5,0.7-3.2,1.3-4.2,2.6v0.4l-39.5-1.1c-3.2-0.1-6.8-0.4-8.9-2.9
	c-0.4-0.5-0.7-1-0.8-1.6c-0.2-2,2.2-3.1,4.2-3.7c9.8-2.4,19.7-4.1,29.7-5.4c3.9-0.7,8-0.7,11.9-0.1c3.9,0.7,7.8,2.8,9.8,6.2
	C266.6,509.3,266.8,509.9,266.9,510.6z"/>
<path class="st12" d="M258.7,609.3c3,1.4,6.6,3.8,5.7,6.9c-0.4,1.1-1.2,2.1-2.2,2.8c-11,9.8-24.5,16.1-38.9,18.1v0.2
	c-5.2,0.2-10.1-2.5-12.9-7.1c-2.4-4.2-2.6-9.3-5.1-13.4c-2.7-4.3-7.4-6.7-12-8.7c-12.5-5.5-25.4-9.6-38.6-12.5
	c-1.8-0.2-3.6-0.9-5.1-1.9c-1.5-1.1-2.4-3.2-1.5-4.9c0.4-0.7,1-1.3,1.6-1.7c11-8.7,25.9-9.7,39.8-9c8.3,0.4,16.6,1.4,24.4,4.4
	c8.9,3.6,16.4,9.8,24.4,15.1C244.7,602.2,251.6,606,258.7,609.3z"/>
<path class="st29" d="M192.4,369.3c-1.4,3.7,0,8.5,3.5,10.3c3.5,1.8,8.8-0.9,8.8-4.9c0-3.3-3-6.8-6.2-7.3
	C195.2,366.8,195.3,367.4,192.4,369.3z M193.3,332.9c1.4,3.9,5.9,6.6,9.6,4.6c1-0.4,1.7-1.2,2.2-2.2c1-2.5-1.6-5.2-4.3-5.3
	c-2.7-0.1-5,1.4-7.3,2.8L193.3,332.9z M240.2,360.1c-0.5,3.1,2.3,6.6,5.5,6.3c3.7-0.4,5.9-5.7,3.4-8.5c-2.4-2.9-8-1.4-8.8,2.3
	L240.2,360.1z M263.7,376.5c0.5,5.9,0.4,11.9-0.1,17.8c-0.4,3.8-1.4,7.4-2.9,10.9c-5,11.1-16.5,18.2-28.2,21
	c-8.7,2.1-17.8,2.1-26.8,1.7c-8.2-20.4-29.6-33.1-44.1-49.6c-5.4-6.1-9.8-12.9-14.2-19.8c-2-3.1-4-6.2-4.6-9.8c-0.6-3.1,0.6-6.2,3-8
	c7-4.4,14.4-7.8,22.2-10.3c11.1-3.7,22.8-6.5,34.3-5c6.3,0.8,12.4,2.7,18.1,5.5c-0.8,3.1,0.7,9,3.5,10.2c3,1.3,6.4,0.2,8.2-2.6
	l0.3-0.4c7.1,5.3,13.9,11.1,20.2,17.4l3.4,3.3c2.2,2.2,4.5,4.4,5.9,7.2C263.3,369.1,263.5,372.8,263.7,376.5z M240.6,392.8
	c2.3-1,4.2-3.5,3.7-5.9c-0.5-2.5-3.9-4.5-6.4-3.8c-4.2-1-3.9,2.1-4.9,3.9c-1,1.8-0.4,4,0.2,6C235.7,393.7,238.2,393.6,240.6,392.8z
	 M222.3,364.7c1.7-1.3,3-3.3,2.8-5.4c-0.2-2.1-2.7-3.5-4.8-3.5c-2.3-0.6-3.1-1-5.2,0s-2.9,3.4-3,5.8
	C211.8,366.1,218.7,367.4,222.3,364.7z M207.7,402.7c4.2,1.7,9.2-3.4,7.6-7.6c-1.3-3.4-3.9-4.3-7.5-3.6
	C203.7,393.4,203.5,401,207.7,402.7z M172.7,357.7c2.9-0.1,6.8-1,6.6-4c-0.2-3.1-2.8-5.5-5.7-5.3c0,0-0.1,0-0.1,0
	c-4.2-1.4-9.9-1-10.5,3.4C162.4,356.2,168.4,357.8,172.7,357.7z"/>
<path class="st12" d="M258.5,529c1.5,1.3,2.7,3.3,2.2,5.1c-0.4,1.2-1.2,2.2-2.1,2.9c-8.3,7.3-19.7,11.6-24.9,21.4
	c-1.7,3.1-2.5,6.6-4.2,9.7s-4.4,5.9-7.9,6.2c-7.9-6.9-22.8-3.4-29.2-12.1c-3-4.2-2.9-9.8-4.9-14.6c-2.4-5.9-7.7-10-12.8-13.8
	c-0.9-0.5-1.7-1.3-2.2-2.3c-1.2-2.6,1.5-5.2,4-6.6c9.8-5.1,21.5-5.1,32.5-3.6s21.8,4.3,32.9,4.3C247.6,525.7,254.1,525.2,258.5,529z
	"/>
<path class="st30" d="M255.9,739.8c0.6,2.3,0,4.7-1.6,6.4c-1.6,1.7-3.6,2.9-5.7,3.6c-7,2.5-14.7,2.1-21.5-1c-0.4-0.1-0.7-0.4-1-0.7
	c-0.3-0.6-0.4-1.3-0.3-1.9c0.2-1.8,0.6-3.5,1.1-5.2c0.2-0.9,0.6-1.7,1.1-2.4c0.6-0.6,1.3-1.1,2-1.4c3.7-1.7,7.1-4.6,11.1-4.3
	c2.7,0.3,5.5,1,8.1,1.9C252,735.4,255,736.9,255.9,739.8z M250.2,746.2c0.8-0.4,1.6-1.3,1.2-2.1c-0.3-0.3-0.6-0.6-1-0.7
	c-1-0.4-1.1-1-2.1-1.4l-0.2-0.1c-1.4-0.4-2.9-0.4-4.3-0.2c-1.4,0.2-2.6,1.4-2.9,2.9c-0.2,2,1.8,3.6,3.8,3.6
	C246.7,748.2,248.5,747.2,250.2,746.2z"/>
<path class="st5" d="M145.6,340.7c-3.4,2.2-6.5,4.7-9.3,7.5c-6.4,6.5-12.6,15.4-20.2,21.2c-3.3,2.7-7.2,4.5-11.3,5.4h-0.4
	c-0.6-13.6-1.2-27.3-1.7-40.9c-3.7-21.2,7.4-39.3,16.9-58.6c16.3-33.3,34.9-65.3,55.7-95.9l0.3,0.2c6,7.9,19.9,4.7,26-3.1
	c0.3-0.4,0.6-0.8,0.9-1.2l0.2,0.1c-4.1,8.8-2.6,21.7,4.1,28.7c3.6,3.7,8.2,6.2,12.3,9.3c17.5,13.5,23.1,37.1,27.6,58.9l5.3,26l0,0
	c-1.2,18.8-0.8,37.7,1.1,56.4l-0.6,0.7c-6.3-6.3-13.1-12-20.2-17.3c-3.8-2.7-7.8-5.2-12-7.2c-5.7-2.8-11.8-4.7-18-5.5
	c-11.6-1.4-23.3,1.3-34.3,5C160,332.9,152.6,336.3,145.6,340.7z"/>
<path class="st31" d="M251.4,744.1c0.4,0.8-0.5,1.6-1.2,2.1c-1.7,1-3.5,2-5.5,2c-2-0.1-4-1.7-3.8-3.6c0.3-1.5,1.5-2.6,2.9-2.9
	c1.4-0.2,2.9-0.2,4.3,0.2l0.2,0.1c1,0.4,1.1,1,2.1,1.4C250.8,743.6,251.2,743.8,251.4,744.1z"/>
<path class="st31" d="M249.1,357.9c2.4,2.9,0.3,8.2-3.4,8.5c-3.2,0.3-6-3.1-5.5-6.3h0.1C241.1,356.4,246.7,355,249.1,357.9z"/>
<path class="st31" d="M244.4,386.9c0.5,2.5-1.4,5-3.7,5.9c-2.4,0.8-5,0.9-7.4,0.2c-0.6-2-1.2-4.2-0.2-6s0.8-5,4.9-3.9
	C240.5,382.4,243.8,384.4,244.4,386.9z"/>
<path class="st31" d="M232.2,338.1l-0.3,0.4c-1.8,2.8-5.2,3.9-8.2,2.6c-2.8-1.3-4.3-7.1-3.5-10.2C224.4,333,228.4,335.4,232.2,338.1
	z"/>
<path class="st12" d="M214.8,687.4c6.5,5.2,13.7,9.2,21.4,12c-6.2,4.9-12,11.7-18.1,16.7c-1.1,1.1-2.6,1.8-4.2,2c-4.5,0-5-7-2.8-11
	c2.3-4,5.6-8.7,3.2-12.6c-2.4-3.9-8.8-3.4-11.6-7.1c-1.6-2.1-1.6-5-2.1-7.7C206.1,679.8,210.6,683.9,214.8,687.4z"/>
<path class="st31" d="M225.1,359.3c0.2,2.1-1.1,4.1-2.8,5.4c-3.6,2.7-10.5,1.4-10.2-3.1c0.2-2.4,0.9-4.7,3-5.8
	c2.1-1.1,2.9-0.6,5.2,0C222.4,355.8,224.8,357.2,225.1,359.3z"/>
<path class="st30" d="M212.9,767.6h-5.4c-0.5,0-1,0-1.5,0.2c-0.8,0.6-1.4,1.5-1.4,2.6c-0.3,1.3-0.4,2.9,0.6,3.8
	c0.7,0.4,1.5,0.6,2.2,0.5c2.8-0.1,5.6-0.8,8.1-2.1c0.4-0.1,0.7-0.4,0.9-0.7c0.6-0.9,0-2.1-0.8-2.7c-0.8-0.7-1.8-1.1-2.9-1.3
	L212.9,767.6z M213,765.2L213,765.2c2.4-0.1,2.8-0.2,4.5,1.5c1.2,1.2,2.5,2.7,2.3,4.4c-0.2,1.4-1.4,2.5-2.6,3.3
	c-6.5,3.9-14.5,3.9-21,0c-0.5-0.3-0.8-0.6-1.1-1c-0.3-0.8-0.4-1.7-0.1-2.5c0.2-1.6,0.8-3.1,1.7-4.5c1.6-1.9,4.3-2.3,6.7-2.4
	C206.6,763.9,209.8,764.4,213,765.2L213,765.2z"/>
<path class="st31" d="M215.7,769.1c0.8,0.7,1.4,1.9,0.8,2.7c-0.2,0.3-0.6,0.5-0.9,0.7c-2.5,1.3-5.3,2-8.1,2.1
	c-0.8,0.1-1.6-0.1-2.2-0.5c-1-0.8-0.9-2.5-0.6-3.8c0.1-1,0.6-2,1.4-2.6c0.5-0.2,1-0.3,1.5-0.2h5.4v0.2
	C213.9,767.9,214.9,768.4,215.7,769.1z"/>
<path class="st7" d="M145,66.9c-0.5,0.5-1,1-1.5,1.6c-23.4,25.2-36.1,60.1-34.5,94.4c-14.3,13.9-26.3,30.2-35.5,48.1
	c-5.9,10.4-9.8,21.3-15.3,31.8l-0.4-0.2c-8.1-7.9-8.7-21.1-5.3-31.9s10-20.3,14.9-30.4c10.2-21.1,13-45.2,22.6-66.6
	c13.5-30.1,39.3-52.4,61.1-77.2c9.5-10.9,18.6-22.9,21.4-37l1.9-1.1h41.6C199.6,27.2,167.9,43,145,66.9z"/>
<path class="st31" d="M215.3,395.1c1.7,4.2-3.4,9.3-7.6,7.6c-4.2-1.7-4-9.3,0.1-11.2C211.3,390.8,213.9,391.7,215.3,395.1z"/>
<path class="st12" d="M205.3,638.7c0.3,2.5-0.2,5-1.4,7.2c-4.2,8.4-13.8,13.8-23.1,13c-4.6-0.4-9.7-2-13.6,0.3
	c-8.6-17.7-16.3-35.8-23.1-54.3c5.8-1.6,11.9-3.1,17.7-1.7c5.5,1.3,10.1,5,14.4,8.7l23.4,19.4C202,633.3,204.6,635.6,205.3,638.7z"
	/>
<path class="st31" d="M200.8,330c2.7,0.1,5.3,2.8,4.3,5.3c-0.4,1-1.2,1.8-2.2,2.2c-3.7,1.9-8.2-0.7-9.6-4.6l0.2-0.1
	C195.7,331.4,198.1,329.9,200.8,330z"/>
<path class="st31" d="M198.4,367.4c3.2,0.5,6.2,4,6.2,7.3c0,4-5.2,6.7-8.8,4.9c-3.6-1.8-4.8-6.5-3.5-10.3
	C195.3,367.4,195.3,366.8,198.4,367.4z"/>
<path class="st30" d="M201.5,750.5c1.4,1,2.8,2.5,2.6,4.2c-0.2,1.5-1.7,2.4-3,3c-4.8,2.1-10.3,2.2-15.5,1.5c-3-0.3-5.9-1.3-8.5-3
	c-2.4-1.8-4.2-4.8-3.8-7.8c0.1-1,0.5-1.9,1.1-2.6c1.1-1.2,1.6-2.5,3.2-2.7c2.1-0.2,4.1-0.2,6.2,0l0,0
	C190.2,744.1,196.2,746.6,201.5,750.5z M196,753.1c0.4-0.6,0-1.4-0.5-1.8c-0.6-0.3-1.1-0.7-1.6-1.2l-0.1-0.1c-1-0.3-2.1-0.4-3.1-0.3
	c-1.1,0.2-1.8,1.1-1.9,2.2c0.1,1,1.3,1.8,2.3,2c1.4,0.3,2.9,0.2,4.3-0.4C195.6,753.4,195.8,753.3,196,753.1z"/>
<path class="st32" d="M198.6,427.4c-11.5,1.4-23,1.6-34.6,0.7c-5.2-11.4-16.2-19.7-26.4-27.1c-10.2-7.3-20.7-19-21.3-31.6l-0.1-0.1
	c7.5-5.7,13.7-14.6,20.2-21.2c2.8-2.9,5.9-5.4,9.3-7.5c-2.5,1.8-3.7,5-3,8c0.6,3.6,2.7,6.8,4.6,9.8c4.4,6.8,8.9,13.6,14.2,19.8
	c14.5,16.5,35.9,29.2,44.1,49.6C203.2,427.8,200.9,427.6,198.6,427.4z"/>
<path class="st8" d="M199.5,97.7l0.2,0.3L150.4,131c-10.2,6.8-20.4,13.6-29.8,21.5c-4,3.3-7.8,6.8-11.6,10.4
	c-1.6-34.4,11.1-69.3,34.5-94.4c0.5-0.5,1-1,1.5-1.6C151.1,87.9,178.2,102.5,199.5,97.7z"/>
<path class="st30" d="M198.3,717.3c0.3,1.5,0.1,3.1-0.7,4.4c-1.9,3.7-5.8,6-9.8,6.7s-8.2,0.1-12.2-0.8c-2.3-0.5-4.8-1.4-5.7-3.6
	c-0.5-1.3-0.4-2.8,0.1-4.1c1.9-5.6,6.3-7.2,11.4-9.2l0,0c3.5-1.2,3.8-1,5.7-0.5c2.1,0.7,4.2,1.5,6.2,2.4
	C195.5,713.7,197.7,715,198.3,717.3z M190.9,720.1c0.4-1.1,0-2.4-0.8-3.1c-0.8-0.8-2-0.8-3.1-1.2c-3.1-0.6-5,0.2-7.2,2.6
	c-0.1,0.1-0.2,0.3-0.3,0.5c-0.1,0.4,0.2,0.8,0.5,1c1.9,1.6,4.6,2.1,7.2,2C188.6,721.8,190.4,721.5,190.9,720.1z"/>
<path class="st31" d="M195.5,751.3c0.5,0.4,0.9,1.2,0.5,1.8c-0.2,0.2-0.4,0.4-0.7,0.5c-1.4,0.6-2.9,0.8-4.3,0.4
	c-1.1-0.2-2.2-0.9-2.3-2c0-1.1,0.8-2,1.9-2.2c1-0.2,2.1-0.1,3.1,0.3l0.1,0.1C194.3,750.5,194.9,750.9,195.5,751.3z"/>
<path class="st31" d="M190.1,717c0.9,0.8,1.2,2,0.8,3.1c-0.6,1.3-2.3,1.7-3.8,1.7c-2.5,0-5.2-0.4-7.2-2c-0.3-0.3-0.6-0.6-0.5-1
	c0.1-0.2,0.2-0.3,0.3-0.5c2.1-2.4,4.1-3.1,7.2-2.6C188.1,716.2,189.3,716.2,190.1,717z"/>
<path class="st31" d="M179.3,353.7c0.1,2.9-3.8,3.9-6.6,4c-4.3,0.1-10.2-1.6-9.7-5.9c0.6-4.3,6.3-4.7,10.5-3.4c3-0.3,5.6,2,5.8,5.1
	C179.3,353.7,179.3,353.7,179.3,353.7z"/>
<path class="st12" d="M170.9,546.2c3,2.7,5.8,6.9,4.3,10.7c-0.7,1.5-1.7,2.8-2.9,3.9c-6.9,6.9-14.3,14.1-23.8,16.5
	c-4.3,1-8.9,1.2-12.8,3.1c-3.6-11.4-6.8-22.8-9.7-34.4c4.5,0.4,9.1-0.7,13-3.1c2.7-1.7,5-4.1,8.2-4.9c1.9-0.4,3.8-0.5,5.7-0.1
	C159.4,538.7,165.7,541.6,170.9,546.2z"/>
<path class="st1" d="M125.3,42c-0.1-14.6-1.6-29.2-4.6-43.5h53.8l-1.9,1.1c-11.7,6.9-23,14.6-33.7,23.1c-3.5,2.8-7,5.8-8.9,9.8
	c-1.7,3.7-2.1,8-4.6,11.2C125.3,43.1,125.3,42.5,125.3,42z"/>
<path class="st33" d="M172.6-0.4c-2.8,14.1-11.9,26.1-21.4,36.9c-21.7,24.8-47.5,47-61.1,77.2c-9.6,21.4-12.4,45.4-22.6,66.6
	c-4.9,10.2-11.6,19.6-14.9,30.4c-3.4,10.8-2.8,24,5.3,31.9l0.4,0.2c-0.6,1.2-1.3,2.4-2,3.6c-5.3,9.4-10.7,18-8.7,28.6l0.2,0.1
	c1.6,38.7,2.8,79.8-15.7,113.7c-9.4,17.4-24.1,33.6-23.7,53.3c0.2,8.7,3.4,17.1,3.9,25.8c0.6,9.8-2.2,19.5-2,29.3
	c0.4,22.3,16.1,41.8,18.6,64c1.6,13.9-2.1,27.9-1.4,41.9c0.7,14,8.2,29.5,21.8,32c3.1,0.6,6.3,0.4,9.2,1.4c8,2.8,10.9,12.5,12,20.9
	s2.2,18,8.9,23.1c2.8,2.1,6.3,3.1,9,5.4c2.7,2.2,4.5,5.5,5.9,8.7c6.5,14.1,9.3,32.6,9.3,48.3c-3.2,1.3-6.2,1.2-8.3-1.9l-0.3,0.4
	c-12.6-9.2-26-18.2-41.3-21s-33.1,2.3-41,15.7c-1.1,1.9-2.1,4.3-1.4,6.4c1,3,4.5,4.1,7.6,4.5c11.3,1.5,26.1,0.7,30.4,11.4
	c-5.7-0.3-11.3,1-16.3,3.8l-0.2-0.4c-5.3-2.2-11.1-3.1-16.8-2.8c-3.6,0.3-7.1,1-10.7,1c-5.9,0-11.6-2.2-17.1-4.5h-0.7V57.8
	c21.1,36.4,31.3,78.5,29.4,121c-0.2,4.6-0.5,9.4,1.4,13.6c3.2,6.9,13.1,9.4,19.3,5.2c0.2,0.3,0.4,0.6,0.7,0.8
	c3.6,3.3,8.6-2.2,10.4-6.8c7.5-19.9,13-40.5,16.4-61.5c1-6.1,1.8-12.3,4.4-17.8c2.8-5.8,7.4-10.5,11.4-15.5
	c12.6-15.5,20.5-34.6,22.8-54.7c1.7-14.2,0.4-28.6-3.7-42.3v-1.2h18.1l-0.8,31.7c-0.1,2.8-0.1,5.8,1.2,8.4c1.3,2.6,4,4.2,6.6,3.4
	c0,0.6,0,1.1,0,1.7c2.5-3.1,2.9-7.5,4.6-11.2c1.9-4,5.5-7,8.9-9.8C149.6,14.3,160.8,6.5,172.6-0.4z"/>
<path class="st30" d="M162.6,759.7c0.5,0.4,0.8,1,0.8,1.6c-0.1,0.5-0.2,0.9-0.5,1.3c-3.5,4.9-9.2,7.4-15,6.6c-3-0.5-6-2-7.2-4.8
	c-0.6-1.7-0.9-3.6-0.7-5.4c0-0.4,0.1-0.9,0.3-1.3c0.5-0.6,1.2-1,2-1c5.6-0.6,11.2-0.3,16.6,1C161.1,758.2,161,758,162.6,759.7z
	 M155.8,761.9c0.2-0.4-0.6-2-1.1-2c-2.7,0-5.5,0.4-8.2,0.4c-0.6,0-1.3,0.1-1.5,0.7c-0.1,0.3,0,0.6,0.2,0.9c1,1.5,2.7,2.4,4.5,2.3
	c1.7-0.1,3.5-0.6,5-1.4C155.2,762.5,155.5,762.3,155.8,761.9z"/>
<path class="st30" d="M156.7,737.3c0.4,0.4,0.7,1,0.7,1.6c-0.2,0.8-0.7,1.5-1.4,1.9c-5.2,3.5-11.9,3.1-18.2,2.7
	c-1.3,0-2.7-0.2-4-0.7c-2.2-0.6-3.5-2.8-2.9-5.1c0.2-1,0.9-1.9,1.7-2.5c3-2.8,7.6-2.7,11.7-2.3c2.8,0.3,4.6-0.7,7.2,0.6
	C153.6,734.4,155.3,735.6,156.7,737.3z M150.3,739c0.6-0.4,1.2-1,0.8-1.7c-0.2-0.2-0.4-0.4-0.6-0.5c-1.1-0.6-0.8-0.7-1.9-1
	c-1.3,0-3.1,0.2-4.4,0.2c-0.5,0-1.2,0.1-1.4,0.6c-0.1,0.4,0,0.8,0.3,1C144.8,739.8,147.8,740.4,150.3,739L150.3,739z"/>
<path class="st31" d="M154.7,759.8c0.5,0,1.3,1.6,1.1,2c-0.3,0.4-0.7,0.7-1.1,0.8c-1.6,0.8-3.3,1.2-5,1.4c-1.8,0.1-3.5-0.7-4.5-2.3
	c-0.2-0.3-0.2-0.6-0.2-0.9c0.2-0.6,0.9-0.7,1.5-0.7C149.2,760.2,152,759.8,154.7,759.8z"/>
<path class="st34" d="M137.6,401.1c10.2,7.3,21.2,15.6,26.4,27.1c-7.5-0.6-14.9-1.7-22.2-3.3c-11.3-2.5-22.4-6.1-33.7-8.5l-1.4,0.1
	c-1-13.9-1.8-27.8-2.4-41.7h0.4c4.1-0.8,8-2.7,11.4-5.4l0.1,0.1C116.9,382.1,127.4,393.8,137.6,401.1z"/>
<path class="st31" d="M151.1,737.3c0.3,0.6-0.2,1.3-0.8,1.7c-2.4,1.4-5.5,0.8-7.3-1.4c-0.3-0.3-0.4-0.7-0.3-1
	c0.2-0.5,0.8-0.6,1.4-0.6c1.3,0,3.1-0.3,4.4-0.2c1.2,0.4,0.8,0.5,1.9,1C150.7,736.9,150.9,737.1,151.1,737.3z"/>
<path class="st6" d="M125.3,42c-2.5,0.8-5.4-1-6.6-3.4s-1.2-5.5-1.2-8.4l0.8-31.7h2.4C123.7,12.8,125.3,27.4,125.3,42z"/>
<path class="st1" d="M100.3-0.2c4.1,13.7,5.3,28.1,3.7,42.3h-0.2c-9.3,0-16.8-0.6-26.1-0.6c-2.5-0.1-5,0.1-7.4,0.7
	c-3.7,1.1-6.6,3.8-9.6,6.3c-7.5,6.3-16.3,11.7-26,12.5c-8.9,0.7-20.4-1-27.7,4.2C1.1,52.6-5.4,40.2-12.3,28.2V-1.5h112.6V-0.2z"/>
<path class="st8" d="M37.8,197.6c-0.5-0.9-0.9-1.9-1.1-3c-2.8-11-2.5-22.6-3.2-34c-2-33.3-12.3-65.2-26.4-95.5
	c7.3-5.2,18.8-3.5,27.7-4.2c9.7-0.8,18.5-6.1,26-12.5c2.9-2.5,5.9-5.2,9.6-6.3c2.4-0.6,4.9-0.8,7.4-0.7c9.3,0,16.8,0.6,26.1,0.6h0.2
	c-2.3,20.2-10.2,39.2-22.8,54.8c-4,5-8.6,9.7-11.4,15.5c-2.6,5.5-3.5,11.7-4.4,17.8c-3.4,21-8.9,41.7-16.4,61.5
	c-1.7,4.6-6.7,10.1-10.4,6.8C38.2,198.2,38,197.9,37.8,197.6z"/>
<path class="st30" d="M90.6,764.7l-0.1,0.5c-1-0.3-2.1,0.3-2.4,1.4c0,0.1,0,0.2-0.1,0.3c0,1.3,0.8,2.4,1.9,2.8
	c1.1,0.4,2.4,0.5,3.6,0.2c1.5-0.1,3-0.8,4.1-1.8c0.5-0.6,0.8-1.5,0.2-2.1c-0.3-0.2-0.6-0.3-0.9-0.3
	C94.9,765.2,92.7,765.3,90.6,764.7z M94.4,761.9L94.4,761.9c1.9,0,3.8,0.4,5.5,1.2c1.7,0.9,3,2.7,2.7,4.6c-0.3,1.3-0.9,2.4-1.9,3.2
	c-3,2.9-7.2,4.1-11.3,4.2c-4.1,0-8.2-0.6-12.2-1.6c-0.7-0.1-1.3-0.4-1.7-1c-0.2-0.4-0.2-0.8-0.2-1.2c0.4-4,3.8-7.1,7.5-8.4
	C86.5,761.7,90.5,761.8,94.4,761.9z"/>
<path class="st31" d="M90.5,765.1l0.1-0.5c2,0.6,4.3,0.5,6.4,0.9c0.3,0,0.6,0.1,0.9,0.3c0.6,0.5,0.3,1.5-0.2,2.1
	c-1.1,1.1-2.6,1.7-4.1,1.8c-1.2,0.2-2.4,0.2-3.6-0.2c-1.1-0.4-1.9-1.5-1.9-2.8c0.1-1.1,1.1-1.9,2.1-1.8
	C90.3,765.1,90.4,765.1,90.5,765.1z"/>
<path class="st30" d="M64.5,743.3v0.3c-1.3,0.2-2.4,1-3,2.2c-0.5,1.2-0.8,2.5-0.7,3.8c0,0.6,0.1,1.3,0.4,1.8c0.6,0.8,1.6,1.2,2.6,1
	c0.9-0.2,1.8-0.6,2.6-1.2c1.4-1,2.8-2.4,2.4-4.1c-0.3-0.7-0.7-1.4-1.2-1.9C66.8,744.3,65.7,743.6,64.5,743.3z M83.8,747.6
	c0.8,0.7,1.3,1.6,1.4,2.7c-0.1,1.2-0.8,2.2-1.7,2.9c-2.8,2.2-6.5,3-10,3.3c-3.3,0.2-6.6,0.1-9.9-0.5c-1.9-0.3-3.8-0.9-5.5-1.9
	c-1.7-1-2.9-2.6-3.4-4.5c-0.5-2.2,0.5-4.5,1.6-6.5c0.3-0.8,0.8-1.4,1.5-1.9c0.9-0.5,2-0.6,3-0.5c5.5,0.3,10,0.1,14.9,2.5
	C78.9,743.3,81.5,745.3,83.8,747.6z"/>
<path class="st31" d="M68.8,747.2c0.4,1.6-1,3.1-2.4,4.1c-0.8,0.6-1.7,1-2.6,1.2c-1,0.2-2-0.2-2.6-1c-0.3-0.6-0.4-1.2-0.4-1.8
	c-0.1-1.3,0.1-2.6,0.7-3.8c0.6-1.2,1.7-2.1,3-2.2v-0.3c1.2,0.3,2.3,1,3,2C68.1,745.8,68.5,746.5,68.8,747.2z"/>
<path class="st7" d="M7,65.1c14.1,30.3,24.4,62.2,26.4,95.5c0.7,11.4,0.4,22.9,3.2,34c0.2,1.1,0.6,2.1,1.1,3
	c-6.2,4.3-16,1.7-19.3-5.2c-2-4.2-1.7-9-1.4-13.6c2-42.5-8.3-84.6-29.4-121V28.2C-5.4,40.2,1.1,52.6,7,65.1z"/>
</svg>
