<?xml version="1.0" encoding="utf-8"?>
<!-- Generator: Adobe Illustrator 24.0.3, SVG Export Plug-In . SVG Version: 6.00 Build 0)  -->
<svg version="1.1" id="Ebene_1" xmlns="http://www.w3.org/2000/svg" xmlns:xlink="http://www.w3.org/1999/xlink" x="0px" y="0px"
	 viewBox="0 0 1367 864.6" style="enable-background:new 0 0 1367 864.6;" xml:space="preserve">
<style type="text/css">
	.st0{fill:#72B471;}
	.st1{fill:#FAE053;}
	.st2{fill:#6B2931;}
	.st3{fill:#47803E;}
	.st4{fill:#4C2E4F;}
	.st5{fill:#6E772F;}
	.st6{fill:#442D2B;}
	.st7{fill:#2E1D16;}
	.st8{fill:#979365;}
	.st9{fill:#674248;}
	.st10{fill:#442B51;}
	.st11{fill:#85AC44;}
	.st12{fill:#B4B864;}
	.st13{fill:#446B51;}
	.st14{fill:#CF9DB7;}
	.st15{fill:#65427C;}
	.st16{fill:#DAA9C8;}
	.st17{fill:#FCE3FF;}
	.st18{fill:#998AC0;}
	.st19{fill:#E7CEFE;}
	.st20{fill:#CC80AC;}
	.st21{fill:#5A568D;}
	.st22{fill:#AD6150;}
	.st23{fill:#3D1A20;}
	.st24{fill:#CB6467;}
	.st25{fill:#CD7773;}
	.st26{fill:#6E3843;}
</style>
<rect x="-39.1" y="746" class="st0" width="1424.8" height="118"/>
<rect x="556.8" y="-17.5" class="st1" width="861.9" height="750.8"/>
<rect x="190.3" y="-61.6" class="st1" width="868.7" height="389.4"/>
<rect x="-21.4" y="-5.8" class="st2" width="472.4" height="755.2"/>
<path class="st3" d="M1367,818.3v46.5h-316.2v-1.2c4.4-9.2,9-18.8,16.4-25.3c7.4-6.5,18.6-9.4,26.7-3.8c1.9,1.3,3.8,3.1,6,3.2
	c2.9,0.2,5.3-2.2,7.3-4.4l24.3-27c3.6,18.7,26.8,26.3,42.8,18.4c5.7-2.8,10.7-7,16.5-9.5s12.9-3.1,17.8,1.1c2.5,2.1,4.2,5.2,7.2,6.5
	c4.6,2,9.7-1.9,12.6-6.2s4.9-9.6,8.9-12.8c6.8-5.2,16.3-2.3,23.3,2.6s13,11.6,21,14.4c15.2,5.2,32.4-5.8,47.3,0.4
	c2.9,1.2,5.7,3.1,8.8,3.3C1346.4,825.3,1359.7,812.8,1367,818.3z"/>
<path class="st4" d="M1367,701.3v34.4h-0.4c-11.1-1.5-21.9-5.3-31.8-11l0.2-0.5c-10.5-45.5-21.5-92.1-32-137.6
	c-6.5-28.3-13.1-56.7-15.4-85.7c-6.2-76.3,16.9-152.6,12.3-229c-2.5-42.6-13.1-88.4,4.3-126.3c-1.5,13.6-2.9,26.8-3.6,38.5
	c-2,32.2,0.9,66,16.6,93.4c4.8-31,9.5-62,14.3-93c2.6-16.7,5.1-33.6,3.8-50.4s-7-33.9-18.6-45.2c-1.8-1.7-4-3.4-6.3-3.4
	c0.2-3.2,0.4-6.5,0.6-9.6l0.2-0.5c2.7,1.2,6,0.8,7.2-2.1c2,11.2,11.9,18.5,22.2,16.4c3.1-0.6,6-2.1,8.4-4.2c1.7,2.8,6,1.7,7.5-1.2
	s1.2-6.4,0.7-9.6c-1-7.1-1.9-14.2-2.9-21.2c4.2,0.2,8.5,0.6,12.7,1v160.3c-8,18.8-13.9,38.6-17.4,59c-0.4,2.5-0.8,5.1,0.1,7.4
	c2.4,6.3,10.9,4.9,16.8,2.4h0.6v38.8c-28.6,26-37.8,70.3-36.9,110.9c1,41.8,10.6,83.2,9.9,125c-0.2,15.9-2,31.7-1.8,47.6
	c0.4,33.8,9.4,66.8,25.9,95.5L1367,701.3z"/>
<path class="st1" d="M1367,322.2v379h-2.9c-16.5-28.7-25.4-61.7-25.9-95.5c-0.2-15.9,1.5-31.7,1.8-47.6c0.6-41.8-9-83.2-9.9-125
	C1329.2,392.5,1338.4,348.2,1367,322.2z"/>
<path class="st1" d="M1367,214.6v68.8h-0.6c-5.9,2.5-14.4,3.9-16.8-2.4c-0.9-2.3-0.5-5-0.1-7.4C1353.1,253.2,1359,233.4,1367,214.6z
	"/>
<path class="st5" d="M1357.2,74.5c0.4,3.2,0.8,6.8-0.7,9.6c-1.5,2.8-5.9,3.9-7.5,1.2c-8.2,7.1-20.1,5.7-26.7-3.1
	c-1.9-2.6-3.3-5.7-3.9-9c-1.2,2.9-4.5,3.3-7.2,2.1c-1.4-0.6-2.5-1.7-3.2-3c-2.1-4.1-1-9.3,0.5-13.7l-0.3-1.1
	c14.7-4.7,30.4-5.1,46.1-4.2C1355.3,60.4,1356.3,67.4,1357.2,74.5z"/>
<path class="st6" d="M1338.6,747.9l-37,1c-6.2-10.8-16.6-18.4-23.1-29.1c-5-8.1-7.5-17.7-12.2-26c-10-17.4-28.8-27.2-39.3-44.3
	c-10.5-17.1-11.7-39.9-23.2-56.3c6.6,9.9,17.2,15.6,25.9,23.3c25.6,23,33.8,63,59.3,86.2C1305.7,718,1330,726.5,1338.6,747.9z"/>
<path class="st1" d="M1304.3,145.5c2-17.8,4.3-36.4,5.7-53.2c0.2-2.3,0.4-4.6,0.5-6.9c2.2,0,4.5,1.7,6.3,3.4
	c11.6,11.3,17.3,28.4,18.6,45.2s-1.2,33.7-3.8,50.4c-4.8,31-9.5,62-14.3,93c-15.7-27.4-18.6-61.2-16.6-93.4
	C1301.4,172.3,1302.8,159.1,1304.3,145.5z"/>
<path class="st7" d="M1309.9,92.2c-1.4,16.8-3.7,35.4-5.7,53.2c-17.4,38-6.9,83.7-4.3,126.3c4.6,76.5-18.5,152.7-12.3,229
	c2.3,29,8.9,57.5,15.4,85.7c10.5,45.5,21.5,92.1,32,137.6l-0.2,0.5c-13.7-7.9-26-18.4-36.3-31c-18-21.4-30.9-47-43.7-72.4
	c-15.1-30-30.4-60.3-38.7-93.3c-15-60-6-124.3-17.8-185.1c-6.3-32.7-18.6-66.5-9.1-98.3c3.9-12.9,11.2-24.4,14.9-37.3
	c4.2-15,3.4-31.2,7-46.4c0.4-1.7,0.9-3.5,1.4-5.2c4.5,11.9,9.4,23.6,14.6,35.2c13.9-25.1,19.8-54.5,16.8-83.6
	c4.3-4.6,8.8-9,13.2-13.4c12.6-12.5,25.6-25.2,41.3-32.6c3.2-1.5,6.5-2.8,9.9-3.9l0.3,1.1c-1.5,4.4-2.6,9.5-0.5,13.7
	c0.7,1.4,1.9,2.4,3.2,3l-0.2,0.5c-0.1,3.1-0.3,6.3-0.6,9.6c-0.7,0-1.4,0.1-2,0.4c-2.8,1.4-1.7,7.6,1.2,6.4L1309.9,92.2z"/>
<path class="st1" d="M1310.5,85.3c-0.2,2.3-0.3,4.6-0.5,6.9h-0.3c-2.9,1.2-4-5-1.2-6.4C1309.1,85.5,1309.8,85.3,1310.5,85.3z"/>
<path class="st6" d="M1285.4,747.4v1.9l-120.5,3.1c-10,0.3-20.2,0.5-30-1.5c-6.9-1.4-13.7-3.9-20.7-3.6c-6.6,0.3-12.9,3.1-19.5,3.7
	c-1.3,0.1-2.7,0.1-4,0l0.2-2.3l65.9-101l22,34.8c4-5.2,3.8-12.6,3.4-19.3c-2.3-37.8-4.6-75.6-6.9-113.3c2.7,12.3,5.5,24.6,8.2,36.9
	c6.6,29.5,13.5,60,30.3,84.3C1233.9,700.2,1266,717.7,1285.4,747.4z"/>
<path class="st1" d="M1243.8,107.3c3.1,29.1-2.8,58.5-16.8,83.6c-5.2-11.5-10.1-23.3-14.6-35.2
	C1218.3,137,1230.5,121.5,1243.8,107.3z"/>
<path class="st8" d="M1138.7,142.9c17.9-26,34.5-53.6,46.6-82.9c7.9-18.8,13.6-38.6,16.8-59h22.3c2.4,30.9-9.4,61.4-24.4,88
	c-15.6,27.8-34.9,53.2-47.9,82.5c-15.6,35.6-21.3,75.4-16.2,114.4l-0.7,0.1c-2.7-7.2-5-14.6-7-22.1c-5.1-20-7.2-40.7-9.2-61.4
	l-2.6-26.6c4.2-7.3,8.8-14.3,13.8-21C1133,151.1,1135.9,147,1138.7,142.9z"/>
<path class="st9" d="M1184.5,394.5l18.5,162.9l-19.4-23.7c-3.3-4-7.5-8.4-12.3-7.4c-5.2,1.1-7.6,7.5-11.6,11.2
	c-6.2,5.8-17.2,3.8-21.2-4l-2.3-0.4l6-45.5c1.7-13,3.4-26.5,0.1-39.2c-6-22.5-26.8-37.7-32.3-60.4c-4.4-18,1.5-37.6-3.5-55.4
	c-4.4-15.5-16.4-27.3-20.8-42.8c9.9,6.7,20,13.6,27.1,23.7c13.1,18.8,14,46.5,30.9,61.4c5.6-23,8.2-46.7,7.8-70.4
	c6.7,24.4,13.5,49.1,15.1,74.5c0.3,4.6,0.5,9.3,2.2,13.5s5.5,7.8,9.8,7.6C1181.3,399.9,1183.7,397.6,1184.5,394.5z"/>
<path class="st5" d="M1202.1,1.1c-3.3,20.4-8.9,40.2-16.8,59l-0.6-0.3c3.4-10.4-0.3-21.9-4.6-32c-3.6-8.7-7.8-17.5-8.3-26.7H1202.1z
	"/>
<path class="st7" d="M1184.7,59.7l0.6,0.3c-12.1,29.3-28.7,56.9-46.6,82.9c-0.5-1.8-1-3.6-1.3-5.4c-2.2-12.8,0.3-26.3,1.5-39.8
	c0.4-3.9,0.5-7.8,0.5-11.7c-0.3-29-15.8-56.3-15.5-85h47.9c0.6,9.2,4.7,18.1,8.3,26.7C1184.3,37.9,1188.1,49.3,1184.7,59.7z"/>
<path class="st5" d="M1118.9,67.9c8.1-7.9,8.7-21.5,1.4-30.2c-1.5-1.8-3.2-3.3-5.2-4.4c-1.6-1-3.6-1.9-4.2-3.8
	c-0.5-1.5-0.1-3.2-0.1-4.8c-0.1-2.6-1.1-5-2.8-6.7c-5.1-5.7-14.7-5.3-19.5,0.7c-0.8,1.3-1.8,2.4-3,3.3c-1.2,0.5-2.4,0.9-3.6,1.1
	c-5.9,1.7-8.6,10.8-4.6,15.9c1.8,2.1,4.2,3.6,6.7,4.3c5.5,1.8,11.3,1.9,16.9,0.2c2-0.6,4.3-1.4,6-0.2c1.7,1.2,2,3.4,2.4,5.4
	C1110.8,55.9,1114.1,62.6,1118.9,67.9z M1096.5,62.9v-5.6c-9-5.7-19.7,7.1-29.9,4.8c-1.1,3.9-2.3,8-4.8,11c-2.5,3-6.9,4.7-10.2,2.7
	c1,3.1,0.5,7.2-2.2,8.8s-6.7-2.2-4.9-4.8c-3.1,4.4-8.9,5.2-12.9,1.9L1031,82c-10.2-26.1-16.4-53.2-12.5-80.9h105.4
	c-0.3,28.6,15.2,56,15.5,85c0,3.9-0.2,7.8-0.5,11.7l-1-0.1c-11.1-2.6-22.2,1.1-32.5,6.8l-0.2-0.5c-3.5-2.2-4.7-6.9-5.5-11.1
	c-0.9-4.7-1.6-9.4-2.1-14.1C1097,73.5,1096.6,68.2,1096.5,62.9z M1052.3,60.5c6.7-7.8,9-18.9,8.7-29.5c-0.1-3.4-0.6-7-2.7-9.5
	s-6.3-3.1-8.2-0.4c-0.6,0.9-1,2.2-1.8,2.8c-1,0.6-2.2,0.7-3.3,0.3c-4.1-0.8-8.7-2.1-12.2,0.4s-4.4,8.3-2.8,12.7s4.8,7.8,8,11
	c3.6,3.7,7.7,7.6,12.5,8.4C1050.4,58.3,1051.1,59.7,1052.3,60.5L1052.3,60.5z"/>
<path class="st10" d="M1137.9,97.7l1,0.1c-1.2,13.4-3.7,26.9-1.5,39.8l-2.3,0.5c-22.2,4.3-44,10.3-65.4,17.8l-1.1,0.8
	c-3.3-5.9-6.6-11.8-9.8-17.8l-5-9.2c15-0.6,28.3-10.3,41.2-18.8c3.4-2.2,6.9-4.4,10.4-6.4C1115.7,98.8,1126.8,95,1137.9,97.7z"/>
<path class="st11" d="M1116.4,176.1c-5.7,10.2-9.7,21.1-9.1,32.7c-8.9-8.3-16.8-17.6-23.7-27.8c-5.4-7.8-10.3-16-15-24.3l1.1-0.8
	c21.4-7.6,43.2-13.6,65.4-17.9l2.3-0.5c0.3,1.8,0.7,3.6,1.3,5.4c-2.8,4.1-5.6,8.1-8.5,12.2C1125.2,161.8,1120.6,168.8,1116.4,176.1z
	"/>
<path class="st12" d="M1125.4,50.3c0.4,6.6-1.9,13.1-6.4,17.6c-4.8-5.4-8.1-12.1-9.6-19.4c-0.4-2-0.8-4.3-2.4-5.4
	c-1.8-1.2-4-0.4-6,0.2c-5.5,1.7-11.4,1.6-16.9-0.2c-2.6-0.7-4.9-2.2-6.7-4.3c-3.9-5-1.3-14.2,4.6-15.9c1.2-0.2,2.5-0.6,3.6-1.1
	c1.2-0.9,2.2-2,3-3.3c4.8-6,14.4-6.3,19.5-0.7c1.7,1.8,2.7,4.2,2.8,6.7c0,1.6-0.5,3.3,0.1,4.8c0.7,1.9,2.6,2.8,4.2,3.8
	C1121,36.7,1124.8,43.1,1125.4,50.3z"/>
<path class="st1" d="M1099.7,520.1c0.4-13.1-3.3-25.3-8.9-37c-2.7-31.4-2.3-63,1.1-94.4l1.7-0.5c5.9,24,19.9,45.7,22.3,70.4
	c2.1,21.9-5,42.6-15.9,61.6L1099.7,520.1z"/>
<path class="st10" d="M1096.5,62.9c0.1,5.3,0.4,10.5,1,15.8c-7,7.3-10.9,18.5-16.8,27.4c-6.9,10.3-16.9,17.9-28.2,21.3
	c-3-5.6-6-11.3-8.8-17.1c7.8-5.4,14.7-12,20.5-19.8c5.4-7.1,9.9-15.2,16.7-20.8C1085.4,66.1,1090.8,63.7,1096.5,62.9z"/>
<path class="st1" d="M1096.5,57.4V63c-5.7,0.8-11,3.2-15.6,6.9c-6.8,5.5-11.3,13.6-16.7,20.8c-5.8,7.7-12.8,14.4-20.5,19.8
	c-4.6-9.3-8.9-18.8-12.7-28.4l0.6-0.3c4,3.4,9.8,2.5,12.9-1.9c0,0,0,0,0,0l0,0c-1.8,2.6,2.2,6.4,4.9,4.8s3.2-5.7,2.2-8.8
	c3.3,2,7.7,0.3,10.2-2.7s3.7-7.1,4.8-11C1076.8,64.4,1087.6,51.6,1096.5,57.4z"/>
<path class="st11" d="M1093.7,388.3l-1.7,0.5c-3.4,31.3-3.8,63-1.1,94.4c-6.3-13.2-15-25.7-22.7-38c-11.3-18.3-21.5-37.4-30.3-57.2
	c-0.6-40.2,7.6-79.8,16-119c10.9,19.8,27,36.7,32.9,58.8c4.7,17.4,2.4,36.2,5.6,54C1092.7,384,1093.1,386.2,1093.7,388.3z"/>
<path class="st8" d="M1053.7,129.7c1.7,3.1,3.3,6.2,5,9.2c3.2,5.9,6.5,11.9,9.8,17.8c4.7,8.3,9.7,16.5,15,24.3l-0.7,0.6
	c1.1,12.2,3.6,24.3,7.4,35.8l-59.3-101.5c-14.4-24.8-29.4-51-31.2-80.3c-0.7-11.6,0.6-23.8-3.5-34.5h22.3
	c-3.8,27.7,2.3,54.8,12.5,80.9c3.8,9.6,8.1,19.1,12.7,28.4c2.9,5.8,5.8,11.5,8.8,17.1L1053.7,129.7z"/>
<path class="st13" d="M1136.1,533.2l2.3,0.4c4,7.8,15,9.8,21.2,4c4-3.8,6.4-10.2,11.6-11.2c4.8-1,9.1,3.4,12.3,7.4l19.4,23.8
	l-18.4-162.9c0.4-1.4,0.2-2.9-0.5-4.1c0.2,1.4,0.3,2.7,0.5,4.1c-0.8,3.1-3.2,5.3-6.1,5.6c-4.2,0.2-8-3.3-9.8-7.6s-1.9-8.9-2.2-13.5
	c-1.7-25.4-8.4-50.1-15.1-74.5c0.4,23.8-2.2,47.5-7.8,70.4c-16.9-14.8-17.8-42.5-30.9-61.3c-7-10.1-17.2-17-27.1-23.7
	c4.4,15.5,16.4,27.3,20.8,42.8c5,17.8-0.9,37.4,3.5,55.4c5.6,22.6,26.4,37.9,32.3,60.4c3.4,12.6,1.7,26.2-0.1,39.2L1136.1,533.2z
	 M1011.5,178.9c-4.7-6-9.4-11.9-13.5-18.3c-15-23.2-21.7-51.5-34.6-76.2c-0.8-1.5-1.6-3-2.4-4.5c-21-37.2-55.7-64.5-93.9-78.7V1.1
	h129c4.1,10.6,2.8,22.9,3.5,34.5c1.8,29.3,16.7,55.5,31.2,80.3l59.3,101.5c-3.8-11.6-6.3-23.6-7.4-35.8l0.7-0.6
	c6.9,10.2,14.8,19.5,23.7,27.8c-0.5-11.6,3.5-22.5,9.1-32.7l2.6,26.6c2,20.6,4.1,41.4,9.2,61.4c2,7.5,4.3,14.9,7,22.1l0.7-0.1
	c-5-39,0.6-78.8,16.2-114.4c13-29.3,32.2-54.8,47.9-82.5c15-26.6,26.8-57.2,24.4-88H1367v53.2c-4.2-0.4-8.4-0.7-12.7-1
	c-15.7-0.9-31.4-0.4-46.1,4.2c-3.4,1-6.7,2.3-9.9,3.9c-15.7,7.4-28.6,20.1-41.3,32.6c-4.4,4.3-8.9,8.8-13.2,13.4
	c-13.4,14.2-25.5,29.7-31.4,48.4c-0.5,1.7-1,3.4-1.4,5.2c-3.7,15.2-2.8,31.4-7,46.4c-3.7,13-11,24.5-14.9,37.3
	c-9.6,31.7,2.7,65.6,9.1,98.3c11.8,60.8,2.8,125.1,17.8,185.1c8.3,33,23.5,63.3,38.7,93.3c12.8,25.4,25.8,51,43.7,72.4
	c10.4,12.4,22.7,23.3,36.3,31c9.9,5.7,20.7,9.4,31.8,11h0.4v11.5l-28.4,0.7c-8.6-21.4-32.9-29.8-49.6-45.1
	c-25.4-23.2-33.6-63.3-59.3-86.2c-8.7-7.8-19.2-13.5-25.9-23.3c11.5,16.5,12.6,39.2,23.2,56.3s29.2,26.8,39.3,44.3
	c4.8,8.2,7.3,17.8,12.2,26c6.5,10.7,16.8,18.2,23.1,29.1l-16.2,0.4v-1.9c-19.4-29.7-51.6-47.2-71.6-76.3
	c-16.8-24.4-23.7-54.8-30.3-84.3c-2.7-12.3-5.5-24.6-8.2-36.9c2.3,37.8,4.6,75.6,6.9,113.3c0.4,6.7,0.6,14.2-3.4,19.3l-22-34.8
	l-65.9,101l-0.2,2.3c-5.4-0.6-10.7-3.4-12.5-8.8c-2.4,4-6.8,5.8-11.1,5.6v-1.8c-3.2-2.7-6.4-5.3-9.7-7.8l18.2-20.1
	c4.3-4.8,8.9-10.4,8.6-17.1c-0.3-5.5-6.5-10-10.6-8.2c25.1-22.6,45.2-50.9,58.7-83c7-16.7,12.3-34.8,11.3-53
	c-14.7,24.4-32.6,46.4-53.1,65.3c5-16.7,15.9-30.3,24.2-45.5c8.2-15.2,13.9-34,7.2-49.9c-35.4,54-72.8,108.2-123.5,145.3
	c-17.5,12.8-37.5,23.6-58.5,22.7v0.1c-4.5-0.9-8.9-1.7-13.4-2.5l-19.8-3.7c17.8-4.9,35-12.3,51.2-21.9
	c44.7-26.2,82.6-67.3,116.4-109.3c9.2-11.5,18.4-23.8,25.9-36.9c10.9-19,18-39.7,15.9-61.6c-2.4-24.8-16.4-46.4-22.3-70.4
	c-0.6-2.2-1-4.3-1.4-6.6c-3.1-17.8-0.9-36.6-5.6-54c-5.9-22.1-22-39-32.9-58.8c-0.6-1.1-1.1-2.1-1.7-3.2
	c-10.8-21.3-14.8-46.2-26.7-66.8C1021.3,191.9,1016.6,185.2,1011.5,178.9z"/>
<path class="st1" d="M1094.9,110.8c-12.8,8.5-26.1,18.2-41.2,18.8l-1.2-2.3c11.4-3.5,21.3-11,28.2-21.3c5.9-8.9,9.8-20,16.8-27.4
	c0.5,4.7,1.2,9.4,2.1,14.1c0.8,4.3,2.1,9,5.5,11.1l0.2,0.5C1101.8,106.4,1098.3,108.6,1094.9,110.8z"/>
<path class="st12" d="M1061,31c0.4,10.6-2,21.7-8.7,29.5c-1.2-0.8-2-2.2-1.9-3.7c-4.9-0.8-8.9-4.7-12.5-8.4c-3.2-3.2-6.4-6.6-8-11
	s-0.8-10.2,2.8-12.7s8.1-1.2,12.2-0.4c1.1,0.4,2.3,0.3,3.3-0.3c0.9-0.7,1.2-1.9,1.8-2.8c1.8-2.7,6.1-2.1,8.2,0.4
	S1060.9,27.6,1061,31z"/>
<path class="st1" d="M1052.2,265.8c0.5,1.1,1.1,2.2,1.7,3.2c-8.4,39.2-16.6,78.8-16,119c-7.4-16.2-14.1-32.8-20.7-49.3
	c-10.3-26-20.2-52.6-23.1-80.7c-2.9-27.6,1.7-57.2,17.5-79c5.1,6.3,9.8,13,14,20.1C1037.3,219.6,1041.3,244.5,1052.2,265.8z"/>
<path class="st1" d="M983.9,504.5c3.3,23,6.6,46.8,1.5,69.5c-5.4,23.9-19.9,45.7-25.6,69l-1-0.3c-4.9-69.3-1-139.1,11.6-207.3
	C977.2,457.6,980.6,481.3,983.9,504.5z"/>
<path class="st5" d="M961,80l-0.8,0.5c0.8,6.5,0.9,13,0.5,19.5h-0.2c-7-0.9-13.3-5.3-17-11.8c-9,3-18.7,1.3-26.3-4.7
	c-0.3-0.4-0.6-0.7-1-0.9l1,0.9c1.5,1.6,1.5,4.3-0.1,5.9c-1.2,1.2-2.9,1.5-4.4,0.8c0.1,4.5-2.9,8.4-7,9.2l-0.3,0.7
	c-15.8-8.5-33.3-11.6-50.3-6.1c-17.5,5.7-32.8,19.9-51.1,20.3c-5,0-10-0.8-14.8-2.5c-10.6-3.6-20.6-10.5-30.8-16l0.3-0.7
	c-5.6-4.7-8-12.6-6-20c-7.3,1.6-17.2,1.9-19.9-5.7c-0.3-1.4-0.8-2.7-1.4-4c-1.6-2.4-5-2.6-6.4-5.1c-2.6-4.4,3.6-10,2-15
	c-5.3-0.3-10.5-1.4-15.6-3.2c4.8,4.3,4,13.9-1.4,17.3c1.9,10-2.7,20.2-11.2,24.8c-3.2,1.6-8.7,0.7-8.3-3.2
	c-3.9,9.6-15.5,14.5-24.4,10.4h-0.1c-0.3-13.6,0.2-27.1,3.1-40.3c4.7-20.9,16.9-41.1,35.5-48.8V1.1h162.3v0.2
	C905.3,15.5,940.1,42.7,961,80z M924.2,60.7c1-2.7-0.5-5.7-2.1-8.1c-8.6-12.1-22.3-18.5-36.3-16.9c-0.8,0.2-1.6,0.2-2.4,0
	c-1.1-0.5-2-1.3-2.7-2.4c-5.2-6.6-12.4-11-20.3-12.5c-2.3-0.4-4.8-0.5-6.7,0.9s-2.5,3.8-2.9,6.2c-1.3,7.1-0.9,14.4,1.1,21.3
	c1.5,9.7,9.9,16.3,18.9,14.8c2.5-0.4,4.9-1.5,6.9-3.1c0.5-0.5,1.2-0.9,1.9-1c1.3,0.1,1.9,1.7,2.5,2.9c2,4.4,6.8,6.9,11.3,6.6
	s8.8-2.9,12-6.3c0.9-1,1.8-2,3.1-2.2c1.1,0,2.1,0.3,3,1c2,1.4,4.3,2.2,6.7,2.4C920.8,64.4,923.3,63.1,924.2,60.7z M819.8,59.4
	c2.1-4.9,3.5-10.3,2.8-15.6s-3.7-10.5-8.4-12.4c-1.4-0.6-3-0.9-4.1-2c-1.1-1.1-1.7-3-2.1-4.7c-1.6-5.8-4.8-11.7-10.1-13.7
	c-8.3-3-16.6,4.7-25.3,5c-5.3,0.2-10.4-2.3-15.6-3.6c-10.5-2.6-21.5-0.3-32.1,2l0.1,0.6c-2.6,3.7-2,9,1.4,11.8l0,0
	c2.1,1.6,4.9,2,6.4,4.2c2.2,3.1,0.5,7.9,1.9,11.6c1.5,3.6,5.4,4.8,8.9,4.8c3.5,0,7-1.1,10.5-0.7c5.4,0.6,9.9,4.5,15,6.4
	s12.3,0.3,13.4-5.4c3.3,6.7,6.8,13.5,12.4,18.1s13.9,6.1,19.5,1.5C816.7,65.2,818.6,62.5,819.8,59.4z"/>
<path class="st1" d="M960.5,100h0.2c-1,15.1-5.4,29.7-12.6,42.7c-10.2-17.7-25.4-33.4-42.6-42.6l0.3-0.7c4.1-0.7,7.1-4.6,7-9.2
	c1.9,1,4.2,0.2,5.2-1.9c0.7-1.6,0.4-3.5-0.7-4.8c7.6,6,17.3,7.7,26.3,4.7C947.2,94.7,953.5,99,960.5,100z"/>
<path class="st11" d="M959.3,407.5c4.4,8.9,8.1,18.2,11,27.9c-12.5,68.2-16.4,137.9-11.6,207.3l1,0.3c-2,7.6-2.7,15.6-2.1,23.5
	l0.1,0.1c-16.1,9.6-33.3,17-51.2,21.9l-60.2-11.3c-14.5-2.7-28.9-5.4-43.4-7.9l-8.1-1.4l0.3-2.2c11.1-27.2,22.3-54.7,26.7-84
	c4.2-27.4,2.3-55.4,0.3-83.1c-3.3-46.1-7.1-92.2-11.3-138.3c-3.2-35.2-6.7-70.9-18.5-104c-7.6-21.6-18.6-41.6-26.2-63.2
	s-11.5-45.9-4.5-67.7c4.1,2.3,8.3,4.3,12.5,6.1c3.1,1.3,6.3,2.3,9.5,3.1v0.2c1,19.5,3.8,38.8,8.2,57.7c1.9,8.1,4.2,16.3,9.2,22.6
	c1.4-26.1,2.8-52.1,4.2-78.2l0,0c8-0.3,15.9-1.4,23.7-3.5c3.7,26.6,7.5,53.3,8.7,80.2c1.1,24.3,0.2,48.6,1.7,72.9
	c2.5,39.4,11.3,78.2,13,117.7c3.1,72.3-17.7,147.9,6.4,215.4c21.3-70.4,32.1-143.9,32-218c0-25.2-1.3-50.4-2.6-75.5
	c-1.6-30.1-3.2-60.6-11.8-89.3c-11-36.5-33.5-73.7-22.3-110.1l-2.3-1.5c1-0.5,2-1,3.1-1.4c4.4-2.2,8.9-4.5,13.7-4.5
	c12-0.1,19.7,13.3,25,24.9c9.8,21.6,19.8,44,21.2,68.1c1.9,32.3-11.9,64.4-7.2,96.3C913.2,346.4,942.5,374,959.3,407.5z"/>
<path class="st9" d="M939.9,694.6c21.1,0.9,41.1-9.9,58.5-22.7c50.7-37,88.2-91.3,123.5-145.3c6.7,16,1,34.9-7.2,49.9
	s-19.2,28.8-24.2,45.5c20.5-18.9,38.4-40.9,53.1-65.3c1,18.3-4.2,36.4-11.3,53c-13.6,32.1-33.7,60.5-58.7,83
	c-0.9,0.4-1.7,1.1-2.2,1.9l2.2-1.9c4.1-1.8,10.3,2.7,10.6,8.2c0.3,6.7-4.3,12.3-8.6,17.1l-18.2,20.2c-17.8-13.2-37.7-22.2-58.5-29
	C979.8,702.9,959.7,698.6,939.9,694.6L939.9,694.6z"/>
<path class="st12" d="M852,49.2c-2-6.9-2.4-14.3-1-21.4c0.4-2.3,1.2-4.8,2.9-6.2s4.4-1.4,6.7-0.9c7.9,1.5,15,5.9,20.2,12.5
	c0.7,1.1,1.6,1.9,2.7,2.4c0.8,0.2,1.6,0.2,2.4,0c14-1.6,27.7,4.8,36.3,16.9c1.6,2.3,3.1,5.3,2.1,8.1c-0.8,2.4-3.4,3.8-5.8,3.7
	c-2.4-0.2-4.7-1-6.8-2.3c-0.9-0.6-1.9-1-3-1c-1.3,0.1-2.2,1.2-3.1,2.2c-3.3,3.4-7.5,6.1-12,6.3c-4.5,0.3-9.3-2.2-11.3-6.6
	c-0.6-1.3-1.2-2.9-2.5-2.9c-0.7,0.1-1.4,0.4-1.9,1c-7.4,5.7-17.7,3.9-23-4.2C853.4,54.5,852.4,51.9,852,49.2z"/>
<path class="st14" d="M870.8,699.8l52.5,12.2c-3.5,4.2-10.4,4.3-14.1,0.2c-1.1,9.7-8.9,17.3-17.5,20.6s-17.9,2.9-26.9,2.6
	c-10.5-0.4-22.7-1.8-28.4-11.3c-1.7-2.7-2.7-6.1-5.3-7.9c-2.5-1.8-6-1.3-9.2-1.1c-10.8,0.8-21.6-2.6-30.4-9.5
	c-4.2,9.1-15.2,11.3-24.6,11.1c-17.5-0.3-34.7-4.9-50.4-13.4C709,713.7,693,715,684.1,706c-1.9,9.4-12.3,14.7-21,12.6
	c-8.7-2.1-15.4-9.7-19.6-18.3c-4.3,1.3-8.9,2.6-13.2,1.3s-8-6.3-6.5-10.8c-4,4.4-9.3,7-15,7.3h-0.1c0.6-11.7,0.6-23.3-0.2-35h0.7
	c10,3.7,20.7,4.6,31.1,2.7c1.1,5,4.1,9.9,8.5,11.6c4.5,1.8,10.4-0.6,11.6-5.6c4.7,5,13.7,3.7,17.1-2.4c2,7.3,6.2,14.7,13,17.1
	s15.6-2.8,15.2-10.4c11.7,5.5,24.6,7,37.1,4.1c0.8,10.4,11.8,18.2,20.9,14.8c3.3-1.2,6.2-3.7,9.7-4.1c2.6-0.3,5.2,0.5,7.8,0.7
	c6.5,0.3,12.6-3.4,15.7-9.5c6.7,9.3,17.7,13.7,28.4,11.4c2.7-0.6,5.5-1.7,8.2-1.1c3.4,0.8,5.8,4,8.2,6.7
	C849.7,707.4,865.2,710.3,870.8,699.8z"/>
<path class="st1" d="M891.1,401.8c0.1,74-10.7,147.6-32,218c-24-67.5-3.3-143.1-6.4-215.4c-1.7-39.5-10.5-78.2-13-117.7
	c-1.5-24.2-0.6-48.6-1.7-72.9c-1.2-26.9-5-53.6-8.7-80.2c7.8-2.1,15.4-4.8,22.8-8.2l2.3,1.5c-11.2,36.4,11.3,73.6,22.3,110.1
	c8.7,28.7,10.3,59.2,11.8,89.3C889.8,351.4,891.1,376.6,891.1,401.8z"/>
<path class="st12" d="M822.5,43.8c0.7,5.3-0.7,10.7-2.8,15.6c-1.2,3.1-3,5.8-5.4,8c-5.5,4.5-13.8,3.1-19.5-1.5
	c-5.6-4.5-9.1-11.4-12.4-18.1c-1.1,5.7-8.3,7.2-13.4,5.4c-5.1-1.8-9.6-5.8-15-6.4c-3.5-0.4-7,0.6-10.5,0.7c-3.5,0-7.5-1.3-8.9-4.8
	c-1.4-3.5,0.3-8.4-1.9-11.6c-1.5-2.2-4.3-2.6-6.4-4.2c-3.4-2.8-4.1-8.1-1.5-11.8c0,0,0,0,0-0.1l0,0l-0.1-0.6
	c10.6-2.3,21.5-4.7,32.1-2c5.2,1.3,10.3,3.8,15.6,3.6c8.7-0.4,17-8.1,25.3-5.1c5.3,1.9,8.5,7.9,10.1,13.7c0.5,1.7,0.9,3.6,2.1,4.7
	s2.7,1.4,4.1,2C818.8,33.3,821.8,38.5,822.5,43.8z"/>
<path class="st1" d="M822.3,498.6c2,27.7,3.8,55.7-0.3,83.1c-4.5,29.3-15.7,56.8-26.7,84l-0.3,2.2c-33.4-5.7-67-10.3-100.7-13.9
	l0.1-1.2c-24.2-39.9-22-91.5-17.7-139c4.2-46.2,8.9-95.3-9.4-137l0.3-5.7c4.6-82,4.8-164.3,0.4-246.4c20.6,5.3,41.5-12.7,63-11.2
	c11.1,0.7,21,6.5,31,11.9c-7,21.8-3.1,46.1,4.5,67.7s18.6,41.7,26.2,63.2c11.7,33,15.3,68.7,18.5,104
	C815.2,406.3,819,452.4,822.3,498.6z"/>
<path class="st1" d="M784,134.7c7.1,1.7,14.3,2.5,21.5,2.2l0,0c-1.4,26.1-2.8,52.1-4.2,78.2c-5-6.3-7.3-14.5-9.2-22.6
	C787.7,173.7,785,154.3,784,134.7L784,134.7z"/>
<path class="st10" d="M789.3,111.7c4.8,1.7,9.8,2.5,14.8,2.5c18.3-0.4,33.6-14.6,51.1-20.3c17-5.5,34.5-2.4,50.3,6.1
	c17.2,9.3,32.4,24.9,42.6,42.6c7.2-13,11.6-27.6,12.6-42.7c0.5-6.5,0.3-13-0.5-19.5L961,80c0.8,1.4,1.6,2.9,2.4,4.5
	c12.8,24.7,19.6,52.9,34.6,76.2c4.1,6.4,8.8,12.3,13.5,18.3c-15.8,21.8-20.4,51.4-17.5,79c2.9,28.1,12.8,54.7,23.1,80.7
	c6.6,16.6,13.3,33.2,20.7,49.3c8.9,19.8,19,39,30.3,57.2c7.7,12.3,16.4,24.8,22.7,38c5.6,11.6,9.3,23.8,8.9,37l0.3,0.2
	c-7.5,13.1-16.7,25.4-25.9,36.9c-33.8,42-71.7,83.1-116.4,109.3l-0.1-0.1c-0.6-7.9,0.1-15.8,2.1-23.5c5.7-23.2,20.2-45,25.6-69
	c5.1-22.7,1.8-46.4-1.5-69.5c-3.3-23.3-6.8-46.9-13.6-69.1c-2.9-9.6-6.6-18.9-11-27.9c-16.8-33.7-46.1-61.3-51.6-99
	c-4.7-31.9,9.1-64,7.2-96.3c-1.4-24-11.4-46.4-21.2-68.1c-5.3-11.6-13-25-25-24.9c-4.8,0-9.3,2.4-13.7,4.5c-1,0.5-2,1-3.1,1.4
	c-7.4,3.4-15,6.1-22.8,8.2c-7.8,2.1-15.7,3.2-23.7,3.5c-7.2,0.2-14.4-0.5-21.5-2.2c-3.2-0.8-6.4-1.8-9.5-3.1
	c-4.3-1.8-8.5-3.8-12.6-6.1c-10-5.4-19.9-11.2-31-11.9c-21.5-1.5-42.4,16.6-63,11.2c-0.2-3.1-0.3-6.2-0.5-9.3
	c-0.1-2.5-0.3-4.9-0.4-7.4c8.9,2.1,18.1,1.8,26.9-1c11.8-3.8,22.4-12,34.6-14c21.1-3.4,40.3,12.2,60.7,19L789.3,111.7z"/>
<path class="st15" d="M789.3,111.7l-0.1,0.4c-20.5-6.8-39.7-22.4-60.7-19c-12.2,2-22.8,10.2-34.6,14c-8.7,2.8-18,3.1-26.9,1
	c-0.1-2.4-0.3-4.8-0.4-7.1c21.1,7.1,42-13.6,64.1-13.8c9.8-0.1,18.9,3.8,27.8,8.7C768.8,101.3,778.8,108.1,789.3,111.7z"/>
<path class="st12" d="M758.9,95l-0.3,0.7c-8.9-4.9-18-8.7-27.8-8.7c-22.1,0.2-43,21-64.1,13.8c-0.2-3.2-0.3-6.4-0.4-9.5h0.1
	c8.9,4.1,20.5-0.8,24.4-10.4c-0.4,3.9,5,4.8,8.3,3.2c8.5-4.6,13.1-14.7,11.2-24.8c5.5-3.4,6.2-13,1.4-17.3c5,1.8,10.3,2.9,15.6,3.2
	c1.6,5-4.7,10.6-2,15c1.5,2.4,4.9,2.7,6.4,5.1c0.6,1.3,1.1,2.6,1.4,4c2.7,7.6,12.5,7.3,19.9,5.7C751,82.3,753.3,90.2,758.9,95z"/>
<path class="st11" d="M649.4,471.2c3.5-10.1,6.9-20.3,9.5-30.7c5.1-20.7,7-42.2,8.3-63.6c18.3,41.7,13.5,90.8,9.4,137
	c-4.3,47.5-6.5,99.1,17.7,139l-0.1,1.2c-11.6-1.3-23.2-2.4-34.9-3.4V650c-3.3-5.1-6.4-10.5-9.1-16c5.8-45.2-7.5-90.7-9.7-136.4
	C643.3,488.7,646.4,480,649.4,471.2z"/>
<path class="st1" d="M640.5,497.6c2.2,45.7,15.5,91.2,9.7,136.4c-17.7-35.5-23.3-78.2-14.7-117.5
	C636.9,510.1,638.6,503.9,640.5,497.6z"/>
<path class="st8" d="M626.7,180.3c5.2,15.4,4,32.4,2.8,48.8l-0.3,0.1c-12.5-45.9-35.3-87.7-66.4-121.8c-8.4-9.2-17.4-17.8-26.3-26.3
	L453.1,1.5V1.1h21c38.3,24.2,72.7,55,101.9,91.2c0.6,1,1.6,1.8,2.7,2.1c0.3,0,0.5,0,0.8-0.1c4.6,11.4,14,20.1,20.6,30.5
	c3.1,5.1,5.9,10.4,8.4,15.9c4.2,8.8,8.3,17.5,12.4,26.3C623.2,171.3,625.1,175.7,626.7,180.3z"/>
<path class="st16" d="M607.5,648.4c0-0.5-0.1-0.9-0.1-1.4l1.4-0.1c16.9,1,33.7,2.2,50.5,3.7c11.6,1,23.3,2.1,34.9,3.4
	c33.7,3.6,67.2,8.2,100.7,13.9l8.1,1.4c14.5,2.5,28.9,5.2,43.4,7.9l60.2,11.3l19.9,3.7c4.5,0.8,8.9,1.7,13.4,2.5
	c19.9,3.9,39.9,8.2,59.1,14.5l-0.4,1.3c-15.1,6.9-32.2,7.1-47.4,0.4c-4.3,5.7-12.4,4.6-19,3.1l-9-2.1l-52.5-12.1
	c-5.5,10.5-21.1,7.7-29-0.9c-2.5-2.7-4.8-5.9-8.2-6.7c-2.7-0.6-5.5,0.4-8.2,1.1c-10.7,2.3-21.7-2.1-28.4-11.4
	c-3.1,6.1-9.2,9.8-15.7,9.5c-2.6-0.2-5.2-1-7.8-0.7c-3.5,0.4-6.4,2.9-9.7,4.1c-9.1,3.4-20.2-4.4-20.9-14.8
	c-12.4,2.9-25.4,1.4-37.1-4.1c0.4,7.7-8.5,12.9-15.2,10.4s-10.9-9.7-13-17.1c-3.4,6.1-12.4,7.4-17.1,2.4c-1.3,5-7.2,7.3-11.6,5.6
	c-4.5-1.8-7.4-6.6-8.5-11.6c-10.4,1.9-21.1,1-31.1-2.7h-0.7C608.2,658.1,607.8,653.3,607.5,648.4z"/>
<path class="st17" d="M596.6,615.1c1.1,16.5-5.2,32.5-17,43c-5.6,5.7-13.8,7.5-21,4.6c-11.7-3.5-21.6-12.1-29.3-22.2
	c-5.5-7.2-10-15.3-12.1-24.4c-2.1-9-1.5-19,2.8-27.1c5.3-9.9,15.5-15.8,26-17.1c10.5-1.3,21,1.5,30.7,6l0.1-0.1
	C588.1,586.6,595.4,600.1,596.6,615.1z"/>
<path class="st1" d="M596,258.1c0.9,34.4-10.4,68.2-23.6,99.7c-6.4,15.2-13.2,30.2-20.5,45c-3.3,6.7-6.7,13.2-10.1,19.8
	c-2,3.8-4.1,7.6-6.2,11.3c-9.8-52.7,9.2-108.2,39.3-151.1c6.2-8.9,13-17.4,20.9-24.6L596,258.1z"/>
<path class="st1" d="M595,245l-1.5,0.2l-17.5,8.3c1.7-15.5,5.1-30.6,10.2-45.2C590.5,220.2,593.4,232.5,595,245z"/>
<path class="st12" d="M576,92.3c-16.9-21-35.6-40.1-55.8-57.3l0.2-0.3l15.2-0.4c1.5,0.1,3-0.2,4.5-0.8c4.2-2.3,3.8-8.8,2.7-13.7
	c6.2-1,13.4-1.7,17.8,3.1c1.1,1.2,2,2.8,3.3,3.8c4.3,3.4,10.3-0.4,14.5-4h0.8c1,21.7,2,43.5,3,65.2c0.1,2.5-0.6,6-2.6,6.5
	c-0.3,0.1-0.5,0.1-0.8,0C577.7,94.1,576.7,93.3,576,92.3z"/>
<path class="st5" d="M578.2,1.1c0.3,7.2,0.7,14.4,1,21.6h-0.8c-4.2,3.7-10.1,7.5-14.5,4c-1.3-1.1-2.2-2.6-3.3-3.8
	c-4.4-4.8-11.7-4.2-17.8-3.1c1.1,4.9,1.5,11.5-2.7,13.7c-1.4,0.6-2.9,0.9-4.5,0.8l-15.2,0.4l-0.2,0.3
	c-14.7-12.4-30.1-23.8-46.1-33.9H578.2z"/>
<path class="st7" d="M565,210.5c1.8-9.9,3.1-19.8,4.1-29.8c0.3-2.9,0.5-5.8,0.7-8.7l0.6-0.3c0.2,0.5,0.5,1,0.7,1.5
	c5.7,11.4,10.8,23.2,15.1,35.3c-5.1,14.5-8.6,29.7-10.3,45.2l17.5-8.4l1.5-0.2c0.2,1.8,0.4,3.6,0.5,5.4c0.2,2.6,0.3,5.1,0.4,7.7
	h-0.2c-7.9,7.2-14.7,15.7-20.9,24.6c-30.2,43-49.1,98.4-39.3,151.1c-9.3,15.8-20.5,30.5-36.4,37.4c-1.4-21.7-4-43.3-7.8-64.7
	c2.1-20.9,7.8-47,9.3-68c0.2,2,1.1,3.8,2.5,5c4.3,3.4,9.8-1.8,12.8-6.5C540.2,299,556.9,255.9,565,210.5z"/>
<path class="st1" d="M570.4,171.7l-0.6,0.3c-0.2,2.9-0.4,5.8-0.7,8.7c-13.4-4.5-28-1.2-38.7,8.7c6.6-15.6,14.2-30.7,22.8-45.2
	l1.7-1.2C560.3,152.3,565.5,161.9,570.4,171.7z"/>
<path class="st18" d="M511.8,695c-18.6-10.2-37-21.1-55-32.5c-27.7-17.6-54.7-36.5-80.9-56.7l-0.5-1.5c2.5-3.2,5.1-6.5,7.7-9.7
	c14.3-17.4,29.6-33.8,46-48.9c7.2-6.6,14.6-13.1,23.1-17.6c13.4-7.1,28.8-8.8,43.6-6.7c1,0.1,2,0.3,3,0.5
	c15.7,2.8,30.6,9.7,44.5,18.1c7.7,4.7,15.1,9.9,22.1,15.8l-1.2,1.7c-16.9-11.4-38-16.7-57.2-11.1c-19.7,5.7-36.6,24.1-38.7,46.1
	c-2.4,23.8,11.7,45.6,26.4,63.4c18.7,22.6,39.6,43,62.3,60.8l0,0l-0.9,1.1c-4.6-2.2-9.1-4.3-13.5-6.6C532.2,706,522,700.6,511.8,695
	z"/>
<path class="st11" d="M569.1,180.7c-0.9,10-2.3,19.9-4.1,29.8c-22.7,3.3-42.8,17.8-54.2,39.2c4.9-20.7,11.4-41,19.6-60.5
	C541.1,179.4,555.7,176.2,569.1,180.7z"/>
<path class="st19" d="M576.7,578l-0.1,0.1c-9.7-4.5-20.3-7.3-30.7-6s-20.7,7.3-26,17.1c-4.3,8.1-4.9,18-2.8,27.1
	c2.1,9,6.7,17.2,12.1,24.4c7.7,10.1,17.6,18.7,29.3,22.2c7.2,2.8,15.4,1.1,21-4.6c19.9-17.3,23-48.8,7-70.4
	C583.7,584.1,580.4,580.8,576.7,578L576.7,578z M557,716.8c-22.7-17.7-43.6-38.1-62.3-60.8c-14.7-17.8-28.7-39.7-26.4-63.4
	c2.2-21.9,19-40.3,38.7-46c19.2-5.6,40.2-0.3,57.2,11.1l1.2-1.7c13.3,11.3,24.8,24.9,32,41c1.5,3.4,2.8,6.9,3.9,10.5
	c3.9,12.7,5,26.2,6,39.6c0,0.5,0.1,0.9,0.1,1.4c0.4,4.8,0.7,9.7,1,14.5c0.8,11.6,0.9,23.3,0.3,35c-0.6,11.4-2.8,22.6-6.3,33.4
	l-1.3-0.5c-15-0.8-29.3-5.8-43.2-12.1C557.8,718,557.5,717.3,557,716.8L557,716.8z"/>
<path class="st20" d="M558,718.7c13.9,6.3,28.3,11.3,43.2,12.1l1.3,0.5c3.5-10.8,5.6-22,6.2-33.4h0.1c5.7-0.3,11-2.9,15-7.3
	c-1.5,4.6,2.2,9.5,6.5,10.8c4.3,1.3,8.9,0,13.2-1.3c4.2,8.5,10.9,16.2,19.6,18.3s19.1-3.2,21-12.6c9,9,25,7.8,32.6-2.6
	c15.6,8.5,32.9,13.1,50.4,13.4c9.4,0.1,20.4-2.1,24.6-11.1c8.8,6.9,19.5,10.2,30.4,9.4c3.1-0.2,6.5-0.7,9.2,1.1
	c2.6,1.8,3.6,5.1,5.3,7.9c5.7,9.5,17.9,10.9,28.4,11.3c9.1,0.3,18.4,0.6,26.9-2.6s16.3-10.8,17.5-20.6c3.6,4.1,10.5,4,14.1-0.2
	l9,2.1c6.6,1.5,14.7,2.5,19-3.1c15.2,6.7,32.2,6.5,47.4-0.4l0.4-1.3c20.8,6.8,40.8,15.9,58.5,29c3.3,2.4,6.6,5,9.7,7.8v1.8
	c-1.8-0.1-3.5-0.5-5.2-1.3c-2-0.9-3.6-2.5-4.8-4.4l-7.6,8.7c-5.3-9.6-18.6-12.6-27-6.1c-3.6-4.1-8.1-7.3-13-9.2l-4.3,10.8
	c-5.1-3.1-11.4-2.5-15.9,1.5l-4-7.1c-0.1-0.4-0.3-0.8-0.6-1.1l0.6,1.1c0.5,2.2-2.6,4.8-5.2,5.5c-8.6,2.4-17.6,4.8-26.2,2.8
	s-16.9-9.9-16.7-19.5l-15.2,19.6c-6.2-4.3-13-8.6-20.4-8.1c-7.4,0.5-14.7,8-12.6,15.7l-44.3-9.3c-6-1.3-13.5-4.6-13.1-11.1
	c-6.8,1.9-13.1,5.5-18.3,10.5c-3.3-3.5-5.7-7.9-6.8-12.7c-1,3.3-2,6.6-2.9,9.9c-4.6-6.6-11.3-11-18.8-12.6c4.8,3.8,7.7,9.9,7.6,16.4
	l-36.2,0.2c-13.8,0-30.8-2.2-35.7-16.1c-3,13.1-19,16.1-31.4,14.9s-27.4-2.7-35.1,8l-28.5-23.2c3.6,7.5,3,16.6-1.7,23.5l-16-8.9
	c-1.3,6.2-7.8,9.4-13.7,9.3s-11.3-2.8-17-4.1c-10.8-2.5-22.1-0.4-31.5,5.7c-2.6-6.4-6.7-11.9-11.8-16.1c0.6,5.4-1,10.7-4.5,14.6
	l-9.4-10.8c-4.1,4.4-12.4,0.8-12.9-5.3v-1c0,0.3,0,0.7,0,1c-0.2,7.2-5,13.2-11.5,14.5l-0.4-0.1c1-6,2.3-12,3.8-17.9l1.4,0.4
	c8.7-3.5,16.7-8.6,23.7-15.2c1.8-1.6,4.9-3.1,6-0.9c0.2,0.8,0.4,1.6,0.5,2.4c0.5,1.5,2,2.2,3.5,2.4c8,1.8,16.3-0.9,22.1-7.3
	L558,718.7z"/>
<path class="st13" d="M551.9,402.8c7.3-14.8,14.1-29.8,20.5-45c13.2-31.5,24.6-65.3,23.6-99.7c-0.1-2.6-0.2-5.1-0.4-7.7
	c-0.2-1.8-0.3-3.6-0.5-5.4c-1.6-12.5-4.6-24.8-8.8-36.6c-4.3-12.1-9.4-23.9-15.1-35.3c-0.2-0.5-0.5-1-0.7-1.5
	c-4.8-9.7-10-19.4-15.6-28.7c-9.9-16.9-21.6-32.6-34.7-46.8c-7.2-7.7-15-14.6-23.2-20.9c-3-2.3-6.1-4.4-9.3-6.4
	c-5.3-3.3-11-5.8-17-7.3c-23.4-5.5-46.6,8.3-67.2,21.6l-2.5,0.8c-1.4-5-2.9-10-4.4-15C411.3,53,430.8,43,451.6,40.6
	c-14.6-11.4-28-24.7-39.7-39.5h41.3v0.4l83.4,79.7c9,8.6,17.9,17.1,26.3,26.3c31.1,34.1,53.9,75.9,66.4,121.8l0.3-0.1
	c1.2-16.4,2.4-33.3-2.8-48.8c-1.6-4.6-3.5-9.1-5.7-13.4c-4.1-8.8-8.3-17.5-12.4-26.3c-2.5-5.5-5.3-10.8-8.4-16
	c-6.6-10.4-16-19-20.6-30.5c2-0.5,2.7-3.9,2.6-6.5c-1-21.7-2-43.5-3-65.2l0,0c-0.3-7.2-0.7-14.4-1-21.6h126.8v1.3
	c-18.6,7.6-30.8,27.8-35.5,48.8c-3,13.2-3.5,26.7-3.1,40.3c0.1,3.2,0.2,6.4,0.4,9.5c0.1,2.4,0.2,4.8,0.4,7.1s0.3,4.9,0.4,7.4
	c0.2,3.1,0.4,6.2,0.5,9.3c4.4,82.1,4.3,164.3-0.4,246.4l-0.3,5.7c-1.3,21.4-3.2,42.9-8.3,63.6c-2.6,10.4-6,20.6-9.5,30.7
	c1.9-28.3,1.8-56.7-0.1-85l-19.5,22c13.2-32.8,19.1-68.4,17.3-104.1c-7.4,19.3-16.2,37.9-26.6,55.6c11.8-39.2,10.7-81.7-3.2-120.2
	c4.1,40.8-5.2,81.7-14.4,121.5c0.1-16.5-1-33-3.2-49.3c-11.7,32.8-27.4,63.6-46.9,91.8L551.9,402.8z"/>
<path class="st16" d="M542.6,711.3c4.5,2.3,9,4.5,13.5,6.6c-5.7,6.3-14.1,9.1-22.1,7.3c-1.4-0.3-3-1-3.5-2.4
	c-0.1-0.8-0.3-1.6-0.5-2.4c-1-2.3-4.2-0.7-6,0.9c-7,6.5-15.1,11.6-23.7,15.2L499,736c2.5-9.9,5.5-19.6,8.8-29.3
	c0.5-1.6,1.1-3.2,1.6-4.8l0,0c0.8-2.3,1.6-4.5,2.4-6.8C522,700.6,532.2,706,542.6,711.3z"/>
<path class="st7" d="M530.4,189.3c-8.2,19.5-14.7,39.7-19.6,60.5c-6.5,27.6-10,56-10.2,84.6c0,1.4,0,2.9,0.2,4.3
	c-1.5,21-7.2,47.1-9.3,68c-0.4-2-0.7-4.1-1.1-6.1c-3.2-17-7.2-33.8-11.9-50.5c-5-17.6-10.9-35-17.6-52
	c-10.8-27.4-23.8-53.9-31.2-82.6c-3.8-14.8-6.1-30.1-8.9-45.2c-1.1-6.3-2.3-12.6-3.6-18.8l1.5-0.3c0.3,2.2,3.3,2.1,5,0.8
	c1.7-1.3,3.1-3.2,5.1-3.2c2.8,0,4.7,4,7.5,3.6c2.6-0.4,4-4.3,6.6-4c3.3,0.4,3.4,7.3,6.7,7.3c2.3,0,3.5-3.3,5.8-3.6
	c1.6-0.2,2.9,1.4,4.3,2.4c3.3,2.6,8,2.3,11.8,0.4s6.7-5.2,9.6-8.3c-0.5-1.7-1-3.5-1.5-5.2c1,1.3,2.4,2.3,4,2.6
	c2.2-5.1,3.5-10.6,3.8-16.2c3.8-0.1,8.7-0.9,9.7-5c0.9-3.5-2-7-1.6-10.6c0.4-3.8,4.4-6.1,7.9-6.4s7.2,0.4,10.7-0.5
	c3.5-0.9,6.8-4.6,5.6-8.3l0.6-0.7c13.1,14.2,24.8,29.8,34.7,46.8l-1.7,1.2C544.6,158.6,537,173.7,530.4,189.3z"/>
<path class="st12" d="M520.1,96.2l-0.6,0.7c1.2,3.7-2.2,7.4-5.6,8.3s-7.1,0.1-10.7,0.5s-7.5,2.6-7.9,6.4c-0.4,3.6,2.5,7.1,1.6,10.6
	c-1,4-5.8,4.9-9.7,5c-0.3,5.6-1.6,11.1-3.8,16.2c-1.6-0.3-3-1.2-4-2.6c0.5,1.7,1,3.5,1.5,5.2c-2.9,3.2-5.9,6.4-9.6,8.3
	s-8.5,2.2-11.8-0.4c-1.3-1.1-2.6-2.6-4.3-2.4c-2.2,0.2-3.5,3.6-5.8,3.6c-3.4,0-3.4-6.9-6.7-7.3c-2.6-0.3-4,3.7-6.6,4
	c-2.8,0.4-4.7-3.6-7.5-3.6c-2,0-3.5,2-5.1,3.2c-1.6,1.3-4.6,1.3-5-0.8l-1.5,0.3c-2.6-13.1-5.5-26.1-8.8-39.1c4.2,0.2,8,3,11.1,6.1
	c3.4,3.4,6.3,7.3,10.2,9.9c3.9,2.6,9.3,3.4,12.9,0.3c2.9-2.5,3.8-6.9,4.5-10.8c0.7-4,1.5-8.2,2.2-12.3c6.3,0.8,12.6,0.5,18.7-1.1
	c4.2-1.1,8.5-2.8,11.3-6.4s3.6-9.3,0.8-12.9c4.8-2.7,7.2-8.8,5.5-14.5l1.7-1.8c3.2,1.9,6.3,4.1,9.3,6.4
	C505.1,81.5,512.9,88.5,520.1,96.2z"/>
<path class="st19" d="M506.9,706.3l0.9,0.3c-3.3,9.7-6.3,19.4-8.8,29.3c-1.5,5.9-2.8,11.9-3.8,17.9c-0.1,0.7-0.2,1.4-0.4,2.2
	c-1,6.2-2.1,13.2-6.8,16.7c-2.3,1.5-4.9,2.4-7.6,2.7c-9,1.7-18.2,2.2-27.3,1.5v-0.1C452.7,742.2,475.4,712.3,506.9,706.3z"/>
<path class="st1" d="M500.5,334.3c0.3-28.5,3.7-56.9,10.3-84.6c11.5-21.5,31.5-36,54.2-39.2c-8.2,45.4-24.8,88.5-49,126.6
	c-3,4.7-8.5,9.9-12.8,6.5c-1.4-1.3-2.3-3.1-2.5-5C500.5,337.2,500.4,335.7,500.5,334.3z"/>
<path class="st6" d="M495.8,521.5c39.5-26,65.3-70.3,88.9-113.3c-0.3,29.4-4.4,58.5-12.4,86.6c23-14.5,35.8-42,47.3-68
	c2.1,39.3-11.7,77.3-25.3,113.8c2.6-3.7,8.5-2.2,10.8,1.7c2.3,3.8,2.1,8.9,1.6,13.4c-1.4,14-4.3,27.8-8.7,41l-0.5,0.3
	c-7.2-16.1-18.6-29.8-32-41c-7-5.9-14.5-11.2-22.2-15.8c-13.9-8.4-28.8-15.3-44.5-18.1c-1-0.2-2-0.3-3-0.5L495.8,521.5z"/>
<path class="st9" d="M491.4,406.6c3.8,21.4,6.4,43,7.8,64.7c15.8-6.8,27.1-21.5,36.4-37.4c2.2-3.7,4.2-7.5,6.2-11.3
	c3.5-6.5,6.8-13.1,10.1-19.8l1,0.6c19.4-28.1,35.2-59,46.9-91.8c2.2,16.3,3.3,32.8,3.2,49.3c9.2-39.8,18.5-80.7,14.4-121.5
	c13.8,38.5,14.9,80.9,3.2,120.2c10.3-17.7,19.2-36.3,26.6-55.6c1.8,35.7-4.1,71.4-17.3,104.1l19.5-22c2,28.3,2,56.7,0.1,85
	c-3,8.8-6.2,17.5-8.9,26.4c-2,6.2-3.6,12.5-5,18.9c-8.6,39.3-3,82,14.8,117.5c2.7,5.5,5.8,10.9,9.1,16v0.5
	c-16.8-1.4-33.7-2.7-50.5-3.6l-1.4,0.1c-1-13.4-2.1-26.9-6-39.6c-1.1-3.6-2.4-7.1-3.9-10.4l0.5-0.2c4.4-13.3,7.3-27,8.7-41
	c0.5-4.6,0.7-9.6-1.6-13.4c-2.3-3.9-8.2-5.4-10.8-1.7c13.6-36.5,27.4-74.5,25.3-113.8c-11.5,26-24.3,53.5-47.3,68
	c8-28.1,12.1-57.2,12.4-86.6c-23.6,43.1-49.4,87.3-88.9,113.3v0.1c-14.8-2.1-30.2-0.4-43.6,6.7c-8.5,4.5-15.9,10.9-23.1,17.6
	c-16.4,15.1-31.7,31.5-46,48.9l0,0c-2.3-1.9-4.5-3.9-6.7-5.8c-10.2-9.1-19.9-18.7-29.2-28.8c30.6-17.5,49.9-52.8,57.4-89.3
	s4.6-74.7,0.4-111.9c-0.9-7.7-1.8-15.4-3-23l0.5-0.1c-0.2-28.7-3.4-57.3-9.6-85.2c6.5,2.3,11,8.7,15,14.6
	c12.2,18.2,24.7,36.6,31.6,57.8c7.6,23.1,9.2,50.1,25.4,67.3c0.6,0.8,1.5,1.4,2.4,1.8c4,1.3,5.7-5.4,5.1-9.9
	c8.3,2.4,14.7,9.6,16.5,18.7l1.3-0.3C490.7,402.6,491.1,404.6,491.4,406.6z"/>
<path class="st5" d="M487.5,68.9l-1.7,1.8c1.7,5.6-0.7,11.7-5.5,14.5c2.8,3.6,2,9.3-0.8,12.9c-2.8,3.6-7.1,5.4-11.3,6.5
	c-6.1,1.5-12.4,1.9-18.7,1.1c-0.7,4.1-1.5,8.2-2.2,12.3c-0.7,4-1.6,8.3-4.5,10.8c-3.6,3.1-9,2.3-12.9-0.3c-3.9-2.6-6.9-6.5-10.2-9.9
	c-3.1-3.1-6.9-5.9-11.1-6.1c-2.4-9.5-4.9-19-7.5-28.4l2.5-0.8c20.6-13.3,43.8-27.1,67.2-21.6C476.5,63.1,482.2,65.5,487.5,68.9z"/>
<path class="st8" d="M396.5,69c1.5,5,3,10,4.4,15c2.7,9.4,5.2,18.9,7.5,28.4c3.2,12.9,6.1,26,8.8,39.1c1.3,6.3,2.5,12.5,3.6,18.8
	c2.7,15.2,5,30.4,8.9,45.2c7.4,28.7,20.4,55.2,31.2,82.6c6.7,17,12.6,34.3,17.6,52l-1.3,0.4c-4.2-14.8-10.2-29-17.9-42.2
	c-6.8-11.6-14.8-22.4-21.4-34.2c-15.4-27.4-22.6-59.2-29.6-90.4l-10.6-47.8c-10.2-45.6-20.5-91.4-36.8-134.9h12
	C381.6,23.3,389.5,45.9,396.5,69z"/>
<path class="st21" d="M456.8,662.5c18,11.4,36.3,22.2,55,32.5c-0.8,2.3-1.6,4.5-2.4,6.8l0,0l-2.5-1c-19.4,4.6-38.8-5.6-58.1-11.1
	C451.4,680.6,454.1,671.6,456.8,662.5L456.8,662.5z"/>
<path class="st18" d="M468.1,730.8c-9.8,12.9-15,29.2-14.8,46v0.1c-6.2-0.5-12.4-1.5-18.5-3.2l0.2-0.9c0.1-8,0.6-16,1.5-24
	c2.3-20,7-39.7,12.4-59.2c19.3,5.5,38.6,15.8,58.1,11.1l2.5,1l-1.6,4.8l-0.9-0.3C491.7,709.3,478,717.9,468.1,730.8z"/>
<path class="st3" d="M434.7,773.8c15,4,30.6,4.6,45.8,1.7c2.7-0.3,5.2-1.3,7.5-2.7c4.8-3.5,5.9-10.5,6.8-16.7
	c0.1-0.7,0.2-1.4,0.4-2.2l0.4,0.1c6.5-1.3,11.3-7.3,11.6-14.5c0.5,6,8.8,9.7,12.9,5.3l9.4,10.8c3.5-3.9,5.1-9.2,4.5-14.6
	c5.1,4.2,9.1,9.7,11.8,16c9.5-6.2,20.7-8.2,31.5-5.8c5.7,1.3,11.2,3.9,17,4.1c5.8,0.2,12.4-3.1,13.7-9.3l16.1,9
	c4.6-6.8,5.3-15.9,1.7-23.4l28.5,23.2c7.7-10.7,22.6-9.2,35.1-8c12.5,1.2,28.4-1.8,31.4-14.9c4.9,13.9,21.9,16.2,35.7,16.1l36.2-0.2
	c0.1-6.5-2.8-12.6-7.6-16.4c7.5,1.6,14.1,6,18.8,12.6c1-3.3,1.9-6.6,2.9-9.9c1.1,4.9,3.5,9.3,6.8,12.8c5.2-5,11.5-8.6,18.3-10.5
	c-0.5,6.6,7.1,9.9,13.1,11.1l44.1,9.2c-2.1-7.6,5.3-15.2,12.6-15.7s14.2,3.8,20.4,8.1l15.2-19.6c-0.2,9.6,8,17.5,16.7,19.5
	c8.7,2,17.6-0.4,26.2-2.8c2.6-0.7,5.7-3.3,5.2-5.5l4,7.1c4.5-4,10.8-4.6,15.9-1.5l4.3-10.8c4.9,1.9,9.4,5.1,13,9.2
	c8.4-6.6,21.8-3.6,27,6.1l7.6-8.7c1.2,1.9,2.8,3.5,4.8,4.4c-16.3,22.5-44,34.6-70.1,30.8c-5.9-0.9-12.2-2.4-17.5,0.3
	c-3.2,1.6-5.7,4.6-8.5,6.9c-9.3,7.2-21.7,7.5-31.2,0.5l-6.8,14.5c-4-9.9-17.8-7.8-26.1-1.7c-8.3,6-16.7,14.8-26.5,13
	c-6.9-1.2-12-7.3-18.4-10.3c-23-10.8-48.3,21.7-72.2,13.2c-11.6-4.1-19.4-17.2-31.3-19.7c-13.5-2.9-25.6,8.5-35.3,19.1
	c-5.3-10.9-19.5-11.8-30.5-8.7s-22.1,9-33.2,6.2c-5-1.2-9.4-4.1-14.1-6.3c-20.9-10-45.1-8.1-64.5,4.9c-3.7,2.5-7.5,5.6-11.8,5.8
	c-7.3,0.3-12.7-7.1-19.5-10.2c-8.4-3.8-18.1-0.4-26.2,4.1s-16.1,10.2-25.1,11.1c-9.1,0.9-19.6-5.3-20-15.2
	c-12.9,5.5-27.5,11-40.1,4.9c-3.3-1.6-6.4-4-9.9-5.1c-7-2.2-14.2,1.3-21.3,2.7c-21.2,4.2-44.1-12.4-48.6-35.2
	c-14.5,9.7-28,21-40.3,33.8c-5.5-6.9-11.1-13.9-18.5-18.1s-17.2-4.7-23.7,1c-4.6-8.2-9.7-16.9-17.7-21s-19.8-1.2-22.2,8.1
	c-9.5-7.3-18-15.8-25.4-25.5l0.6-0.2c7.5-2.7,13.8-11.4,11.4-19.5c5.6,4.1,11.6,7.7,17.9,10.7c17.7,8.5,37,12.1,56.3,10.6h0.3
	c0.1,2.6,1.2,5.1,3.1,6.8c1.7,1.3,3.6,2.1,5.7,2.4c11.4,2.7,23.1,3.4,34.7,2.2c-0.3-4.5-0.5-9-0.8-13.6l0.8-0.1
	c5.3,1.9,11-0.7,15.7-4.1c4.7-3.3,9-7.4,14.5-8.8c11-2.8,21.2,6.2,32,10c-0.2,3.1,0,6.1,0.4,9.2c0.1,0.9,0.4,1.8,0.9,2.5
	c0.6,0.7,1.4,1.1,2.3,1.3c6.9,2.1,14.3,0.2,21.2-1.6c0.9-0.1,1.6-0.5,2.3-1.1c0.6-0.9,0.9-2,0.9-3.1c0.3-4.1,0.4-8.3,0.5-12.4h0.5
	c4.6-0.5,9,2.5,10.4,7.3c-0.9,8-1.4,16-1.5,24L434.7,773.8z"/>
<path class="st21" d="M419.4,705.8c-3.4-4.8-8.1-8.8-12.6-12.4l-0.2-0.8c4.5-1.1,9-2.1,13.6-2.8l2.5-0.4c3.9-0.6,8-1.1,11.6,0.5
	c1.7,0.7,3.1,1.9,4.2,3.4c1.4,1.8,2,4.1,1.6,6.4c-0.8,3.6-4,5.9-6.9,7.8l-9.5,6.1h-0.4C422.4,710.7,421,708.1,419.4,705.8z"/>
<path class="st17" d="M431.8,670.3c4.1,6.9,8.1,14.8,6.7,22.9c-1.1-1.5-2.6-2.7-4.2-3.4c-3.7-1.5-7.8-1.1-11.6-0.5l-2.5,0.4
	c-1.3-6.9-7.1-12.1-13.4-14.2c-6.5-2.2-13.5-1.7-20.2-1.2c-0.4-5.7-1.2-11.4-2.2-17.1l1.1-0.2c6.6,1.1,13.3-0.2,19.9-0.5
	c6.6-0.3,13.7,0.4,19.1,4.7C427.5,663.4,429.7,666.9,431.8,670.3z"/>
<path class="st5" d="M411.8,1.1c11.8,14.8,25.1,28.1,39.8,39.5C430.8,43,411.4,53,396.5,69c-7-23-14.9-45.6-23.7-67.9H411.8z"/>
<path class="st2" d="M246.9,667.7c-0.9,2.6-1.7,5.2-2.4,7.8l-0.8-0.3c-23.5-25.3-45.1-53-60.9-84.6c-18.6-37.2-29.1-79.1-51-114.1
	c-6.2,64.7,10.4,129.5,46.7,181.4c19.1,27.1,43.4,50.3,57.3,80.8l-1.1,2.7c-6.2-3-12.2-6.6-17.9-10.7c2.4,8.1-3.9,16.8-11.4,19.5
	l-0.6,0.2c-7.3,2.4-15.2,0.9-22.8-0.3c-2.3-0.4-4.6-0.7-7-1.1l0.3-2.2c-22.6-22.8-41.6-49.5-56.1-79l0.3-0.2
	c-2.2-70.8-4.6-143.3-28.8-209.1c-13.4-36.4-33.1-70-43.4-107.5c-3.3,32.9,5.7,65.5,10.5,98.1s4.8,69-13.8,95.2
	c-2.1,3-4.8,6.1-8.1,7c-2.7-10.7-7.9-21-13.4-30.4c-8.3-14.4-18-28.5-22.5-44.5V77.3c7.2-11.8,14.7-23.6,24.6-32.8
	c7.8-7.2,16.9-12.6,25-19.4C57.1,18.9,64,10.9,66.7,1.1h47.6c-0.6,19.9-3.3,39.6-8.1,58.7c-0.2,0.7-0.4,1.5-0.6,2.3
	c0.2-0.8,0.4-1.5,0.6-2.3c2.4-8,8.9-14.1,15.8-18c7.6-4.2,16.1-6.4,24.1-9.9l0.5,0.2c-1.4,5-2.5,10-3.3,15.2
	c-28,36.3-45.1,83.9-39.9,130.8c3,27.1,13.7,52.4,22.2,78.2c7.7,23.2,13.6,47,21,70.4c27.8,87.8,74.9,166.9,137.3,230.6L199,384.5
	c-11.6-23.5-23.2-47.1-31.5-72.2c-16.4-49.6-20.5-98.6-9.5-150l0,0c3.6,12.1,7.4,24,11.4,36c0.2,0.6,0.4,1.3,0.6,1.9
	c2.1,115.9,58,223.6,120.6,317.7c21.6,32.5,48.3,66.6,85,71.9l0.7-1c2.2,2,4.4,3.9,6.7,5.8l0,0c-2.6,3.2-5.2,6.4-7.7,9.7l0.5,1.5
	c26.1,20.2,53.1,39.1,80.9,56.7l-0.1,0.1c-2.7,9-5.4,18-7.9,27.1c-5.4,19.5-10.1,39.2-12.4,59.2c-1.4-4.8-5.8-7.8-10.4-7.3h-0.4
	c0-6.9-0.3-13.7-1-20.6c-0.2-2.2-0.5-4.5-1-6.6c-0.1-0.3-0.1-0.6-0.2-0.8h0.4l9.5-6.1c2.9-1.9,6.1-4.1,6.9-7.8
	c0.4-2.3-0.2-4.7-1.6-6.4c1.4-8.1-2.6-16-6.7-22.9c-2.1-3.4-4.3-6.8-7.3-9.3c-5.3-4.3-12.4-5-19.1-4.7c-6.6,0.3-13.3,1.6-19.9,0.5
	l-1.1,0.2c-1-5.8-2.5-11.5-4.3-17c-3.5-10.5-9.2-19.9-16.5-27.7c-5.7-6-12.8-10.4-20.5-12.8c-6.3-1.7-12.8-2.3-19.3-1.6
	c-22.9,2.2-44.1,15.8-58.7,34.9l-1-0.9c-29.7-85-68-166.2-114-242.2c-8.9-14.6-18.2-29.6-21.9-46.5c-0.3-1.6-0.6-3.2-0.9-4.9
	c0.2,1.6,0.5,3.2,0.9,4.9c7.4,40.2,14.1,72.5,23.4,108.6c5.3,20.4,13.5,39.8,21.7,59l42.7,100.7
	C221.9,625.8,238.9,654.7,246.9,667.7z M123,418.9L94,264.8C81.6,199.2,68.8,132.1,37.3,74.5c-3.1-5.6-7.4-11.7-13.4-11.6
	C22.1,69,22.8,72.9,21,79c-0.4,3.3-0.7,6.5-0.9,9.7H20c-5.6,21.6-9.1,39-6.6,61.2c2.8,25.1,15.7,47.2,25.8,70
	c34.3,77.3,38.3,167.1,72.2,244.6l-1.6-69.7l1.2-0.6C114.5,402.7,118.5,411,123,418.9z"/>
<path class="st19" d="M397,746.9c0.4-8.3,2.2-16.6,1.6-24.8c-0.1-1.1-0.2-2.1-0.3-3.1c-0.2-1.5-0.6-3-1-4.5l0.8-0.3l21.3-8.4
	c1.7,2.3,3,4.9,3.9,7.7c0.1,0.3,0.2,0.6,0.2,0.8c0.5,2.2,0.8,4.4,1,6.6c0.7,6.8,1,13.7,1,20.6c0,4.1-0.2,8.3-0.5,12.4
	c0,1.1-0.3,2.2-0.9,3.1c-0.7,0.6-1.4,1-2.3,1.1c-7,1.9-14.3,3.7-21.2,1.6c-0.9-0.2-1.7-0.7-2.3-1.3c-0.5-0.7-0.8-1.6-0.9-2.5
	C397,753,396.8,749.9,397,746.9z"/>
<path class="st19" d="M406.7,675.4c6.3,2.2,12.1,7.3,13.4,14.3c-4.5,0.8-9.1,1.7-13.6,2.8c-5.5,1.4-11,3-16.5,4.9l-1.1,0.4h-1.4
	c-0.2-7.8-0.5-15.8-1.1-23.6C393.2,673.7,400.2,673.2,406.7,675.4z"/>
<path class="st21" d="M390.1,697.4c5.4-1.9,10.9-3.5,16.5-4.9l0.2,0.8c4.5,3.7,9.2,7.6,12.6,12.4l-21.3,8.4l-0.8,0.3
	c-1.6-5.8-4.3-11.1-7-16.4L390.1,697.4z"/>
<path class="st7" d="M405,358.9c4.2,37.2,7.1,75.3-0.4,111.9s-26.8,71.8-57.4,89.3c-24.5-26.5-46.1-56.3-65-87.9l1-0.7
	c0.7-12.8,1.3-25.6,2-38.4c29-28.9,47.7-67.3,64.1-106.5c3.3-8,6.6-16,9.8-23.9c5.5-13.5,10.9-26.9,16.3-40.4
	c5.6,8,10.4,16.7,14.2,25.9c6.2,15.2,9.8,31.3,12.3,47.7C403.1,343.6,404.1,351.2,405,358.9z"/>
<path class="st13" d="M375.4,262.3c-1.9-2.8-4-5.5-6.1-8c-19.1-23.3-45.7-39.6-74.2-44.5c0.5-11.5,0.9-23,1.3-34.5
	c27.8,25.3,70.9,26.5,94.8,56.1c1,1.2,2.3,2.6,3.7,2.1c2-0.7,1.4-3.9,0.4-5.9c-5.9-11.3-12.9-21.9-21-31.5c1,0.2,2.1,0.3,3.1,0.4
	c-0.2-19.5-1.5-38.9-3.9-58.2c-3.2-26.1-8.2-51.8-15.2-77c-5.7-20.5-12.6-40.7-20.7-60.2h23.2c16.3,43.4,26.6,89.3,36.7,134.9
	l10.6,47.8c7,31.2,14.1,63,29.6,90.4c6.6,11.8,14.6,22.5,21.4,34.2c7.6,13.1,13.7,27.3,17.9,42.2l1.3-0.4
	c4.7,16.6,8.7,33.4,11.9,50.5l-1.3,0.3c-1.9-9.1-8.2-16.3-16.5-18.7c0.5,4.5-1.1,11.2-5.1,9.9c-0.9-0.4-1.7-1-2.4-1.8
	c-16.2-17.1-17.8-44.2-25.4-67.3c-7-21.2-19.4-39.7-31.6-57.8c-4-6-8.5-12.3-15-14.6c6.2,27.9,9.4,56.5,9.5,85.3l-0.5,0.1
	c-2.5-16.4-6.1-32.6-12.3-47.7C385.8,279,381.1,270.3,375.4,262.3z"/>
<path class="st2" d="M398.6,722c0.6,8.2-1.2,16.6-1.6,24.8c-10.8-3.8-21-12.8-32-10c-5.4,1.4-9.8,5.5-14.5,8.8s-10.4,6-15.7,4.1
	l-0.8,0.1c-0.7-11.5-1.9-23-3.7-34.4c9.2,0.4,18.4-0.2,27.5-1.8v0.3c0.4,2.6,0.8,5.2,1.2,7.7c-0.4,1.2-0.1,2.6,0.6,3.6
	c1.2,1.6,3.5,1.7,5.4,1.6c11.2-0.4,22.4-2,33.3-4.8H398.6z"/>
<path class="st8" d="M349.3,189.6c8.1,3,16.5,5.2,25,6.5c8.1,9.6,15.1,20.2,21,31.5c1,2,1.6,5.2-0.4,5.9c-1.4,0.5-2.7-0.9-3.7-2.1
	c-23.9-29.6-67-30.8-94.8-56.1c0.1-3.4,0.3-6.7,0.4-10.1s0.2-6.8,0.4-10.2c5.6,5.9,11.7,11.3,18.1,16.1
	C325.8,179,337.3,185.2,349.3,189.6z"/>
<path class="st21" d="M387.6,698.5v-0.7h1.4l1.1-0.4l0.2,0.5c2.7,5.3,5.5,10.7,7,16.4c0.4,1.5,0.8,3,1,4.5c0.2,1,0.3,2.1,0.3,3.1
	h-0.1c-10.9,2.8-22.1,4.4-33.3,4.8c-1.9,0.1-4.2,0-5.4-1.6c-0.7-1-1-2.4-0.6-3.6c0.6-2,1.7-3.8,3.1-5.3l4-4.4
	c5.8-1.4,11.5-3.2,17.1-5.4l0,0.2C386.7,706.8,387.7,702,387.6,698.5z"/>
<path class="st21" d="M366.3,711.9c-2.8,0.7-5.6,1.2-8.4,1.7c-9.1,1.6-18.3,2.2-27.5,1.8c-0.4-2.3-0.8-4.7-1.3-7
	c-0.6-2.9-1.3-5.9-2-8.7v-2l7,0.1c12.1,0.2,24.2,0.6,36.2,1.1c5.6,0.2,12.7,1.6,13.9,7.6l-0.8,0.3
	C377.8,708.8,372.1,710.5,366.3,711.9z"/>
<path class="st19" d="M386.5,674.2c0.6,7.8,0.9,15.8,1.1,23.6v0.7c0.1,3.5-0.9,8.3-4.1,8.2l0-0.2l0.8-0.3c-1.2-5.9-8.3-7.4-13.9-7.6
	c-12.1-0.4-24.2-0.9-36.2-1.1v-2l-41.2-14.8c-4.5-1.6-9-3.2-12.8-6.2c-3.8-3-6.9-7.6-7-12.6c-0.2-6.4,4-11.9,8-16.6l10.2-12.3
	c4.6-5.6,9.3-11.2,15.1-15.3c16.3-11.5,37.6-8.5,56.9-5.1l0.3-0.3c7.4,7.8,13.1,17.3,16.6,27.8c1.9,5.5,3.3,11.2,4.4,16.9
	C385.4,662.8,386.1,668.5,386.5,674.2z M354.8,622.8c-8.2-1.3-16.5-0.9-24.5,1.4c-2.5,0.7-5.1,1.7-6.8,3.8c-3,3.6-2.3,9.4,0.2,13.4
	s6.3,6.7,10,9.5c9.9,7.7,19,17.3,30.6,21.2c4.2,1.4,10,1.3,11.6-3.1c0.7-1.9,0.4-4.1,0-6.1C372.7,647.5,365.3,633.5,354.8,622.8
	L354.8,622.8z"/>
<path class="st22" d="M243.5,398.5c3,6.6,6.1,13,9.2,19.5l3,6c8.2,16.4,17,32.5,26.4,48.2c19,31.6,40.5,61.4,65,87.9
	c9.3,10.1,19,19.7,29.2,28.7l-0.7,1c-36.7-5.2-63.4-39.3-85-71.9C228,423.8,172.1,316.2,170,200.2l2.5,7.6
	c13.5,40.9,27.1,81.9,42.4,122C223.7,353,233.2,376,243.5,398.5z"/>
<path class="st17" d="M375.9,662.8c0.4,2,0.8,4.2,0,6.1c-1.7,4.4-7.5,4.5-11.6,3.1c-11.6-4-20.7-13.6-30.6-21.2
	c-3.6-2.8-7.5-5.4-10-9.5s-3.1-9.8-0.2-13.4c1.7-2.1,4.3-3.1,6.8-3.8c8-2.2,16.4-2.7,24.5-1.4C365.3,633.6,372.6,647.5,375.9,662.8z
	"/>
<path class="st1" d="M375.4,262.3c-5.4,13.4-10.9,26.9-16.3,40.4c-3.2,8-6.5,16-9.8,23.9h-0.1c-4.1-16.6-5.8-33.8-4.9-51l24.5-20.9
	l0.5-0.5C371.4,256.9,373.5,259.5,375.4,262.3z"/>
<path class="st10" d="M374.2,196.1c-8.5-1.3-16.8-3.5-25-6.5l1.2-33.9h0.3c2.3,0.1,4.8,0.5,6.8-0.7s3-4.8,1-6.1
	c1.9,0.4,3.4-1.9,3.9-4s0.6-4.5,2-5.9c2.3-2.3,5.8-0.6,9-0.6c2.4,19.3,3.6,38.7,3.8,58.2C376.3,196.4,375.3,196.2,374.2,196.1z"/>
<path class="st12" d="M350.5,155.6c-2.2-0.1-4.7,0.4-6,2.3c-1,1.5-1,3.6-2.1,4.9c-2.5,3.1-7-0.3-9.4-3.6c1.8,2.4-2.4,4.8-5.2,4.4
	c-2.8-0.4-7.1,0.5-6.4,3.5l-2.3-5.4c-3.3,0.5-5.2,5.4-3.2,8.3l-0.7,1.2c-6.5-4.8-12.5-10.2-18.1-16.1c0.5-14.9,0.9-30,0.8-44.9h0.1
	c4,0.2,6,5.4,6.5,9.7c0.5,4.2,1.1,9.4,4.7,11.4c3.1,1.8,7.1,0.1,9.2-2.9c2.1-3,2.7-6.9,2.9-10.6c4.2,2.5,9.7,0.8,13.2-2.8
	c3.5-3.5,5.5-8.5,7.1-13.4c1.9-5.5,3.5-11.2,3.2-17.1c-0.2-4-1.4-7.9-3.7-11.1c1.1,0.1,2.2,0,3.3-0.3c5.5-1.9,10.1-6,13-11.4
	l0.8-0.3c7,25.2,12,50.9,15.2,77c-3.2,0-6.7-1.6-9,0.6c-1.5,1.5-1.6,3.8-2,5.9s-2,4.3-3.9,4c2,1.3,1,4.9-1,6.1s-4.5,0.8-6.8,0.7
	L350.5,155.6z"/>
<path class="st10" d="M369.3,254.3l-0.5,0.5l-24.5,20.9c-0.9,17.2,0.7,34.4,4.9,51h0.1c-16.4,39.2-35.1,77.6-64.1,106.5
	c3.7-74.4,7.1-148.9,10-223.4C323.6,214.7,350.2,231,369.3,254.3z"/>
<path class="st19" d="M366.3,711.9l-4,4.4c-1.4,1.5-2.5,3.3-3.1,5.3c-0.4-2.6-0.8-5.2-1.2-7.7v-0.3
	C360.7,713.1,363.5,712.6,366.3,711.9z"/>
<path class="st18" d="M246.9,667.7c3.6-10.7,8.5-20.8,14.7-29.9c1.1-1.6,2.2-3.2,3.4-4.7c14.7-19.1,35.9-32.8,58.7-34.9
	c6.5-0.7,13-0.2,19.3,1.5c7.7,2.4,14.7,6.8,20.4,12.8l-0.3,0.3c-19.2-3.4-40.5-6.4-56.9,5.1c-5.8,4.1-10.5,9.7-15.1,15.3l-10.2,12.3
	c-4,4.8-8.1,10.2-8,16.6c0.2,5.1,3.2,9.6,7,12.6s8.3,4.6,12.8,6.2l41.2,14.8v2l-7-0.1c-9,0-18,0.1-27,0.5c-13.3,0.6-26.5,1.9-39.7,4
	c-8,1.3-16.8,3.6-21.5,10.6c0.5-12.6,2.4-25.1,5.7-37.1C245.2,672.9,246,670.3,246.9,667.7z"/>
<path class="st5" d="M358.3,61.3l-0.8,0.3C354.6,67,350,71,344.6,73c-1.1,0.3-2.2,0.5-3.3,0.3c-1-1.4-2.3-2.6-3.8-3.5
	c-0.2,2.2,1.7,3.3,3.8,3.6c2.2,3.2,3.5,7.1,3.7,11.1c0.3,5.8-1.4,11.6-3.2,17.1c-1.6,4.9-3.6,9.9-7.1,13.4c-3.5,3.5-9,5.2-13.2,2.8
	c-0.2,3.7-0.8,7.7-2.9,10.6c-2.1,3-6.1,4.6-9.2,2.9c-3.5-2-4.1-7.1-4.7-11.4s-2.5-9.4-6.5-9.7H298c-0.3-37.5-3.9-74.7-16.7-109.1
	h56.2C345.7,20.6,352.6,40.7,358.3,61.3z"/>
<path class="st1" d="M350.5,155.6l-1.2,34c-12-4.4-23.5-10.6-33.9-18.4l0.7-1.2c-2.1-2.9-0.2-7.9,3.2-8.3l2.3,5.4
	c-0.7-3,3.6-3.8,6.4-3.5c2.8,0.4,7-2,5.2-4.4c2.3,3.2,6.8,6.7,9.4,3.6c1.1-1.4,1.1-3.4,2.1-4.9C345.8,156,348.3,155.6,350.5,155.6z"
	/>
<path class="st19" d="M330.3,715.4c1.8,11.4,3,22.9,3.7,34.4c0.3,4.5,0.6,9.1,0.8,13.6c-6.8,0.7-13.7,0.8-20.6,0.1l0-0.6
	c-0.4-19.4,4.8-38.4,14.7-54.5C329.5,710.8,330,713.1,330.3,715.4z"/>
<path class="st18" d="M329,708.5c-10,16.1-15.1,35.2-14.7,54.6l0,0.6c-4.8-0.4-9.5-1.2-14.1-2.3c-2.1-0.3-4-1.2-5.7-2.4
	c-1.8-1.7-2.9-4.2-3.1-6.8c-0.2-2.5-0.1-4.9,0.2-7.4c1.1-9.2,2.6-18.4,4.3-27.5c1.2-6.4,2.6-12.8,4.2-19.1c9-0.4,18-0.5,27-0.5v2.1
	C327.8,702.6,328.5,705.5,329,708.5z"/>
<path class="st8" d="M297.2,155.1c-0.1,3.4-0.2,6.8-0.4,10.2c-0.1,3.4-0.2,6.7-0.4,10.1c-0.4,11.5-0.9,23-1.3,34.5
	c-2.9,74.5-6.3,148.9-10,223.4c-0.7,12.8-1.3,25.6-2,38.4l-1,0.7c-9.4-15.7-18.2-31.8-26.4-48.2l0.9-0.5
	c0.9-48.9,5.2-97.6,9.5-146.3c1.4-15.7,2.8-31.4,4.1-47c1.5-17.5,3.1-35.1,5.3-52.6c2.6-21.1,6.3-42.2,5.5-63.5
	c-0.5-14.7-3.2-29.1-5.8-43.5c-4.2-23.2-8.4-46.3-12.6-69.5h18.8c12.8,34.5,16.4,71.6,16.7,109.1
	C298.1,125.1,297.8,140.2,297.2,155.1z"/>
<path class="st21" d="M238.9,712.7c4.7-7,13.5-9.2,21.5-10.6c13.2-2.1,26.4-3.5,39.7-4c-1.6,6.3-3,12.7-4.2,19.1h-0.4
	c-19.1,1.8-38.3,0.5-57.1-3.8L238.9,712.7z"/>
<path class="st23" d="M291,752c-19.3,1.5-38.6-2.1-56.3-10.6l1.1-2.7c-13.9-30.5-38.2-53.8-57.3-80.8
	c-36.2-51.9-52.9-116.7-46.7-181.4c21.9,35.1,32.4,77,51,114.1c15.8,31.5,37.3,59.3,60.9,84.6l0.8,0.3c-3.3,12.1-5.2,24.5-5.6,37.1
	l-0.4,0.6c18.7,4.3,38,5.6,57.1,3.8l0.4,0.1c-1.8,9.1-3.2,18.3-4.3,27.5c-0.3,2.4-0.4,4.9-0.2,7.4H291z"/>
<path class="st23" d="M199,384.5l84.9,172.6c-62.4-63.6-109.5-142.8-137.2-230.6c-7.4-23.3-13.3-47.1-21-70.4
	c-8.5-25.7-19.2-51-22.1-78.2c-5.1-46.9,12-94.5,40-130.8c-1.8,12.9-2.2,25.9-1.2,38.9c1.2,14.6,3.5,29.1,6.9,43.3
	c0.3,1.4,0.7,2.9,1,4.3c2.4,9.6,5,19.1,7.8,28.6l0,0c-10.9,51.4-6.9,100.4,9.6,150C175.9,337.4,187.5,361,199,384.5z"/>
<path class="st24" d="M264,632.1l1,0.9c-1.2,1.5-2.3,3.1-3.4,4.7c-6.2,9.2-11.1,19.3-14.7,29.9c-8-13-25-41.9-31-56l-42.7-100.7
	c-8.2-19.3-16.4-38.6-21.7-59c-9.3-36-16-68.4-23.4-108.6c3.7,16.9,13,31.9,21.9,46.5C196,466,234.3,547.2,264,632.1z"/>
<path class="st6" d="M232.2,76c22.8,33.9,21.9,79.4,20.1,121.2c-2.9,67.1-5.8,134.2-8.7,201.2c-10.4-22.5-19.8-45.5-28.7-68.7
	l1.3-0.6c0.1-19.5,5.6-38.4,8.9-57.6c4.1-24.5,4.6-49.6,5-74.5C230.8,156.7,231.5,116.4,232.2,76z"/>
<path class="st5" d="M252,63.2l-19.1-19c-1.7-1.7-3.6-3.5-5.9-3.8c-6.3-0.9-9,8.3-9.3,15.2c-1.9,47.9-1.5,95.8,1.1,143.6
	c-5.6-9.5-7.6-20.9-9.4-32C200.5,112,192.9,56.7,186.8,1.1h60.1C250.1,21.6,251.8,42.4,252,63.2z"/>
<path class="st5" d="M143.4,47.3c0.8-5.1,1.9-10.2,3.3-15.2c3.1-11.3,8.2-21.9,15-31.1h4.7c10.2,22.6,15.2,47.5,14.7,72.6
	c-0.3,9.1-1.1,18.1-2.4,27.1c-12.3-4-24.4-8.9-36.1-14.6h-0.3C141.2,73.2,141.6,60.2,143.4,47.3z"/>
<path class="st23" d="M175.4,746.9l-0.3,2.2c-39.4-5.6-79.3-4.1-118.2,4.5l-2.3,1c-0.6-1.6-1.2-3.2-1.8-4.8c-0.9-2.2-1.9-4.3-3-6.3
	v-0.6c8.8-0.9,17.4-3.1,25.6-6.8c1.8-0.8,3.7-1.8,5.5-2.8c2.1-1.2,4.3-2.8,4.6-5.3c0-1.3-0.2-2.6-0.7-3.8L78,705
	c-2.1-6.1-4.3-12.2-7.8-17.5C62.7,676.3,49.8,670.4,37,669c-2.2-0.2-4.4-0.4-6.6-0.4c17-11,38.9-26,55.8-36.9
	c4.2-2.7,9.3-5.6,13.8-3.2c3.5,1.8,5.2,6.1,6.6,10c3.7,10.1,7.9,19.9,12.6,29.4C133.7,697.4,152.7,724.1,175.4,746.9z"/>
<path class="st12" d="M178.6,100.7c-2.3,16.6-5.9,33.3-8.1,49.8l-0.6-0.1c-5.6-6.7-12.1-12.4-19.4-16.7l-0.4,0.1
	c-0.4-1.4-0.7-2.8-1-4.3c-3.4-14.2-5.8-28.7-6.9-43.3h0.3C154.3,91.8,166.3,96.7,178.6,100.7z"/>
<path class="st1" d="M170,150.4l0.6,0.1c-2.1,16-3,31.9-0.6,47.5l-0.6,0.2c-3.9-11.9-7.8-23.9-11.4-36c-2.8-9.5-5.5-19-7.8-28.6
	l0.4-0.1C157.9,138,164.4,143.7,170,150.4z"/>
<path class="st13" d="M178.6,100.7c1.3-9,2.2-18,2.4-27.1c0.5-25.1-4.5-50-14.7-72.6h20.4c6.1,55.6,13.6,110.9,22.6,166.1
	c1.8,11.1,3.8,22.5,9.4,32c-2.6-47.8-3-95.7-1.1-143.5c0.3-6.9,3-16.1,9.3-15.2c2.3,0.3,4.2,2.2,5.9,3.8l19.1,19
	c-0.2-20.8-1.9-41.6-5.1-62.2h15.7c4.2,23.2,8.4,46.4,12.6,69.5c2.6,14.4,5.2,28.9,5.8,43.5c0.8,21.3-2.8,42.4-5.5,63.5
	c-2.2,17.5-3.7,35-5.3,52.6c-1.4,15.7-2.8,31.4-4.1,47c-4.3,48.7-8.6,97.4-9.5,146.3l-0.9,0.5l-3-6c-3.2-6.5-6.3-13-9.2-19.5
	c2.9-67.1,5.8-134.2,8.7-201.2c1.8-41.9,2.7-87.4-20.1-121.2c-0.7,40.4-1.4,80.7-2.1,121.1c-0.4,24.9-0.9,50-5,74.5
	c-3.2,19.2-8.7,38.1-8.9,57.6l-1.3,0.6c-15.4-40.2-28.9-81.2-42.4-122.1c-0.8-2.5-1.7-5-2.5-7.6c-0.2-0.6-0.4-1.3-0.6-1.9l0.6-0.2
	c-2.5-15.7-1.6-31.6,0.6-47.5C172.8,134,176.3,117.3,178.6,100.7z"/>
<path class="st22" d="M114.3,1.1h47.3c-6.8,9.2-11.9,19.8-15,31.1l-0.5-0.2c-8,3.5-16.4,5.6-24.1,9.9c-7,3.9-13.4,10-15.8,18
	C111,40.6,113.7,20.9,114.3,1.1z"/>
<path class="st25" d="M94,264.8l29,154.1c-4.5-8-8.5-16.2-12-24.7C92.7,350.8,85,302.1,69.5,257C49.8,199.6,16.4,148.5,20.1,88.7
	c0.2-3.2,0.5-6.5,0.9-9.7c1.8-6.1,1.1-10,2.9-16.1c6-0.2,10.3,6,13.4,11.6C68.8,132.1,81.6,199.2,94,264.8z"/>
<path class="st26" d="M7.5,671c-2.5,0.5-5,0.9-7.5,1.4v-47.3h1.3c15.7-13.3,32.5-28.4,36.1-49.6c1.2-8,0.8-16.2-1.4-24
	c3.4-1,6-4,8.1-7c18.6-26.2,18.6-62.6,13.8-95.3S44,384,47.3,351.1c10.3,37.5,30,71.1,43.4,107.5c24.2,65.8,26.7,138.3,28.8,209.1
	l-0.3,0.2c-4.7-9.6-8.9-19.4-12.6-29.4c-1.4-3.9-3.1-8.2-6.6-10c-4.4-2.3-9.6,0.6-13.8,3.3c-16.8,11-38.8,25.9-55.7,36.9
	C22.8,668.7,15.1,669.5,7.5,671z"/>
<path class="st17" d="M30.5,668.7c2.2,0,4.4,0.1,6.6,0.4c12.8,1.4,25.7,7.3,33.2,18.5c3.5,5.3,5.7,11.4,7.8,17.5l6.7,19.1
	c0.5,1.2,0.8,2.5,0.7,3.8c-0.3,2.5-2.5,4.2-4.6,5.3c-1.8,1-3.6,1.9-5.5,2.8l-0.1-0.3c-5-11.4-14.5-19.6-24.6-26
	s-20.8-11.3-30.6-18.1c-6.8-4.7-13.7-12.2-12.6-20.7C15.1,669.5,22.8,668.7,30.5,668.7z"/>
<path class="st19" d="M25.2,743.2c-8.4-0.5-16.7-1.4-24.9-2.4H0v-68.4c2.5-0.5,5-1,7.5-1.4c-1.1,8.5,5.8,15.9,12.5,20.7
	c9.8,6.8,20.6,11.7,30.6,18.1s19.5,14.7,24.6,26l0.1,0.3c-8.2,3.6-16.8,5.9-25.7,6.8C41.6,743.6,33.4,743.8,25.2,743.2z"/>
<path class="st26" d="M0,1.1h66.7c-2.7,9.8-9.6,17.9-17.1,24.1c-8.1,6.8-17.2,12.1-25,19.4C14.7,53.7,7.2,65.5,0,77.3V1.1z"/>
<path class="st19" d="M57.6,766.4c0.4,2.2,0.6,4.6-0.8,6.1s-3.8,1.5-5.9,1.4c-6.4-0.3-12.8,1.7-18.1,5.6c-1.4,1-3.5,2-4.4,0.5
	c-0.2-0.5-0.4-1-0.4-1.6c-0.7-8.6-1.4-17.2-2.1-25.8c9,1.6,18.2,0.6,26.7-2.9h0.1c0.7,1.6,1.3,3.2,1.8,4.8
	C55.9,758.4,56.9,762.3,57.6,766.4z"/>
<path class="st0" d="M57.6,766.4c-0.7-4.1-1.7-8-3.1-11.9l2.3-1c38.9-8.5,78.8-10,118.2-4.4c2.3,0.3,4.7,0.7,7,1.1
	c7.6,1.2,15.5,2.7,22.8,0.3c7.4,9.7,16,18.2,25.4,25.5c2.4-9.3,14.1-12.2,22.2-8.1s13.1,12.8,17.7,21c6.5-5.7,16.2-5.2,23.7-1
	s13.1,11.2,18.5,18.1c12.3-12.8,25.9-24.1,40.5-33.7c4.5,22.8,27.4,39.4,48.6,35.2c7.1-1.4,14.3-4.8,21.3-2.7
	c3.5,1.1,6.5,3.4,9.9,5.1c12.6,6.1,27.3,0.6,40.1-4.9c0.3,9.9,10.9,16.1,20,15.2c9.1-0.9,17-6.6,25.1-11.1
	c8.1-4.5,17.8-7.9,26.2-4.1c6.8,3,12.2,10.5,19.5,10.2c4.4-0.2,8.1-3.2,11.8-5.8c19.5-13,43.6-14.9,64.5-4.9
	c4.6,2.3,9.1,5.1,14.1,6.3c11.1,2.7,22.2-3.1,33.2-6.2s25.2-2.2,30.5,8.7c9.7-10.5,21.9-22,35.3-19.1c12,2.6,19.8,15.6,31.3,19.7
	c23.9,8.5,49.2-24,72.2-13.2c6.4,3,11.5,9.1,18.4,10.3c9.8,1.8,18.2-7,26.5-13s22.1-8.2,26.1,1.7c2.3-4.8,4.6-9.7,6.8-14.5
	c9.5,6.9,22,6.7,31.2-0.5c2.8-2.3,5.3-5.3,8.5-6.9c5.4-2.7,11.7-1.2,17.5-0.3c26.2,3.8,53.8-8.4,70.1-30.8c1.6,0.8,3.4,1.2,5.2,1.3
	c4.3,0.2,8.8-1.7,11.1-5.6c1.8,5.4,7.1,8.2,12.5,8.8c1.3,0.1,2.7,0.1,4,0c6.6-0.6,12.9-3.4,19.5-3.7c7-0.3,13.8,2.2,20.7,3.6
	c9.9,2,20,1.8,30,1.5l120.5-3.1l16.2-0.4l37-1l28.4-0.7v38.7c-7.3-5.5-20.6,6.9-29.5,6.2c-3.1-0.3-5.8-2.2-8.8-3.3
	c-14.9-6.2-32.1,4.8-47.3-0.4c-7.9-2.7-14-9.5-21-14.4s-16.5-7.8-23.3-2.6c-4,3.1-6,8.4-8.9,12.8s-7.9,8.2-12.6,6.2
	c-2.9-1.2-4.7-4.3-7.2-6.5c-4.9-4.1-12-3.6-17.8-1.1c-5.8,2.5-10.8,6.7-16.5,9.5c-16.1,7.9-39.2,0.3-42.8-18.4l-24.2,27
	c-2,2.2-4.4,4.6-7.3,4.4c-2.3-0.2-4.1-1.9-6-3.2c-8.1-5.5-19.3-2.7-26.7,3.8s-12,16.1-16.4,25.3v1.2H0v-91.6h0.3
	c8.2,1,16.6,1.9,24.9,2.4c0.3,3.1,0.5,6.2,0.8,9.4c0.7,8.6,1.4,17.2,2.1,25.8c0,0.6,0.1,1.1,0.4,1.6c0.9,1.5,3,0.5,4.4-0.5
	c5.3-3.9,11.7-5.9,18.1-5.6c2.1,0.1,4.5,0.3,5.9-1.3S58,768.5,57.6,766.4z"/>
<path class="st18" d="M52.8,749.7L52.8,749.7c-8.6,3.4-17.8,4.4-26.8,2.9c-0.3-3.1-0.5-6.2-0.8-9.4c8.2,0.6,16.4,0.4,24.5-0.4l0,0.6
	C50.8,745.4,51.8,747.5,52.8,749.7z"/>
<path class="st26" d="M36,551.5c2.2,7.8,2.6,16,1.4,24c-3.6,21.2-20.4,36.3-36.1,49.6H0V476.6c4.5,16.1,14.2,30.1,22.6,44.5
	C28.1,530.5,33.2,540.8,36,551.5z"/>
<path class="st26" d="M20.1,88.7C16.4,148.5,49.8,199.6,69.5,257C85,302.1,92.7,350.8,111,394.3l-1.2,0.6l1.6,69.7
	c-33.9-77.5-37.8-167.3-72.2-244.6c-10.1-22.7-23-44.9-25.9-70C10.9,127.7,14.4,110.4,20.1,88.7L20.1,88.7z"/>
<path class="st18" d="M1204.1,676.4c-22,3.7-44,8.1-65.8,13.3l-4.9,1.2c-13.5,3.2-26.9,6.8-40.6,8.7c-6.2,0.9-12.3,1.4-18.6,1.5
	c23-6.6,46.8-19.1,67.7-31.3c16.4-9.6,33.4-23.1,36.1-42.8c2.1-15.3-6.3-31.5-19.6-37.8c-4.8-2.1-9.9-3.5-15.1-4.1
	c-11.7-1.7-23.5-1.7-35.2-0.1c-6.3,0.9-12.6,2-17.3,6c11.7-13.4,25.9-24.7,42.3-30c8.9-2.8,18.1-4.1,27.3-4
	c52.2-0.3,103,39,122,90.5c-16.6,17.8-42.6,23.4-65.9,27C1212.4,675,1208.2,675.7,1204.1,676.4z"/>
<path class="st18" d="M1220,718.7c1.9,13.9,3.9,27.9,5.8,41.8c-8.1,4.5-16.3,8.5-24.8,12.1c-2.7-6.4-5.5-12.9-8.2-19.3
	c-4.3-10.1-8.7-20.3-15.7-28.4c-7-8.1-17.3-14-27.6-12.6l-1,0.4c-1.4-3.8-2.9-7.5-4.6-11.2l1.4-0.7c23.2,1.7,47.6,3.1,68.4-7.6
	c0.9,2.1,1.7,4.3,2.4,6.5C1218.2,705.8,1219.1,712.2,1220,718.7z"/>
<path class="st21" d="M1204.1,676.4c4,6,7.1,10.8,9.7,16.8c-20.8,10.8-45.3,9.3-68.4,7.6l-1.4,0.7c-1.7-3.9-3.6-7.7-5.5-11.5
	l-0.1-0.3C1160.1,684.5,1182,680.1,1204.1,676.4z"/>
<path class="st19" d="M1192.8,753.4c2.8,6.4,5.5,12.9,8.2,19.3c-11.7,4.8-23.8,8-36.2,7.1c-1,0-1.9-0.3-2.7-0.9
	c-0.7-0.9-1-2-0.9-3.1c-1-21.6-5.3-42.9-12.7-63l1-0.4c10.3-1.3,20.6,4.5,27.6,12.6S1188.5,743.3,1192.8,753.4z"/>
<path class="st19" d="M1158.5,589.2c13.2,6.4,21.6,22.5,19.6,37.8c-2.7,19.7-19.7,33.2-36.1,42.8c-20.9,12.2-44.7,24.6-67.7,31.3
	c-6.3,0.2-12.7,0-19-0.5c-5.4-37.6,8.6-76.5,32-105.3c1.2-1.4,2.3-2.9,3.6-4.2l0,0c4.8-4,11-5.1,17.3-6c11.7-1.6,23.5-1.6,35.2,0.1
	C1148.5,585.7,1153.6,587.1,1158.5,589.2z M1140,639.5c6.3-8.3,2.9-22.2-5.8-27.6c-2.4-1.5-2.5-3.7-4.8-5.4c-3.2-2.4-3-0.8-6.6-2.6
	c-8.4-1.3-22.6,2.9-28.2,9.6l-6.2,7.4c-3.8,4.5-7.7,9.2-9.1,15c-1.5,6.1,0,12.7,3.8,17.5c4,4.8,9.9,7.1,15.8,6.4
	c3.3-0.6,6.5-1.7,9.6-3.2l18.8-8.5C1131.9,645.9,1136.8,643.7,1140,639.5z"/>
<path class="st17" d="M1134.1,611.9c8.7,5.4,12.2,19.3,5.8,27.6c-3.2,4.2-8,6.4-12.7,8.5l-18.8,8.5c-3,1.6-6.3,2.7-9.6,3.2
	c-5.9,0.7-11.8-1.7-15.8-6.4c-3.9-4.8-5.3-11.3-3.8-17.5c1.4-5.8,5.3-10.5,9.1-15l6.2-7.4c5.6-6.7,19.8-10.9,28.2-9.6
	c3.5,1.8,3.4,0.2,6.6,2.6C1131.6,608.3,1131.7,610.4,1134.1,611.9z"/>
</svg>
