<?xml version="1.0" encoding="utf-8"?>
<!-- Generator: Adobe Illustrator 24.0.1, SVG Export Plug-In . SVG Version: 6.00 Build 0)  -->
<svg version="1.1" id="Ebene_1" xmlns="http://www.w3.org/2000/svg" xmlns:xlink="http://www.w3.org/1999/xlink" x="0px" y="0px"
	 viewBox="0 0 297 210" style="enable-background:new 0 0 297 210;" xml:space="preserve">
<style type="text/css">
	.st0{fill:#76796B;}
	.st1{fill:#AEAEC5;}
	.st2{fill:#627CAA;}
	.st3{fill:#605F79;}
	.st4{fill:#505384;}
	.st5{fill:#56594E;}
	.st6{fill:#AF3045;}
	.st7{fill:none;stroke:#8E9282;stroke-linecap:round;stroke-linejoin:round;stroke-miterlimit:10;}
	.st8{fill:none;stroke:#96B5E0;stroke-linecap:round;stroke-linejoin:round;stroke-miterlimit:10;}
	.st9{fill:none;stroke:#D8D6ED;stroke-linecap:round;stroke-linejoin:round;stroke-miterlimit:10;}
	.st10{fill:none;stroke:#D35363;stroke-linecap:round;stroke-linejoin:round;stroke-miterlimit:10;}
</style>
<g id="XMLID_1_">
	<g id="XMLID_2_">
		<g>
			<path class="st0" d="M102.3,34.3c-2.5-2.5-5-5-6.5-7.9c-0.7-1.3-1.1-2.8-1.5-4.2c-1.3-4.4-2.5-8.8-3.5-13.2
				c0.7,0.4,1.4,0.7,2.2,0.8l0,0c11,4.1,22.9,6.8,35,8c3.6,0.3,7.1,0.6,10.7,0.9h0c1.3,0.1,2.5,0.2,3.8,0.4c0.6,0.1,1.2,0.1,1.9,0.2
				c5.6,0.8,11,2.1,16.6,3c0.9,0.1,1.7,0.3,2.6,0.4c0.9,0.1,1.7,0.3,2.6,0.4c5.8,0.8,11.7,1.2,17.6,1.6c1.6,0.1,3.2,0.2,4.8,0.3
				l0.4,0v0c-0.8-3.7-1.6-7.3-2.4-11c-0.2-0.8-0.4-1.7-1.1-2.2c0,0,0,0,0,0l0.1-0.1c13.5,6.9,26,15,37.2,24.1l-0.1,0.2
				c-3.2,3.8-8.6,5.8-13.4,8.2c-8.7,4.3-16.1,10.5-25.8,13.1h0l-0.1-0.3c0-1.5-0.1-3,0.5-4.4c0.4-1.1,1.2-2,1.8-3.1
				c0.9-1.7,1.2-3.7,0.8-5.5c-0.4,0.1-0.8,0.1-1.2,0.2c-13.7,2.2-27.7,3.5-41.6,4.8c-5,0.5-10,1-15,1.5c-3.5,0.4-7.1,0.7-10.6,1.1
				c-4.9,0.5-9.8,1-14.8,1.5c-4.7,0.5-9.6,1.1-13.2,3.5l-0.2,0c2.1-7.9,9.9-14.3,12.8-22.1l-0.7,0L102.3,34.3z"/>
			<path class="st1" d="M208.7,119.5c-1,2.5-2,5-3,7.5c-0.7,1.7-1.4,3.4-2.2,5c-2.9,5.4-7.8,10.2-13.9,13.6v0
				c-0.1,0-0.2,0.1-0.2,0.1c-2.2-4-5.1-7.7-8.6-11.1l-0.2-0.3c-0.2,0.1-0.5,0.1-0.7,0.2c-9.8,2.7-19.7,5.1-29.6,7.2
				c-23.6,5.1-48.6,8.6-72.3,4.1c1.8-2.1,4.6-3.6,6.3-5.7c0.9-1,1.5-2.2,2.1-3.3c1.4-2.6,2.8-5.2,4.2-7.8l-0.6-0.2l0.7,0
				c-0.1-0.7-0.5-1.3-0.8-1.9c-2.6-5-4-10.3-4.2-15.7c0-0.1,0-0.1,0-0.2c14.3,4.1,29.7,6.4,45.2,7.4c1.5,0.1,3,0.2,4.6,0.3
				c6.1,0.3,12.2,0.5,18.3,0.6c3.4,0,6.8,0,10.1,0c0.2,0,0.4,0,0.6,0c2.4,0,4.8-0.1,7.2-0.3c2.3-0.3,4.6-0.7,6.7-1.5l0.2-0.1
				c0.5-4.4-0.2-8.9-2.2-12.9c0,0,0-0.1,0-0.1v0c12.9,0,25.9,0,38.8,0v0.3C212.8,109.6,210.7,114.5,208.7,119.5z"/>
			<path class="st2" d="M213.2,71.5l0.4,0c-0.1,4.2-1.1,8.3-2.1,12.4c-0.2,1-0.5,2.1-0.8,3.1c-0.9,3.5-1.8,7-3.2,10.4
				c-2-1.3-4-2.5-6.2-3.6c1-3,2.2-5.9,3-8.9c1.6-6.1,1.3-12.4,4-18.3C210.1,68.1,211.7,69.8,213.2,71.5z"/>
			<path class="st3" d="M205.7,126.9c1-2.5,2-5,3-7.5c-1.6,10.6-8.5,19.7-16.3,27.2c-2.5,2.4-5.2,4.8-8.6,5.7l-0.1-0.3
				c2.2-2,4.2-4.2,5.9-6.6v0c6.1-3.4,11-8.1,13.9-13.6C204.3,130.3,205,128.6,205.7,126.9z"/>
			<path class="st4" d="M201.3,93.8C201.3,93.9,201.3,93.9,201.3,93.8l0,0.1c-31.1,1.6-62.1,4-92.9,7.2h-0.1L108,101
				c-13.8-7.7-26.3-16.6-37.2-26.7c8.9-2.8,17.8-5.6,26.8-8.4c3.9-1.2,7.9-2.5,11.5-4.2l0.3,0c8.6,1.9,17.4,2.1,26.4,2.1
				c2.4,0,4.9,0,7.3-0.1c1.6,0,3.2,0,4.8,0c0.6,0,1.2,0,1.8,0c5.3,0,10.6,0.1,15.9,0.3c14.2,0.5,28.3,1.5,42.4,2.6l0.2,0.1
				c0,0,0,0,0,0c-2.6,5.8-2.4,12.2-4,18.3C203.5,88,202.2,90.9,201.3,93.8z"/>
			<path class="st2" d="M201.2,93.9L201.2,93.9c0-0.1,0-0.1,0-0.1c2.1,1.1,4.2,2.3,6.2,3.6c0,0,0,0,0.1,0
				c-14.1,1.2-28.2,2.5-42.4,3.9c-4.2,0.4-8.4,0.8-12.6,1.2c-7.2,0.7-14.3,1.4-21.5,2.1c-6.9,0.7-13.8,1.3-20.8,2c-0.3-1-0.7-2-1-3
				c-0.2-0.4-0.3-0.9-0.5-1.3c-0.2-0.4-0.6-0.8-0.4-1.2h0.1C139.2,97.9,170.2,95.5,201.2,93.9z"/>
			<path class="st3" d="M189.3,145.7c0.1,0,0.2-0.1,0.2-0.1c-1.7,2.3-3.7,4.5-5.9,6.6l-0.2,0c-0.1-2.1-1.7-3.9-3.2-5.6
				c-1.5-1.6-3-3.3-4.6-4.9c1.4-2.2,2.8-4.4,4.3-6.6l-0.3-0.6c0.2-0.1,0.5-0.1,0.7-0.2l0.2,0.3C184.1,138,187.1,141.7,189.3,145.7z"
				/>
			<path class="st5" d="M188.9,24.9L188.9,24.9l-0.4,0.1c-1.6-0.1-3.2-0.2-4.8-0.3l0-0.2c0-1.7-1.1-3.3-1.6-5
				c-0.4-1.3-0.4-2.6-0.5-3.9l0,0c1.3-1.2,2.6-2.5,3.9-3.7c0.7,0.5,0.9,1.4,1.1,2.2C187.3,17.6,188.1,21.3,188.9,24.9z"/>
			<path class="st5" d="M186.4,44c0.4,1.8,0.2,3.7-0.8,5.5c-0.6,1-1.4,2-1.8,3.1c-0.6,1.4-0.6,2.9-0.5,4.4l0.1,0.3
				c-0.1,0-0.1,0-0.2,0.1l-0.2-0.1c-1.6,0.7-3.2,1.4-4.9,2.1l-0.1-0.1c0.4-2.5-0.7-5.3,0.8-7.6c0.6-1,1.6-1.8,2.1-2.8l0-0.2
				c0.1,0,0.1,0,0.2,0l0.1-0.2c1-0.5,1.8-1.4,2.4-2.2c0.5-0.6,1-1.2,1.6-1.7l-0.1-0.4C185.6,44.2,186,44.1,186.4,44z"/>
			<path class="st5" d="M185.2,44.2l0.1,0.4c-0.5,0.6-1,1.2-1.6,1.7c-0.7,0.8-1.4,1.6-2.4,2.2l-0.1,0.2c-0.1,0-0.1,0-0.2,0
				c-5.2,0.7-10.4,1.3-15.6,1.9c-5.2,0.6-10.4,1.2-15.6,1.7c-2.9,0.3-5.8,0.6-8.7,0.9c-1.7,0.2-3.4,0.3-5,0.5
				c-4.8,0.5-9.6,0.9-14.4,1.3c-12.5,1-25.3,1.9-37.1,5.4l-0.1-0.1v0c1.9-0.9,3.7-2.1,5.2-3.4l0.1-0.1c0,0,0-0.1,0-0.1l0.2,0
				c3.5-2.4,8.5-3,13.2-3.5c4.9-0.5,9.8-1,14.8-1.5c3.5-0.4,7.1-0.7,10.6-1.1c5-0.5,10-1,15-1.5C157.5,47.7,171.5,46.5,185.2,44.2z"
				/>
			<path class="st3" d="M175.7,141.7C175.7,141.8,175.7,141.8,175.7,141.7c-4,1.5-8.1,2.7-12.3,3.7c-3.2,0.8-6.4,1.5-9.5,2.2
				c0,0-0.1,0-0.1,0c-3.6,0.8-7.2,1.6-10.9,2.1c-4.3,0.6-8.7,0.7-13,1.2c-0.7,0.1-1.4,0.1-2,0.2c-5.4,0.7-10.7,1.9-16.1,2.3
				c-5.7,0.5-11.4,0.1-17-0.3c-8.4-0.6-16.8-1.4-24.8-3.4l0.3-0.6c0.1-0.1,0.2-0.3,0.4-0.4l1,0.5c2.3-1,4.4-2.1,6.3-3.4
				c23.8,4.5,48.7,0.9,72.3-4.1c10-2.1,19.9-4.6,29.6-7.2l0.3,0.6C178.5,137.3,177.1,139.5,175.7,141.7z"/>
			<path class="st3" d="M176,104.5c1.9,4.1,2.7,8.6,2.2,12.9l-0.2,0.1c-2.1,0.8-4.3,1.3-6.7,1.5l0-0.2c-0.1-2-0.5-3.9-1.3-5.8
				c-0.3-0.7-0.6-1.4-0.7-2.1l0.2-0.1c1.7-2.2,3.6-4.2,5.8-6.1L176,104.5z"/>
			<path class="st6" d="M154.6,16.4c0.2,0.3,0.8,0.4,1.2,0.3c0.4-0.2,0.6-0.6,0.8-0.9c0.4-0.9,0.7-1.7,0.8-2.7
				c0.1-0.9,0-1.9-0.5-2.7c-0.1-0.1-0.2-0.3-0.4-0.4c-0.2-0.1-0.4-0.1-0.6-0.1c-0.8,0-1.6,0.4-2,1c-0.4,0.6-0.5,1.3-0.5,1.9
				C153.4,14.1,153.9,15.3,154.6,16.4L154.6,16.4z M142.9,11.4l-3.7,0.1c-0.1-1.8-0.3-3.6-0.7-5.4c-0.4-1.6-0.8-3.2-0.6-4.9l0.3-0.2
				c5.2-0.5,10.5,0.4,15.7,0.6c1.6,0.1,3.3,0,4.9,0.1c2.1,0,4.1,0.2,6.2,0.4c0.2,0,0.5,0.1,0.7,0.2c0.1,0.1,0.2,0.3,0.2,0.5
				c1.9,6.5-0.2,13.3,0.1,19.9l-2.7,0.1c-0.9-0.1-1.7-0.3-2.6-0.4c-5.5-0.9-11-2.3-16.6-3c-0.6-0.1-1.2-0.2-1.9-0.2l0.1-0.3
				c0.5-2,0.6-4,0.4-6C143,12.3,142.9,11.9,142.9,11.4z"/>
			<path class="st6" d="M163.5,188.1c1.2,5.9,3.3,11.7,2.7,17.7l-0.2,0c-3.3,0.4-6.5,0.6-9.8,0.8l0-0.4c-2.4-5.7-1.3-12-0.2-17.9
				c1.1-6.1,2.1-12.2,2.1-18.3l3.7,0C161.8,176.1,162.2,182.1,163.5,188.1z"/>
			<path class="st6" d="M164.6,57.9c0.3,1.9,1.2,3.8,1.1,5.8l0,0.4c-5.3-0.2-10.6-0.3-15.9-0.3v-0.5c0-2.1-0.1-4.2,0-6.4
				c0-0.9,0.1-1.8,0.4-2.7l-0.3-1.8c5.2-0.5,10.4-1.1,15.6-1.7l0,0.2C164.8,53.2,164.2,55.5,164.6,57.9z"/>
			<path class="st6" d="M154.6,108.6L154.6,108.6c-0.3,1-0.5,1.9-0.5,2.9c0,0.8,0,1.6,0.6,2.3c0.6,0.7,1.8,1.1,2.6,0.6
				c0.6-0.3,0.9-0.9,1-1.5c0.2-0.9,0.1-1.8-0.3-2.6c-0.4-0.8-1.2-1.6-2.2-2c-0.2-0.1-0.4-0.2-0.6-0.1
				C154.9,108.2,154.7,108.4,154.6,108.6z M165.1,101.4l0,0.1c-1.3,5.7-1.9,11.5-1.6,17.3l0,0.6c-3.4,0-6.7,0-10.1,0v-0.6
				c0.2-1.1,0-2.3-0.7-3.3c-0.4-0.7-1.1-1.2-1.6-1.8c-1.4-1.7-1.7-4-0.8-5.9c0.8-1.7,2.6-3.2,2.3-5l-0.1-0.3
				C156.8,102.1,161,101.7,165.1,101.4z"/>
			<path class="st6" d="M163.4,145.5l0,0.1c-0.8,8.1-1.6,16.3-1.6,24.4l-3.7,0c0-4.5-0.6-8.9-2-13.2c-1-2.9-2.3-5.7-2.1-8.7
				l-0.2-0.5C157,146.9,160.2,146.2,163.4,145.5z"/>
			<path class="st6" d="M158,110.3c0.4,0.8,0.5,1.7,0.3,2.6c-0.1,0.6-0.4,1.2-1,1.5c-0.9,0.4-2.1,0.1-2.6-0.6
				c-0.6-0.7-0.6-1.5-0.6-2.3c0-1,0.2-2,0.6-2.9l-0.1,0c0.1-0.2,0.3-0.4,0.6-0.4c0.2,0,0.4,0,0.6,0.1
				C156.8,108.7,157.6,109.5,158,110.3z"/>
			<path class="st6" d="M156.8,10.4c0.5,0.8,0.6,1.8,0.5,2.7s-0.4,1.8-0.8,2.7c-0.1,0.4-0.3,0.8-0.8,0.9c-0.4,0.2-0.9,0-1.2-0.3l0,0
				c-0.8-1.1-1.2-2.3-1.3-3.5c0-0.7,0.1-1.3,0.5-1.9c0.4-0.6,1.2-1,2-1c0.2,0,0.4,0,0.6,0.1C156.6,10.1,156.7,10.3,156.8,10.4z"/>
			<path class="st6" d="M148.9,172.3L148.9,172.3c0.1,0.5,0.2,1,0.4,1.5c0.3,0.4,0.9,0.8,1.5,0.7s1.1-0.5,1.4-0.9
				c1.6-2.1,1.6-4.7,1.7-7.1c0-1.6,0-3.2-0.6-4.7c-0.2-0.6-0.7-1.2-1.4-1.1c-0.3,0-0.6,0.2-0.8,0.4c-1,0.7-1.9,1.6-2.2,2.7
				c-0.1,0.5-0.1,1.1-0.1,1.6C148.8,167.7,148.9,170,148.9,172.3z M156.1,156.8c1.5,4.3,2,8.7,2,13.2c0,6.1-1,12.3-2.1,18.3
				c-1.1,6-2.3,12.2,0.2,17.9l0,0.4c-5.4,0.3-10.9,0.4-16.3,0.3l0-0.6c-1.4-2.1-2.5-4.3-3.1-6.7c-1.4-5.5,0.2-11.3-1-16.8
				c-0.8-3.9-3-7.7-2.6-11.7c0.2-2.3,1.3-4.4,2.1-6.5c0.9-2.3,1.4-4.7,1.8-7c0.2-1.4-0.1-3.1-1.8-3.5c-1.6-0.4-3,1-3.2,2.3l-2.9-0.2
				c0.2-1.7,0.3-3.5,0.5-5.2l0-0.1c4.3-0.4,8.7-0.6,13-1.2c3.7-0.5,7.3-1.3,10.9-2.1c0,0,0.1,0,0.1,0l0.2,0.5
				C153.8,151.1,155.1,153.9,156.1,156.8z"/>
			<path class="st6" d="M154,166.5c0,2.4-0.1,5-1.7,7.1c-0.3,0.4-0.8,0.9-1.4,0.9c-0.6,0.1-1.2-0.3-1.5-0.7c-0.3-0.4-0.3-1-0.4-1.5
				h-0.1c-0.1-2.3-0.1-4.6-0.1-7c0-0.5,0-1.1,0.1-1.6c0.3-1.1,1.2-1.9,2.2-2.7c0.2-0.2,0.5-0.3,0.8-0.4c0.7-0.1,1.2,0.6,1.4,1.1
				C154,163.3,154,164.9,154,166.5z"/>
			<path class="st6" d="M152.7,115.5c0.7,1,0.9,2.1,0.7,3.3v0.6c-6.1-0.1-12.2-0.2-18.3-0.6l0-0.4c-0.4-1.4-0.6-2.9-0.3-4.3
				c0.2-1.2,0.6-2.3,0.7-3.5c0.1-1.2-0.1-2.5-1.1-3.4c-0.2-0.2-0.6-0.5-1-0.3l-2.4,0c0-0.7,0-1.5,0-2.2l0-0.1
				c7.2-0.7,14.4-1.4,21.5-2.1l0.1,0.3c0.3,1.8-1.5,3.3-2.3,5c-0.9,1.9-0.6,4.1,0.8,5.9C151.6,114.3,152.2,114.9,152.7,115.5z"/>
			<path class="st6" d="M143,61.3c-0.5,0-1-0.3-1.3-0.6c-0.3-0.3-0.6-0.6-0.8-0.9c-0.2-0.4-0.1-0.8-0.1-1.2c0.1-1.6,0.2-3.3,0.3-4.9
				l-0.1-0.4c2.9-0.3,5.8-0.6,8.7-0.9l0.3,1.8c-0.3,0.9-0.4,1.8-0.4,2.7c-0.1,2.1-0.1,4.2,0,6.4v0.5c-0.6,0-1.2,0-1.8,0
				c-1.6,0-3.2,0-4.8,0L143,61.3z"/>
			<path class="st6" d="M143,12.8c0.2,2,0,4-0.4,6l-0.1,0.3c-1.2-0.1-2.5-0.3-3.8-0.4l0.2-1.8c0.2-1.8,0.3-3.6,0.2-5.4l3.7-0.1
				C142.9,11.9,143,12.3,143,12.8z"/>
			<path class="st6" d="M143,61.3l0,2.4c-2.4,0-4.9,0.1-7.3,0.1v-0.1c0.5-3.3,0.6-6.6,0.3-9.8l0-0.1c1.7-0.1,3.4-0.3,5-0.5l0.1,0.4
				c-0.1,1.6-0.2,3.3-0.3,4.9c0,0.4-0.1,0.8,0.1,1.2c0.1,0.3,0.4,0.7,0.8,0.9C142.1,61,142.5,61.3,143,61.3z"/>
			<path class="st6" d="M132.1,156.4c0.2-1.3,1.6-2.7,3.2-2.3c1.7,0.4,1.9,2.1,1.8,3.5c-0.3,2.4-0.9,4.8-1.8,7
				c-0.8,2.2-1.9,4.3-2.1,6.5c-0.4,4,1.8,7.7,2.6,11.7c1.2,5.6-0.4,11.3,1,16.8c0.6,2.4,1.7,4.6,3.1,6.7l0,0.6
				c-3.7-0.1-7.4-0.3-11.2-0.6h-0.1c-1.2-16.7-1-33.5,0.6-50.2L132.1,156.4z"/>
			<path class="st6" d="M134.5,107.2c0.9,0.9,1.2,2.2,1.1,3.4c-0.1,1.2-0.5,2.3-0.7,3.5c-0.2,1.4-0.1,2.9,0.3,4.3l0,0.4
				c-1.5-0.1-3-0.2-4.6-0.3l0-0.3c0.4-3.8,0.5-7.6,0.5-11.3l2.4,0C133.8,106.7,134.2,106.9,134.5,107.2z"/>
			<path class="st2" d="M109.2,103.6c0.3,1,0.7,2,1,3c-8.2-4.5-16.5-9.1-23.6-14.7c-1.7-1.3-3.3-2.7-4.9-4.1c-2.9-2.5-5.7-5-8.6-7.4
				l0.1-0.1c-0.7-1.5-1.3-2.9-2-4.4c-0.2-0.5-0.5-1.1-0.6-1.6l0.2-0.1C81.7,84.3,94.3,93.3,108,101l0.2,0.1
				c-0.1,0.4,0.2,0.8,0.4,1.2C108.9,102.7,109.1,103.2,109.2,103.6z"/>
			<path class="st5" d="M102,34.5l0.7,0c-3,7.8-10.7,14.2-12.8,22.1c0,0,0,0.1,0,0.1l-0.1,0.1c-1.5,1.3-3.3,2.4-5.2,3.4l-0.1-0.1
				c-0.4-2.3-0.1-4.7,0.8-7c0.7-1.6,1.7-3.2,2.7-4.7c3-4.4,6.3-8.8,9.9-12.9l0.2-0.1c0,0,0,0,0.1,0.1l0.4,0
				C99.6,35.1,100.8,34.8,102,34.5z"/>
			<path class="st5" d="M102.3,34.3l-0.3,0.2c-1.2,0.3-2.4,0.7-3.6,1l-0.4,0c0,0-0.1,0-0.1-0.1c-3.3-2.9-6.5-5.9-8.5-9.5
				c-2.7-4.8-2.9-10.2-2.9-15.5l0.5,0c1-0.7,2-1.3,3-2L90.9,9c1.1,4.4,2.2,8.8,3.5,13.2c0.4,1.4,0.8,2.8,1.5,4.2
				C97.3,29.3,99.9,31.8,102.3,34.3z"/>
			<path class="st3" d="M90.4,128.8l-0.7,0c-2.4,1-4.6,2.3-6.7,3.7l-0.1-0.1c-1-5-2.1-9.9-3.1-14.9l0-0.2c0.4-0.2,0.6-0.6,0.8-1
				c0.2-0.3,0.4-0.5,0.6-0.8c1.2-1.4,2.5-2.9,3.7-4.3l0.4,0c0.2,5.4,1.6,10.7,4.2,15.7C89.9,127.5,90.2,128.1,90.4,128.8z"/>
			<path class="st3" d="M90.3,129c-1.4,2.6-2.8,5.2-4.2,7.8c-0.6,1.1-1.2,2.3-2.1,3.3c-1.8,2.1-4.6,3.6-6.3,5.7
				c-1.9,1.3-4.1,2.4-6.3,3.4l-1-0.5c4.4-5.2,8.8-10.4,12.4-16l0.2-0.2c0,0,0,0,0.1,0c2-1.4,4.3-2.7,6.7-3.7L90.3,129z"/>
		</g>
		<g>
			<path class="st7" d="M188.9,25.1c0-0.1,0-0.1,0-0.1v0c-0.8-3.7-1.6-7.3-2.4-11c-0.2-0.8-0.4-1.7-1.1-2.2
				c-0.1-0.1-0.1-0.1-0.2-0.2"/>
			<path class="st7" d="M186.4,44c0.4,1.8,0.2,3.7-0.8,5.5c-0.6,1-1.4,2-1.8,3.1c-0.6,1.4-0.6,2.9-0.5,4.4"/>
			<path class="st7" d="M185.3,11.5C185.3,11.5,185.3,11.5,185.3,11.5c0.1,0.1,0.2,0.1,0.3,0.1c13.5,6.9,26,15,37.2,24.1"/>
			<path class="st7" d="M183.3,57.3c0.1,0,0.1,0,0.2-0.1h0c9.7-2.6,17.1-8.8,25.8-13.1c4.8-2.4,10.3-4.4,13.4-8.2"/>
			<path class="st7" d="M102.5,34.4c0,0-0.1-0.1-0.1-0.1c-2.5-2.5-5-5-6.5-7.9c-0.7-1.3-1.1-2.8-1.5-4.2c-1.3-4.4-2.5-8.8-3.5-13.2
				c0.7,0.4,1.4,0.7,2.2,0.8"/>
			<path class="st7" d="M102.7,34.5c-3,7.8-10.7,14.2-12.8,22.1c0,0,0,0.1,0,0.1"/>
			<path class="st7" d="M90.1,56.7c3.5-2.4,8.5-3,13.2-3.5c4.9-0.5,9.8-1,14.8-1.5c3.5-0.4,7.1-0.7,10.6-1.1c5-0.5,10-1,15-1.5
				c13.9-1.4,27.9-2.6,41.6-4.8c0.4-0.1,0.8-0.1,1.2-0.2"/>
			<path class="st8" d="M70.8,74.2c8.9-2.8,17.8-5.6,26.8-8.4c3.9-1.2,7.9-2.5,11.5-4.2"/>
			<path class="st8" d="M70.8,74.2C81.7,84.3,94.3,93.3,108,101"/>
			<path class="st8" d="M108.3,101.1c30.9-3.2,61.9-5.6,92.9-7.2c0,0,0,0,0.1,0"/>
			<path class="st8" d="M208.2,66.6C208.2,66.7,208.2,66.7,208.2,66.6c-2.6,5.9-2.4,12.2-4,18.3c-0.8,3-2,5.9-3,8.9c0,0,0,0.1,0,0.1
				"/>
			<path class="st9" d="M178.2,117.4c0.5-4.4-0.2-8.9-2.2-12.9c0,0,0-0.1,0-0.1"/>
			<path class="st9" d="M175.9,104.3C175.9,104.3,175.9,104.3,175.9,104.3c13,0,25.9,0,38.8,0c0.1,0,0.1,0,0.2,0"/>
			<path class="st9" d="M189.5,145.6c6.1-3.4,11-8.1,13.9-13.6c0.9-1.6,1.6-3.3,2.2-5c1-2.5,2-5,3-7.5c2-5,4-9.9,6-14.9"/>
			<path class="st9" d="M189.3,145.7c0.1,0,0.2-0.1,0.2-0.1"/>
			<path class="st9" d="M189.3,145.7c-2.2-4-5.1-7.7-8.6-11.1"/>
			<path class="st9" d="M77.8,145.8c1.8-2.1,4.6-3.6,6.3-5.7c0.9-1,1.5-2.2,2.1-3.3c1.4-2.6,2.8-5.2,4.2-7.8c0-0.1,0.1-0.1,0.1-0.2"
				/>
			<path class="st9" d="M90.4,128.8c-0.1-0.7-0.5-1.3-0.8-1.9c-2.6-5-4-10.3-4.2-15.7c0-0.1,0-0.1,0-0.2"/>
			<path class="st10" d="M138,1.2c-0.3,1.6,0.2,3.3,0.6,4.9c0.4,1.8,0.6,3.6,0.7,5.4s0,3.6-0.2,5.4c-0.1,0.5-0.1,0.9-0.2,1.4"/>
			<path class="st10" d="M138.3,1c5.2-0.5,10.5,0.4,15.7,0.6c1.6,0.1,3.3,0,4.9,0.1c2.1,0,4.1,0.2,6.2,0.4c0.2,0,0.5,0.1,0.7,0.2
				c0.1,0.1,0.2,0.3,0.2,0.5c1.9,6.5-0.2,13.3,0.1,19.9"/>
			<path class="st10" d="M136.1,53.8c0.3,3.3,0.2,6.6-0.3,9.8"/>
			<path class="st10" d="M165.4,50.8c-0.6,2.3-1.2,4.7-0.8,7c0.3,1.9,1.2,3.8,1.1,5.8"/>
			<path class="st10" d="M165.2,101.5c-1.3,5.7-1.9,11.5-1.6,17.3"/>
			<path class="st10" d="M131,104.7c0,0.7,0,1.5,0,2.2c0,3.8-0.1,7.5-0.5,11.3"/>
			<path class="st10" d="M163.4,145.6c-0.8,8.1-1.6,16.3-1.6,24.4c0,6.1,0.4,12.2,1.7,18.2c1.2,5.9,3.3,11.7,2.7,17.7"/>
			<path class="st10" d="M129.8,151c-0.2,1.7-0.4,3.5-0.5,5.2c-1.6,16.7-1.8,33.5-0.6,50.2c0,0,0,0,0,0"/>
			<path class="st10" d="M128.8,206.4c3.7,0.3,7.4,0.5,11.2,0.6c5.4,0.1,10.9,0,16.3-0.3c3.3-0.2,6.5-0.5,9.8-0.8"/>
			<path class="st9" d="M180.4,134.3c-0.2,0.1-0.5,0.1-0.7,0.2c-9.8,2.7-19.7,5.1-29.6,7.2c-23.6,5.1-48.6,8.6-72.3,4.1"/>
			<path class="st7" d="M102,34.5c-1.2,0.3-2.4,0.7-3.6,1"/>
			<path class="st7" d="M90,8.5c-1,0.7-2,1.3-3,2"/>
			<path class="st7" d="M98.1,35.5C98,35.5,98,35.5,98.1,35.5c-3.3-3-6.6-6-8.6-9.5c-2.7-4.8-2.9-10.2-2.9-15.5c0-0.1,0-0.1,0-0.2"
				/>
			<path class="st7" d="M89.7,56.9c-1.5,1.3-3.3,2.4-5.2,3.4v0c0,0,0,0,0,0"/>
			<path class="st7" d="M84.4,60.2c-0.4-2.3-0.1-4.7,0.8-7c0.7-1.6,1.7-3.2,2.7-4.7c3-4.4,6.3-8.8,9.9-12.9"/>
			<path class="st7" d="M185.3,44.7c-0.5,0.6-1,1.2-1.6,1.7c-0.7,0.8-1.4,1.6-2.4,2.2"/>
			<path class="st7" d="M183.1,57.3c-1.6,0.7-3.2,1.4-4.9,2.1"/>
			<path class="st7" d="M178.2,59.4c0.4-2.5-0.7-5.3,0.8-7.6c0.6-1,1.6-1.8,2.1-2.8"/>
			<path class="st7" d="M185.4,11.7C185.4,11.7,185.4,11.7,185.4,11.7c-1.3,1.3-2.6,2.5-3.9,3.7l0,0"/>
			<path class="st7" d="M181.6,15.5c0.1,1.3,0.1,2.7,0.5,3.9c0.5,1.7,1.6,3.3,1.6,5"/>
			<path class="st8" d="M208.2,66.7c1.9,1.5,3.5,3.1,4.9,4.8"/>
			<path class="st8" d="M201.2,93.8C201.2,93.8,201.2,93.8,201.2,93.8c2.2,1.1,4.2,2.4,6.2,3.7c0,0,0,0,0.1,0"/>
			<path class="st8" d="M207.5,97.5c1.4-3.4,2.3-6.9,3.2-10.4c0.2-1,0.5-2.1,0.8-3.1c1-4.1,2.1-8.2,2.1-12.4c0-0.1,0-0.2,0-0.3"/>
			<path class="st8" d="M70.7,74.4c0.1,0.6,0.4,1.1,0.6,1.6c0.7,1.5,1.4,2.9,2,4.4"/>
			<path class="st8" d="M108.2,101.1c-0.1,0.4,0.2,0.8,0.4,1.2c0.2,0.4,0.4,0.8,0.5,1.3c0.3,1,0.7,2,1,3"/>
			<path class="st8" d="M73.2,80.4C73.2,80.4,73.2,80.4,73.2,80.4c2.9,2.5,5.8,5,8.6,7.4c1.6,1.4,3.2,2.8,4.9,4.1
				c7.1,5.6,15.3,10.1,23.6,14.7"/>
			<path class="st9" d="M85,111.3c-1.2,1.4-2.5,2.9-3.7,4.3c-0.2,0.3-0.4,0.5-0.6,0.8c-0.2,0.3-0.4,0.7-0.8,1"/>
			<path class="st9" d="M89.7,128.8c-2.4,1-4.6,2.3-6.7,3.7c0,0,0,0-0.1,0"/>
			<path class="st9" d="M83,132.4c-1-5-2.1-9.9-3.1-14.9"/>
			<path class="st9" d="M77.8,145.8c-1.9,1.3-4.1,2.4-6.3,3.4"/>
			<path class="st9" d="M82.9,132.8c-3.7,5.5-8.1,10.8-12.4,16c-0.1,0.1-0.2,0.3-0.4,0.4"/>
			<path class="st9" d="M179.9,135.1c-1.4,2.2-2.8,4.4-4.3,6.6c0,0,0,0,0,0.1"/>
			<path class="st9" d="M183.5,152.2L183.5,152.2c-0.1-2.1-1.7-3.9-3.2-5.6c-1.5-1.6-3-3.3-4.6-4.9c0,0,0-0.1-0.1-0.1"/>
			<path class="st9" d="M175.2,104.7c-2.2,1.9-4.1,3.9-5.8,6.1"/>
			<path class="st9" d="M169.3,110.9c0.1,0.7,0.4,1.4,0.7,2.1c0.8,1.9,1.2,3.8,1.3,5.8"/>
			<path class="st9" d="M183.6,152.5c0.1,0,0.1,0,0.2-0.1c3.4-1,6.1-3.3,8.6-5.7c7.8-7.5,14.7-16.6,16.3-27.2c0,0,0-0.1,0-0.1"/>
			<path class="st9" d="M183.7,152.2c2.2-2,4.2-4.2,5.9-6.6v0"/>
			<path class="st10" d="M142.6,18.8c0.5-2,0.6-4,0.4-6c0-0.5-0.1-0.9-0.1-1.4c0-0.2,0-0.5,0.1-0.7c0.2-1.5,1.4-2.9,1.6-4.4"/>
			<path class="st10" d="M149.6,1.4c-0.1,1.6,0.6,3.3,0.4,4.9c-0.1,1.4-0.8,2.6-1,4c-0.1,0.6-0.2,1.2-0.2,1.7
				c-0.1,1.4-0.2,2.8-0.2,4.2"/>
			<path class="st10" d="M154.7,16.4c-0.8-1.1-1.2-2.3-1.3-3.5c0-0.7,0.1-1.3,0.5-1.9c0.4-0.6,1.2-1,2-1c0.2,0,0.4,0,0.6,0.1
				c0.2,0.1,0.2,0.2,0.4,0.4c0.5,0.8,0.6,1.8,0.5,2.7s-0.4,1.8-0.8,2.7c-0.1,0.4-0.3,0.8-0.8,0.9C155.4,16.8,154.8,16.7,154.7,16.4
				C154.6,16.4,154.6,16.4,154.7,16.4"/>
			<path class="st10" d="M156.6,4.8c-0.1,0.9,0,1.7,0.4,2.5c0.6,1.1,1.6,1.9,2.2,3c0.4,0.7,0.5,1.5,0.5,2.3c0,1.6-0.4,3.3-1.2,4.7
				c-0.7,1.2-1.7,2.5-1.6,3.8"/>
			<path class="st10" d="M162.8,22.1c0-1.4,0.1-2.9,0.3-4.3"/>
			<path class="st10" d="M141.2,53.6c-0.1,1.6-0.2,3.3-0.3,4.9c0,0.4-0.1,0.8,0.1,1.2c0.1,0.3,0.4,0.7,0.8,0.9
				c0.4,0.3,0.8,0.6,1.3,0.6c0.1,0,0.1,0,0.1,0c0.5,0,0.9-0.4,1.2-0.7c0.4-0.6,0.7-1.2,0.7-1.9c0-0.4-0.2-0.9-0.6-1
				c-0.5-0.1-1,0.3-1.3,0.6"/>
			<path class="st10" d="M149.7,63.2c0-2.1-0.1-4.2,0-6.4c0-0.9,0.1-1.8,0.4-2.7"/>
			<path class="st10" d="M156.6,54c0.1,0.9-0.1,1.9-0.1,2.8c0,0.9,0.1,1.9,0.6,2.7c0.4,0.6,1.1,1.1,1.8,1c0.4,0,0.7-0.2,1-0.3
				c0.4-0.1,0.8-0.1,1,0.1"/>
			<path class="st10" d="M154.7,108.6c-0.4,0.9-0.6,1.9-0.6,2.9c0,0.8,0,1.6,0.6,2.3c0.6,0.7,1.8,1.1,2.6,0.6c0.6-0.3,0.9-0.9,1-1.5
				c0.2-0.9,0.1-1.8-0.3-2.6c-0.4-0.8-1.2-1.6-2.2-2c-0.2-0.1-0.4-0.2-0.6-0.1C154.9,108.2,154.7,108.4,154.7,108.6
				c-0.1,0-0.1,0.1-0.2,0.1"/>
			<path class="st10" d="M153.4,118.8c0.2-1.1,0-2.3-0.7-3.3c-0.4-0.7-1.1-1.2-1.6-1.8c-1.4-1.7-1.7-4-0.8-5.9
				c0.8-1.7,2.6-3.2,2.3-5"/>
			<path class="st10" d="M141.1,104c0.1,1.3-0.8,2.5-1.4,3.7c-0.6,1-1,2.1-1.2,3.2c-0.2,1-0.4,2.1,0.2,3c0.6,0.9,2,1.5,3.2,1.1
				c0.6-0.3,1-0.8,1.2-1.3c0.2-0.6,0.2-1.3-0.3-1.7c-0.5-0.4-1.7-0.4-1.9,0.2"/>
			<path class="st10" d="M135.1,118.4c-0.4-1.4-0.6-2.9-0.3-4.3c0.2-1.2,0.6-2.3,0.7-3.5c0.1-1.2-0.1-2.5-1.1-3.4
				c-0.2-0.2-0.6-0.5-1-0.3"/>
			<path class="st10" d="M145.6,149.6c-0.5,3.8-2.2,7.4-3.4,11.2c-1.3,4.1-2,8.3-1.9,12.5c0,2.9,0.4,5.8,2.2,8.3
				c1.1,1.5,3.1,2.9,5.2,2.4c1.6-0.4,2.5-1.9,2.7-3.2c0.1-0.9-0.3-2.1-1.5-2.3c-1.3-0.2-2.1,1.1-2.4,2.1c-0.1,0.3,0.2,0.8,0.5,0.6"
				/>
			<path class="st10" d="M139.9,206.3c-1.4-2.1-2.5-4.3-3.1-6.7c-1.4-5.5,0.2-11.3-1-16.8c-0.8-3.9-3-7.7-2.6-11.7
				c0.2-2.3,1.3-4.4,2.1-6.5c0.9-2.3,1.4-4.7,1.8-7c0.2-1.4-0.1-3.1-1.8-3.5c-1.6-0.4-3,1-3.2,2.3c-0.1,0.6,0.1,1.2,0.7,1.5
				c0.6,0.3,1.6-0.3,1.2-0.8"/>
			<path class="st10" d="M148.9,172.8c0-0.2,0-0.3,0-0.5c-0.1-2.3-0.1-4.6-0.1-7c0-0.5,0-1.1,0.1-1.6c0.3-1.1,1.2-1.9,2.2-2.7
				c0.2-0.2,0.5-0.3,0.8-0.4c0.7-0.1,1.2,0.6,1.4,1.1c0.6,1.5,0.6,3.1,0.6,4.7c0,2.4-0.1,5-1.7,7.1c-0.3,0.4-0.8,0.9-1.4,0.9
				c-0.6,0.1-1.2-0.3-1.5-0.7c-0.3-0.4-0.3-1-0.4-1.5"/>
			<path class="st10" d="M154,148.1c-0.3,2.9,1.1,5.8,2.1,8.7c1.5,4.3,2,8.7,2,13.2c0,6.1-1,12.3-2.1,18.3c-1.1,6-2.3,12.2,0.2,17.9
				"/>
			<path class="st10" d="M149.6,206.5c-1.2-1.5-2.1-3.2-2.5-5c-1-3.9,0-7.9-0.9-11.8"/>
			<path class="st7" d="M93,9.9c11,4.1,22.9,6.8,35,8c3.6,0.3,7.1,0.6,10.7,0.9h0c1.3,0.1,2.5,0.2,3.8,0.4c0.6,0.1,1.2,0.1,1.9,0.2
				c5.6,0.8,11,2.1,16.6,3c0.9,0.1,1.7,0.3,2.6,0.4c0.9,0.1,1.7,0.3,2.6,0.4c5.8,0.8,11.7,1.2,17.6,1.6c1.6,0.1,3.2,0.2,4.8,0.3"/>
			<path class="st8" d="M110.2,106.6c6.9-0.7,13.8-1.4,20.8-2c7.2-0.7,14.4-1.4,21.5-2.1c4.2-0.4,8.4-0.8,12.6-1.2
				c14.1-1.3,28.2-2.6,42.4-3.9"/>
			<path class="st8" d="M109.4,61.7c8.6,1.9,17.5,2.1,26.4,2.1c2.4,0,4.9,0,7.3-0.1c1.6,0,3.2,0,4.8,0c0.6,0,1.2,0,1.8,0
				c5.3,0,10.6,0.1,15.9,0.3c14.2,0.5,28.3,1.5,42.4,2.6"/>
			<path class="st7" d="M84.6,60.3c11.8-3.5,24.5-4.4,37.1-5.4c4.8-0.4,9.6-0.8,14.4-1.3c1.7-0.1,3.4-0.3,5-0.5
				c2.9-0.3,5.8-0.6,8.7-0.9c5.2-0.5,10.4-1.1,15.6-1.7c5.2-0.6,10.4-1.2,15.6-1.9c0.1,0,0.1,0,0.2,0"/>
			<path class="st9" d="M85.4,111.1c14.3,4.1,29.7,6.4,45.2,7.4c1.5,0.1,3,0.2,4.6,0.3c6.1,0.3,12.2,0.5,18.3,0.6
				c3.4,0,6.8,0,10.1,0c0.2,0,0.4,0,0.6,0c2.4,0,4.8-0.1,7.2-0.3c2.3-0.3,4.6-0.7,6.7-1.5"/>
			<path class="st9" d="M175.6,141.8c-3.9,1.5-8.1,2.6-12.3,3.7c-3.2,0.8-6.4,1.5-9.5,2.2c0,0-0.1,0-0.1,0
				c-3.6,0.8-7.2,1.6-10.9,2.1c-4.3,0.6-8.7,0.7-13,1.2c-0.7,0.1-1.4,0.1-2,0.2c-5.4,0.7-10.7,1.9-16.1,2.3
				c-5.7,0.5-11.4,0.1-17-0.3c-8.4-0.6-16.8-1.4-24.8-3.4"/>
		</g>
	</g>
</g>
</svg>
